<?xml version="1.0" encoding="UTF-8"?>
<svg xmlns="http://www.w3.org/2000/svg" xmlns:xlink="http://www.w3.org/1999/xlink" width="56.693" height="56.693" viewBox="0 0 56.693 56.693">
<defs>
<clipPath id="clip-0">
<path clip-rule="nonzero" d="M 0 0 L 56.386719 0 L 56.386719 48 L 0 48 Z M 0 0 "/>
</clipPath>
<clipPath id="clip-1">
<path clip-rule="nonzero" d="M 0 8 L 56.386719 8 L 56.386719 56.386719 L 0 56.386719 Z M 0 8 "/>
</clipPath>
<clipPath id="clip-2">
<path clip-rule="nonzero" d="M 0 0 L 46 0 L 46 56.386719 L 0 56.386719 Z M 0 0 "/>
</clipPath>
<clipPath id="clip-3">
<path clip-rule="nonzero" d="M 10 0 L 56.386719 0 L 56.386719 56.386719 L 10 56.386719 Z M 10 0 "/>
</clipPath>
<clipPath id="clip-4">
<path clip-rule="nonzero" d="M 1 11 L 50 11 L 50 56.386719 L 1 56.386719 Z M 1 11 "/>
</clipPath>
</defs>
<path fill="none" stroke-width="3.4016" stroke-linecap="round" stroke-linejoin="round" stroke="rgb(0%, 0%, 0%)" stroke-opacity="1" stroke-miterlimit="10" d="M -25.510415 -18.424441 L -25.510415 18.42638 C -25.510415 22.338074 -22.341001 25.511415 -18.42538 25.511415 L 18.425441 25.511415 C 22.341061 25.511415 25.510475 22.338074 25.510475 18.42638 L 25.510475 -18.424441 C 25.510475 -22.340061 22.341061 -25.513403 18.425441 -25.513403 L -18.42538 -25.513403 C -22.341001 -25.513403 -25.510415 -22.340061 -25.510415 -18.424441 Z M -25.510415 -18.424441 " transform="matrix(0.994614, 0, 0, -0.994614, 28.193329, 28.194324)"/>
<path fill-rule="nonzero" fill="rgb(27.450562%, 54.902649%, 100%)" fill-opacity="1" stroke-width="1.55907" stroke-linecap="round" stroke-linejoin="round" stroke="rgb(0%, 0%, 0%)" stroke-opacity="1" stroke-miterlimit="10" d="M -8.771824 10.771872 C -8.771824 12.971218 -10.554865 14.758186 -12.754211 14.758186 C -14.957484 14.758186 -16.740525 12.971218 -16.740525 10.771872 C -16.740525 8.572527 -14.957484 6.785558 -12.754211 6.785558 C -10.554865 6.785558 -8.771824 8.572527 -8.771824 10.771872 Z M -8.771824 10.771872 " transform="matrix(0.994614, 0, 0, -0.994614, 28.193329, 28.194324)"/>
<path fill-rule="nonzero" fill="rgb(27.450562%, 54.902649%, 100%)" fill-opacity="1" stroke-width="1.55907" stroke-linecap="round" stroke-linejoin="round" stroke="rgb(0%, 0%, 0%)" stroke-opacity="1" stroke-miterlimit="10" d="M 16.740585 10.771872 C 16.740585 12.971218 14.957544 14.758186 12.754271 14.758186 C 10.554925 14.758186 8.771884 12.971218 8.771884 10.771872 C 8.771884 8.572527 10.554925 6.785558 12.754271 6.785558 C 14.957544 6.785558 16.740585 8.572527 16.740585 10.771872 Z M 16.740585 10.771872 " transform="matrix(0.994614, 0, 0, -0.994614, 28.193329, 28.194324)"/>
<path fill-rule="nonzero" fill="rgb(27.450562%, 54.902649%, 100%)" fill-opacity="1" stroke-width="1.55907" stroke-linecap="round" stroke-linejoin="round" stroke="rgb(0%, 0%, 0%)" stroke-opacity="1" stroke-miterlimit="10" d="M -8.771824 -10.77386 C -8.771824 -8.570587 -10.554865 -6.787546 -12.754211 -6.787546 C -14.957484 -6.787546 -16.740525 -8.570587 -16.740525 -10.77386 C -16.740525 -12.973205 -14.957484 -14.756246 -12.754211 -14.756246 C -10.554865 -14.756246 -8.771824 -12.973205 -8.771824 -10.77386 Z M -8.771824 -10.77386 " transform="matrix(0.994614, 0, 0, -0.994614, 28.193329, 28.194324)"/>
<path fill-rule="nonzero" fill="rgb(27.450562%, 54.902649%, 100%)" fill-opacity="1" stroke-width="1.55907" stroke-linecap="round" stroke-linejoin="round" stroke="rgb(0%, 0%, 0%)" stroke-opacity="1" stroke-miterlimit="10" d="M 16.740585 -10.77386 C 16.740585 -8.570587 14.957544 -6.787546 12.754271 -6.787546 C 10.554925 -6.787546 8.771884 -8.570587 8.771884 -10.77386 C 8.771884 -12.973205 10.554925 -14.756246 12.754271 -14.756246 C 14.957544 -14.756246 16.740585 -12.973205 16.740585 -10.77386 Z M 16.740585 -10.77386 " transform="matrix(0.994614, 0, 0, -0.994614, 28.193329, 28.194324)"/>
<path fill="none" stroke-width="1.98427" stroke-linecap="round" stroke-linejoin="round" stroke="rgb(0%, 0%, 0%)" stroke-opacity="1" stroke-miterlimit="10" d="M -7.990271 10.771872 L 0.76391 10.771872 " transform="matrix(0.994614, 0, 0, -0.994614, 28.193329, 28.194324)"/>
<path fill-rule="nonzero" fill="rgb(0%, 0%, 0%)" fill-opacity="1" d="M 33.332031 17.480469 L 27.476562 15.25 L 29.445312 17.480469 L 27.476562 19.710938 Z M 33.332031 17.480469 "/>
<g clip-path="url(#clip-0)">
<path fill="none" stroke-width="1.98427" stroke-linecap="round" stroke-linejoin="miter" stroke="rgb(0%, 0%, 0%)" stroke-opacity="1" stroke-miterlimit="10" d="M 9.093229 -0.0000377715 L 3.206052 2.242509 L 5.185463 -0.0000377715 L 3.206052 -2.242585 Z M 9.093229 -0.0000377715 " transform="matrix(0.994614, 0, 0, -0.994614, 24.287779, 17.480431)"/>
</g>
<path fill="none" stroke-width="1.98427" stroke-linecap="round" stroke-linejoin="round" stroke="rgb(0%, 0%, 0%)" stroke-opacity="1" stroke-miterlimit="10" d="M -7.990271 -10.77386 L 0.76391 -10.77386 " transform="matrix(0.994614, 0, 0, -0.994614, 28.193329, 28.194324)"/>
<path fill-rule="nonzero" fill="rgb(0%, 0%, 0%)" fill-opacity="1" d="M 33.332031 38.910156 L 27.476562 36.679688 L 29.445312 38.910156 L 27.476562 41.136719 Z M 33.332031 38.910156 "/>
<g clip-path="url(#clip-1)">
<path fill="none" stroke-width="1.98427" stroke-linecap="round" stroke-linejoin="miter" stroke="rgb(0%, 0%, 0%)" stroke-opacity="1" stroke-miterlimit="10" d="M 9.093229 -0.00194983 L 3.206052 2.240597 L 5.185463 -0.00194983 L 3.206052 -2.240569 Z M 9.093229 -0.00194983 " transform="matrix(0.994614, 0, 0, -0.994614, 24.287779, 38.908217)"/>
</g>
<path fill="none" stroke-width="1.98427" stroke-linecap="round" stroke-linejoin="round" stroke="rgb(0%, 0%, 0%)" stroke-opacity="1" stroke-miterlimit="10" d="M -12.754211 6.007933 L -12.754211 1.220428 " transform="matrix(0.994614, 0, 0, -0.994614, 28.193329, 28.194324)"/>
<path fill-rule="nonzero" fill="rgb(0%, 0%, 0%)" fill-opacity="1" d="M 15.507812 31.359375 L 17.734375 25.503906 L 15.507812 27.472656 L 13.277344 25.503906 Z M 15.507812 31.359375 "/>
<g clip-path="url(#clip-2)">
<path fill="none" stroke-width="1.98427" stroke-linecap="round" stroke-linejoin="miter" stroke="rgb(0%, 0%, 0%)" stroke-opacity="1" stroke-miterlimit="10" d="M 9.09293 0.00173933 L 3.205753 2.240359 L 5.185164 0.00173933 L 3.205753 -2.240808 Z M 9.09293 0.00173933 " transform="matrix(0, 0.994614, 0.994614, 0, 15.506083, 22.315419)"/>
</g>
<path fill="none" stroke-width="1.98427" stroke-linecap="round" stroke-linejoin="round" stroke="rgb(0%, 0%, 0%)" stroke-opacity="1" stroke-miterlimit="10" d="M 12.754271 6.007933 L 12.754271 1.220428 " transform="matrix(0.994614, 0, 0, -0.994614, 28.193329, 28.194324)"/>
<path fill-rule="nonzero" fill="rgb(0%, 0%, 0%)" fill-opacity="1" d="M 40.878906 31.359375 L 43.109375 25.503906 L 40.878906 27.472656 L 38.652344 25.503906 Z M 40.878906 31.359375 "/>
<g clip-path="url(#clip-3)">
<path fill="none" stroke-width="1.98427" stroke-linecap="round" stroke-linejoin="miter" stroke="rgb(0%, 0%, 0%)" stroke-opacity="1" stroke-miterlimit="10" d="M 9.09293 -0.00167913 L 3.205753 2.240868 L 5.185164 -0.00167913 L 3.205753 -2.240299 Z M 9.09293 -0.00167913 " transform="matrix(0, 0.994614, 0.994614, 0, 40.880576, 22.315419)"/>
</g>
<path fill="none" stroke-width="1.55907" stroke-linecap="round" stroke-linejoin="round" stroke="rgb(27.450562%, 54.902649%, 100%)" stroke-opacity="1" stroke-miterlimit="10" d="M -5.669176 0.56848 C -4.706962 3.215549 -1.77712 4.578358 0.86995 3.616144 C 3.517019 2.653931 4.883756 -0.275912 3.921542 -2.922982 C 2.955401 -5.570051 0.0294856 -6.936787 -2.621511 -5.970646 C -3.890062 -5.51114 -4.926897 -4.560709 -2.916067 -8.872997 " transform="matrix(0.994614, 0, 0, -0.994614, 28.193329, 28.194324)"/>
<path fill-rule="nonzero" fill="rgb(27.450562%, 54.902649%, 100%)" fill-opacity="1" d="M 23.65625 33.511719 L 24.066406 39.101562 L 25.128906 36.667969 L 27.675781 37.417969 Z M 23.65625 33.511719 "/>
<g clip-path="url(#clip-4)">
<path fill="none" stroke-width="1.55907" stroke-linecap="round" stroke-linejoin="miter" stroke="rgb(27.450562%, 54.902649%, 100%)" stroke-opacity="1" stroke-miterlimit="10" d="M 7.785101 0.000843509 L 2.517166 2.002225 L 4.283284 0.00000184173 L 2.517688 -2.002123 Z M 7.785101 0.000843509 " transform="matrix(-0.420324, -0.901419, -0.901419, 0.420324, 26.929274, 40.529)"/>
</g>
<path fill="none" stroke-width="1.55907" stroke-linecap="round" stroke-linejoin="round" stroke="rgb(27.450562%, 54.902649%, 100%)" stroke-opacity="1" stroke-miterlimit="10" d="M 5.669236 -0.56654 C 6.63145 2.08053 5.268641 5.010372 2.621572 5.972586 C -0.0294254 6.9348 -2.955341 5.571991 -3.921482 2.924921 C -4.278875 1.939143 -4.326004 0.866962 -5.633829 5.760506 " transform="matrix(0.994614, 0, 0, -0.994614, 28.193329, 28.194324)"/>
<path fill-rule="nonzero" fill="rgb(27.450562%, 54.902649%, 100%)" fill-opacity="1" stroke-width="1.55907" stroke-linecap="round" stroke-linejoin="miter" stroke="rgb(27.450562%, 54.902649%, 100%)" stroke-opacity="1" stroke-miterlimit="10" d="M 7.784389 -0.000561304 L 2.517915 1.999306 L 4.284238 0.00159365 L 2.515994 -2.001012 Z M 7.784389 -0.000561304 " transform="matrix(0.257277, 0.960737, 0.960737, -0.257277, 21.58764, 18.724226)"/>
</svg>
