<?xml version="1.0" encoding="UTF-8"?>
<svg xmlns="http://www.w3.org/2000/svg" xmlns:xlink="http://www.w3.org/1999/xlink" width="56.693" height="56.693" viewBox="0 0 56.693 56.693">
<path fill="none" stroke-width="3.4016" stroke-linecap="round" stroke-linejoin="round" stroke="rgb(0%, 0%, 0%)" stroke-opacity="1" stroke-miterlimit="10" d="M -25.510415 -18.424441 L -25.510415 18.42638 C -25.510415 22.338074 -22.341001 25.511415 -18.42538 25.511415 L 18.425441 25.511415 C 22.341061 25.511415 25.510475 22.338074 25.510475 18.42638 L 25.510475 -18.424441 C 25.510475 -22.340061 22.341061 -25.513403 18.425441 -25.513403 L -18.42538 -25.513403 C -22.341001 -25.513403 -25.510415 -22.340061 -25.510415 -18.424441 Z M -25.510415 -18.424441 " transform="matrix(0.994614, 0, 0, -0.994614, 28.193329, 28.194324)"/>
<path fill-rule="nonzero" fill="rgb(27.450562%, 54.902649%, 100%)" fill-opacity="1" stroke-width="1.55907" stroke-linecap="round" stroke-linejoin="round" stroke="rgb(0%, 0%, 0%)" stroke-opacity="1" stroke-miterlimit="10" d="M 7.208778 -13.974693 C 7.208778 -12.655086 6.140524 -11.582905 4.820917 -11.582905 C 3.497382 -11.582905 2.429129 -12.655086 2.429129 -13.974693 C 2.429129 -15.294301 3.497382 -16.366481 4.820917 -16.366481 C 6.140524 -16.366481 7.208778 -15.294301 7.208778 -13.974693 Z M 7.208778 -13.974693 " transform="matrix(0.994614, 0, 0, -0.994614, 28.193329, 28.194324)"/>
<path fill-rule="nonzero" fill="rgb(27.450562%, 54.902649%, 100%)" fill-opacity="1" stroke-width="1.55907" stroke-linecap="round" stroke-linejoin="round" stroke="rgb(0%, 0%, 0%)" stroke-opacity="1" stroke-miterlimit="10" d="M 2.389855 -5.687873 C 2.389855 -4.364338 1.321601 -3.296085 0.0019938 -3.296085 C -1.321541 -3.296085 -2.389795 -4.364338 -2.389795 -5.687873 C -2.389795 -7.00748 -1.321541 -8.075734 0.0019938 -8.075734 C 1.321601 -8.075734 2.389855 -7.00748 2.389855 -5.687873 Z M 2.389855 -5.687873 " transform="matrix(0.994614, 0, 0, -0.994614, 28.193329, 28.194324)"/>
<path fill-rule="nonzero" fill="rgb(27.450562%, 54.902649%, 100%)" fill-opacity="1" stroke-width="1.55907" stroke-linecap="round" stroke-linejoin="round" stroke="rgb(0%, 0%, 0%)" stroke-opacity="1" stroke-miterlimit="10" d="M 12.031629 -5.687873 C 12.031629 -4.364338 10.959448 -3.296085 9.63984 -3.296085 C 8.316306 -3.296085 7.248052 -4.364338 7.248052 -5.687873 C 7.248052 -7.00748 8.316306 -8.075734 9.63984 -8.075734 C 10.959448 -8.075734 12.031629 -7.00748 12.031629 -5.687873 Z M 12.031629 -5.687873 " transform="matrix(0.994614, 0, 0, -0.994614, 28.193329, 28.194324)"/>
<path fill-rule="nonzero" fill="rgb(27.450562%, 54.902649%, 100%)" fill-opacity="1" stroke-width="1.55907" stroke-linecap="round" stroke-linejoin="round" stroke="rgb(0%, 0%, 0%)" stroke-opacity="1" stroke-miterlimit="10" d="M -2.429069 2.602874 C -2.429069 3.922482 -3.497322 4.994663 -4.81693 4.994663 C -6.140464 4.994663 -7.208718 3.922482 -7.208718 2.602874 C -7.208718 1.283267 -6.140464 0.211086 -4.81693 0.211086 C -3.497322 0.211086 -2.429069 1.283267 -2.429069 2.602874 Z M -2.429069 2.602874 " transform="matrix(0.994614, 0, 0, -0.994614, 28.193329, 28.194324)"/>
<path fill-rule="nonzero" fill="rgb(27.450562%, 54.902649%, 100%)" fill-opacity="1" stroke-width="1.55907" stroke-linecap="round" stroke-linejoin="round" stroke="rgb(0%, 0%, 0%)" stroke-opacity="1" stroke-miterlimit="10" d="M 7.208778 2.602874 C 7.208778 3.922482 6.140524 4.994663 4.820917 4.994663 C 3.497382 4.994663 2.429129 3.922482 2.429129 2.602874 C 2.429129 1.283267 3.497382 0.211086 4.820917 0.211086 C 6.140524 0.211086 7.208778 1.283267 7.208778 2.602874 Z M 7.208778 2.602874 " transform="matrix(0.994614, 0, 0, -0.994614, 28.193329, 28.194324)"/>
<path fill-rule="nonzero" fill="rgb(27.450562%, 54.902649%, 100%)" fill-opacity="1" stroke-width="1.55907" stroke-linecap="round" stroke-linejoin="round" stroke="rgb(0%, 0%, 0%)" stroke-opacity="1" stroke-miterlimit="10" d="M 16.850552 2.602874 C 16.850552 3.922482 15.778371 4.994663 14.458764 4.994663 C 13.139156 4.994663 12.066975 3.922482 12.066975 2.602874 C 12.066975 1.283267 13.139156 0.211086 14.458764 0.211086 C 15.778371 0.211086 16.850552 1.283267 16.850552 2.602874 Z M 16.850552 2.602874 " transform="matrix(0.994614, 0, 0, -0.994614, 28.193329, 28.194324)"/>
<path fill-rule="nonzero" fill="rgb(27.450562%, 54.902649%, 100%)" fill-opacity="1" stroke-width="1.55907" stroke-linecap="round" stroke-linejoin="round" stroke="rgb(0%, 0%, 0%)" stroke-opacity="1" stroke-miterlimit="10" d="M -7.247992 10.893622 C -7.247992 12.213229 -8.316245 13.281483 -9.635853 13.281483 C -10.959388 13.281483 -12.027641 12.213229 -12.027641 10.893622 C -12.027641 9.570087 -10.959388 8.501833 -9.635853 8.501833 C -8.316245 8.501833 -7.247992 9.570087 -7.247992 10.893622 Z M -7.247992 10.893622 " transform="matrix(0.994614, 0, 0, -0.994614, 28.193329, 28.194324)"/>
<path fill-rule="nonzero" fill="rgb(27.450562%, 54.902649%, 100%)" fill-opacity="1" stroke-width="1.55907" stroke-linecap="round" stroke-linejoin="round" stroke="rgb(0%, 0%, 0%)" stroke-opacity="1" stroke-miterlimit="10" d="M 2.389855 10.893622 C 2.389855 12.213229 1.321601 13.281483 0.0019938 13.281483 C -1.321541 13.281483 -2.389795 12.213229 -2.389795 10.893622 C -2.389795 9.570087 -1.321541 8.501833 0.0019938 8.501833 C 1.321601 8.501833 2.389855 9.570087 2.389855 10.893622 Z M 2.389855 10.893622 " transform="matrix(0.994614, 0, 0, -0.994614, 28.193329, 28.194324)"/>
<path fill-rule="nonzero" fill="rgb(27.450562%, 54.902649%, 100%)" fill-opacity="1" stroke-width="1.55907" stroke-linecap="round" stroke-linejoin="round" stroke="rgb(0%, 0%, 0%)" stroke-opacity="1" stroke-miterlimit="10" d="M 12.031629 10.893622 C 12.031629 12.213229 10.959448 13.281483 9.63984 13.281483 C 8.316306 13.281483 7.248052 12.213229 7.248052 10.893622 C 7.248052 9.570087 8.316306 8.501833 9.63984 8.501833 C 10.959448 8.501833 12.031629 9.570087 12.031629 10.893622 Z M 12.031629 10.893622 " transform="matrix(0.994614, 0, 0, -0.994614, 28.193329, 28.194324)"/>
<path fill-rule="nonzero" fill="rgb(27.450562%, 54.902649%, 100%)" fill-opacity="1" stroke-width="1.55907" stroke-linecap="round" stroke-linejoin="round" stroke="rgb(0%, 0%, 0%)" stroke-opacity="1" stroke-miterlimit="10" d="M 21.669475 10.893622 C 21.669475 12.213229 20.597294 13.281483 19.277687 13.281483 C 17.95808 13.281483 16.885899 12.213229 16.885899 10.893622 C 16.885899 9.570087 17.95808 8.501833 19.277687 8.501833 C 20.597294 8.501833 21.669475 9.570087 21.669475 10.893622 Z M 21.669475 10.893622 " transform="matrix(0.994614, 0, 0, -0.994614, 28.193329, 28.194324)"/>
<path fill-rule="nonzero" fill="rgb(27.450562%, 54.902649%, 100%)" fill-opacity="1" stroke-width="1.55907" stroke-linecap="round" stroke-linejoin="round" stroke="rgb(0%, 0%, 0%)" stroke-opacity="1" stroke-miterlimit="10" d="M -12.066915 19.180442 C -12.066915 20.500049 -13.135169 21.57223 -14.454776 21.57223 C -15.778311 21.57223 -16.846564 20.500049 -16.846564 19.180442 C -16.846564 17.860834 -15.778311 16.788653 -14.454776 16.788653 C -13.135169 16.788653 -12.066915 17.860834 -12.066915 19.180442 Z M -12.066915 19.180442 " transform="matrix(0.994614, 0, 0, -0.994614, 28.193329, 28.194324)"/>
<path fill-rule="nonzero" fill="rgb(27.450562%, 54.902649%, 100%)" fill-opacity="1" stroke-width="1.55907" stroke-linecap="round" stroke-linejoin="round" stroke="rgb(0%, 0%, 0%)" stroke-opacity="1" stroke-miterlimit="10" d="M -2.429069 19.180442 C -2.429069 20.500049 -3.497322 21.57223 -4.81693 21.57223 C -6.140464 21.57223 -7.208718 20.500049 -7.208718 19.180442 C -7.208718 17.860834 -6.140464 16.788653 -4.81693 16.788653 C -3.497322 16.788653 -2.429069 17.860834 -2.429069 19.180442 Z M -2.429069 19.180442 " transform="matrix(0.994614, 0, 0, -0.994614, 28.193329, 28.194324)"/>
<path fill-rule="nonzero" fill="rgb(27.450562%, 54.902649%, 100%)" fill-opacity="1" stroke-width="1.55907" stroke-linecap="round" stroke-linejoin="round" stroke="rgb(0%, 0%, 0%)" stroke-opacity="1" stroke-miterlimit="10" d="M 7.208778 19.180442 C 7.208778 20.500049 6.140524 21.57223 4.820917 21.57223 C 3.497382 21.57223 2.429129 20.500049 2.429129 19.180442 C 2.429129 17.860834 3.497382 16.788653 4.820917 16.788653 C 6.140524 16.788653 7.208778 17.860834 7.208778 19.180442 Z M 7.208778 19.180442 " transform="matrix(0.994614, 0, 0, -0.994614, 28.193329, 28.194324)"/>
<path fill-rule="nonzero" fill="rgb(27.450562%, 54.902649%, 100%)" fill-opacity="1" stroke-width="1.55907" stroke-linecap="round" stroke-linejoin="round" stroke="rgb(0%, 0%, 0%)" stroke-opacity="1" stroke-miterlimit="10" d="M 16.850552 19.180442 C 16.850552 20.500049 15.778371 21.57223 14.458764 21.57223 C 13.139156 21.57223 12.066975 20.500049 12.066975 19.180442 C 12.066975 17.860834 13.139156 16.788653 14.458764 16.788653 C 15.778371 16.788653 16.850552 17.860834 16.850552 19.180442 Z M 16.850552 19.180442 " transform="matrix(0.994614, 0, 0, -0.994614, 28.193329, 28.194324)"/>
<path fill-rule="nonzero" fill="rgb(27.450562%, 54.902649%, 100%)" fill-opacity="1" stroke-width="1.55907" stroke-linecap="round" stroke-linejoin="round" stroke="rgb(0%, 0%, 0%)" stroke-opacity="1" stroke-miterlimit="10" d="M 26.488399 19.180442 C 26.488399 20.500049 25.416218 21.57223 24.09661 21.57223 C 22.777003 21.57223 21.704822 20.500049 21.704822 19.180442 C 21.704822 17.860834 22.777003 16.788653 24.09661 16.788653 C 25.416218 16.788653 26.488399 17.860834 26.488399 19.180442 Z M 26.488399 19.180442 " transform="matrix(0.994614, 0, 0, -0.994614, 28.193329, 28.194324)"/>
<path fill="none" stroke-width="1.55907" stroke-linecap="round" stroke-linejoin="round" stroke="rgb(0%, 0%, 0%)" stroke-opacity="1" stroke-miterlimit="10" d="M 4.820917 -13.974693 L 0.0019938 -5.687873 " transform="matrix(0.994614, 0, 0, -0.994614, 28.193329, 28.194324)"/>
<path fill="none" stroke-width="1.55907" stroke-linecap="round" stroke-linejoin="round" stroke="rgb(0%, 0%, 0%)" stroke-opacity="1" stroke-miterlimit="10" d="M 4.820917 -13.974693 L 9.63984 -5.687873 " transform="matrix(0.994614, 0, 0, -0.994614, 28.193329, 28.194324)"/>
<path fill="none" stroke-width="1.55907" stroke-linecap="round" stroke-linejoin="round" stroke="rgb(0%, 0%, 0%)" stroke-opacity="1" stroke-miterlimit="10" d="M 0.0019938 -5.687873 L -4.81693 2.602874 " transform="matrix(0.994614, 0, 0, -0.994614, 28.193329, 28.194324)"/>
<path fill="none" stroke-width="1.55907" stroke-linecap="round" stroke-linejoin="round" stroke="rgb(0%, 0%, 0%)" stroke-opacity="1" stroke-miterlimit="10" d="M 0.0019938 -5.687873 L 4.820917 2.602874 " transform="matrix(0.994614, 0, 0, -0.994614, 28.193329, 28.194324)"/>
<path fill="none" stroke-width="1.55907" stroke-linecap="round" stroke-linejoin="round" stroke="rgb(0%, 0%, 0%)" stroke-opacity="1" stroke-miterlimit="10" d="M 9.63984 -5.687873 L 4.820917 2.602874 " transform="matrix(0.994614, 0, 0, -0.994614, 28.193329, 28.194324)"/>
<path fill="none" stroke-width="1.55907" stroke-linecap="round" stroke-linejoin="round" stroke="rgb(0%, 0%, 0%)" stroke-opacity="1" stroke-miterlimit="10" d="M 9.63984 -5.687873 L 14.458764 2.602874 " transform="matrix(0.994614, 0, 0, -0.994614, 28.193329, 28.194324)"/>
<path fill="none" stroke-width="1.55907" stroke-linecap="round" stroke-linejoin="round" stroke="rgb(0%, 0%, 0%)" stroke-opacity="1" stroke-miterlimit="10" d="M -4.81693 2.602874 L -9.635853 10.893622 " transform="matrix(0.994614, 0, 0, -0.994614, 28.193329, 28.194324)"/>
<path fill="none" stroke-width="1.55907" stroke-linecap="round" stroke-linejoin="round" stroke="rgb(0%, 0%, 0%)" stroke-opacity="1" stroke-miterlimit="10" d="M -4.81693 2.602874 L 0.0019938 10.893622 " transform="matrix(0.994614, 0, 0, -0.994614, 28.193329, 28.194324)"/>
<path fill="none" stroke-width="1.55907" stroke-linecap="round" stroke-linejoin="round" stroke="rgb(0%, 0%, 0%)" stroke-opacity="1" stroke-miterlimit="10" d="M 4.820917 2.602874 L 0.0019938 10.893622 " transform="matrix(0.994614, 0, 0, -0.994614, 28.193329, 28.194324)"/>
<path fill="none" stroke-width="1.55907" stroke-linecap="round" stroke-linejoin="round" stroke="rgb(0%, 0%, 0%)" stroke-opacity="1" stroke-miterlimit="10" d="M 4.820917 2.602874 L 9.63984 10.893622 " transform="matrix(0.994614, 0, 0, -0.994614, 28.193329, 28.194324)"/>
<path fill="none" stroke-width="1.55907" stroke-linecap="round" stroke-linejoin="round" stroke="rgb(0%, 0%, 0%)" stroke-opacity="1" stroke-miterlimit="10" d="M 14.458764 2.602874 L 9.63984 10.893622 " transform="matrix(0.994614, 0, 0, -0.994614, 28.193329, 28.194324)"/>
<path fill="none" stroke-width="1.55907" stroke-linecap="round" stroke-linejoin="round" stroke="rgb(0%, 0%, 0%)" stroke-opacity="1" stroke-miterlimit="10" d="M 14.458764 2.602874 L 19.277687 10.893622 " transform="matrix(0.994614, 0, 0, -0.994614, 28.193329, 28.194324)"/>
<path fill="none" stroke-width="1.55907" stroke-linecap="round" stroke-linejoin="round" stroke="rgb(0%, 0%, 0%)" stroke-opacity="1" stroke-miterlimit="10" d="M -9.635853 10.893622 L -14.454776 19.180442 " transform="matrix(0.994614, 0, 0, -0.994614, 28.193329, 28.194324)"/>
<path fill="none" stroke-width="1.55907" stroke-linecap="round" stroke-linejoin="round" stroke="rgb(0%, 0%, 0%)" stroke-opacity="1" stroke-miterlimit="10" d="M -9.635853 10.893622 L -4.81693 19.180442 " transform="matrix(0.994614, 0, 0, -0.994614, 28.193329, 28.194324)"/>
<path fill="none" stroke-width="1.55907" stroke-linecap="round" stroke-linejoin="round" stroke="rgb(0%, 0%, 0%)" stroke-opacity="1" stroke-miterlimit="10" d="M 0.0019938 10.893622 L -4.81693 19.180442 " transform="matrix(0.994614, 0, 0, -0.994614, 28.193329, 28.194324)"/>
<path fill="none" stroke-width="1.55907" stroke-linecap="round" stroke-linejoin="round" stroke="rgb(0%, 0%, 0%)" stroke-opacity="1" stroke-miterlimit="10" d="M 0.0019938 10.893622 L 4.820917 19.180442 " transform="matrix(0.994614, 0, 0, -0.994614, 28.193329, 28.194324)"/>
<path fill="none" stroke-width="1.55907" stroke-linecap="round" stroke-linejoin="round" stroke="rgb(0%, 0%, 0%)" stroke-opacity="1" stroke-miterlimit="10" d="M 9.63984 10.893622 L 4.820917 19.180442 " transform="matrix(0.994614, 0, 0, -0.994614, 28.193329, 28.194324)"/>
<path fill="none" stroke-width="1.55907" stroke-linecap="round" stroke-linejoin="round" stroke="rgb(0%, 0%, 0%)" stroke-opacity="1" stroke-miterlimit="10" d="M 9.63984 10.893622 L 14.458764 19.180442 " transform="matrix(0.994614, 0, 0, -0.994614, 28.193329, 28.194324)"/>
<path fill="none" stroke-width="1.55907" stroke-linecap="round" stroke-linejoin="round" stroke="rgb(0%, 0%, 0%)" stroke-opacity="1" stroke-miterlimit="10" d="M 19.277687 10.893622 L 14.458764 19.180442 " transform="matrix(0.994614, 0, 0, -0.994614, 28.193329, 28.194324)"/>
<path fill="none" stroke-width="1.55907" stroke-linecap="round" stroke-linejoin="round" stroke="rgb(0%, 0%, 0%)" stroke-opacity="1" stroke-miterlimit="10" d="M 19.277687 10.893622 L 24.09661 19.180442 " transform="matrix(0.994614, 0, 0, -0.994614, 28.193329, 28.194324)"/>
<path fill="none" stroke-width="1.55907" stroke-linecap="round" stroke-linejoin="round" stroke="rgb(0%, 0%, 0%)" stroke-opacity="1" stroke-miterlimit="10" d="M 0.0019938 -5.687873 L 9.63984 -5.687873 " transform="matrix(0.994614, 0, 0, -0.994614, 28.193329, 28.194324)"/>
<path fill="none" stroke-width="1.55907" stroke-linecap="round" stroke-linejoin="round" stroke="rgb(0%, 0%, 0%)" stroke-opacity="1" stroke-miterlimit="10" d="M -4.81693 2.602874 L 4.820917 2.602874 " transform="matrix(0.994614, 0, 0, -0.994614, 28.193329, 28.194324)"/>
<path fill="none" stroke-width="1.55907" stroke-linecap="round" stroke-linejoin="round" stroke="rgb(0%, 0%, 0%)" stroke-opacity="1" stroke-miterlimit="10" d="M 4.820917 2.602874 L 14.458764 2.602874 " transform="matrix(0.994614, 0, 0, -0.994614, 28.193329, 28.194324)"/>
<path fill="none" stroke-width="1.55907" stroke-linecap="round" stroke-linejoin="round" stroke="rgb(0%, 0%, 0%)" stroke-opacity="1" stroke-miterlimit="10" d="M -9.635853 10.893622 L 0.0019938 10.893622 " transform="matrix(0.994614, 0, 0, -0.994614, 28.193329, 28.194324)"/>
<path fill="none" stroke-width="1.55907" stroke-linecap="round" stroke-linejoin="round" stroke="rgb(0%, 0%, 0%)" stroke-opacity="1" stroke-miterlimit="10" d="M 0.0019938 10.893622 L 9.63984 10.893622 " transform="matrix(0.994614, 0, 0, -0.994614, 28.193329, 28.194324)"/>
<path fill="none" stroke-width="1.55907" stroke-linecap="round" stroke-linejoin="round" stroke="rgb(0%, 0%, 0%)" stroke-opacity="1" stroke-miterlimit="10" d="M 9.63984 10.893622 L 19.277687 10.893622 " transform="matrix(0.994614, 0, 0, -0.994614, 28.193329, 28.194324)"/>
<path fill="none" stroke-width="1.55907" stroke-linecap="round" stroke-linejoin="round" stroke="rgb(0%, 0%, 0%)" stroke-opacity="1" stroke-miterlimit="10" d="M -14.454776 19.180442 L -4.81693 19.180442 " transform="matrix(0.994614, 0, 0, -0.994614, 28.193329, 28.194324)"/>
<path fill="none" stroke-width="1.55907" stroke-linecap="round" stroke-linejoin="round" stroke="rgb(0%, 0%, 0%)" stroke-opacity="1" stroke-miterlimit="10" d="M -4.81693 19.180442 L 4.820917 19.180442 " transform="matrix(0.994614, 0, 0, -0.994614, 28.193329, 28.194324)"/>
<path fill="none" stroke-width="1.55907" stroke-linecap="round" stroke-linejoin="round" stroke="rgb(0%, 0%, 0%)" stroke-opacity="1" stroke-miterlimit="10" d="M 4.820917 19.180442 L 14.458764 19.180442 " transform="matrix(0.994614, 0, 0, -0.994614, 28.193329, 28.194324)"/>
<path fill="none" stroke-width="1.55907" stroke-linecap="round" stroke-linejoin="round" stroke="rgb(0%, 0%, 0%)" stroke-opacity="1" stroke-miterlimit="10" d="M 14.458764 19.180442 L 24.09661 19.180442 " transform="matrix(0.994614, 0, 0, -0.994614, 28.193329, 28.194324)"/>
<path fill-rule="nonzero" fill="rgb(92.939758%, 72.706604%, 54.824829%)" fill-opacity="1" stroke-width="1.41731" stroke-linecap="round" stroke-linejoin="round" stroke="rgb(0%, 0%, 0%)" stroke-opacity="1" stroke-miterlimit="10" d="M 4.820917 2.602874 L 0.0019938 10.893622 L 4.820917 19.180442 L 9.63984 10.893622 Z M 4.820917 2.602874 " transform="matrix(0.994614, 0, 0, -0.994614, 28.193329, 28.194324)"/>
</svg>
