<?xml version="1.0" encoding="UTF-8"?>
<svg xmlns="http://www.w3.org/2000/svg" xmlns:xlink="http://www.w3.org/1999/xlink" width="56.693" height="56.693" viewBox="0 0 56.693 56.693">
<path fill="none" stroke-width="3.4016" stroke-linecap="round" stroke-linejoin="round" stroke="rgb(0%, 0%, 0%)" stroke-opacity="1" stroke-miterlimit="10" d="M -25.510415 -18.424441 L -25.510415 18.42638 C -25.510415 22.338074 -22.341001 25.511415 -18.42538 25.511415 L 18.425441 25.511415 C 22.341061 25.511415 25.510475 22.338074 25.510475 18.42638 L 25.510475 -18.424441 C 25.510475 -22.340061 22.341061 -25.513403 18.425441 -25.513403 L -18.42538 -25.513403 C -22.341001 -25.513403 -25.510415 -22.340061 -25.510415 -18.424441 Z M -25.510415 -18.424441 " transform="matrix(0.994614, 0, 0, -0.994614, 28.193329, 28.194324)"/>
<path fill="none" stroke-width="3.4016" stroke-linecap="round" stroke-linejoin="round" stroke="rgb(50%, 50%, 50%)" stroke-opacity="1" stroke-miterlimit="10" d="M 17.007648 -0.0009938 C 17.007648 9.393354 9.392414 17.008588 -0.0019336 17.008588 C -9.392354 17.008588 -17.007588 9.393354 -17.007588 -0.0009938 C -17.007588 -9.395341 -9.392354 -17.006648 -0.0019336 -17.006648 C 9.392414 -17.006648 17.007648 -9.395341 17.007648 -0.0009938 Z M 17.007648 -0.0009938 " transform="matrix(0.994614, 0, 0, -0.994614, 28.193329, 28.194324)"/>
<path fill-rule="nonzero" fill="rgb(27.450562%, 54.902649%, 100%)" fill-opacity="1" stroke-width="1.98427" stroke-linecap="round" stroke-linejoin="round" stroke="rgb(0%, 0%, 0%)" stroke-opacity="1" stroke-miterlimit="10" d="M 19.996402 -0.0009938 C 19.996402 1.652443 18.657157 2.98776 17.007648 2.98776 C 15.358139 2.98776 14.018895 1.652443 14.018895 -0.0009938 C 14.018895 -1.650503 15.358139 -2.989747 17.007648 -2.989747 C 18.657157 -2.989747 19.996402 -1.650503 19.996402 -0.0009938 Z M 19.996402 -0.0009938 " transform="matrix(0.994614, 0, 0, -0.994614, 28.193329, 28.194324)"/>
<path fill-rule="nonzero" fill="rgb(27.450562%, 54.902649%, 100%)" fill-opacity="1" stroke-width="1.98427" stroke-linecap="round" stroke-linejoin="round" stroke="rgb(0%, 0%, 0%)" stroke-opacity="1" stroke-miterlimit="10" d="M 11.493575 14.730694 C 11.493575 16.380204 10.15433 17.719448 8.504821 17.719448 C 6.855312 17.719448 5.516067 16.380204 5.516067 14.730694 C 5.516067 13.077258 6.855312 11.741941 8.504821 11.741941 C 10.15433 11.741941 11.493575 13.077258 11.493575 14.730694 Z M 11.493575 14.730694 " transform="matrix(0.994614, 0, 0, -0.994614, 28.193329, 28.194324)"/>
<path fill-rule="nonzero" fill="rgb(27.450562%, 54.902649%, 100%)" fill-opacity="1" stroke-width="1.98427" stroke-linecap="round" stroke-linejoin="round" stroke="rgb(0%, 0%, 0%)" stroke-opacity="1" stroke-miterlimit="10" d="M -5.516007 14.730694 C -5.516007 16.380204 -6.855252 17.719448 -8.504761 17.719448 C -10.15427 17.719448 -11.493514 16.380204 -11.493514 14.730694 C -11.493514 13.077258 -10.15427 11.741941 -8.504761 11.741941 C -6.855252 11.741941 -5.516007 13.077258 -5.516007 14.730694 Z M -5.516007 14.730694 " transform="matrix(0.994614, 0, 0, -0.994614, 28.193329, 28.194324)"/>
<path fill-rule="nonzero" fill="rgb(27.450562%, 54.902649%, 100%)" fill-opacity="1" stroke-width="1.98427" stroke-linecap="round" stroke-linejoin="round" stroke="rgb(0%, 0%, 0%)" stroke-opacity="1" stroke-miterlimit="10" d="M -14.018834 -0.0009938 C -14.018834 1.652443 -15.358079 2.98776 -17.007588 2.98776 C -18.657097 2.98776 -19.996342 1.652443 -19.996342 -0.0009938 C -19.996342 -1.650503 -18.657097 -2.989747 -17.007588 -2.989747 C -15.358079 -2.989747 -14.018834 -1.650503 -14.018834 -0.0009938 Z M -14.018834 -0.0009938 " transform="matrix(0.994614, 0, 0, -0.994614, 28.193329, 28.194324)"/>
<path fill-rule="nonzero" fill="rgb(27.450562%, 54.902649%, 100%)" fill-opacity="1" stroke-width="1.98427" stroke-linecap="round" stroke-linejoin="round" stroke="rgb(0%, 0%, 0%)" stroke-opacity="1" stroke-miterlimit="10" d="M -5.516007 -14.728755 C -5.516007 -13.079245 -6.855252 -11.740001 -8.504761 -11.740001 C -10.15427 -11.740001 -11.493514 -13.079245 -11.493514 -14.728755 C -11.493514 -16.378264 -10.15427 -17.717508 -8.504761 -17.717508 C -6.855252 -17.717508 -5.516007 -16.378264 -5.516007 -14.728755 Z M -5.516007 -14.728755 " transform="matrix(0.994614, 0, 0, -0.994614, 28.193329, 28.194324)"/>
<path fill-rule="nonzero" fill="rgb(27.450562%, 54.902649%, 100%)" fill-opacity="1" stroke-width="1.98427" stroke-linecap="round" stroke-linejoin="round" stroke="rgb(0%, 0%, 0%)" stroke-opacity="1" stroke-miterlimit="10" d="M 11.493575 -14.728755 C 11.493575 -13.079245 10.15433 -11.740001 8.504821 -11.740001 C 6.855312 -11.740001 5.516067 -13.079245 5.516067 -14.728755 C 5.516067 -16.378264 6.855312 -17.717508 8.504821 -17.717508 C 10.15433 -17.717508 11.493575 -16.378264 11.493575 -14.728755 Z M 11.493575 -14.728755 " transform="matrix(0.994614, 0, 0, -0.994614, 28.193329, 28.194324)"/>
<path fill-rule="nonzero" fill="rgb(0%, 0%, 0%)" fill-opacity="1" stroke-width="1.98427" stroke-linecap="round" stroke-linejoin="round" stroke="rgb(0%, 0%, 0%)" stroke-opacity="1" stroke-miterlimit="10" d="M 2.990747 -0.0009938 C 2.990747 1.652443 1.651503 2.98776 -0.0019336 2.98776 C -1.651443 2.98776 -2.990687 1.652443 -2.990687 -0.0009938 C -2.990687 -1.650503 -1.651443 -2.989747 -0.0019336 -2.989747 C 1.651503 -2.989747 2.990747 -1.650503 2.990747 -0.0009938 Z M 2.990747 -0.0009938 " transform="matrix(0.994614, 0, 0, -0.994614, 28.193329, 28.194324)"/>
</svg>
