<?xml version="1.0" encoding="UTF-8"?>
<svg xmlns="http://www.w3.org/2000/svg" xmlns:xlink="http://www.w3.org/1999/xlink" width="56.693" height="56.693" viewBox="0 0 56.693 56.693">
<path fill="none" stroke-width="3.4016" stroke-linecap="round" stroke-linejoin="round" stroke="rgb(0%, 0%, 0%)" stroke-opacity="1" stroke-miterlimit="10" d="M -25.510415 -18.424441 L -25.510415 18.42638 C -25.510415 22.338074 -22.341001 25.511415 -18.42538 25.511415 L 18.425441 25.511415 C 22.341061 25.511415 25.510475 22.338074 25.510475 18.42638 L 25.510475 -18.424441 C 25.510475 -22.340061 22.341061 -25.513403 18.425441 -25.513403 L -18.42538 -25.513403 C -22.341001 -25.513403 -25.510415 -22.340061 -25.510415 -18.424441 Z M -25.510415 -18.424441 " transform="matrix(0.994614, 0, 0, -0.994614, 28.193329, 28.194324)"/>
<path fill="none" stroke-width="3.4016" stroke-linecap="round" stroke-linejoin="round" stroke="rgb(0%, 0%, 0%)" stroke-opacity="1" stroke-miterlimit="10" d="M 15.589856 -0.0009938 C 15.589856 8.611801 8.610861 15.590796 -0.0019336 15.590796 C -8.610801 15.590796 -15.589796 8.611801 -15.589796 -0.0009938 C -15.589796 -8.609861 -8.610801 -15.592783 -0.0019336 -15.592783 C 8.610861 -15.592783 15.589856 -8.609861 15.589856 -0.0009938 Z M 15.589856 -0.0009938 " transform="matrix(0.994614, 0, 0, -0.994614, 28.193329, 28.194324)"/>
<path fill-rule="nonzero" fill="rgb(27.450562%, 54.902649%, 100%)" fill-opacity="1" stroke-width="1.98427" stroke-linecap="round" stroke-linejoin="round" stroke="rgb(0%, 0%, 0%)" stroke-opacity="1" stroke-miterlimit="10" d="M 2.990747 15.590796 C 2.990747 17.240305 1.651503 18.579549 -0.0019336 18.579549 C -1.651443 18.579549 -2.990687 17.240305 -2.990687 15.590796 C -2.990687 13.941286 -1.651443 12.602042 -0.0019336 12.602042 C 1.651503 12.602042 2.990747 13.941286 2.990747 15.590796 Z M 2.990747 15.590796 " transform="matrix(0.994614, 0, 0, -0.994614, 28.193329, 28.194324)"/>
<path fill-rule="nonzero" fill="rgb(27.450562%, 54.902649%, 100%)" fill-opacity="1" stroke-width="1.98427" stroke-linecap="round" stroke-linejoin="round" stroke="rgb(0%, 0%, 0%)" stroke-opacity="1" stroke-miterlimit="10" d="M -11.839126 4.81793 C -11.839126 6.467439 -13.17837 7.806683 -14.827879 7.806683 C -16.477389 7.806683 -17.816633 6.467439 -17.816633 4.81793 C -17.816633 3.16842 -16.477389 1.829176 -14.827879 1.829176 C -13.17837 1.829176 -11.839126 3.16842 -11.839126 4.81793 Z M -11.839126 4.81793 " transform="matrix(0.994614, 0, 0, -0.994614, 28.193329, 28.194324)"/>
<path fill-rule="nonzero" fill="rgb(0%, 0%, 0%)" fill-opacity="1" stroke-width="1.98427" stroke-linecap="round" stroke-linejoin="round" stroke="rgb(0%, 0%, 0%)" stroke-opacity="1" stroke-miterlimit="10" d="M -6.175811 -12.611884 C -6.175811 -10.962375 -7.511128 -9.623131 -9.164564 -9.623131 C -10.814074 -9.623131 -12.153318 -10.962375 -12.153318 -12.611884 C -12.153318 -14.265321 -10.814074 -15.600638 -9.164564 -15.600638 C -7.511128 -15.600638 -6.175811 -14.265321 -6.175811 -12.611884 Z M -6.175811 -12.611884 " transform="matrix(0.994614, 0, 0, -0.994614, 28.193329, 28.194324)"/>
<path fill-rule="nonzero" fill="rgb(27.450562%, 54.902649%, 100%)" fill-opacity="1" stroke-width="1.98427" stroke-linecap="round" stroke-linejoin="round" stroke="rgb(0%, 0%, 0%)" stroke-opacity="1" stroke-miterlimit="10" d="M 12.153378 -12.611884 C 12.153378 -10.962375 10.814134 -9.623131 9.164625 -9.623131 C 7.511188 -9.623131 6.175871 -10.962375 6.175871 -12.611884 C 6.175871 -14.265321 7.511188 -15.600638 9.164625 -15.600638 C 10.814134 -15.600638 12.153378 -14.265321 12.153378 -12.611884 Z M 12.153378 -12.611884 " transform="matrix(0.994614, 0, 0, -0.994614, 28.193329, 28.194324)"/>
<path fill-rule="nonzero" fill="rgb(0%, 0%, 0%)" fill-opacity="1" stroke-width="1.98427" stroke-linecap="round" stroke-linejoin="round" stroke="rgb(0%, 0%, 0%)" stroke-opacity="1" stroke-miterlimit="10" d="M 17.816693 4.81793 C 17.816693 6.467439 16.477449 7.806683 14.82794 7.806683 C 13.17843 7.806683 11.839186 6.467439 11.839186 4.81793 C 11.839186 3.16842 13.17843 1.829176 14.82794 1.829176 C 16.477449 1.829176 17.816693 3.16842 17.816693 4.81793 Z M 17.816693 4.81793 " transform="matrix(0.994614, 0, 0, -0.994614, 28.193329, 28.194324)"/>
</svg>
