<?xml version="1.0" encoding="UTF-8"?>
<svg xmlns="http://www.w3.org/2000/svg" xmlns:xlink="http://www.w3.org/1999/xlink" width="56.693" height="56.693" viewBox="0 0 56.693 56.693">
<path fill="none" stroke-width="3.4016" stroke-linecap="round" stroke-linejoin="round" stroke="rgb(0%, 0%, 0%)" stroke-opacity="1" stroke-miterlimit="10" d="M -25.510415 -18.424441 L -25.510415 18.42638 C -25.510415 22.338074 -22.341001 25.511415 -18.42538 25.511415 L 18.425441 25.511415 C 22.341061 25.511415 25.510475 22.338074 25.510475 18.42638 L 25.510475 -18.424441 C 25.510475 -22.340061 22.341061 -25.513403 18.425441 -25.513403 L -18.42538 -25.513403 C -22.341001 -25.513403 -25.510415 -22.340061 -25.510415 -18.424441 Z M -25.510415 -18.424441 " transform="matrix(0.994614, 0, 0, -0.994614, 28.193329, 28.194324)"/>
<path fill="none" stroke-width="0.99214" stroke-linecap="round" stroke-linejoin="round" stroke="rgb(54.998779%, 54.998779%, 54.998779%)" stroke-opacity="1" stroke-miterlimit="10" d="M -17.573134 -15.592783 L -17.573134 15.590796 " transform="matrix(0.994614, 0, 0, -0.994614, 28.193329, 28.194324)"/>
<path fill="none" stroke-width="0.99214" stroke-linecap="round" stroke-linejoin="round" stroke="rgb(54.998779%, 54.998779%, 54.998779%)" stroke-opacity="1" stroke-miterlimit="10" d="M -17.573134 -15.592783 L 18.425441 -15.592783 " transform="matrix(0.994614, 0, 0, -0.994614, 28.193329, 28.194324)"/>
<path fill="none" stroke-width="0.70865" stroke-linecap="round" stroke-linejoin="round" stroke="rgb(75%, 75%, 75%)" stroke-opacity="1" stroke-miterlimit="10" d="M -17.573134 -15.592783 L -17.573134 15.590796 " transform="matrix(0.994614, 0, 0, -0.994614, 28.193329, 28.194324)"/>
<path fill="none" stroke-width="0.70865" stroke-linecap="round" stroke-linejoin="round" stroke="rgb(75%, 75%, 75%)" stroke-opacity="1" stroke-miterlimit="10" d="M -5.669176 -15.592783 L -5.669176 15.590796 " transform="matrix(0.994614, 0, 0, -0.994614, 28.193329, 28.194324)"/>
<path fill="none" stroke-width="0.70865" stroke-linecap="round" stroke-linejoin="round" stroke="rgb(75%, 75%, 75%)" stroke-opacity="1" stroke-miterlimit="10" d="M 6.234782 -15.592783 L 6.234782 15.590796 " transform="matrix(0.994614, 0, 0, -0.994614, 28.193329, 28.194324)"/>
<path fill="none" stroke-width="0.70865" stroke-linecap="round" stroke-linejoin="round" stroke="rgb(75%, 75%, 75%)" stroke-opacity="1" stroke-miterlimit="10" d="M 18.142668 -15.592783 L 18.142668 15.590796 " transform="matrix(0.994614, 0, 0, -0.994614, 28.193329, 28.194324)"/>
<path fill="none" stroke-width="0.70865" stroke-linecap="round" stroke-linejoin="round" stroke="rgb(75%, 75%, 75%)" stroke-opacity="1" stroke-miterlimit="10" d="M -17.573134 -15.592783 L 18.425441 -15.592783 " transform="matrix(0.994614, 0, 0, -0.994614, 28.193329, 28.194324)"/>
<path fill="none" stroke-width="0.70865" stroke-linecap="round" stroke-linejoin="round" stroke="rgb(75%, 75%, 75%)" stroke-opacity="1" stroke-miterlimit="10" d="M -17.573134 -5.10269 L 18.425441 -5.10269 " transform="matrix(0.994614, 0, 0, -0.994614, 28.193329, 28.194324)"/>
<path fill="none" stroke-width="0.70865" stroke-linecap="round" stroke-linejoin="round" stroke="rgb(75%, 75%, 75%)" stroke-opacity="1" stroke-miterlimit="10" d="M -17.573134 5.387403 L 18.425441 5.387403 " transform="matrix(0.994614, 0, 0, -0.994614, 28.193329, 28.194324)"/>
<path fill="none" stroke-width="0.70865" stroke-linecap="round" stroke-linejoin="round" stroke="rgb(75%, 75%, 75%)" stroke-opacity="1" stroke-miterlimit="10" d="M -17.573134 15.873569 L 18.425441 15.873569 " transform="matrix(0.994614, 0, 0, -0.994614, 28.193329, 28.194324)"/>
<path fill-rule="nonzero" fill="rgb(86.941528%, 91.880798%, 100%)" fill-opacity="1" stroke-width="2.40947" stroke-linecap="round" stroke-linejoin="round" stroke="rgb(27.450562%, 54.902649%, 100%)" stroke-opacity="1" stroke-miterlimit="10" d="M -14.741477 -13.039971 L 15.589856 -13.039971 L 7.935348 11.906892 L -10.770872 7.370741 Z M -14.741477 -13.039971 " transform="matrix(0.994614, 0, 0, -0.994614, 28.193329, 28.194324)"/>
<path fill-rule="nonzero" fill="rgb(27.450562%, 54.902649%, 100%)" fill-opacity="1" stroke-width="1.98427" stroke-linecap="round" stroke-linejoin="round" stroke="rgb(0%, 0%, 0%)" stroke-opacity="1" stroke-miterlimit="10" d="M -11.752723 -13.039971 C -11.752723 -11.390462 -13.08804 -10.051218 -14.741477 -10.051218 C -16.390986 -10.051218 -17.73023 -11.390462 -17.73023 -13.039971 C -17.73023 -14.68948 -16.390986 -16.028725 -14.741477 -16.028725 C -13.08804 -16.028725 -11.752723 -14.68948 -11.752723 -13.039971 Z M -11.752723 -13.039971 " transform="matrix(0.994614, 0, 0, -0.994614, 28.193329, 28.194324)"/>
<path fill-rule="nonzero" fill="rgb(27.450562%, 54.902649%, 100%)" fill-opacity="1" stroke-width="1.98427" stroke-linecap="round" stroke-linejoin="round" stroke="rgb(0%, 0%, 0%)" stroke-opacity="1" stroke-miterlimit="10" d="M 0.155163 -13.039971 C 0.155163 -11.390462 -1.184082 -10.051218 -2.833591 -10.051218 C -4.487028 -10.051218 -5.822345 -11.390462 -5.822345 -13.039971 C -5.822345 -14.68948 -4.487028 -16.028725 -2.833591 -16.028725 C -1.184082 -16.028725 0.155163 -14.68948 0.155163 -13.039971 Z M 0.155163 -13.039971 " transform="matrix(0.994614, 0, 0, -0.994614, 28.193329, 28.194324)"/>
<path fill-rule="nonzero" fill="rgb(27.450562%, 54.902649%, 100%)" fill-opacity="1" stroke-width="1.98427" stroke-linecap="round" stroke-linejoin="round" stroke="rgb(0%, 0%, 0%)" stroke-opacity="1" stroke-miterlimit="10" d="M 12.059121 -13.039971 C 12.059121 -11.390462 10.723804 -10.051218 9.070367 -10.051218 C 7.420858 -10.051218 6.081613 -11.390462 6.081613 -13.039971 C 6.081613 -14.68948 7.420858 -16.028725 9.070367 -16.028725 C 10.723804 -16.028725 12.059121 -14.68948 12.059121 -13.039971 Z M 12.059121 -13.039971 " transform="matrix(0.994614, 0, 0, -0.994614, 28.193329, 28.194324)"/>
<path fill-rule="nonzero" fill="rgb(27.450562%, 54.902649%, 100%)" fill-opacity="1" stroke-width="1.98427" stroke-linecap="round" stroke-linejoin="round" stroke="rgb(0%, 0%, 0%)" stroke-opacity="1" stroke-miterlimit="10" d="M 10.924101 -2.549878 C 10.924101 -0.900369 9.588784 0.438875 7.935348 0.438875 C 6.285838 0.438875 4.946594 -0.900369 4.946594 -2.549878 C 4.946594 -4.203315 6.285838 -5.538632 7.935348 -5.538632 C 9.588784 -5.538632 10.924101 -4.203315 10.924101 -2.549878 Z M 10.924101 -2.549878 " transform="matrix(0.994614, 0, 0, -0.994614, 28.193329, 28.194324)"/>
<path fill-rule="nonzero" fill="rgb(27.450562%, 54.902649%, 100%)" fill-opacity="1" stroke-width="1.98427" stroke-linecap="round" stroke-linejoin="round" stroke="rgb(0%, 0%, 0%)" stroke-opacity="1" stroke-miterlimit="10" d="M -7.782119 7.370741 C -7.782119 9.020251 -9.121363 10.359495 -10.770872 10.359495 C -12.424309 10.359495 -13.759626 9.020251 -13.759626 7.370741 C -13.759626 5.721232 -12.424309 4.381988 -10.770872 4.381988 C -9.121363 4.381988 -7.782119 5.721232 -7.782119 7.370741 Z M -7.782119 7.370741 " transform="matrix(0.994614, 0, 0, -0.994614, 28.193329, 28.194324)"/>
<path fill-rule="nonzero" fill="rgb(27.450562%, 54.902649%, 100%)" fill-opacity="1" stroke-width="1.98427" stroke-linecap="round" stroke-linejoin="round" stroke="rgb(0%, 0%, 0%)" stroke-opacity="1" stroke-miterlimit="10" d="M 10.924101 11.906892 C 10.924101 13.556401 9.588784 14.895645 7.935348 14.895645 C 6.285838 14.895645 4.946594 13.556401 4.946594 11.906892 C 4.946594 10.253455 6.285838 8.918138 7.935348 8.918138 C 9.588784 8.918138 10.924101 10.253455 10.924101 11.906892 Z M 10.924101 11.906892 " transform="matrix(0.994614, 0, 0, -0.994614, 28.193329, 28.194324)"/>
</svg>
