<?xml version="1.0" encoding="UTF-8"?>
<svg xmlns="http://www.w3.org/2000/svg" xmlns:xlink="http://www.w3.org/1999/xlink" width="56.693" height="56.693" viewBox="0 0 56.693 56.693">
<path fill="none" stroke-width="3.4016" stroke-linecap="round" stroke-linejoin="round" stroke="rgb(0%, 0%, 0%)" stroke-opacity="1" stroke-miterlimit="10" d="M -25.510415 -18.424441 L -25.510415 18.42638 C -25.510415 22.338074 -22.341001 25.511415 -18.42538 25.511415 L 18.425441 25.511415 C 22.341061 25.511415 25.510475 22.338074 25.510475 18.42638 L 25.510475 -18.424441 C 25.510475 -22.340061 22.341061 -25.513403 18.425441 -25.513403 L -18.42538 -25.513403 C -22.341001 -25.513403 -25.510415 -22.340061 -25.510415 -18.424441 Z M -25.510415 -18.424441 " transform="matrix(0.994614, 0, 0, -0.994614, 28.193329, 28.194324)"/>
<path fill="none" stroke-width="3.4016" stroke-linecap="round" stroke-linejoin="round" stroke="rgb(27.450562%, 54.902649%, 100%)" stroke-opacity="1" stroke-miterlimit="10" d="M -21.260965 2.834591 L 16.178966 2.834591 " transform="matrix(0.994614, 0, 0, -0.994614, 28.193329, 28.194324)"/>
<path fill-rule="nonzero" fill="rgb(27.450562%, 54.902649%, 100%)" fill-opacity="1" d="M 50.75 25.375 L 40.410156 20.203125 L 44.285156 25.375 L 40.410156 30.542969 "/>
<path fill="none" stroke-width="3.4016" stroke-linecap="round" stroke-linejoin="round" stroke="rgb(27.450562%, 54.902649%, 100%)" stroke-opacity="1" stroke-miterlimit="10" d="M -11.340346 -21.260025 L -11.340346 16.179906 " transform="matrix(0.994614, 0, 0, -0.994614, 28.193329, 28.194324)"/>
<path fill-rule="nonzero" fill="rgb(27.450562%, 54.902649%, 100%)" fill-opacity="1" d="M 16.914062 5.640625 L 11.746094 15.976562 L 16.914062 12.101562 L 22.085938 15.976562 "/>
<path fill="none" stroke-width="3.4016" stroke-linecap="round" stroke-linejoin="round" stroke="rgb(0%, 0%, 0%)" stroke-opacity="1" stroke-miterlimit="10" d="M -19.843173 17.008588 C -19.843173 17.008588 -16.139632 -4.882756 -14.172003 -5.668236 C -12.208302 -6.457644 -8.029545 11.337418 -5.669176 11.337418 C -3.308807 11.337418 0.473282 -5.275496 2.833651 -5.668236 C 5.19402 -6.060976 8.980037 8.505761 11.340406 8.505761 C 13.696848 8.505761 19.843233 -5.668236 19.843233 -5.668236 " transform="matrix(0.994614, 0, 0, -0.994614, 28.193329, 28.194324)"/>
</svg>
