<?xml version="1.0" encoding="UTF-8"?>
<svg xmlns="http://www.w3.org/2000/svg" xmlns:xlink="http://www.w3.org/1999/xlink" width="56.693" height="56.693" viewBox="0 0 56.693 56.693">
<path fill="none" stroke-width="3.4016" stroke-linecap="round" stroke-linejoin="round" stroke="rgb(0%, 0%, 0%)" stroke-opacity="1" stroke-miterlimit="10" d="M -25.510415 -18.424441 L -25.510415 18.42638 C -25.510415 22.338074 -22.341001 25.511415 -18.42538 25.511415 L 18.425441 25.511415 C 22.341061 25.511415 25.510475 22.338074 25.510475 18.42638 L 25.510475 -18.424441 C 25.510475 -22.340061 22.341061 -25.513403 18.425441 -25.513403 L -18.42538 -25.513403 C -22.341001 -25.513403 -25.510415 -22.340061 -25.510415 -18.424441 Z M -25.510415 -18.424441 " transform="matrix(0.994614, 0, 0, -0.994614, 28.193329, 28.194324)"/>
<path fill="none" stroke-width="3.4016" stroke-linecap="round" stroke-linejoin="round" stroke="rgb(0%, 0%, 0%)" stroke-opacity="1" stroke-miterlimit="10" d="M -17.573134 -0.0009938 L -3.403064 -0.0009938 L 13.040971 10.771872 " transform="matrix(0.994614, 0, 0, -0.994614, 28.193329, 28.194324)"/>
<path fill="none" stroke-width="3.4016" stroke-linecap="round" stroke-linejoin="round" stroke="rgb(0%, 0%, 0%)" stroke-opacity="1" stroke-miterlimit="10" d="M -3.403064 -0.0009938 L 13.040971 -10.77386 " transform="matrix(0.994614, 0, 0, -0.994614, 28.193329, 28.194324)"/>
<path fill-rule="nonzero" fill="rgb(27.450562%, 54.902649%, 100%)" fill-opacity="1" stroke-width="1.55907" stroke-linecap="round" stroke-linejoin="round" stroke="rgb(0%, 0%, 0%)" stroke-opacity="1" stroke-miterlimit="10" d="M -13.590747 -0.0009938 C -13.590747 2.202279 -15.373788 3.98532 -17.573134 3.98532 C -19.776407 3.98532 -21.559448 2.202279 -21.559448 -0.0009938 C -21.559448 -2.200339 -19.776407 -3.98338 -17.573134 -3.98338 C -15.373788 -3.98338 -13.590747 -2.200339 -13.590747 -0.0009938 Z M -13.590747 -0.0009938 " transform="matrix(0.994614, 0, 0, -0.994614, 28.193329, 28.194324)"/>
<path fill-rule="nonzero" fill="rgb(27.450562%, 54.902649%, 100%)" fill-opacity="1" stroke-width="1.55907" stroke-linecap="round" stroke-linejoin="round" stroke="rgb(0%, 0%, 0%)" stroke-opacity="1" stroke-miterlimit="10" d="M 0.583249 -0.0009938 C 0.583249 2.202279 -1.199791 3.98532 -3.403064 3.98532 C -5.60241 3.98532 -7.385451 2.202279 -7.385451 -0.0009938 C -7.385451 -2.200339 -5.60241 -3.98338 -3.403064 -3.98338 C -1.199791 -3.98338 0.583249 -2.200339 0.583249 -0.0009938 Z M 0.583249 -0.0009938 " transform="matrix(0.994614, 0, 0, -0.994614, 28.193329, 28.194324)"/>
<path fill-rule="nonzero" fill="rgb(27.450562%, 54.902649%, 100%)" fill-opacity="1" stroke-width="1.55907" stroke-linecap="round" stroke-linejoin="round" stroke="rgb(0%, 0%, 0%)" stroke-opacity="1" stroke-miterlimit="10" d="M 17.023358 10.771872 C 17.023358 12.971218 15.240317 14.758186 13.040971 14.758186 C 10.837698 14.758186 9.054657 12.971218 9.054657 10.771872 C 9.054657 8.572527 10.837698 6.785558 13.040971 6.785558 C 15.240317 6.785558 17.023358 8.572527 17.023358 10.771872 Z M 17.023358 10.771872 " transform="matrix(0.994614, 0, 0, -0.994614, 28.193329, 28.194324)"/>
<path fill-rule="nonzero" fill="rgb(27.450562%, 54.902649%, 100%)" fill-opacity="1" stroke-width="1.55907" stroke-linecap="round" stroke-linejoin="round" stroke="rgb(0%, 0%, 0%)" stroke-opacity="1" stroke-miterlimit="10" d="M 17.023358 -10.77386 C 17.023358 -8.570587 15.240317 -6.787546 13.040971 -6.787546 C 10.837698 -6.787546 9.054657 -8.570587 9.054657 -10.77386 C 9.054657 -12.973205 10.837698 -14.756246 13.040971 -14.756246 C 15.240317 -14.756246 17.023358 -12.973205 17.023358 -10.77386 Z M 17.023358 -10.77386 " transform="matrix(0.994614, 0, 0, -0.994614, 28.193329, 28.194324)"/>
</svg>
