<?xml version="1.0" encoding="UTF-8"?>
<svg xmlns="http://www.w3.org/2000/svg" xmlns:xlink="http://www.w3.org/1999/xlink" width="56.693" height="56.693" viewBox="0 0 56.693 56.693">
<path fill="none" stroke-width="3.4016" stroke-linecap="round" stroke-linejoin="round" stroke="rgb(0%, 0%, 0%)" stroke-opacity="1" stroke-miterlimit="10" d="M -25.510415 -18.424441 L -25.510415 18.42638 C -25.510415 22.338074 -22.341001 25.511415 -18.42538 25.511415 L 18.425441 25.511415 C 22.341061 25.511415 25.510475 22.338074 25.510475 18.42638 L 25.510475 -18.424441 C 25.510475 -22.340061 22.341061 -25.513403 18.425441 -25.513403 L -18.42538 -25.513403 C -22.341001 -25.513403 -25.510415 -22.340061 -25.510415 -18.424441 Z M -25.510415 -18.424441 " transform="matrix(0.994614, 0, 0, -0.994614, 28.193329, 28.194324)"/>
<path fill-rule="nonzero" fill="rgb(27.450562%, 54.902649%, 100%)" fill-opacity="1" d="M 8.457031 32.421875 L 8.457031 42.292969 C 8.457031 45.71875 17.292969 48.492188 28.191406 48.492188 C 39.09375 48.492188 47.929688 45.71875 47.929688 42.292969 L 47.929688 32.421875 C 47.929688 28.996094 39.09375 26.21875 28.191406 26.21875 C 17.292969 26.21875 8.457031 28.996094 8.457031 32.421875 "/>
<path fill="none" stroke-width="3.4016" stroke-linecap="round" stroke-linejoin="round" stroke="rgb(0%, 0%, 0%)" stroke-opacity="1" stroke-miterlimit="10" d="M -19.843173 -4.250444 L -19.843173 -14.174991 C -19.843173 -17.619323 -10.959388 -20.407779 -0.0019336 -20.407779 C 10.959448 -20.407779 19.843233 -17.619323 19.843233 -14.174991 L 19.843233 -4.250444 " transform="matrix(0.994614, 0, 0, -0.994614, 28.193329, 28.194324)"/>
<path fill="none" stroke-width="3.4016" stroke-linecap="round" stroke-linejoin="round" stroke="rgb(0%, 0%, 0%)" stroke-opacity="1" stroke-miterlimit="10" d="M -19.843173 -4.250444 C -19.843173 -7.694776 -10.959388 -10.487159 -0.0019336 -10.487159 C 10.959448 -10.487159 19.843233 -7.694776 19.843233 -4.250444 " transform="matrix(0.994614, 0, 0, -0.994614, 28.193329, 28.194324)"/>
<path fill="none" stroke-width="3.4016" stroke-linecap="round" stroke-linejoin="round" stroke="rgb(0%, 0%, 0%)" stroke-opacity="1" stroke-dasharray="3.4016 0.99628" stroke-miterlimit="10" d="M 19.843233 -4.250444 C 19.843233 -0.806111 10.959448 1.986272 -0.0019336 1.986272 C -10.959388 1.986272 -19.843173 -0.806111 -19.843173 -4.250444 " transform="matrix(0.994614, 0, 0, -0.994614, 28.193329, 28.194324)"/>
<path fill-rule="nonzero" fill="rgb(27.450562%, 54.902649%, 100%)" fill-opacity="1" d="M 8.457031 21.144531 L 8.457031 31.015625 C 8.457031 34.441406 17.292969 37.214844 28.191406 37.214844 C 39.09375 37.214844 47.929688 34.441406 47.929688 31.015625 L 47.929688 21.144531 C 47.929688 17.71875 39.09375 14.941406 28.191406 14.941406 C 17.292969 14.941406 8.457031 17.71875 8.457031 21.144531 "/>
<path fill="none" stroke-width="3.4016" stroke-linecap="round" stroke-linejoin="round" stroke="rgb(0%, 0%, 0%)" stroke-opacity="1" stroke-miterlimit="10" d="M -19.843173 7.087968 L -19.843173 -2.836579 C -19.843173 -6.280911 -10.959388 -9.069367 -0.0019336 -9.069367 C 10.959448 -9.069367 19.843233 -6.280911 19.843233 -2.836579 L 19.843233 7.087968 " transform="matrix(0.994614, 0, 0, -0.994614, 28.193329, 28.194324)"/>
<path fill="none" stroke-width="3.4016" stroke-linecap="round" stroke-linejoin="round" stroke="rgb(0%, 0%, 0%)" stroke-opacity="1" stroke-miterlimit="10" d="M -19.843173 7.087968 C -19.843173 3.643636 -10.959388 0.851253 -0.0019336 0.851253 C 10.959448 0.851253 19.843233 3.643636 19.843233 7.087968 " transform="matrix(0.994614, 0, 0, -0.994614, 28.193329, 28.194324)"/>
<path fill="none" stroke-width="3.4016" stroke-linecap="round" stroke-linejoin="round" stroke="rgb(0%, 0%, 0%)" stroke-opacity="1" stroke-dasharray="3.4016 0.99628" stroke-miterlimit="10" d="M 19.843233 7.087968 C 19.843233 10.532301 10.959448 13.324684 -0.0019336 13.324684 C -10.959388 13.324684 -19.843173 10.532301 -19.843173 7.087968 " transform="matrix(0.994614, 0, 0, -0.994614, 28.193329, 28.194324)"/>
<path fill-rule="nonzero" fill="rgb(27.450562%, 54.902649%, 100%)" fill-opacity="1" d="M 8.457031 12.6875 L 8.457031 22.554688 C 8.457031 25.980469 17.292969 28.757812 28.191406 28.757812 C 39.09375 28.757812 47.929688 25.980469 47.929688 22.554688 L 47.929688 12.6875 C 47.929688 9.261719 39.09375 6.484375 28.191406 6.484375 C 17.292969 6.484375 8.457031 9.261719 8.457031 12.6875 "/>
<path fill="none" stroke-width="3.4016" stroke-linecap="round" stroke-linejoin="round" stroke="rgb(0%, 0%, 0%)" stroke-opacity="1" stroke-miterlimit="10" d="M -19.843173 15.590796 L -19.843173 5.670176 C -19.843173 2.225844 -10.959388 -0.56654 -0.0019336 -0.56654 C 10.959448 -0.56654 19.843233 2.225844 19.843233 5.670176 L 19.843233 15.590796 " transform="matrix(0.994614, 0, 0, -0.994614, 28.193329, 28.194324)"/>
<path fill="none" stroke-width="3.4016" stroke-linecap="round" stroke-linejoin="round" stroke="rgb(0%, 0%, 0%)" stroke-opacity="1" stroke-miterlimit="10" d="M -19.843173 15.590796 C -19.843173 12.146463 -10.959388 9.35408 -0.0019336 9.35408 C 10.959448 9.35408 19.843233 12.146463 19.843233 15.590796 " transform="matrix(0.994614, 0, 0, -0.994614, 28.193329, 28.194324)"/>
<path fill="none" stroke-width="3.4016" stroke-linecap="round" stroke-linejoin="round" stroke="rgb(0%, 0%, 0%)" stroke-opacity="1" stroke-dasharray="3.4016 0.99628" stroke-miterlimit="10" d="M 19.843233 15.590796 C 19.843233 19.035128 10.959448 21.827511 -0.0019336 21.827511 C -10.959388 21.827511 -19.843173 19.035128 -19.843173 15.590796 " transform="matrix(0.994614, 0, 0, -0.994614, 28.193329, 28.194324)"/>
</svg>
