<?xml version="1.0" encoding="UTF-8"?>
<svg xmlns="http://www.w3.org/2000/svg" xmlns:xlink="http://www.w3.org/1999/xlink" width="56.693" height="56.693" viewBox="0 0 56.693 56.693">
<path fill="none" stroke-width="3.4016" stroke-linecap="round" stroke-linejoin="round" stroke="rgb(0%, 0%, 0%)" stroke-opacity="1" stroke-miterlimit="10" d="M -25.510415 -18.424441 L -25.510415 18.42638 C -25.510415 22.338074 -22.341001 25.511415 -18.42538 25.511415 L 18.425441 25.511415 C 22.341061 25.511415 25.510475 22.338074 25.510475 18.42638 L 25.510475 -18.424441 C 25.510475 -22.340061 22.341061 -25.513403 18.425441 -25.513403 L -18.42538 -25.513403 C -22.341001 -25.513403 -25.510415 -22.340061 -25.510415 -18.424441 Z M -25.510415 -18.424441 " transform="matrix(0.994614, 0, 0, -0.994614, 28.193329, 28.194324)"/>
<path fill-rule="nonzero" fill="rgb(89.84375%, 93.685913%, 100%)" fill-opacity="1" stroke-width="1.98427" stroke-linecap="round" stroke-linejoin="round" stroke="rgb(0%, 0%, 0%)" stroke-opacity="1" stroke-miterlimit="10" d="M -17.573134 -17.576122 L -17.573134 17.574134 L 17.573194 17.574134 L 17.573194 -17.576122 Z M -17.573134 -17.576122 " transform="matrix(0.994614, 0, 0, -0.994614, 28.193329, 28.194324)"/>
<path fill-rule="nonzero" fill="rgb(0%, 0%, 0%)" fill-opacity="1" d="M 11.980469 45.675781 C 11.980469 44.972656 11.414062 44.40625 10.714844 44.40625 C 10.011719 44.40625 9.445312 44.972656 9.445312 45.675781 C 9.445312 46.375 10.011719 46.941406 10.714844 46.941406 C 11.414062 46.941406 11.980469 46.375 11.980469 45.675781 Z M 11.980469 45.675781 "/>
<path fill-rule="nonzero" fill="rgb(0%, 0%, 0%)" fill-opacity="1" d="M 11.980469 28.195312 C 11.980469 27.492188 11.414062 26.925781 10.714844 26.925781 C 10.011719 26.925781 9.445312 27.492188 9.445312 28.195312 C 9.445312 28.894531 10.011719 29.464844 10.714844 29.464844 C 11.414062 29.464844 11.980469 28.894531 11.980469 28.195312 Z M 11.980469 28.195312 "/>
<path fill-rule="nonzero" fill="rgb(0%, 0%, 0%)" fill-opacity="1" d="M 11.980469 10.714844 C 11.980469 10.011719 11.414062 9.445312 10.714844 9.445312 C 10.011719 9.445312 9.445312 10.011719 9.445312 10.714844 C 9.445312 11.414062 10.011719 11.984375 10.714844 11.984375 C 11.414062 11.984375 11.980469 11.414062 11.980469 10.714844 Z M 11.980469 10.714844 "/>
<path fill-rule="nonzero" fill="rgb(0%, 0%, 0%)" fill-opacity="1" d="M 29.460938 45.675781 C 29.460938 44.972656 28.894531 44.40625 28.191406 44.40625 C 27.492188 44.40625 26.925781 44.972656 26.925781 45.675781 C 26.925781 46.375 27.492188 46.941406 28.191406 46.941406 C 28.894531 46.941406 29.460938 46.375 29.460938 45.675781 Z M 29.460938 45.675781 "/>
<path fill-rule="nonzero" fill="rgb(0%, 0%, 0%)" fill-opacity="1" d="M 29.460938 28.195312 C 29.460938 27.492188 28.894531 26.925781 28.191406 26.925781 C 27.492188 26.925781 26.925781 27.492188 26.925781 28.195312 C 26.925781 28.894531 27.492188 29.464844 28.191406 29.464844 C 28.894531 29.464844 29.460938 28.894531 29.460938 28.195312 Z M 29.460938 28.195312 "/>
<path fill-rule="nonzero" fill="rgb(0%, 0%, 0%)" fill-opacity="1" d="M 29.460938 10.714844 C 29.460938 10.011719 28.894531 9.445312 28.191406 9.445312 C 27.492188 9.445312 26.925781 10.011719 26.925781 10.714844 C 26.925781 11.414062 27.492188 11.984375 28.191406 11.984375 C 28.894531 11.984375 29.460938 11.414062 29.460938 10.714844 Z M 29.460938 10.714844 "/>
<path fill-rule="nonzero" fill="rgb(0%, 0%, 0%)" fill-opacity="1" d="M 46.941406 45.675781 C 46.941406 44.972656 46.375 44.40625 45.671875 44.40625 C 44.972656 44.40625 44.40625 44.972656 44.40625 45.675781 C 44.40625 46.375 44.972656 46.941406 45.671875 46.941406 C 46.375 46.941406 46.941406 46.375 46.941406 45.675781 Z M 46.941406 45.675781 "/>
<path fill-rule="nonzero" fill="rgb(0%, 0%, 0%)" fill-opacity="1" d="M 46.941406 28.195312 C 46.941406 27.492188 46.375 26.925781 45.671875 26.925781 C 44.972656 26.925781 44.40625 27.492188 44.40625 28.195312 C 44.40625 28.894531 44.972656 29.464844 45.671875 29.464844 C 46.375 29.464844 46.941406 28.894531 46.941406 28.195312 Z M 46.941406 28.195312 "/>
<path fill-rule="nonzero" fill="rgb(0%, 0%, 0%)" fill-opacity="1" d="M 46.941406 10.714844 C 46.941406 10.011719 46.375 9.445312 45.671875 9.445312 C 44.972656 9.445312 44.40625 10.011719 44.40625 10.714844 C 44.40625 11.414062 44.972656 11.984375 45.671875 11.984375 C 46.375 11.984375 46.941406 11.414062 46.941406 10.714844 Z M 46.941406 10.714844 "/>
<path fill-rule="nonzero" fill="rgb(27.450562%, 54.902649%, 100%)" fill-opacity="1" stroke-width="1.55907" stroke-linecap="round" stroke-linejoin="round" stroke="rgb(0%, 0%, 0%)" stroke-opacity="1" stroke-miterlimit="10" d="M -13.590747 -17.576122 C -13.590747 -15.372849 -15.373788 -13.589808 -17.573134 -13.589808 C -19.776407 -13.589808 -21.559448 -15.372849 -21.559448 -17.576122 C -21.559448 -19.775467 -19.776407 -21.558508 -17.573134 -21.558508 C -15.373788 -21.558508 -13.590747 -19.775467 -13.590747 -17.576122 Z M -13.590747 -17.576122 " transform="matrix(0.994614, 0, 0, -0.994614, 28.193329, 28.194324)"/>
<path fill-rule="nonzero" fill="rgb(27.450562%, 54.902649%, 100%)" fill-opacity="1" stroke-width="1.55907" stroke-linecap="round" stroke-linejoin="round" stroke="rgb(0%, 0%, 0%)" stroke-opacity="1" stroke-miterlimit="10" d="M -13.590747 17.574134 C -13.590747 19.777407 -15.373788 21.560448 -17.573134 21.560448 C -19.776407 21.560448 -21.559448 19.777407 -21.559448 17.574134 C -21.559448 15.374788 -19.776407 13.58782 -17.573134 13.58782 C -15.373788 13.58782 -13.590747 15.374788 -13.590747 17.574134 Z M -13.590747 17.574134 " transform="matrix(0.994614, 0, 0, -0.994614, 28.193329, 28.194324)"/>
<path fill-rule="nonzero" fill="rgb(27.450562%, 54.902649%, 100%)" fill-opacity="1" stroke-width="1.55907" stroke-linecap="round" stroke-linejoin="round" stroke="rgb(0%, 0%, 0%)" stroke-opacity="1" stroke-miterlimit="10" d="M 21.559508 -17.576122 C 21.559508 -15.372849 19.776467 -13.589808 17.573194 -13.589808 C 15.373849 -13.589808 13.590808 -15.372849 13.590808 -17.576122 C 13.590808 -19.775467 15.373849 -21.558508 17.573194 -21.558508 C 19.776467 -21.558508 21.559508 -19.775467 21.559508 -17.576122 Z M 21.559508 -17.576122 " transform="matrix(0.994614, 0, 0, -0.994614, 28.193329, 28.194324)"/>
<path fill-rule="nonzero" fill="rgb(27.450562%, 54.902649%, 100%)" fill-opacity="1" stroke-width="1.55907" stroke-linecap="round" stroke-linejoin="round" stroke="rgb(0%, 0%, 0%)" stroke-opacity="1" stroke-miterlimit="10" d="M 21.559508 17.574134 C 21.559508 19.777407 19.776467 21.560448 17.573194 21.560448 C 15.373849 21.560448 13.590808 19.777407 13.590808 17.574134 C 13.590808 15.374788 15.373849 13.58782 17.573194 13.58782 C 19.776467 13.58782 21.559508 15.374788 21.559508 17.574134 Z M 21.559508 17.574134 " transform="matrix(0.994614, 0, 0, -0.994614, 28.193329, 28.194324)"/>
</svg>
