<?xml version="1.0" encoding="UTF-8"?>
<svg xmlns="http://www.w3.org/2000/svg" xmlns:xlink="http://www.w3.org/1999/xlink" width="56.693" height="56.693" viewBox="0 0 56.693 56.693">
<defs>
<clipPath id="clip-0">
<path clip-rule="nonzero" d="M 23 9 L 56.386719 9 L 56.386719 46 L 23 46 Z M 23 9 "/>
</clipPath>
<clipPath id="clip-1">
<path clip-rule="nonzero" d="M 1 18 L 56.386719 18 L 56.386719 56.386719 L 1 56.386719 Z M 1 18 "/>
</clipPath>
</defs>
<path fill="none" stroke-width="3.4016" stroke-linecap="round" stroke-linejoin="round" stroke="rgb(0%, 0%, 0%)" stroke-opacity="1" stroke-miterlimit="10" d="M -25.510415 -18.424441 L -25.510415 18.42638 C -25.510415 22.338074 -22.341001 25.511415 -18.42538 25.511415 L 18.425441 25.511415 C 22.341061 25.511415 25.510475 22.338074 25.510475 18.42638 L 25.510475 -18.424441 C 25.510475 -22.340061 22.341061 -25.513403 18.425441 -25.513403 L -18.42538 -25.513403 C -22.341001 -25.513403 -25.510415 -22.340061 -25.510415 -18.424441 Z M -25.510415 -18.424441 " transform="matrix(0.994614, 0, 0, -0.994614, 28.193329, 28.194324)"/>
<path fill-rule="nonzero" fill="rgb(52.842712%, 70.684814%, 100%)" fill-opacity="1" stroke-width="1.55907" stroke-linecap="round" stroke-linejoin="round" stroke="rgb(0%, 0%, 0%)" stroke-opacity="1" stroke-miterlimit="10" d="M -16.442042 10.771872 L -16.442042 4.535156 C -16.442042 3.910699 -15.935407 3.400137 -15.307023 3.400137 L -6.804195 3.400137 C -6.175811 3.400137 -5.669176 3.910699 -5.669176 4.535156 L -5.669176 10.771872 C -5.669176 11.396329 -6.175811 11.906892 -6.804195 11.906892 L -15.307023 11.906892 C -15.935407 11.906892 -16.442042 11.396329 -16.442042 10.771872 Z M -16.442042 10.771872 " transform="matrix(0.994614, 0, 0, -0.994614, 28.193329, 28.194324)"/>
<path fill-rule="nonzero" fill="rgb(54.879761%, 75.274658%, 64.059448%)" fill-opacity="1" stroke-width="1.55907" stroke-linecap="round" stroke-linejoin="round" stroke="rgb(0%, 0%, 0%)" stroke-opacity="1" stroke-miterlimit="10" d="M -4.534156 10.771872 L -4.534156 4.535156 C -4.534156 3.910699 -4.027522 3.400137 -3.403064 3.400137 L 5.10369 3.400137 C 5.728147 3.400137 6.234782 3.910699 6.234782 4.535156 L 6.234782 10.771872 C 6.234782 11.396329 5.728147 11.906892 5.10369 11.906892 L -3.403064 11.906892 C -4.027522 11.906892 -4.534156 11.396329 -4.534156 10.771872 Z M -4.534156 10.771872 " transform="matrix(0.994614, 0, 0, -0.994614, 28.193329, 28.194324)"/>
<path fill-rule="nonzero" fill="rgb(92.350769%, 70.431519%, 51.05896%)" fill-opacity="1" stroke-width="1.55907" stroke-linecap="round" stroke-linejoin="round" stroke="rgb(0%, 0%, 0%)" stroke-opacity="1" stroke-miterlimit="10" d="M 7.369802 10.771872 L 7.369802 4.535156 C 7.369802 3.910699 7.876437 3.400137 8.504821 3.400137 L 17.007648 3.400137 C 17.636033 3.400137 18.142668 3.910699 18.142668 4.535156 L 18.142668 10.771872 C 18.142668 11.396329 17.636033 11.906892 17.007648 11.906892 L 8.504821 11.906892 C 7.876437 11.906892 7.369802 11.396329 7.369802 10.771872 Z M 7.369802 10.771872 " transform="matrix(0.994614, 0, 0, -0.994614, 28.193329, 28.194324)"/>
<path fill-rule="nonzero" fill="rgb(54.879761%, 75.274658%, 64.059448%)" fill-opacity="1" stroke-width="1.55907" stroke-linecap="round" stroke-linejoin="round" stroke="rgb(0%, 0%, 0%)" stroke-opacity="1" stroke-miterlimit="10" d="M -16.442042 -7.368802 L -16.442042 -13.605517 C -16.442042 -14.233902 -15.935407 -14.740537 -15.307023 -14.740537 L -6.804195 -14.740537 C -6.175811 -14.740537 -5.669176 -14.233902 -5.669176 -13.605517 L -5.669176 -7.368802 C -5.669176 -6.744345 -6.175811 -6.23771 -6.804195 -6.23771 L -15.307023 -6.23771 C -15.935407 -6.23771 -16.442042 -6.744345 -16.442042 -7.368802 Z M -16.442042 -7.368802 " transform="matrix(0.994614, 0, 0, -0.994614, 28.193329, 28.194324)"/>
<path fill-rule="nonzero" fill="rgb(52.842712%, 70.684814%, 100%)" fill-opacity="1" stroke-width="1.55907" stroke-linecap="round" stroke-linejoin="round" stroke="rgb(0%, 0%, 0%)" stroke-opacity="1" stroke-miterlimit="10" d="M -4.534156 -7.368802 L -4.534156 -13.605517 C -4.534156 -14.233902 -4.027522 -14.740537 -3.403064 -14.740537 L 5.10369 -14.740537 C 5.728147 -14.740537 6.234782 -14.233902 6.234782 -13.605517 L 6.234782 -7.368802 C 6.234782 -6.744345 5.728147 -6.23771 5.10369 -6.23771 L -3.403064 -6.23771 C -4.027522 -6.23771 -4.534156 -6.744345 -4.534156 -7.368802 Z M -4.534156 -7.368802 " transform="matrix(0.994614, 0, 0, -0.994614, 28.193329, 28.194324)"/>
<path fill-rule="nonzero" fill="rgb(92.350769%, 70.431519%, 51.05896%)" fill-opacity="1" stroke-width="1.55907" stroke-linecap="round" stroke-linejoin="round" stroke="rgb(0%, 0%, 0%)" stroke-opacity="1" stroke-miterlimit="10" d="M 7.369802 -7.368802 L 7.369802 -13.605517 C 7.369802 -14.233902 7.876437 -14.740537 8.504821 -14.740537 L 17.007648 -14.740537 C 17.636033 -14.740537 18.142668 -14.233902 18.142668 -13.605517 L 18.142668 -7.368802 C 18.142668 -6.744345 17.636033 -6.23771 17.007648 -6.23771 L 8.504821 -6.23771 C 7.876437 -6.23771 7.369802 -6.744345 7.369802 -7.368802 Z M 7.369802 -7.368802 " transform="matrix(0.994614, 0, 0, -0.994614, 28.193329, 28.194324)"/>
<path fill="none" stroke-width="1.13385" stroke-linecap="round" stroke-linejoin="round" stroke="rgb(0%, 0%, 0%)" stroke-opacity="1" stroke-miterlimit="10" d="M -11.053645 2.269045 L -11.053645 1.593532 " transform="matrix(0.994614, 0, 0, -0.994614, 28.193329, 28.194324)"/>
<path fill-rule="nonzero" fill="rgb(0%, 0%, 0%)" fill-opacity="1" stroke-width="1.13385" stroke-linecap="round" stroke-linejoin="miter" stroke="rgb(0%, 0%, 0%)" stroke-opacity="1" stroke-miterlimit="10" d="M 6.477662 0.00157477 L 1.831545 1.761051 L 3.378941 0.00157477 L 1.831545 -1.761829 Z M 6.477662 0.00157477 " transform="matrix(0, 0.994614, 0.994614, 0, 17.197652, 23.529883)"/>
<path fill="none" stroke-width="1.13385" stroke-linecap="round" stroke-linejoin="round" stroke="rgb(0%, 0%, 0%)" stroke-opacity="1" stroke-miterlimit="10" d="M 0.850313 2.269045 L 0.850313 1.593532 " transform="matrix(0.994614, 0, 0, -0.994614, 28.193329, 28.194324)"/>
<path fill-rule="nonzero" fill="rgb(0%, 0%, 0%)" fill-opacity="1" stroke-width="1.13385" stroke-linecap="round" stroke-linejoin="miter" stroke="rgb(0%, 0%, 0%)" stroke-opacity="1" stroke-miterlimit="10" d="M 6.477662 -0.0000471836 L 1.831545 1.759429 L 3.378941 -0.0000471836 L 1.831545 -1.759524 Z M 6.477662 -0.0000471836 " transform="matrix(0, 0.994614, 0.994614, 0, 29.039109, 23.529883)"/>
<path fill="none" stroke-width="1.13385" stroke-linecap="round" stroke-linejoin="round" stroke="rgb(0%, 0%, 0%)" stroke-opacity="1" stroke-miterlimit="10" d="M 12.754271 2.269045 L 12.754271 1.593532 " transform="matrix(0.994614, 0, 0, -0.994614, 28.193329, 28.194324)"/>
<path fill-rule="nonzero" fill="rgb(0%, 0%, 0%)" fill-opacity="1" d="M 40.878906 29.972656 L 42.632812 25.351562 L 40.878906 26.890625 L 39.128906 25.351562 Z M 40.878906 29.972656 "/>
<g clip-path="url(#clip-0)">
<path fill="none" stroke-width="1.13385" stroke-linecap="round" stroke-linejoin="miter" stroke="rgb(0%, 0%, 0%)" stroke-opacity="1" stroke-miterlimit="10" d="M 6.477662 -0.00167913 L 1.831545 1.761725 L 3.378941 -0.00167913 L 1.831545 -1.761156 Z M 6.477662 -0.00167913 " transform="matrix(0, 0.994614, 0.994614, 0, 40.880576, 23.529883)"/>
</g>
<path fill="none" stroke-width="1.84251" stroke-linecap="round" stroke-linejoin="round" stroke="rgb(27.450562%, 54.902649%, 100%)" stroke-opacity="1" stroke-miterlimit="10" d="M -3.403064 -18.424441 L 0.229783 -18.424441 " transform="matrix(0.994614, 0, 0, -0.994614, 28.193329, 28.194324)"/>
<path fill-rule="nonzero" fill="rgb(27.450562%, 54.902649%, 100%)" fill-opacity="1" d="M 32.632812 46.519531 L 26.980469 44.371094 L 28.882812 46.519531 L 26.980469 48.667969 Z M 32.632812 46.519531 "/>
<g clip-path="url(#clip-1)">
<path fill="none" stroke-width="1.84251" stroke-linecap="round" stroke-linejoin="miter" stroke="rgb(27.450562%, 54.902649%, 100%)" stroke-opacity="1" stroke-miterlimit="10" d="M 8.657003 0.000789412 L 2.974052 2.160861 L 4.886697 0.000789412 L 2.974052 -2.159282 Z M 8.657003 0.000789412 " transform="matrix(0.994614, 0, 0, -0.994614, 24.022435, 46.520316)"/>
</g>
</svg>
