<?xml version="1.0" encoding="UTF-8"?>
<svg xmlns="http://www.w3.org/2000/svg" xmlns:xlink="http://www.w3.org/1999/xlink" width="56.693" height="56.693" viewBox="0 0 56.693 56.693">
<path fill="none" stroke-width="3.4016" stroke-linecap="round" stroke-linejoin="round" stroke="rgb(0%, 0%, 0%)" stroke-opacity="1" stroke-miterlimit="10" d="M -25.510415 -18.424441 L -25.510415 18.42638 C -25.510415 22.338074 -22.341001 25.511415 -18.42538 25.511415 L 18.425441 25.511415 C 22.341061 25.511415 25.510475 22.338074 25.510475 18.42638 L 25.510475 -18.424441 C 25.510475 -22.340061 22.341061 -25.513403 18.425441 -25.513403 L -18.42538 -25.513403 C -22.341001 -25.513403 -25.510415 -22.340061 -25.510415 -18.424441 Z M -25.510415 -18.424441 " transform="matrix(0.994614, 0, 0, -0.994614, 28.193329, 28.194324)"/>
<path fill="none" stroke-width="1.98427" stroke-linecap="round" stroke-linejoin="round" stroke="rgb(0%, 0%, 0%)" stroke-opacity="1" stroke-miterlimit="10" d="M -20.408719 -15.592783 L 20.408779 -15.592783 " transform="matrix(0.994614, 0, 0, -0.994614, 28.193329, 28.194324)"/>
<path fill="none" stroke-width="1.98427" stroke-linecap="round" stroke-linejoin="round" stroke="rgb(0%, 0%, 0%)" stroke-opacity="1" stroke-miterlimit="10" d="M -15.589796 -4.250444 L 17.573194 -4.250444 " transform="matrix(0.994614, 0, 0, -0.994614, 28.193329, 28.194324)"/>
<path fill="none" stroke-width="1.98427" stroke-linecap="round" stroke-linejoin="round" stroke="rgb(0%, 0%, 0%)" stroke-opacity="1" stroke-miterlimit="10" d="M -9.35308 7.087968 L 13.040971 7.087968 " transform="matrix(0.994614, 0, 0, -0.994614, 28.193329, 28.194324)"/>
<path fill-rule="nonzero" fill="rgb(27.450562%, 54.902649%, 100%)" fill-opacity="1" stroke-width="3.4016" stroke-linecap="round" stroke-linejoin="round" stroke="rgb(0%, 0%, 0%)" stroke-opacity="1" stroke-miterlimit="10" d="M -1.415799 -15.592783 L 12.754271 -4.250444 L 5.10369 7.087968 L -9.070307 -4.250444 Z M -1.415799 -15.592783 " transform="matrix(0.994614, 0, 0, -0.994614, 28.193329, 28.194324)"/>
<path fill-rule="nonzero" fill="rgb(27.450562%, 54.902649%, 100%)" fill-opacity="1" stroke-width="1.98427" stroke-linecap="round" stroke-linejoin="round" stroke="rgb(0%, 0%, 0%)" stroke-opacity="1" stroke-miterlimit="10" d="M -6.081553 -4.250444 C -6.081553 -2.600934 -7.420798 -1.26169 -9.070307 -1.26169 C -10.723743 -1.26169 -12.05906 -2.600934 -12.05906 -4.250444 C -12.05906 -5.90388 -10.723743 -7.239197 -9.070307 -7.239197 C -7.420798 -7.239197 -6.081553 -5.90388 -6.081553 -4.250444 Z M -6.081553 -4.250444 " transform="matrix(0.994614, 0, 0, -0.994614, 28.193329, 28.194324)"/>
<path fill-rule="nonzero" fill="rgb(27.450562%, 54.902649%, 100%)" fill-opacity="1" stroke-width="1.98427" stroke-linecap="round" stroke-linejoin="round" stroke="rgb(0%, 0%, 0%)" stroke-opacity="1" stroke-miterlimit="10" d="M 15.743024 -4.250444 C 15.743024 -2.600934 14.407707 -1.26169 12.754271 -1.26169 C 11.104762 -1.26169 9.765517 -2.600934 9.765517 -4.250444 C 9.765517 -5.90388 11.104762 -7.239197 12.754271 -7.239197 C 14.407707 -7.239197 15.743024 -5.90388 15.743024 -4.250444 Z M 15.743024 -4.250444 " transform="matrix(0.994614, 0, 0, -0.994614, 28.193329, 28.194324)"/>
<path fill-rule="nonzero" fill="rgb(27.450562%, 54.902649%, 100%)" fill-opacity="1" stroke-width="1.98427" stroke-linecap="round" stroke-linejoin="round" stroke="rgb(0%, 0%, 0%)" stroke-opacity="1" stroke-miterlimit="10" d="M 8.092444 7.087968 C 8.092444 8.737478 6.753199 10.076722 5.10369 10.076722 C 3.450254 10.076722 2.114937 8.737478 2.114937 7.087968 C 2.114937 5.434532 3.450254 4.099215 5.10369 4.099215 C 6.753199 4.099215 8.092444 5.434532 8.092444 7.087968 Z M 8.092444 7.087968 " transform="matrix(0.994614, 0, 0, -0.994614, 28.193329, 28.194324)"/>
<path fill="none" stroke-width="1.98427" stroke-linecap="round" stroke-linejoin="round" stroke="rgb(0%, 0%, 0%)" stroke-opacity="1" stroke-dasharray="2.98883 2.98883" stroke-miterlimit="10" d="M -19.843173 15.590796 L 20.408779 -20.407779 " transform="matrix(0.994614, 0, 0, -0.994614, 28.193329, 28.194324)"/>
<path fill-rule="nonzero" fill="rgb(0%, 0%, 0%)" fill-opacity="1" stroke-width="1.98427" stroke-linecap="round" stroke-linejoin="round" stroke="rgb(0%, 0%, 0%)" stroke-opacity="1" stroke-miterlimit="10" d="M 1.572955 -1.418786 C 1.572955 0.23465 0.233711 1.569967 -1.415799 1.569967 C -3.069235 1.569967 -4.404552 0.23465 -4.404552 -1.418786 C -4.404552 -3.068295 -3.069235 -4.40754 -1.415799 -4.40754 C 0.233711 -4.40754 1.572955 -3.068295 1.572955 -1.418786 Z M 1.572955 -1.418786 " transform="matrix(0.994614, 0, 0, -0.994614, 28.193329, 28.194324)"/>
</svg>
