<?xml version="1.0" encoding="UTF-8"?>
<svg xmlns="http://www.w3.org/2000/svg" xmlns:xlink="http://www.w3.org/1999/xlink" width="56.693" height="56.693" viewBox="0 0 56.693 56.693">
<path fill="none" stroke-width="3.4016" stroke-linecap="round" stroke-linejoin="round" stroke="rgb(0%, 0%, 0%)" stroke-opacity="1" stroke-miterlimit="10" d="M -25.510415 -18.424441 L -25.510415 18.42638 C -25.510415 22.338074 -22.341001 25.511415 -18.42538 25.511415 L 18.425441 25.511415 C 22.341061 25.511415 25.510475 22.338074 25.510475 18.42638 L 25.510475 -18.424441 C 25.510475 -22.340061 22.341061 -25.513403 18.425441 -25.513403 L -18.42538 -25.513403 C -22.341001 -25.513403 -25.510415 -22.340061 -25.510415 -18.424441 Z M -25.510415 -18.424441 " transform="matrix(0.994614, 0, 0, -0.994614, 28.193329, 28.194324)"/>
<path fill-rule="nonzero" fill="rgb(86.941528%, 91.880798%, 100%)" fill-opacity="1" stroke-width="1.7008" stroke-linecap="round" stroke-linejoin="round" stroke="rgb(0%, 0%, 0%)" stroke-opacity="1" stroke-miterlimit="10" d="M -15.589796 -15.875556 L -15.589796 15.873569 C -15.589796 16.812218 -14.827879 17.574134 -13.88923 17.574134 L 11.905952 17.574134 C 12.844601 17.574134 13.606517 16.812218 13.606517 15.873569 L 13.606517 -15.875556 C 13.606517 -16.814205 12.844601 -17.576122 11.905952 -17.576122 L -13.88923 -17.576122 C -14.827879 -17.576122 -15.589796 -16.814205 -15.589796 -15.875556 Z M -15.589796 -15.875556 " transform="matrix(0.994614, 0, 0, -0.994614, 28.193329, 28.194324)"/>
<path fill="none" stroke-width="1.98427" stroke-linecap="round" stroke-linejoin="round" stroke="rgb(0%, 0%, 0%)" stroke-opacity="1" stroke-miterlimit="10" d="M -9.635853 17.574134 L -9.635853 -17.576122 " transform="matrix(0.994614, 0, 0, -0.994614, 28.193329, 28.194324)"/>
<path fill="none" stroke-width="1.27559" stroke-linecap="round" stroke-linejoin="round" stroke="rgb(0%, 0%, 0%)" stroke-opacity="1" stroke-miterlimit="10" d="M -5.10363 9.636853 L 7.935348 9.636853 " transform="matrix(0.994614, 0, 0, -0.994614, 28.193329, 28.194324)"/>
<path fill-rule="nonzero" fill="rgb(88.233948%, 54.508972%, 24.705505%)" fill-opacity="1" d="M 19.875 18.609375 C 19.875 18.0625 19.433594 17.621094 18.890625 17.621094 C 18.34375 17.621094 17.902344 18.0625 17.902344 18.609375 C 17.902344 19.152344 18.34375 19.59375 18.890625 19.59375 C 19.433594 19.59375 19.875 19.152344 19.875 18.609375 Z M 19.875 18.609375 "/>
<path fill="none" stroke-width="1.27559" stroke-linecap="round" stroke-linejoin="round" stroke="rgb(0%, 0%, 0%)" stroke-opacity="1" stroke-miterlimit="10" d="M -5.10363 3.400137 L 7.935348 3.400137 " transform="matrix(0.994614, 0, 0, -0.994614, 28.193329, 28.194324)"/>
<path fill-rule="nonzero" fill="rgb(88.233948%, 54.508972%, 24.705505%)" fill-opacity="1" d="M 19.875 24.8125 C 19.875 24.265625 19.433594 23.824219 18.890625 23.824219 C 18.34375 23.824219 17.902344 24.265625 17.902344 24.8125 C 17.902344 25.355469 18.34375 25.796875 18.890625 25.796875 C 19.433594 25.796875 19.875 25.355469 19.875 24.8125 Z M 19.875 24.8125 "/>
<path fill="none" stroke-width="1.27559" stroke-linecap="round" stroke-linejoin="round" stroke="rgb(0%, 0%, 0%)" stroke-opacity="1" stroke-miterlimit="10" d="M -5.10363 -2.836579 L 7.935348 -2.836579 " transform="matrix(0.994614, 0, 0, -0.994614, 28.193329, 28.194324)"/>
<path fill-rule="nonzero" fill="rgb(88.233948%, 54.508972%, 24.705505%)" fill-opacity="1" d="M 19.875 31.015625 C 19.875 30.46875 19.433594 30.027344 18.890625 30.027344 C 18.34375 30.027344 17.902344 30.46875 17.902344 31.015625 C 17.902344 31.558594 18.34375 32 18.890625 32 C 19.433594 32 19.875 31.558594 19.875 31.015625 Z M 19.875 31.015625 "/>
<path fill="none" stroke-width="1.27559" stroke-linecap="round" stroke-linejoin="round" stroke="rgb(0%, 0%, 0%)" stroke-opacity="1" stroke-miterlimit="10" d="M -5.10363 -9.069367 L 7.935348 -9.069367 " transform="matrix(0.994614, 0, 0, -0.994614, 28.193329, 28.194324)"/>
<path fill-rule="nonzero" fill="rgb(88.233948%, 54.508972%, 24.705505%)" fill-opacity="1" d="M 19.875 37.214844 C 19.875 36.671875 19.433594 36.230469 18.890625 36.230469 C 18.34375 36.230469 17.902344 36.671875 17.902344 37.214844 C 17.902344 37.761719 18.34375 38.203125 18.890625 38.203125 C 19.433594 38.203125 19.875 37.761719 19.875 37.214844 Z M 19.875 37.214844 "/>
<path fill="none" stroke-width="2.26773" stroke-linecap="round" stroke-linejoin="round" stroke="rgb(30.587769%, 61.959839%, 44.706726%)" stroke-opacity="1" stroke-miterlimit="10" d="M 10.770932 -10.77386 C 10.770932 -8.268177 8.740465 -6.23771 6.234782 -6.23771 C 3.733027 -6.23771 1.702559 -8.268177 1.702559 -10.77386 C 1.702559 -13.275615 3.733027 -15.306083 6.234782 -15.306083 C 8.740465 -15.306083 10.770932 -13.275615 10.770932 -10.77386 Z M 10.770932 -10.77386 " transform="matrix(0.994614, 0, 0, -0.994614, 28.193329, 28.194324)"/>
<path fill="none" stroke-width="2.26773" stroke-linecap="round" stroke-linejoin="round" stroke="rgb(30.587769%, 61.959839%, 44.706726%)" stroke-opacity="1" stroke-miterlimit="10" d="M 9.35314 -13.88829 L 15.872629 -20.407779 " transform="matrix(0.994614, 0, 0, -0.994614, 28.193329, 28.194324)"/>
</svg>
