<?xml version="1.0" encoding="UTF-8"?>
<svg xmlns="http://www.w3.org/2000/svg" xmlns:xlink="http://www.w3.org/1999/xlink" width="56.693" height="56.693" viewBox="0 0 56.693 56.693">
<path fill="none" stroke-width="3.4016" stroke-linecap="round" stroke-linejoin="round" stroke="rgb(0%, 0%, 0%)" stroke-opacity="1" stroke-miterlimit="10" d="M -25.510415 -18.424441 L -25.510415 18.42638 C -25.510415 22.338074 -22.341001 25.511415 -18.42538 25.511415 L 18.425441 25.511415 C 22.341061 25.511415 25.510475 22.338074 25.510475 18.42638 L 25.510475 -18.424441 C 25.510475 -22.340061 22.341061 -25.513403 18.425441 -25.513403 L -18.42538 -25.513403 C -22.341001 -25.513403 -25.510415 -22.340061 -25.510415 -18.424441 Z M -25.510415 -18.424441 " transform="matrix(0.994614, 0, 0, -0.994614, 28.193329, 28.194324)"/>
<path fill="none" stroke-width="1.49442" stroke-linecap="round" stroke-linejoin="round" stroke="rgb(27.450562%, 54.902649%, 100%)" stroke-opacity="1" stroke-miterlimit="10" d="M 13.029189 13.030129 C 7.774324 11.372765 2.543023 13.536764 -0.0019336 18.42638 " transform="matrix(0.994614, 0, 0, -0.994614, 28.193329, 28.194324)"/>
<path fill="none" stroke-width="1.49442" stroke-linecap="round" stroke-linejoin="round" stroke="rgb(27.450562%, 54.902649%, 100%)" stroke-opacity="1" stroke-miterlimit="10" d="M 18.425441 -0.0009938 C 8.618716 -8.986892 -12.447873 -0.260202 -13.029129 13.030129 " transform="matrix(0.994614, 0, 0, -0.994614, 28.193329, 28.194324)"/>
<path fill="none" stroke-width="1.49442" stroke-linecap="round" stroke-linejoin="round" stroke="rgb(27.450562%, 54.902649%, 100%)" stroke-opacity="1" stroke-miterlimit="10" d="M -13.029129 -13.028189 C -7.774264 -11.370825 -2.542963 -13.538751 -0.0019336 -18.424441 " transform="matrix(0.994614, 0, 0, -0.994614, 28.193329, 28.194324)"/>
<path fill="none" stroke-width="1.49442" stroke-linecap="round" stroke-linejoin="round" stroke="rgb(27.450562%, 54.902649%, 100%)" stroke-opacity="1" stroke-miterlimit="10" d="M -18.42538 -0.0009938 C -8.618655 8.984904 12.447933 0.258215 13.029189 -13.028189 " transform="matrix(0.994614, 0, 0, -0.994614, 28.193329, 28.194324)"/>
<path fill-rule="nonzero" fill="rgb(27.450562%, 54.902649%, 100%)" fill-opacity="1" stroke-width="1.98427" stroke-linecap="round" stroke-linejoin="round" stroke="rgb(0%, 0%, 0%)" stroke-opacity="1" stroke-miterlimit="10" d="M 21.414194 -0.0009938 C 21.414194 1.652443 20.07495 2.98776 18.425441 2.98776 C 16.775931 2.98776 15.436687 1.652443 15.436687 -0.0009938 C 15.436687 -1.650503 16.775931 -2.989747 18.425441 -2.989747 C 20.07495 -2.989747 21.414194 -1.650503 21.414194 -0.0009938 Z M 21.414194 -0.0009938 " transform="matrix(0.994614, 0, 0, -0.994614, 28.193329, 28.194324)"/>
<path fill-rule="nonzero" fill="rgb(27.450562%, 54.902649%, 100%)" fill-opacity="1" stroke-width="1.98427" stroke-linecap="round" stroke-linejoin="round" stroke="rgb(0%, 0%, 0%)" stroke-opacity="1" stroke-miterlimit="10" d="M 16.017943 13.030129 C 16.017943 14.679638 14.678698 16.018882 13.029189 16.018882 C 11.37968 16.018882 10.040435 14.679638 10.040435 13.030129 C 10.040435 11.376692 11.37968 10.041375 13.029189 10.041375 C 14.678698 10.041375 16.017943 11.376692 16.017943 13.030129 Z M 16.017943 13.030129 " transform="matrix(0.994614, 0, 0, -0.994614, 28.193329, 28.194324)"/>
<path fill-rule="nonzero" fill="rgb(27.450562%, 54.902649%, 100%)" fill-opacity="1" stroke-width="1.98427" stroke-linecap="round" stroke-linejoin="round" stroke="rgb(0%, 0%, 0%)" stroke-opacity="1" stroke-miterlimit="10" d="M 2.990747 18.42638 C 2.990747 20.07589 1.651503 21.415134 -0.0019336 21.415134 C -1.651443 21.415134 -2.990687 20.07589 -2.990687 18.42638 C -2.990687 16.772944 -1.651443 15.437627 -0.0019336 15.437627 C 1.651503 15.437627 2.990747 16.772944 2.990747 18.42638 Z M 2.990747 18.42638 " transform="matrix(0.994614, 0, 0, -0.994614, 28.193329, 28.194324)"/>
<path fill-rule="nonzero" fill="rgb(27.450562%, 54.902649%, 100%)" fill-opacity="1" stroke-width="1.98427" stroke-linecap="round" stroke-linejoin="round" stroke="rgb(0%, 0%, 0%)" stroke-opacity="1" stroke-miterlimit="10" d="M -10.040375 13.030129 C -10.040375 14.679638 -11.37962 16.018882 -13.029129 16.018882 C -14.678638 16.018882 -16.017882 14.679638 -16.017882 13.030129 C -16.017882 11.376692 -14.678638 10.041375 -13.029129 10.041375 C -11.37962 10.041375 -10.040375 11.376692 -10.040375 13.030129 Z M -10.040375 13.030129 " transform="matrix(0.994614, 0, 0, -0.994614, 28.193329, 28.194324)"/>
<path fill-rule="nonzero" fill="rgb(27.450562%, 54.902649%, 100%)" fill-opacity="1" stroke-width="1.98427" stroke-linecap="round" stroke-linejoin="round" stroke="rgb(0%, 0%, 0%)" stroke-opacity="1" stroke-miterlimit="10" d="M -15.436627 -0.0009938 C -15.436627 1.652443 -16.775871 2.98776 -18.42538 2.98776 C -20.07489 2.98776 -21.414134 1.652443 -21.414134 -0.0009938 C -21.414134 -1.650503 -20.07489 -2.989747 -18.42538 -2.989747 C -16.775871 -2.989747 -15.436627 -1.650503 -15.436627 -0.0009938 Z M -15.436627 -0.0009938 " transform="matrix(0.994614, 0, 0, -0.994614, 28.193329, 28.194324)"/>
<path fill-rule="nonzero" fill="rgb(27.450562%, 54.902649%, 100%)" fill-opacity="1" stroke-width="1.98427" stroke-linecap="round" stroke-linejoin="round" stroke="rgb(0%, 0%, 0%)" stroke-opacity="1" stroke-miterlimit="10" d="M -10.040375 -13.028189 C -10.040375 -11.37868 -11.37962 -10.039435 -13.029129 -10.039435 C -14.678638 -10.039435 -16.017882 -11.37868 -16.017882 -13.028189 C -16.017882 -14.677698 -14.678638 -16.016943 -13.029129 -16.016943 C -11.37962 -16.016943 -10.040375 -14.677698 -10.040375 -13.028189 Z M -10.040375 -13.028189 " transform="matrix(0.994614, 0, 0, -0.994614, 28.193329, 28.194324)"/>
<path fill-rule="nonzero" fill="rgb(27.450562%, 54.902649%, 100%)" fill-opacity="1" stroke-width="1.98427" stroke-linecap="round" stroke-linejoin="round" stroke="rgb(0%, 0%, 0%)" stroke-opacity="1" stroke-miterlimit="10" d="M 2.990747 -18.424441 C 2.990747 -16.774931 1.651503 -15.435687 -0.0019336 -15.435687 C -1.651443 -15.435687 -2.990687 -16.774931 -2.990687 -18.424441 C -2.990687 -20.077877 -1.651443 -21.413194 -0.0019336 -21.413194 C 1.651503 -21.413194 2.990747 -20.077877 2.990747 -18.424441 Z M 2.990747 -18.424441 " transform="matrix(0.994614, 0, 0, -0.994614, 28.193329, 28.194324)"/>
<path fill-rule="nonzero" fill="rgb(27.450562%, 54.902649%, 100%)" fill-opacity="1" stroke-width="1.98427" stroke-linecap="round" stroke-linejoin="round" stroke="rgb(0%, 0%, 0%)" stroke-opacity="1" stroke-miterlimit="10" d="M 16.017943 -13.028189 C 16.017943 -11.37868 14.678698 -10.039435 13.029189 -10.039435 C 11.37968 -10.039435 10.040435 -11.37868 10.040435 -13.028189 C 10.040435 -14.677698 11.37968 -16.016943 13.029189 -16.016943 C 14.678698 -16.016943 16.017943 -14.677698 16.017943 -13.028189 Z M 16.017943 -13.028189 " transform="matrix(0.994614, 0, 0, -0.994614, 28.193329, 28.194324)"/>
</svg>
