<?xml version="1.0" encoding="UTF-8"?>
<svg xmlns="http://www.w3.org/2000/svg" xmlns:xlink="http://www.w3.org/1999/xlink" width="56.693" height="56.693" viewBox="0 0 56.693 56.693">
<path fill="none" stroke-width="3.4016" stroke-linecap="round" stroke-linejoin="round" stroke="rgb(0%, 0%, 0%)" stroke-opacity="1" stroke-miterlimit="10" d="M -25.510415 -18.424441 L -25.510415 18.42638 C -25.510415 22.338074 -22.341001 25.511415 -18.42538 25.511415 L 18.425441 25.511415 C 22.341061 25.511415 25.510475 22.338074 25.510475 18.42638 L 25.510475 -18.424441 C 25.510475 -22.340061 22.341061 -25.513403 18.425441 -25.513403 L -18.42538 -25.513403 C -22.341001 -25.513403 -25.510415 -22.340061 -25.510415 -18.424441 Z M -25.510415 -18.424441 " transform="matrix(0.994614, 0, 0, -0.994614, 28.193329, 28.194324)"/>
<path fill-rule="nonzero" fill="rgb(63.723755%, 77.449036%, 100%)" fill-opacity="1" stroke-width="1.55907" stroke-linecap="round" stroke-linejoin="round" stroke="rgb(0%, 0%, 0%)" stroke-opacity="1" stroke-miterlimit="10" d="M -16.442042 15.873569 L -16.442042 3.686837 L -4.251383 3.686837 L -4.251383 15.873569 Z M -16.442042 15.873569 " transform="matrix(0.994614, 0, 0, -0.994614, 28.193329, 28.194324)"/>
<path fill-rule="nonzero" fill="rgb(63.723755%, 77.449036%, 100%)" fill-opacity="1" stroke-width="1.55907" stroke-linecap="round" stroke-linejoin="round" stroke="rgb(0%, 0%, 0%)" stroke-opacity="1" stroke-miterlimit="10" d="M -4.251383 15.873569 L -4.251383 3.686837 L 7.935348 3.686837 L 7.935348 15.873569 Z M -4.251383 15.873569 " transform="matrix(0.994614, 0, 0, -0.994614, 28.193329, 28.194324)"/>
<path fill-rule="nonzero" fill="rgb(63.723755%, 77.449036%, 100%)" fill-opacity="1" stroke-width="1.55907" stroke-linecap="round" stroke-linejoin="round" stroke="rgb(0%, 0%, 0%)" stroke-opacity="1" stroke-miterlimit="10" d="M 7.935348 15.873569 L 7.935348 3.686837 L 20.126006 3.686837 L 20.126006 15.873569 Z M 7.935348 15.873569 " transform="matrix(0.994614, 0, 0, -0.994614, 28.193329, 28.194324)"/>
<path fill-rule="nonzero" fill="rgb(63.723755%, 77.449036%, 100%)" fill-opacity="1" stroke-width="1.55907" stroke-linecap="round" stroke-linejoin="round" stroke="rgb(0%, 0%, 0%)" stroke-opacity="1" stroke-miterlimit="10" d="M -16.442042 3.686837 L -16.442042 -8.503821 L -4.251383 -8.503821 L -4.251383 3.686837 Z M -16.442042 3.686837 " transform="matrix(0.994614, 0, 0, -0.994614, 28.193329, 28.194324)"/>
<path fill-rule="nonzero" fill="rgb(63.723755%, 77.449036%, 100%)" fill-opacity="1" stroke-width="1.55907" stroke-linecap="round" stroke-linejoin="round" stroke="rgb(0%, 0%, 0%)" stroke-opacity="1" stroke-miterlimit="10" d="M -4.251383 3.686837 L -4.251383 -8.503821 L 7.935348 -8.503821 L 7.935348 3.686837 Z M -4.251383 3.686837 " transform="matrix(0.994614, 0, 0, -0.994614, 28.193329, 28.194324)"/>
<path fill-rule="nonzero" fill="rgb(63.723755%, 77.449036%, 100%)" fill-opacity="1" stroke-width="1.55907" stroke-linecap="round" stroke-linejoin="round" stroke="rgb(0%, 0%, 0%)" stroke-opacity="1" stroke-miterlimit="10" d="M -16.442042 -8.503821 L -16.442042 -20.694479 L -4.251383 -20.694479 L -4.251383 -8.503821 Z M -16.442042 -8.503821 " transform="matrix(0.994614, 0, 0, -0.994614, 28.193329, 28.194324)"/>
</svg>
