<?xml version="1.0" encoding="UTF-8"?>
<svg xmlns="http://www.w3.org/2000/svg" xmlns:xlink="http://www.w3.org/1999/xlink" width="56.693" height="56.693" viewBox="0 0 56.693 56.693">
<path fill="none" stroke-width="3.4016" stroke-linecap="round" stroke-linejoin="round" stroke="rgb(0%, 0%, 0%)" stroke-opacity="1" stroke-miterlimit="10" d="M -25.510415 -18.424441 L -25.510415 18.42638 C -25.510415 22.338074 -22.341001 25.511415 -18.42538 25.511415 L 18.425441 25.511415 C 22.341061 25.511415 25.510475 22.338074 25.510475 18.42638 L 25.510475 -18.424441 C 25.510475 -22.340061 22.341061 -25.513403 18.425441 -25.513403 L -18.42538 -25.513403 C -22.341001 -25.513403 -25.510415 -22.340061 -25.510415 -18.424441 Z M -25.510415 -18.424441 " transform="matrix(0.994614, 0, 0, -0.994614, 28.193329, 28.194324)"/>
<path fill-rule="nonzero" fill="rgb(0%, 0%, 0%)" fill-opacity="1" d="M 9.03125 49.339844 C 9.03125 48.246094 8.140625 47.359375 7.046875 47.359375 C 5.953125 47.359375 5.066406 48.246094 5.066406 49.339844 C 5.066406 50.433594 5.953125 51.320312 7.046875 51.320312 C 8.140625 51.320312 9.03125 50.433594 9.03125 49.339844 Z M 9.03125 49.339844 "/>
<path fill-rule="nonzero" fill="rgb(0%, 0%, 0%)" fill-opacity="1" d="M 9.03125 35.242188 C 9.03125 34.148438 8.140625 33.261719 7.046875 33.261719 C 5.953125 33.261719 5.066406 34.148438 5.066406 35.242188 C 5.066406 36.335938 5.953125 37.226562 7.046875 37.226562 C 8.140625 37.226562 9.03125 36.335938 9.03125 35.242188 Z M 9.03125 35.242188 "/>
<path fill-rule="nonzero" fill="rgb(0%, 0%, 0%)" fill-opacity="1" d="M 9.03125 21.144531 C 9.03125 20.050781 8.140625 19.164062 7.046875 19.164062 C 5.953125 19.164062 5.066406 20.050781 5.066406 21.144531 C 5.066406 22.242188 5.953125 23.128906 7.046875 23.128906 C 8.140625 23.128906 9.03125 22.242188 9.03125 21.144531 Z M 9.03125 21.144531 "/>
<path fill-rule="nonzero" fill="rgb(0%, 0%, 0%)" fill-opacity="1" d="M 9.03125 7.046875 C 9.03125 5.953125 8.140625 5.066406 7.046875 5.066406 C 5.953125 5.066406 5.066406 5.953125 5.066406 7.046875 C 5.066406 8.144531 5.953125 9.03125 7.046875 9.03125 C 8.140625 9.03125 9.03125 8.144531 9.03125 7.046875 Z M 9.03125 7.046875 "/>
<path fill-rule="nonzero" fill="rgb(0%, 0%, 0%)" fill-opacity="1" d="M 23.125 49.339844 C 23.125 48.246094 22.238281 47.359375 21.144531 47.359375 C 20.050781 47.359375 19.164062 48.246094 19.164062 49.339844 C 19.164062 50.433594 20.050781 51.320312 21.144531 51.320312 C 22.238281 51.320312 23.125 50.433594 23.125 49.339844 Z M 23.125 49.339844 "/>
<path fill-rule="nonzero" fill="rgb(0%, 0%, 0%)" fill-opacity="1" d="M 23.125 35.242188 C 23.125 34.148438 22.238281 33.261719 21.144531 33.261719 C 20.050781 33.261719 19.164062 34.148438 19.164062 35.242188 C 19.164062 36.335938 20.050781 37.226562 21.144531 37.226562 C 22.238281 37.226562 23.125 36.335938 23.125 35.242188 Z M 23.125 35.242188 "/>
<path fill-rule="nonzero" fill="rgb(0%, 0%, 0%)" fill-opacity="1" d="M 23.125 21.144531 C 23.125 20.050781 22.238281 19.164062 21.144531 19.164062 C 20.050781 19.164062 19.164062 20.050781 19.164062 21.144531 C 19.164062 22.242188 20.050781 23.128906 21.144531 23.128906 C 22.238281 23.128906 23.125 22.242188 23.125 21.144531 Z M 23.125 21.144531 "/>
<path fill-rule="nonzero" fill="rgb(0%, 0%, 0%)" fill-opacity="1" d="M 23.125 7.046875 C 23.125 5.953125 22.238281 5.066406 21.144531 5.066406 C 20.050781 5.066406 19.164062 5.953125 19.164062 7.046875 C 19.164062 8.144531 20.050781 9.03125 21.144531 9.03125 C 22.238281 9.03125 23.125 8.144531 23.125 7.046875 Z M 23.125 7.046875 "/>
<path fill-rule="nonzero" fill="rgb(0%, 0%, 0%)" fill-opacity="1" d="M 37.222656 49.339844 C 37.222656 48.246094 36.335938 47.359375 35.242188 47.359375 C 34.148438 47.359375 33.261719 48.246094 33.261719 49.339844 C 33.261719 50.433594 34.148438 51.320312 35.242188 51.320312 C 36.335938 51.320312 37.222656 50.433594 37.222656 49.339844 Z M 37.222656 49.339844 "/>
<path fill-rule="nonzero" fill="rgb(0%, 0%, 0%)" fill-opacity="1" d="M 37.222656 35.242188 C 37.222656 34.148438 36.335938 33.261719 35.242188 33.261719 C 34.148438 33.261719 33.261719 34.148438 33.261719 35.242188 C 33.261719 36.335938 34.148438 37.226562 35.242188 37.226562 C 36.335938 37.226562 37.222656 36.335938 37.222656 35.242188 Z M 37.222656 35.242188 "/>
<path fill-rule="nonzero" fill="rgb(0%, 0%, 0%)" fill-opacity="1" d="M 37.222656 21.144531 C 37.222656 20.050781 36.335938 19.164062 35.242188 19.164062 C 34.148438 19.164062 33.261719 20.050781 33.261719 21.144531 C 33.261719 22.242188 34.148438 23.128906 35.242188 23.128906 C 36.335938 23.128906 37.222656 22.242188 37.222656 21.144531 Z M 37.222656 21.144531 "/>
<path fill-rule="nonzero" fill="rgb(0%, 0%, 0%)" fill-opacity="1" d="M 37.222656 7.046875 C 37.222656 5.953125 36.335938 5.066406 35.242188 5.066406 C 34.148438 5.066406 33.261719 5.953125 33.261719 7.046875 C 33.261719 8.144531 34.148438 9.03125 35.242188 9.03125 C 36.335938 9.03125 37.222656 8.144531 37.222656 7.046875 Z M 37.222656 7.046875 "/>
<path fill-rule="nonzero" fill="rgb(0%, 0%, 0%)" fill-opacity="1" d="M 51.320312 49.339844 C 51.320312 48.246094 50.433594 47.359375 49.339844 47.359375 C 48.246094 47.359375 47.355469 48.246094 47.355469 49.339844 C 47.355469 50.433594 48.246094 51.320312 49.339844 51.320312 C 50.433594 51.320312 51.320312 50.433594 51.320312 49.339844 Z M 51.320312 49.339844 "/>
<path fill-rule="nonzero" fill="rgb(0%, 0%, 0%)" fill-opacity="1" d="M 51.320312 35.242188 C 51.320312 34.148438 50.433594 33.261719 49.339844 33.261719 C 48.246094 33.261719 47.355469 34.148438 47.355469 35.242188 C 47.355469 36.335938 48.246094 37.226562 49.339844 37.226562 C 50.433594 37.226562 51.320312 36.335938 51.320312 35.242188 Z M 51.320312 35.242188 "/>
<path fill-rule="nonzero" fill="rgb(0%, 0%, 0%)" fill-opacity="1" d="M 51.320312 21.144531 C 51.320312 20.050781 50.433594 19.164062 49.339844 19.164062 C 48.246094 19.164062 47.355469 20.050781 47.355469 21.144531 C 47.355469 22.242188 48.246094 23.128906 49.339844 23.128906 C 50.433594 23.128906 51.320312 22.242188 51.320312 21.144531 Z M 51.320312 21.144531 "/>
<path fill-rule="nonzero" fill="rgb(0%, 0%, 0%)" fill-opacity="1" d="M 51.320312 7.046875 C 51.320312 5.953125 50.433594 5.066406 49.339844 5.066406 C 48.246094 5.066406 47.355469 5.953125 47.355469 7.046875 C 47.355469 8.144531 48.246094 9.03125 49.339844 9.03125 C 50.433594 9.03125 51.320312 8.144531 51.320312 7.046875 Z M 51.320312 7.046875 "/>
<path fill-rule="nonzero" fill="rgb(27.450562%, 54.902649%, 100%)" fill-opacity="1" stroke-width="1.98427" stroke-linecap="round" stroke-linejoin="round" stroke="rgb(0%, 0%, 0%)" stroke-opacity="1" stroke-miterlimit="10" d="M -18.272212 -7.086029 C -18.272212 -5.436519 -19.607529 -4.097275 -21.260965 -4.097275 C -22.910474 -4.097275 -24.249719 -5.436519 -24.249719 -7.086029 C -24.249719 -8.735538 -22.910474 -10.074782 -21.260965 -10.074782 C -19.607529 -10.074782 -18.272212 -8.735538 -18.272212 -7.086029 Z M -18.272212 -7.086029 " transform="matrix(0.994614, 0, 0, -0.994614, 28.193329, 28.194324)"/>
<path fill-rule="nonzero" fill="rgb(27.450562%, 54.902649%, 100%)" fill-opacity="1" stroke-width="1.98427" stroke-linecap="round" stroke-linejoin="round" stroke="rgb(0%, 0%, 0%)" stroke-opacity="1" stroke-miterlimit="10" d="M -4.098215 21.261965 C -4.098215 22.911474 -5.437459 24.250719 -7.086968 24.250719 C -8.736478 24.250719 -10.075722 22.911474 -10.075722 21.261965 C -10.075722 19.608529 -8.736478 18.273212 -7.086968 18.273212 C -5.437459 18.273212 -4.098215 19.608529 -4.098215 21.261965 Z M -4.098215 21.261965 " transform="matrix(0.994614, 0, 0, -0.994614, 28.193329, 28.194324)"/>
<path fill-rule="nonzero" fill="rgb(27.450562%, 54.902649%, 100%)" fill-opacity="1" stroke-width="1.98427" stroke-linecap="round" stroke-linejoin="round" stroke="rgb(0%, 0%, 0%)" stroke-opacity="1" stroke-miterlimit="10" d="M 10.075782 -21.260025 C 10.075782 -19.610516 8.736538 -18.271272 7.087029 -18.271272 C 5.437519 -18.271272 4.098275 -19.610516 4.098275 -21.260025 C 4.098275 -22.909535 5.437519 -24.248779 7.087029 -24.248779 C 8.736538 -24.248779 10.075782 -22.909535 10.075782 -21.260025 Z M 10.075782 -21.260025 " transform="matrix(0.994614, 0, 0, -0.994614, 28.193329, 28.194324)"/>
<path fill-rule="nonzero" fill="rgb(27.450562%, 54.902649%, 100%)" fill-opacity="1" stroke-width="1.98427" stroke-linecap="round" stroke-linejoin="round" stroke="rgb(0%, 0%, 0%)" stroke-opacity="1" stroke-miterlimit="10" d="M 24.249779 7.087968 C 24.249779 8.737478 22.910535 10.076722 21.261025 10.076722 C 19.607589 10.076722 18.272272 8.737478 18.272272 7.087968 C 18.272272 5.434532 19.607589 4.099215 21.261025 4.099215 C 22.910535 4.099215 24.249779 5.434532 24.249779 7.087968 Z M 24.249779 7.087968 " transform="matrix(0.994614, 0, 0, -0.994614, 28.193329, 28.194324)"/>
</svg>
