<?xml version="1.0" encoding="UTF-8"?>
<svg xmlns="http://www.w3.org/2000/svg" xmlns:xlink="http://www.w3.org/1999/xlink" width="56.693" height="56.693" viewBox="0 0 56.693 56.693">
<path fill="none" stroke-width="3.4016" stroke-linecap="round" stroke-linejoin="round" stroke="rgb(0%, 0%, 0%)" stroke-opacity="1" stroke-miterlimit="10" d="M -25.510415 -18.424441 L -25.510415 18.42638 C -25.510415 22.338074 -22.341001 25.511415 -18.42538 25.511415 L 18.425441 25.511415 C 22.341061 25.511415 25.510475 22.338074 25.510475 18.42638 L 25.510475 -18.424441 C 25.510475 -22.340061 22.341061 -25.513403 18.425441 -25.513403 L -18.42538 -25.513403 C -22.341001 -25.513403 -25.510415 -22.340061 -25.510415 -18.424441 Z M -25.510415 -18.424441 " transform="matrix(0.994614, 0, 0, -0.994614, 28.193329, 28.194324)"/>
<path fill="none" stroke-width="1.98427" stroke-linecap="round" stroke-linejoin="round" stroke="rgb(0%, 0%, 0%)" stroke-opacity="1" stroke-miterlimit="10" d="M -18.42538 9.919626 L -9.474829 9.919626 " transform="matrix(0.994614, 0, 0, -0.994614, 28.193329, 28.194324)"/>
<path fill-rule="nonzero" fill="rgb(0%, 0%, 0%)" fill-opacity="1" d="M 23.117188 18.328125 L 16.164062 14.847656 L 18.769531 18.328125 L 16.164062 21.804688 "/>
<path fill="none" stroke-width="1.98427" stroke-linecap="round" stroke-linejoin="round" stroke="rgb(0%, 0%, 0%)" stroke-opacity="1" stroke-miterlimit="10" d="M 5.10369 9.919626 L 14.054241 9.919626 " transform="matrix(0.994614, 0, 0, -0.994614, 28.193329, 28.194324)"/>
<path fill-rule="nonzero" fill="rgb(0%, 0%, 0%)" fill-opacity="1" d="M 46.519531 18.328125 L 39.5625 14.847656 L 42.171875 18.328125 L 39.5625 21.804688 "/>
<path fill-rule="nonzero" fill="rgb(100%, 100%, 100%)" fill-opacity="1" stroke-width="3.4016" stroke-linecap="round" stroke-linejoin="round" stroke="rgb(0%, 0%, 0%)" stroke-opacity="1" stroke-miterlimit="10" d="M -23.244304 7.370741 L -23.244304 12.472438 C -23.244304 13.725279 -22.231034 14.738549 -20.978192 14.738549 L -17.859834 14.738549 C -16.606993 14.738549 -15.589796 13.725279 -15.589796 12.472438 L -15.589796 7.370741 C -15.589796 6.1179 -16.606993 5.100703 -17.859834 5.100703 L -20.978192 5.100703 C -22.231034 5.100703 -23.244304 6.1179 -23.244304 7.370741 Z M -23.244304 7.370741 " transform="matrix(0.994614, 0, 0, -0.994614, 28.193329, 28.194324)"/>
<path fill-rule="nonzero" fill="rgb(27.450562%, 54.902649%, 100%)" fill-opacity="1" stroke-width="3.4016" stroke-linecap="round" stroke-linejoin="round" stroke="rgb(0%, 0%, 0%)" stroke-opacity="1" stroke-miterlimit="10" d="M -4.534156 5.670176 L -4.534156 14.173003 C -4.534156 15.425845 -3.520887 16.443042 -2.268045 16.443042 L 2.268105 16.443042 C 3.520947 16.443042 4.534217 15.425845 4.534217 14.173003 L 4.534217 5.670176 C 4.534217 4.417334 3.520947 3.400137 2.268105 3.400137 L -2.268045 3.400137 C -3.520887 3.400137 -4.534156 4.417334 -4.534156 5.670176 Z M -4.534156 5.670176 " transform="matrix(0.994614, 0, 0, -0.994614, 28.193329, 28.194324)"/>
<path fill-rule="nonzero" fill="rgb(100%, 100%, 100%)" fill-opacity="1" stroke-width="3.4016" stroke-linecap="round" stroke-linejoin="round" stroke="rgb(0%, 0%, 0%)" stroke-opacity="1" stroke-miterlimit="10" d="M 15.589856 7.370741 L 15.589856 12.472438 C 15.589856 13.725279 16.607053 14.738549 17.859895 14.738549 L 20.978252 14.738549 C 22.231094 14.738549 23.244364 13.725279 23.244364 12.472438 L 23.244364 7.370741 C 23.244364 6.1179 22.231094 5.100703 20.978252 5.100703 L 17.859895 5.100703 C 16.607053 5.100703 15.589856 6.1179 15.589856 7.370741 Z M 15.589856 7.370741 " transform="matrix(0.994614, 0, 0, -0.994614, 28.193329, 28.194324)"/>
<path fill="none" stroke-width="1.98427" stroke-linecap="round" stroke-linejoin="round" stroke="rgb(0%, 0%, 0%)" stroke-opacity="1" stroke-miterlimit="10" d="M -15.589796 -9.921613 L -4.251383 -9.921613 " transform="matrix(0.994614, 0, 0, -0.994614, 28.193329, 28.194324)"/>
<path fill="none" stroke-width="1.98427" stroke-linecap="round" stroke-linejoin="round" stroke="rgb(0%, 0%, 0%)" stroke-opacity="1" stroke-miterlimit="10" d="M 4.251444 -9.921613 L 15.589856 -9.921613 " transform="matrix(0.994614, 0, 0, -0.994614, 28.193329, 28.194324)"/>
<path fill="none" stroke-width="1.98427" stroke-linecap="round" stroke-linejoin="round" stroke="rgb(0%, 0%, 0%)" stroke-opacity="1" stroke-miterlimit="10" d="M -0.0019336 -15.592783 L -0.0019336 -4.250444 " transform="matrix(0.994614, 0, 0, -0.994614, 28.193329, 28.194324)"/>
<path fill-rule="nonzero" fill="rgb(100%, 100%, 100%)" fill-opacity="1" stroke-width="3.4016" stroke-linecap="round" stroke-linejoin="round" stroke="rgb(0%, 0%, 0%)" stroke-opacity="1" stroke-miterlimit="10" d="M -20.408719 -13.039971 L -20.408719 -6.803256 C -20.408719 -5.70751 -19.521126 -4.819917 -18.42538 -4.819917 L -12.758138 -4.819917 C -11.658465 -4.819917 -10.770872 -5.70751 -10.770872 -6.803256 L -10.770872 -13.039971 C -10.770872 -14.135717 -11.658465 -15.02331 -12.758138 -15.02331 L -18.42538 -15.02331 C -19.521126 -15.02331 -20.408719 -14.135717 -20.408719 -13.039971 Z M -20.408719 -13.039971 " transform="matrix(0.994614, 0, 0, -0.994614, 28.193329, 28.194324)"/>
<path fill-rule="nonzero" fill="rgb(27.450562%, 54.902649%, 100%)" fill-opacity="1" stroke-width="3.4016" stroke-linecap="round" stroke-linejoin="round" stroke="rgb(0%, 0%, 0%)" stroke-opacity="1" stroke-miterlimit="10" d="M -4.820857 -13.039971 L -4.820857 -6.803256 C -4.820857 -5.70751 -3.929336 -4.819917 -2.833591 -4.819917 L 2.833651 -4.819917 C 3.929397 -4.819917 4.81699 -5.70751 4.81699 -6.803256 L 4.81699 -13.039971 C 4.81699 -14.135717 3.929397 -15.02331 2.833651 -15.02331 L -2.833591 -15.02331 C -3.929336 -15.02331 -4.820857 -14.135717 -4.820857 -13.039971 Z M -4.820857 -13.039971 " transform="matrix(0.994614, 0, 0, -0.994614, 28.193329, 28.194324)"/>
<path fill-rule="nonzero" fill="rgb(100%, 100%, 100%)" fill-opacity="1" stroke-width="3.4016" stroke-linecap="round" stroke-linejoin="round" stroke="rgb(0%, 0%, 0%)" stroke-opacity="1" stroke-miterlimit="10" d="M 10.770932 -13.039971 L 10.770932 -6.803256 C 10.770932 -5.70751 11.658525 -4.819917 12.758198 -4.819917 L 18.425441 -4.819917 C 19.521186 -4.819917 20.408779 -5.70751 20.408779 -6.803256 L 20.408779 -13.039971 C 20.408779 -14.135717 19.521186 -15.02331 18.425441 -15.02331 L 12.758198 -15.02331 C 11.658525 -15.02331 10.770932 -14.135717 10.770932 -13.039971 Z M 10.770932 -13.039971 " transform="matrix(0.994614, 0, 0, -0.994614, 28.193329, 28.194324)"/>
</svg>
