<?xml version="1.0" encoding="UTF-8"?>
<svg xmlns="http://www.w3.org/2000/svg" xmlns:xlink="http://www.w3.org/1999/xlink" width="56.693" height="56.693" viewBox="0 0 56.693 56.693">
<path fill="none" stroke-width="3.4016" stroke-linecap="round" stroke-linejoin="round" stroke="rgb(0%, 0%, 0%)" stroke-opacity="1" stroke-miterlimit="10" d="M -25.510415 -18.424441 L -25.510415 18.42638 C -25.510415 22.338074 -22.341001 25.511415 -18.42538 25.511415 L 18.425441 25.511415 C 22.341061 25.511415 25.510475 22.338074 25.510475 18.42638 L 25.510475 -18.424441 C 25.510475 -22.340061 22.341061 -25.513403 18.425441 -25.513403 L -18.42538 -25.513403 C -22.341001 -25.513403 -25.510415 -22.340061 -25.510415 -18.424441 Z M -25.510415 -18.424441 " transform="matrix(0.994614, 0, 0, -0.994614, 28.193329, 28.194324)"/>
<path fill="none" stroke-width="3.4016" stroke-linecap="round" stroke-linejoin="round" stroke="rgb(0%, 0%, 0%)" stroke-opacity="1" stroke-miterlimit="10" d="M -19.843173 2.834591 L -19.843173 18.42638 L -4.251383 18.42638 L -4.251383 2.834591 Z M -19.843173 2.834591 " transform="matrix(0.994614, 0, 0, -0.994614, 28.193329, 28.194324)"/>
<path fill="none" stroke-width="3.4016" stroke-linecap="round" stroke-linejoin="round" stroke="rgb(0%, 0%, 0%)" stroke-opacity="1" stroke-miterlimit="10" d="M -4.251383 2.834591 L -4.251383 18.42638 L 11.340406 18.42638 L 11.340406 2.834591 Z M -4.251383 2.834591 " transform="matrix(0.994614, 0, 0, -0.994614, 28.193329, 28.194324)"/>
<path fill="none" stroke-width="3.4016" stroke-linecap="round" stroke-linejoin="round" stroke="rgb(0%, 0%, 0%)" stroke-opacity="1" stroke-miterlimit="10" d="M -19.843173 -12.757198 L -19.843173 2.834591 L -4.251383 2.834591 L -4.251383 -12.757198 Z M -19.843173 -12.757198 " transform="matrix(0.994614, 0, 0, -0.994614, 28.193329, 28.194324)"/>
<path fill-rule="nonzero" fill="rgb(27.450562%, 54.902649%, 100%)" fill-opacity="1" stroke-width="3.4016" stroke-linecap="round" stroke-linejoin="round" stroke="rgb(0%, 0%, 0%)" stroke-opacity="1" stroke-miterlimit="10" d="M 5.669236 -12.757198 L 5.669236 2.834591 L 21.261025 2.834591 L 21.261025 -12.757198 Z M 5.669236 -12.757198 " transform="matrix(0.994614, 0, 0, -0.994614, 28.193329, 28.194324)"/>
</svg>
