<?xml version="1.0" encoding="UTF-8"?>
<svg xmlns="http://www.w3.org/2000/svg" xmlns:xlink="http://www.w3.org/1999/xlink" width="56.693" height="56.693" viewBox="0 0 56.693 56.693">
<path fill="none" stroke-width="3.4016" stroke-linecap="round" stroke-linejoin="round" stroke="rgb(0%, 0%, 0%)" stroke-opacity="1" stroke-miterlimit="10" d="M -25.510415 -18.424441 L -25.510415 18.42638 C -25.510415 22.338074 -22.341001 25.511415 -18.42538 25.511415 L 18.425441 25.511415 C 22.341061 25.511415 25.510475 22.338074 25.510475 18.42638 L 25.510475 -18.424441 C 25.510475 -22.340061 22.341061 -25.513403 18.425441 -25.513403 L -18.42538 -25.513403 C -22.341001 -25.513403 -25.510415 -22.340061 -25.510415 -18.424441 Z M -25.510415 -18.424441 " transform="matrix(0.994614, 0, 0, -0.994614, 28.193329, 28.194324)"/>
<path fill="none" stroke-width="3.4016" stroke-linecap="round" stroke-linejoin="round" stroke="rgb(27.450562%, 54.902649%, 100%)" stroke-opacity="1" stroke-miterlimit="10" d="M -17.007588 17.008588 L -6.497858 17.008588 " transform="matrix(0.994614, 0, 0, -0.994614, 28.193329, 28.194324)"/>
<path fill-rule="nonzero" fill="rgb(27.450562%, 54.902649%, 100%)" fill-opacity="1" d="M 28.191406 11.277344 L 17.855469 6.109375 L 21.730469 11.277344 L 17.855469 16.449219 "/>
<path fill="none" stroke-width="3.4016" stroke-linecap="round" stroke-linejoin="round" stroke="rgb(27.450562%, 54.902649%, 100%)" stroke-opacity="1" stroke-miterlimit="10" d="M -0.0019336 17.008588 L -0.0019336 6.498858 " transform="matrix(0.994614, 0, 0, -0.994614, 28.193329, 28.194324)"/>
<path fill-rule="nonzero" fill="rgb(27.450562%, 54.902649%, 100%)" fill-opacity="1" d="M 28.191406 28.195312 L 33.363281 17.855469 L 28.191406 21.730469 L 23.023438 17.855469 "/>
<path fill="none" stroke-width="3.4016" stroke-linecap="round" stroke-linejoin="round" stroke="rgb(27.450562%, 54.902649%, 100%)" stroke-opacity="1" stroke-miterlimit="10" d="M 17.007648 17.008588 L 17.007648 6.498858 " transform="matrix(0.994614, 0, 0, -0.994614, 28.193329, 28.194324)"/>
<path fill-rule="nonzero" fill="rgb(27.450562%, 54.902649%, 100%)" fill-opacity="1" d="M 45.109375 28.195312 L 50.28125 17.855469 L 45.109375 21.730469 L 39.941406 17.855469 "/>
<path fill="none" stroke-width="3.4016" stroke-linecap="round" stroke-linejoin="round" stroke="rgb(27.450562%, 54.902649%, 100%)" stroke-opacity="1" stroke-miterlimit="10" d="M -17.007588 -17.006648 L -6.497858 -17.006648 " transform="matrix(0.994614, 0, 0, -0.994614, 28.193329, 28.194324)"/>
<path fill-rule="nonzero" fill="rgb(27.450562%, 54.902649%, 100%)" fill-opacity="1" d="M 28.191406 45.109375 L 17.855469 39.941406 L 21.730469 45.109375 L 17.855469 50.28125 "/>
<path fill="none" stroke-width="3.4016" stroke-linecap="round" stroke-linejoin="round" stroke="rgb(0%, 0%, 0%)" stroke-opacity="1" stroke-miterlimit="10" d="M -0.0019336 17.008588 L 10.511724 17.008588 " transform="matrix(0.994614, 0, 0, -0.994614, 28.193329, 28.194324)"/>
<path fill-rule="nonzero" fill="rgb(0%, 0%, 0%)" fill-opacity="1" d="M 45.109375 11.277344 L 34.769531 6.109375 L 38.648438 11.277344 L 34.769531 16.449219 "/>
<path fill="none" stroke-width="3.4016" stroke-linecap="round" stroke-linejoin="round" stroke="rgb(0%, 0%, 0%)" stroke-opacity="1" stroke-miterlimit="10" d="M -17.007588 -0.0009938 L -17.007588 -10.510724 " transform="matrix(0.994614, 0, 0, -0.994614, 28.193329, 28.194324)"/>
<path fill-rule="nonzero" fill="rgb(0%, 0%, 0%)" fill-opacity="1" d="M 11.277344 45.109375 L 16.445312 34.769531 L 11.277344 38.648438 L 6.105469 34.769531 "/>
<path fill="none" stroke-width="3.4016" stroke-linecap="round" stroke-linejoin="round" stroke="rgb(0%, 0%, 0%)" stroke-opacity="1" stroke-miterlimit="10" d="M -0.0019336 -0.0009938 L 10.511724 -0.0009938 " transform="matrix(0.994614, 0, 0, -0.994614, 28.193329, 28.194324)"/>
<path fill-rule="nonzero" fill="rgb(0%, 0%, 0%)" fill-opacity="1" d="M 45.109375 28.195312 L 34.769531 23.023438 L 38.648438 28.195312 L 34.769531 33.363281 "/>
<path fill="none" stroke-width="3.4016" stroke-linecap="round" stroke-linejoin="round" stroke="rgb(0%, 0%, 0%)" stroke-opacity="1" stroke-miterlimit="10" d="M 17.007648 -0.0009938 L 17.007648 -10.510724 " transform="matrix(0.994614, 0, 0, -0.994614, 28.193329, 28.194324)"/>
<path fill-rule="nonzero" fill="rgb(0%, 0%, 0%)" fill-opacity="1" d="M 45.109375 45.109375 L 50.28125 34.769531 L 45.109375 38.648438 L 39.941406 34.769531 "/>
<path fill-rule="nonzero" fill="rgb(0%, 0%, 0%)" fill-opacity="1" stroke-width="1.98427" stroke-linecap="round" stroke-linejoin="round" stroke="rgb(0%, 0%, 0%)" stroke-opacity="1" stroke-miterlimit="10" d="M -14.018834 17.008588 C -14.018834 18.658097 -15.358079 19.997342 -17.007588 19.997342 C -18.657097 19.997342 -19.996342 18.658097 -19.996342 17.008588 C -19.996342 15.359079 -18.657097 14.019834 -17.007588 14.019834 C -15.358079 14.019834 -14.018834 15.359079 -14.018834 17.008588 Z M -14.018834 17.008588 " transform="matrix(0.994614, 0, 0, -0.994614, 28.193329, 28.194324)"/>
<path fill-rule="nonzero" fill="rgb(0%, 0%, 0%)" fill-opacity="1" stroke-width="1.98427" stroke-linecap="round" stroke-linejoin="round" stroke="rgb(0%, 0%, 0%)" stroke-opacity="1" stroke-miterlimit="10" d="M 2.990747 17.008588 C 2.990747 18.658097 1.651503 19.997342 -0.0019336 19.997342 C -1.651443 19.997342 -2.990687 18.658097 -2.990687 17.008588 C -2.990687 15.359079 -1.651443 14.019834 -0.0019336 14.019834 C 1.651503 14.019834 2.990747 15.359079 2.990747 17.008588 Z M 2.990747 17.008588 " transform="matrix(0.994614, 0, 0, -0.994614, 28.193329, 28.194324)"/>
<path fill-rule="nonzero" fill="rgb(0%, 0%, 0%)" fill-opacity="1" stroke-width="1.98427" stroke-linecap="round" stroke-linejoin="round" stroke="rgb(0%, 0%, 0%)" stroke-opacity="1" stroke-miterlimit="10" d="M 19.996402 17.008588 C 19.996402 18.658097 18.657157 19.997342 17.007648 19.997342 C 15.358139 19.997342 14.018895 18.658097 14.018895 17.008588 C 14.018895 15.359079 15.358139 14.019834 17.007648 14.019834 C 18.657157 14.019834 19.996402 15.359079 19.996402 17.008588 Z M 19.996402 17.008588 " transform="matrix(0.994614, 0, 0, -0.994614, 28.193329, 28.194324)"/>
<path fill-rule="nonzero" fill="rgb(0%, 0%, 0%)" fill-opacity="1" stroke-width="1.98427" stroke-linecap="round" stroke-linejoin="round" stroke="rgb(0%, 0%, 0%)" stroke-opacity="1" stroke-miterlimit="10" d="M -14.018834 -0.0009938 C -14.018834 1.652443 -15.358079 2.98776 -17.007588 2.98776 C -18.657097 2.98776 -19.996342 1.652443 -19.996342 -0.0009938 C -19.996342 -1.650503 -18.657097 -2.989747 -17.007588 -2.989747 C -15.358079 -2.989747 -14.018834 -1.650503 -14.018834 -0.0009938 Z M -14.018834 -0.0009938 " transform="matrix(0.994614, 0, 0, -0.994614, 28.193329, 28.194324)"/>
<path fill-rule="nonzero" fill="rgb(0%, 0%, 0%)" fill-opacity="1" stroke-width="1.98427" stroke-linecap="round" stroke-linejoin="round" stroke="rgb(0%, 0%, 0%)" stroke-opacity="1" stroke-miterlimit="10" d="M 2.990747 -0.0009938 C 2.990747 1.652443 1.651503 2.98776 -0.0019336 2.98776 C -1.651443 2.98776 -2.990687 1.652443 -2.990687 -0.0009938 C -2.990687 -1.650503 -1.651443 -2.989747 -0.0019336 -2.989747 C 1.651503 -2.989747 2.990747 -1.650503 2.990747 -0.0009938 Z M 2.990747 -0.0009938 " transform="matrix(0.994614, 0, 0, -0.994614, 28.193329, 28.194324)"/>
<path fill-rule="nonzero" fill="rgb(0%, 0%, 0%)" fill-opacity="1" stroke-width="1.98427" stroke-linecap="round" stroke-linejoin="round" stroke="rgb(0%, 0%, 0%)" stroke-opacity="1" stroke-miterlimit="10" d="M 19.996402 -0.0009938 C 19.996402 1.652443 18.657157 2.98776 17.007648 2.98776 C 15.358139 2.98776 14.018895 1.652443 14.018895 -0.0009938 C 14.018895 -1.650503 15.358139 -2.989747 17.007648 -2.989747 C 18.657157 -2.989747 19.996402 -1.650503 19.996402 -0.0009938 Z M 19.996402 -0.0009938 " transform="matrix(0.994614, 0, 0, -0.994614, 28.193329, 28.194324)"/>
<path fill-rule="nonzero" fill="rgb(0%, 0%, 0%)" fill-opacity="1" stroke-width="1.98427" stroke-linecap="round" stroke-linejoin="round" stroke="rgb(0%, 0%, 0%)" stroke-opacity="1" stroke-miterlimit="10" d="M -14.018834 -17.006648 C -14.018834 -15.357139 -15.358079 -14.017895 -17.007588 -14.017895 C -18.657097 -14.017895 -19.996342 -15.357139 -19.996342 -17.006648 C -19.996342 -18.660085 -18.657097 -19.995402 -17.007588 -19.995402 C -15.358079 -19.995402 -14.018834 -18.660085 -14.018834 -17.006648 Z M -14.018834 -17.006648 " transform="matrix(0.994614, 0, 0, -0.994614, 28.193329, 28.194324)"/>
<path fill-rule="nonzero" fill="rgb(0%, 0%, 0%)" fill-opacity="1" stroke-width="1.98427" stroke-linecap="round" stroke-linejoin="round" stroke="rgb(0%, 0%, 0%)" stroke-opacity="1" stroke-miterlimit="10" d="M 2.990747 -17.006648 C 2.990747 -15.357139 1.651503 -14.017895 -0.0019336 -14.017895 C -1.651443 -14.017895 -2.990687 -15.357139 -2.990687 -17.006648 C -2.990687 -18.660085 -1.651443 -19.995402 -0.0019336 -19.995402 C 1.651503 -19.995402 2.990747 -18.660085 2.990747 -17.006648 Z M 2.990747 -17.006648 " transform="matrix(0.994614, 0, 0, -0.994614, 28.193329, 28.194324)"/>
<path fill-rule="nonzero" fill="rgb(0%, 0%, 0%)" fill-opacity="1" stroke-width="1.98427" stroke-linecap="round" stroke-linejoin="round" stroke="rgb(0%, 0%, 0%)" stroke-opacity="1" stroke-miterlimit="10" d="M 19.996402 -17.006648 C 19.996402 -15.357139 18.657157 -14.017895 17.007648 -14.017895 C 15.358139 -14.017895 14.018895 -15.357139 14.018895 -17.006648 C 14.018895 -18.660085 15.358139 -19.995402 17.007648 -19.995402 C 18.657157 -19.995402 19.996402 -18.660085 19.996402 -17.006648 Z M 19.996402 -17.006648 " transform="matrix(0.994614, 0, 0, -0.994614, 28.193329, 28.194324)"/>
</svg>
