<?xml version="1.0" encoding="UTF-8"?>
<svg xmlns="http://www.w3.org/2000/svg" xmlns:xlink="http://www.w3.org/1999/xlink" width="56.693" height="56.693" viewBox="0 0 56.693 56.693">
<defs>
<clipPath id="clip-0">
<path clip-rule="nonzero" d="M 0 0 L 47 0 L 47 56.386719 L 0 56.386719 Z M 0 0 "/>
</clipPath>
<clipPath id="clip-1">
<path clip-rule="nonzero" d="M 0 0 L 56.386719 0 L 56.386719 56.386719 L 0 56.386719 Z M 0 0 "/>
</clipPath>
<clipPath id="clip-2">
<path clip-rule="nonzero" d="M 9 14 L 56.386719 14 L 56.386719 56.386719 L 9 56.386719 Z M 9 14 "/>
</clipPath>
</defs>
<path fill="none" stroke-width="3.4016" stroke-linecap="round" stroke-linejoin="round" stroke="rgb(0%, 0%, 0%)" stroke-opacity="1" stroke-miterlimit="10" d="M -25.510415 -18.424441 L -25.510415 18.42638 C -25.510415 22.338074 -22.341001 25.511415 -18.42538 25.511415 L 18.425441 25.511415 C 22.341061 25.511415 25.510475 22.338074 25.510475 18.42638 L 25.510475 -18.424441 C 25.510475 -22.340061 22.341061 -25.513403 18.425441 -25.513403 L -18.42538 -25.513403 C -22.341001 -25.513403 -25.510415 -22.340061 -25.510415 -18.424441 Z M -25.510415 -18.424441 " transform="matrix(0.994614, 0, 0, -0.994614, 28.193329, 28.194324)"/>
<path fill-rule="nonzero" fill="rgb(52.842712%, 70.684814%, 100%)" fill-opacity="1" stroke-width="1.55907" stroke-linecap="round" stroke-linejoin="round" stroke="rgb(0%, 0%, 0%)" stroke-opacity="1" stroke-miterlimit="10" d="M -17.859834 9.071307 L -17.859834 2.834591 C -17.859834 2.210134 -17.349272 1.699572 -16.724815 1.699572 L -8.221988 1.699572 C -7.593603 1.699572 -7.086968 2.210134 -7.086968 2.834591 L -7.086968 9.071307 C -7.086968 9.695764 -7.593603 10.206326 -8.221988 10.206326 L -16.724815 10.206326 C -17.349272 10.206326 -17.859834 9.695764 -17.859834 9.071307 Z M -17.859834 9.071307 " transform="matrix(0.994614, 0, 0, -0.994614, 28.193329, 28.194324)"/>
<path fill-rule="nonzero" fill="rgb(54.879761%, 75.274658%, 64.059448%)" fill-opacity="1" stroke-width="1.55907" stroke-linecap="round" stroke-linejoin="round" stroke="rgb(0%, 0%, 0%)" stroke-opacity="1" stroke-miterlimit="10" d="M -5.10363 9.071307 L -5.10363 2.834591 C -5.10363 2.210134 -4.593068 1.699572 -3.96861 1.699572 L 4.534217 1.699572 C 5.162601 1.699572 5.669236 2.210134 5.669236 2.834591 L 5.669236 9.071307 C 5.669236 9.695764 5.162601 10.206326 4.534217 10.206326 L -3.96861 10.206326 C -4.593068 10.206326 -5.10363 9.695764 -5.10363 9.071307 Z M -5.10363 9.071307 " transform="matrix(0.994614, 0, 0, -0.994614, 28.193329, 28.194324)"/>
<path fill-rule="nonzero" fill="rgb(92.350769%, 70.431519%, 51.05896%)" fill-opacity="1" stroke-width="1.55907" stroke-linecap="round" stroke-linejoin="round" stroke="rgb(0%, 0%, 0%)" stroke-opacity="1" stroke-miterlimit="10" d="M 7.652575 9.071307 L 7.652575 2.834591 C 7.652575 2.210134 8.163137 1.699572 8.787594 1.699572 L 17.290421 1.699572 C 17.918806 1.699572 18.425441 2.210134 18.425441 2.834591 L 18.425441 9.071307 C 18.425441 9.695764 17.918806 10.206326 17.290421 10.206326 L 8.787594 10.206326 C 8.163137 10.206326 7.652575 9.695764 7.652575 9.071307 Z M 7.652575 9.071307 " transform="matrix(0.994614, 0, 0, -0.994614, 28.193329, 28.194324)"/>
<path fill-rule="nonzero" fill="rgb(54.879761%, 75.274658%, 64.059448%)" fill-opacity="1" stroke-width="1.55907" stroke-linecap="round" stroke-linejoin="round" stroke="rgb(0%, 0%, 0%)" stroke-opacity="1" stroke-miterlimit="10" d="M -11.905892 -5.668236 L -11.905892 -11.904952 C -11.905892 -12.533336 -11.399257 -13.039971 -10.770872 -13.039971 L -2.268045 -13.039971 C -1.639661 -13.039971 -1.133026 -12.533336 -1.133026 -11.904952 L -1.133026 -5.668236 C -1.133026 -5.043779 -1.639661 -4.537144 -2.268045 -4.537144 L -10.770872 -4.537144 C -11.399257 -4.537144 -11.905892 -5.043779 -11.905892 -5.668236 Z M -11.905892 -5.668236 " transform="matrix(0.994614, 0, 0, -0.994614, 28.193329, 28.194324)"/>
<path fill-rule="nonzero" fill="rgb(52.842712%, 70.684814%, 100%)" fill-opacity="1" stroke-width="1.55907" stroke-linecap="round" stroke-linejoin="round" stroke="rgb(0%, 0%, 0%)" stroke-opacity="1" stroke-miterlimit="10" d="M 0.850313 -5.668236 L 0.850313 -11.904952 C 0.850313 -12.533336 1.356948 -13.039971 1.985332 -13.039971 L 10.488159 -13.039971 C 11.116544 -13.039971 11.623179 -12.533336 11.623179 -11.904952 L 11.623179 -5.668236 C 11.623179 -5.043779 11.116544 -4.537144 10.488159 -4.537144 L 1.985332 -4.537144 C 1.356948 -4.537144 0.850313 -5.043779 0.850313 -5.668236 Z M 0.850313 -5.668236 " transform="matrix(0.994614, 0, 0, -0.994614, 28.193329, 28.194324)"/>
<path fill-rule="nonzero" fill="rgb(92.350769%, 70.431519%, 51.05896%)" fill-opacity="1" stroke-width="1.55907" stroke-linecap="round" stroke-linejoin="round" stroke="rgb(0%, 0%, 0%)" stroke-opacity="1" stroke-miterlimit="10" d="M 13.606517 -5.668236 L 13.606517 -11.904952 C 13.606517 -12.533336 14.113152 -13.039971 14.741537 -13.039971 L 23.244364 -13.039971 C 23.868821 -13.039971 24.379383 -12.533336 24.379383 -11.904952 L 24.379383 -5.668236 C 24.379383 -5.043779 23.868821 -4.537144 23.244364 -4.537144 L 14.741537 -4.537144 C 14.113152 -4.537144 13.606517 -5.043779 13.606517 -5.668236 Z M 13.606517 -5.668236 " transform="matrix(0.994614, 0, 0, -0.994614, 28.193329, 28.194324)"/>
<path fill="none" stroke-width="1.98427" stroke-linecap="round" stroke-linejoin="round" stroke="rgb(0%, 0%, 0%)" stroke-opacity="1" stroke-miterlimit="10" d="M -12.754211 1.416799 L -13.146951 1.67208 " transform="matrix(0.994614, 0, 0, -0.994614, 28.193329, 28.194324)"/>
<path fill-rule="nonzero" fill="rgb(0%, 0%, 0%)" fill-opacity="1" d="M 18.789062 28.917969 L 15.09375 23.859375 L 15.53125 26.800781 L 12.664062 27.59375 Z M 18.789062 28.917969 "/>
<g clip-path="url(#clip-0)">
<path fill="none" stroke-width="1.98427" stroke-linecap="round" stroke-linejoin="miter" stroke="rgb(0%, 0%, 0%)" stroke-opacity="1" stroke-miterlimit="10" d="M 9.092681 0.000519807 L 3.20557 2.240032 L 5.186179 0.000146286 L 3.203645 -2.239455 Z M 9.092681 0.000519807 " transform="matrix(0.833894, 0.542045, 0.542045, -0.833894, 11.206446, 23.989762)"/>
</g>
<path fill="none" stroke-width="1.98427" stroke-linecap="round" stroke-linejoin="round" stroke="rgb(0%, 0%, 0%)" stroke-opacity="1" stroke-miterlimit="10" d="M -0.0019336 1.416799 L -0.390746 1.67208 " transform="matrix(0.994614, 0, 0, -0.994614, 28.193329, 28.194324)"/>
<path fill-rule="nonzero" fill="rgb(0%, 0%, 0%)" fill-opacity="1" d="M 31.476562 28.917969 L 27.78125 23.859375 L 28.21875 26.800781 L 25.351562 27.59375 Z M 31.476562 28.917969 "/>
<g clip-path="url(#clip-1)">
<path fill="none" stroke-width="1.98427" stroke-linecap="round" stroke-linejoin="miter" stroke="rgb(0%, 0%, 0%)" stroke-opacity="1" stroke-miterlimit="10" d="M 9.092877 0.000647597 L 3.205767 2.24016 L 5.186375 0.000274076 L 3.203842 -2.239327 Z M 9.092877 0.000647597 " transform="matrix(0.833894, 0.542045, 0.542045, -0.833894, 23.893712, 23.989762)"/>
</g>
<path fill="none" stroke-width="1.98427" stroke-linecap="round" stroke-linejoin="round" stroke="rgb(0%, 0%, 0%)" stroke-opacity="1" stroke-miterlimit="10" d="M -15.589796 -17.006648 L 15.589856 -17.006648 " transform="matrix(0.994614, 0, 0, -0.994614, 28.193329, 28.194324)"/>
<path fill="none" stroke-width="1.98427" stroke-linecap="round" stroke-linejoin="round" stroke="rgb(27.450562%, 54.902649%, 100%)" stroke-opacity="1" stroke-miterlimit="10" d="M 10.770932 -17.006648 L 10.346773 -17.006648 " transform="matrix(0.994614, 0, 0, -0.994614, 28.193329, 28.194324)"/>
<path fill-rule="nonzero" fill="rgb(27.450562%, 54.902649%, 100%)" fill-opacity="1" d="M 42.863281 45.109375 L 37.007812 42.882812 L 38.976562 45.109375 L 37.007812 47.339844 Z M 42.863281 45.109375 "/>
<g clip-path="url(#clip-2)">
<path fill="none" stroke-width="1.98427" stroke-linecap="round" stroke-linejoin="miter" stroke="rgb(27.450562%, 54.902649%, 100%)" stroke-opacity="1" stroke-miterlimit="10" d="M 9.092562 0.00159184 L 3.205385 2.240211 L 5.184796 0.00159184 L 3.205385 -2.240955 Z M 9.092562 0.00159184 " transform="matrix(0.994614, 0, 0, -0.994614, 33.819692, 45.110958)"/>
</g>
</svg>
