<?xml version="1.0" encoding="UTF-8"?>
<svg xmlns="http://www.w3.org/2000/svg" xmlns:xlink="http://www.w3.org/1999/xlink" width="56.693" height="56.693" viewBox="0 0 56.693 56.693">
<path fill="none" stroke-width="3.4016" stroke-linecap="round" stroke-linejoin="round" stroke="rgb(0%, 0%, 0%)" stroke-opacity="1" stroke-miterlimit="10" d="M -25.510415 -18.424441 L -25.510415 18.42638 C -25.510415 22.338074 -22.341001 25.511415 -18.42538 25.511415 L 18.425441 25.511415 C 22.341061 25.511415 25.510475 22.338074 25.510475 18.42638 L 25.510475 -18.424441 C 25.510475 -22.340061 22.341061 -25.513403 18.425441 -25.513403 L -18.42538 -25.513403 C -22.341001 -25.513403 -25.510415 -22.340061 -25.510415 -18.424441 Z M -25.510415 -18.424441 " transform="matrix(0.994614, 0, 0, -0.994614, 28.193329, 28.194324)"/>
<path fill="none" stroke-width="1.84251" stroke-linecap="round" stroke-linejoin="round" stroke="rgb(27.450562%, 54.902649%, 100%)" stroke-opacity="1" stroke-miterlimit="10" d="M 17.573194 -0.0009938 C 17.573194 3.129146 9.706606 5.670176 -0.0019336 5.670176 C -9.706546 5.670176 -17.573134 3.129146 -17.573134 -0.0009938 C -17.573134 -3.131134 -9.706546 -5.668236 -0.0019336 -5.668236 C 9.706606 -5.668236 17.573194 -3.131134 17.573194 -0.0009938 Z M 17.573194 -0.0009938 " transform="matrix(0.994614, 0, 0, -0.994614, 28.193329, 28.194324)"/>
<path fill="none" stroke-width="1.84251" stroke-linecap="round" stroke-linejoin="round" stroke="rgb(27.450562%, 54.902649%, 100%)" stroke-opacity="1" stroke-miterlimit="10" d="M 8.787594 15.22162 C 6.077686 16.784726 -0.0569172 11.239233 -4.911187 2.834591 C -9.76153 -5.570051 -11.497442 -13.656574 -8.787534 -15.21968 C -6.077626 -16.786714 0.0569774 -11.241221 4.911247 -2.836579 C 9.76159 5.571991 11.497502 13.654586 8.787594 15.22162 Z M 8.787594 15.22162 " transform="matrix(0.994614, 0, 0, -0.994614, 28.193329, 28.194324)"/>
<path fill="none" stroke-width="1.84251" stroke-linecap="round" stroke-linejoin="round" stroke="rgb(27.450562%, 54.902649%, 100%)" stroke-opacity="1" stroke-miterlimit="10" d="M 8.787594 -15.21968 C 11.497502 -13.656574 9.76159 -5.570051 4.911247 2.834591 C 0.0569774 11.239233 -6.077626 16.784726 -8.787534 15.22162 C -11.497442 13.654586 -9.76153 5.571991 -4.911187 -2.836579 C -0.0569172 -11.241221 6.077686 -16.786714 8.787594 -15.21968 Z M 8.787594 -15.21968 " transform="matrix(0.994614, 0, 0, -0.994614, 28.193329, 28.194324)"/>
<path fill-rule="nonzero" fill="rgb(27.450562%, 54.902649%, 100%)" fill-opacity="1" stroke-width="1.98427" stroke-linecap="round" stroke-linejoin="round" stroke="rgb(0%, 0%, 0%)" stroke-opacity="1" stroke-miterlimit="10" d="M 3.98438 -0.0009938 C 3.98438 2.202279 2.201339 3.98532 -0.0019336 3.98532 C -2.201279 3.98532 -3.98432 2.202279 -3.98432 -0.0009938 C -3.98432 -2.200339 -2.201279 -3.98338 -0.0019336 -3.98338 C 2.201339 -3.98338 3.98438 -2.200339 3.98438 -0.0009938 Z M 3.98438 -0.0009938 " transform="matrix(0.994614, 0, 0, -0.994614, 28.193329, 28.194324)"/>
<path fill-rule="nonzero" fill="rgb(0%, 0%, 0%)" fill-opacity="1" stroke-width="1.98427" stroke-linecap="round" stroke-linejoin="round" stroke="rgb(0%, 0%, 0%)" stroke-opacity="1" stroke-miterlimit="10" d="M 20.067095 -0.0009938 C 20.067095 1.377525 18.951713 2.48898 17.573194 2.48898 C 16.198603 2.48898 15.083221 1.377525 15.083221 -0.0009938 C 15.083221 -1.375585 16.198603 -2.490967 17.573194 -2.490967 C 18.951713 -2.490967 20.067095 -1.375585 20.067095 -0.0009938 Z M 20.067095 -0.0009938 " transform="matrix(0.994614, 0, 0, -0.994614, 28.193329, 28.194324)"/>
<path fill-rule="nonzero" fill="rgb(0%, 0%, 0%)" fill-opacity="1" stroke-width="1.98427" stroke-linecap="round" stroke-linejoin="round" stroke="rgb(0%, 0%, 0%)" stroke-opacity="1" stroke-miterlimit="10" d="M -6.29756 15.308023 C -6.29756 16.682614 -7.412943 17.797996 -8.787534 17.797996 C -10.162125 17.797996 -11.277507 16.682614 -11.277507 15.308023 C -11.277507 13.933432 -10.162125 12.818049 -8.787534 12.818049 C -7.412943 12.818049 -6.29756 13.933432 -6.29756 15.308023 Z M -6.29756 15.308023 " transform="matrix(0.994614, 0, 0, -0.994614, 28.193329, 28.194324)"/>
<path fill-rule="nonzero" fill="rgb(0%, 0%, 0%)" fill-opacity="1" stroke-width="1.98427" stroke-linecap="round" stroke-linejoin="round" stroke="rgb(0%, 0%, 0%)" stroke-opacity="1" stroke-miterlimit="10" d="M -6.29756 -15.306083 C -6.29756 -13.931492 -7.412943 -12.816109 -8.787534 -12.816109 C -10.162125 -12.816109 -11.277507 -13.931492 -11.277507 -15.306083 C -11.277507 -16.684601 -10.162125 -17.796056 -8.787534 -17.796056 C -7.412943 -17.796056 -6.29756 -16.684601 -6.29756 -15.306083 Z M -6.29756 -15.306083 " transform="matrix(0.994614, 0, 0, -0.994614, 28.193329, 28.194324)"/>
</svg>
