<?xml version="1.0" encoding="UTF-8"?>
<svg xmlns="http://www.w3.org/2000/svg" xmlns:xlink="http://www.w3.org/1999/xlink" width="56.693" height="56.693" viewBox="0 0 56.693 56.693">
<path fill="none" stroke-width="3.4016" stroke-linecap="round" stroke-linejoin="round" stroke="rgb(0%, 0%, 0%)" stroke-opacity="1" stroke-miterlimit="10" d="M -25.510415 -18.424441 L -25.510415 18.42638 C -25.510415 22.338074 -22.341001 25.511415 -18.42538 25.511415 L 18.425441 25.511415 C 22.341061 25.511415 25.510475 22.338074 25.510475 18.42638 L 25.510475 -18.424441 C 25.510475 -22.340061 22.341061 -25.513403 18.425441 -25.513403 L -18.42538 -25.513403 C -22.341001 -25.513403 -25.510415 -22.340061 -25.510415 -18.424441 Z M -25.510415 -18.424441 " transform="matrix(0.994614, 0, 0, -0.994614, 28.193329, 28.194324)"/>
<path fill-rule="nonzero" fill="rgb(52.842712%, 70.684814%, 100%)" fill-opacity="1" stroke-width="1.27559" stroke-linecap="round" stroke-linejoin="round" stroke="rgb(0%, 0%, 0%)" stroke-opacity="1" stroke-miterlimit="10" d="M -15.02425 -0.0009938 L -15.02425 7.936287 L -7.086968 7.936287 L -7.086968 -0.0009938 Z M -15.02425 -0.0009938 " transform="matrix(0.994614, 0, 0, -0.994614, 28.193329, 28.194324)"/>
<path fill="none" stroke-width="1.27559" stroke-linecap="round" stroke-linejoin="round" stroke="rgb(0%, 0%, 0%)" stroke-opacity="1" stroke-miterlimit="10" d="M -7.086968 -0.0009938 L -7.086968 7.936287 L 0.850313 7.936287 L 0.850313 -0.0009938 Z M -7.086968 -0.0009938 " transform="matrix(0.994614, 0, 0, -0.994614, 28.193329, 28.194324)"/>
<path fill="none" stroke-width="1.27559" stroke-linecap="round" stroke-linejoin="round" stroke="rgb(0%, 0%, 0%)" stroke-opacity="1" stroke-miterlimit="10" d="M 0.850313 -0.0009938 L 0.850313 7.936287 L 8.787594 7.936287 L 8.787594 -0.0009938 Z M 0.850313 -0.0009938 " transform="matrix(0.994614, 0, 0, -0.994614, 28.193329, 28.194324)"/>
<path fill="none" stroke-width="1.27559" stroke-linecap="round" stroke-linejoin="round" stroke="rgb(0%, 0%, 0%)" stroke-opacity="1" stroke-miterlimit="10" d="M 8.787594 -0.0009938 L 8.787594 7.936287 L 16.724875 7.936287 L 16.724875 -0.0009938 Z M 8.787594 -0.0009938 " transform="matrix(0.994614, 0, 0, -0.994614, 28.193329, 28.194324)"/>
<path fill-rule="nonzero" fill="rgb(81.861877%, 88.723755%, 100%)" fill-opacity="1" stroke-width="1.27559" stroke-linecap="round" stroke-linejoin="round" stroke="rgb(0%, 0%, 0%)" stroke-opacity="1" stroke-miterlimit="10" d="M -15.02425 -7.938275 L -15.02425 -0.0009938 L -7.086968 -0.0009938 L -7.086968 -7.938275 Z M -15.02425 -7.938275 " transform="matrix(0.994614, 0, 0, -0.994614, 28.193329, 28.194324)"/>
<path fill-rule="nonzero" fill="rgb(52.842712%, 70.684814%, 100%)" fill-opacity="1" stroke-width="1.27559" stroke-linecap="round" stroke-linejoin="round" stroke="rgb(0%, 0%, 0%)" stroke-opacity="1" stroke-miterlimit="10" d="M -7.086968 -7.938275 L -7.086968 -0.0009938 L 0.850313 -0.0009938 L 0.850313 -7.938275 Z M -7.086968 -7.938275 " transform="matrix(0.994614, 0, 0, -0.994614, 28.193329, 28.194324)"/>
<path fill="none" stroke-width="1.27559" stroke-linecap="round" stroke-linejoin="round" stroke="rgb(0%, 0%, 0%)" stroke-opacity="1" stroke-miterlimit="10" d="M 0.850313 -7.938275 L 0.850313 -0.0009938 L 8.787594 -0.0009938 L 8.787594 -7.938275 Z M 0.850313 -7.938275 " transform="matrix(0.994614, 0, 0, -0.994614, 28.193329, 28.194324)"/>
<path fill="none" stroke-width="1.27559" stroke-linecap="round" stroke-linejoin="round" stroke="rgb(0%, 0%, 0%)" stroke-opacity="1" stroke-miterlimit="10" d="M 8.787594 -7.938275 L 8.787594 -0.0009938 L 16.724875 -0.0009938 L 16.724875 -7.938275 Z M 8.787594 -7.938275 " transform="matrix(0.994614, 0, 0, -0.994614, 28.193329, 28.194324)"/>
<path fill-rule="nonzero" fill="rgb(91.294861%, 94.587708%, 100%)" fill-opacity="1" stroke-width="1.27559" stroke-linecap="round" stroke-linejoin="round" stroke="rgb(0%, 0%, 0%)" stroke-opacity="1" stroke-miterlimit="10" d="M -15.02425 -15.875556 L -15.02425 -7.938275 L -7.086968 -7.938275 L -7.086968 -15.875556 Z M -15.02425 -15.875556 " transform="matrix(0.994614, 0, 0, -0.994614, 28.193329, 28.194324)"/>
<path fill-rule="nonzero" fill="rgb(81.861877%, 88.723755%, 100%)" fill-opacity="1" stroke-width="1.27559" stroke-linecap="round" stroke-linejoin="round" stroke="rgb(0%, 0%, 0%)" stroke-opacity="1" stroke-miterlimit="10" d="M -7.086968 -15.875556 L -7.086968 -7.938275 L 0.850313 -7.938275 L 0.850313 -15.875556 Z M -7.086968 -15.875556 " transform="matrix(0.994614, 0, 0, -0.994614, 28.193329, 28.194324)"/>
<path fill-rule="nonzero" fill="rgb(52.842712%, 70.684814%, 100%)" fill-opacity="1" stroke-width="1.27559" stroke-linecap="round" stroke-linejoin="round" stroke="rgb(0%, 0%, 0%)" stroke-opacity="1" stroke-miterlimit="10" d="M 0.850313 -15.875556 L 0.850313 -7.938275 L 8.787594 -7.938275 L 8.787594 -15.875556 Z M 0.850313 -15.875556 " transform="matrix(0.994614, 0, 0, -0.994614, 28.193329, 28.194324)"/>
<path fill="none" stroke-width="1.27559" stroke-linecap="round" stroke-linejoin="round" stroke="rgb(0%, 0%, 0%)" stroke-opacity="1" stroke-miterlimit="10" d="M 8.787594 -15.875556 L 8.787594 -7.938275 L 16.724875 -7.938275 L 16.724875 -15.875556 Z M 8.787594 -15.875556 " transform="matrix(0.994614, 0, 0, -0.994614, 28.193329, 28.194324)"/>
<path fill="none" stroke-width="1.27559" stroke-linecap="round" stroke-linejoin="round" stroke="rgb(0%, 0%, 0%)" stroke-opacity="1" stroke-miterlimit="10" d="M -15.02425 -23.812837 L -15.02425 -15.875556 L -7.086968 -15.875556 L -7.086968 -23.812837 Z M -15.02425 -23.812837 " transform="matrix(0.994614, 0, 0, -0.994614, 28.193329, 28.194324)"/>
<path fill-rule="nonzero" fill="rgb(91.294861%, 94.587708%, 100%)" fill-opacity="1" stroke-width="1.27559" stroke-linecap="round" stroke-linejoin="round" stroke="rgb(0%, 0%, 0%)" stroke-opacity="1" stroke-miterlimit="10" d="M -7.086968 -23.812837 L -7.086968 -15.875556 L 0.850313 -15.875556 L 0.850313 -23.812837 Z M -7.086968 -23.812837 " transform="matrix(0.994614, 0, 0, -0.994614, 28.193329, 28.194324)"/>
<path fill-rule="nonzero" fill="rgb(81.861877%, 88.723755%, 100%)" fill-opacity="1" stroke-width="1.27559" stroke-linecap="round" stroke-linejoin="round" stroke="rgb(0%, 0%, 0%)" stroke-opacity="1" stroke-miterlimit="10" d="M 0.850313 -23.812837 L 0.850313 -15.875556 L 8.787594 -15.875556 L 8.787594 -23.812837 Z M 0.850313 -23.812837 " transform="matrix(0.994614, 0, 0, -0.994614, 28.193329, 28.194324)"/>
<path fill-rule="nonzero" fill="rgb(52.842712%, 70.684814%, 100%)" fill-opacity="1" stroke-width="1.27559" stroke-linecap="round" stroke-linejoin="round" stroke="rgb(0%, 0%, 0%)" stroke-opacity="1" stroke-miterlimit="10" d="M 8.787594 -23.812837 L 8.787594 -15.875556 L 16.724875 -15.875556 L 16.724875 -23.812837 Z M 8.787594 -23.812837 " transform="matrix(0.994614, 0, 0, -0.994614, 28.193329, 28.194324)"/>
<path fill="none" stroke-width="1.55907" stroke-linecap="round" stroke-linejoin="round" stroke="rgb(0%, 0%, 0%)" stroke-opacity="1" stroke-miterlimit="10" d="M -15.307023 15.308023 L 14.407707 15.308023 " transform="matrix(0.994614, 0, 0, -0.994614, 28.193329, 28.194324)"/>
<path fill-rule="nonzero" fill="rgb(0%, 0%, 0%)" fill-opacity="1" d="M 46.238281 12.96875 L 40.296875 10 L 42.523438 12.96875 L 40.296875 15.941406 "/>
<path fill-rule="nonzero" fill="rgb(27.450562%, 54.902649%, 100%)" fill-opacity="1" stroke-width="1.55907" stroke-linecap="round" stroke-linejoin="round" stroke="rgb(0%, 0%, 0%)" stroke-opacity="1" stroke-miterlimit="10" d="M -6.898453 15.308023 C -6.898453 16.820073 -8.123803 18.045422 -9.635853 18.045422 C -11.15183 18.045422 -12.37718 16.820073 -12.37718 15.308023 C -12.37718 13.792045 -11.15183 12.566695 -9.635853 12.566695 C -8.123803 12.566695 -6.898453 13.792045 -6.898453 15.308023 Z M -6.898453 15.308023 " transform="matrix(0.994614, 0, 0, -0.994614, 28.193329, 28.194324)"/>
<path fill-rule="nonzero" fill="rgb(27.450562%, 54.902649%, 100%)" fill-opacity="1" stroke-width="1.55907" stroke-linecap="round" stroke-linejoin="round" stroke="rgb(0%, 0%, 0%)" stroke-opacity="1" stroke-miterlimit="10" d="M 1.891075 15.308023 C 1.891075 16.820073 0.661797 18.045422 -0.850253 18.045422 C -2.362303 18.045422 -3.59158 16.820073 -3.59158 15.308023 C -3.59158 13.792045 -2.362303 12.566695 -0.850253 12.566695 C 0.661797 12.566695 1.891075 13.792045 1.891075 15.308023 Z M 1.891075 15.308023 " transform="matrix(0.994614, 0, 0, -0.994614, 28.193329, 28.194324)"/>
<path fill-rule="nonzero" fill="rgb(27.450562%, 54.902649%, 100%)" fill-opacity="1" stroke-width="1.55907" stroke-linecap="round" stroke-linejoin="round" stroke="rgb(0%, 0%, 0%)" stroke-opacity="1" stroke-miterlimit="10" d="M 10.676675 15.308023 C 10.676675 16.820073 9.451325 18.045422 7.935348 18.045422 C 6.423297 18.045422 5.197948 16.820073 5.197948 15.308023 C 5.197948 13.792045 6.423297 12.566695 7.935348 12.566695 C 9.451325 12.566695 10.676675 13.792045 10.676675 15.308023 Z M 10.676675 15.308023 " transform="matrix(0.994614, 0, 0, -0.994614, 28.193329, 28.194324)"/>
<path fill="none" stroke-width="2.26773" stroke-linecap="round" stroke-linejoin="round" stroke="rgb(27.450562%, 54.902649%, 100%)" stroke-opacity="1" stroke-miterlimit="10" d="M 9.35314 -5.10269 C 14.79652 -1.293109 11.886315 4.920042 12.365458 6.70701 " transform="matrix(0.994614, 0, 0, -0.994614, 28.193329, 28.194324)"/>
<path fill-rule="nonzero" fill="rgb(27.450562%, 54.902649%, 100%)" fill-opacity="1" d="M 41.726562 16.917969 L 36.066406 23.300781 L 40.492188 21.523438 L 43.4375 25.277344 "/>
</svg>
