<?xml version="1.0" encoding="UTF-8"?>
<svg xmlns="http://www.w3.org/2000/svg" xmlns:xlink="http://www.w3.org/1999/xlink" width="56.693" height="56.693" viewBox="0 0 56.693 56.693">
<defs>
<clipPath id="clip-0">
<path clip-rule="nonzero" d="M 0 5 L 56.386719 5 L 56.386719 56.386719 L 0 56.386719 Z M 0 5 "/>
</clipPath>
<clipPath id="clip-1">
<path clip-rule="nonzero" d="M 0 7 L 36 7 L 36 56.386719 L 0 56.386719 Z M 0 7 "/>
</clipPath>
</defs>
<path fill="none" stroke-width="3.4016" stroke-linecap="round" stroke-linejoin="round" stroke="rgb(0%, 0%, 0%)" stroke-opacity="1" stroke-miterlimit="10" d="M -25.510415 -18.424441 L -25.510415 18.42638 C -25.510415 22.338074 -22.341001 25.511415 -18.42538 25.511415 L 18.425441 25.511415 C 22.341061 25.511415 25.510475 22.338074 25.510475 18.42638 L 25.510475 -18.424441 C 25.510475 -22.340061 22.341061 -25.513403 18.425441 -25.513403 L -18.42538 -25.513403 C -22.341001 -25.513403 -25.510415 -22.340061 -25.510415 -18.424441 Z M -25.510415 -18.424441 " transform="matrix(0.994614, 0, 0, -0.994614, 28.193329, 28.194324)"/>
<path fill-rule="nonzero" fill="rgb(63.723755%, 77.449036%, 100%)" fill-opacity="1" stroke-width="1.55907" stroke-linecap="round" stroke-linejoin="round" stroke="rgb(0%, 0%, 0%)" stroke-opacity="1" stroke-miterlimit="10" d="M -17.573134 16.443042 L -17.573134 4.535156 L -5.669176 4.535156 L -5.669176 16.443042 Z M -17.573134 16.443042 " transform="matrix(0.994614, 0, 0, -0.994614, 28.193329, 28.194324)"/>
<path fill-rule="nonzero" fill="rgb(63.723755%, 77.449036%, 100%)" fill-opacity="1" stroke-width="1.55907" stroke-linecap="round" stroke-linejoin="round" stroke="rgb(0%, 0%, 0%)" stroke-opacity="1" stroke-miterlimit="10" d="M -5.669176 16.443042 L -5.669176 4.535156 L 6.234782 4.535156 L 6.234782 16.443042 Z M -5.669176 16.443042 " transform="matrix(0.994614, 0, 0, -0.994614, 28.193329, 28.194324)"/>
<path fill-rule="nonzero" fill="rgb(63.723755%, 77.449036%, 100%)" fill-opacity="1" stroke-width="1.55907" stroke-linecap="round" stroke-linejoin="round" stroke="rgb(0%, 0%, 0%)" stroke-opacity="1" stroke-miterlimit="10" d="M 6.234782 16.443042 L 6.234782 4.535156 L 18.142668 4.535156 L 18.142668 16.443042 Z M 6.234782 16.443042 " transform="matrix(0.994614, 0, 0, -0.994614, 28.193329, 28.194324)"/>
<path fill-rule="nonzero" fill="rgb(63.723755%, 77.449036%, 100%)" fill-opacity="1" stroke-width="1.55907" stroke-linecap="round" stroke-linejoin="round" stroke="rgb(0%, 0%, 0%)" stroke-opacity="1" stroke-miterlimit="10" d="M -17.573134 4.535156 L -17.573134 -7.368802 L -5.669176 -7.368802 L -5.669176 4.535156 Z M -17.573134 4.535156 " transform="matrix(0.994614, 0, 0, -0.994614, 28.193329, 28.194324)"/>
<path fill-rule="nonzero" fill="rgb(63.723755%, 77.449036%, 100%)" fill-opacity="1" stroke-width="1.55907" stroke-linecap="round" stroke-linejoin="round" stroke="rgb(0%, 0%, 0%)" stroke-opacity="1" stroke-miterlimit="10" d="M -5.669176 4.535156 L -5.669176 -7.368802 L 6.234782 -7.368802 L 6.234782 4.535156 Z M -5.669176 4.535156 " transform="matrix(0.994614, 0, 0, -0.994614, 28.193329, 28.194324)"/>
<path fill-rule="nonzero" fill="rgb(63.723755%, 77.449036%, 100%)" fill-opacity="1" stroke-width="1.55907" stroke-linecap="round" stroke-linejoin="round" stroke="rgb(0%, 0%, 0%)" stroke-opacity="1" stroke-miterlimit="10" d="M -17.573134 -7.368802 L -17.573134 -19.276687 L -5.669176 -19.276687 L -5.669176 -7.368802 Z M -17.573134 -7.368802 " transform="matrix(0.994614, 0, 0, -0.994614, 28.193329, 28.194324)"/>
<path fill="none" stroke-width="1.98427" stroke-linecap="round" stroke-linejoin="round" stroke="rgb(0%, 0%, 0%)" stroke-opacity="1" stroke-miterlimit="10" d="M 3.403125 11.906892 C 8.799376 16.435187 16.842697 15.728255 21.370993 10.332003 C 25.899288 4.935752 25.196283 -3.107569 19.800032 -7.635865 C 16.30857 -10.565707 11.521066 -11.410099 7.23627 -9.85092 C 3.693752 -8.562732 0.905296 -5.770349 2.087445 -9.022238 " transform="matrix(0.994614, 0, 0, -0.994614, 28.193329, 28.194324)"/>
<path fill-rule="nonzero" fill="rgb(0%, 0%, 0%)" fill-opacity="1" d="M 28.769531 33.050781 L 28.679688 39.316406 L 30.101562 36.703125 L 32.867188 37.792969 Z M 28.769531 33.050781 "/>
<g clip-path="url(#clip-0)">
<path fill="none" stroke-width="1.98427" stroke-linecap="round" stroke-linejoin="miter" stroke="rgb(0%, 0%, 0%)" stroke-opacity="1" stroke-miterlimit="10" d="M 9.093913 0.000825908 L 3.205137 2.240471 L 5.185142 -0.00160943 L 3.204369 -2.239733 Z M 9.093913 0.000825908 " transform="matrix(-0.340198, -0.934609, -0.934609, 0.340198, 31.864032, 41.549753)"/>
</g>
<path fill="none" stroke-width="1.98427" stroke-linecap="round" stroke-linejoin="round" stroke="rgb(0%, 0%, 0%)" stroke-opacity="1" stroke-miterlimit="10" d="M -3.403064 -11.904952 C 1.993187 -7.376656 2.70012 0.670592 -1.828176 6.066844 C -6.356471 11.463095 -14.40372 12.1661 -19.799971 7.637805 C -23.291433 4.707962 -24.952724 0.136465 -24.163316 -4.348629 C -23.50744 -8.060024 -21.245256 -11.296204 -24.237937 -9.568147 " transform="matrix(0.994614, 0, 0, -0.994614, 28.193329, 28.194324)"/>
<path fill-rule="nonzero" fill="rgb(0%, 0%, 0%)" fill-opacity="1" d="M 7.878906 39.898438 L 3.917969 35.039062 L 4.511719 37.957031 L 1.691406 38.902344 Z M 7.878906 39.898438 "/>
<g clip-path="url(#clip-1)">
<path fill="none" stroke-width="1.98427" stroke-linecap="round" stroke-linejoin="miter" stroke="rgb(0%, 0%, 0%)" stroke-opacity="1" stroke-miterlimit="10" d="M 9.093273 0.00141292 L 3.201484 2.241335 L 5.1854 -0.00091621 L 3.204918 -2.241852 Z M 9.093273 0.00141292 " transform="matrix(0.861346, 0.497307, 0.497307, -0.861346, 0.0457522, 35.377506)"/>
</g>
<path fill-rule="nonzero" fill="rgb(27.450562%, 54.902649%, 100%)" fill-opacity="1" stroke-width="1.55907" stroke-linecap="round" stroke-linejoin="round" stroke="rgb(0%, 0%, 0%)" stroke-opacity="1" stroke-miterlimit="10" d="M 16.029725 13.037984 C 16.029725 14.69142 14.69048 16.026737 13.040971 16.026737 C 11.387535 16.026737 10.052218 14.69142 10.052218 13.037984 C 10.052218 11.388474 11.387535 10.04923 13.040971 10.04923 C 14.69048 10.04923 16.029725 11.388474 16.029725 13.037984 Z M 16.029725 13.037984 " transform="matrix(0.994614, 0, 0, -0.994614, 28.193329, 28.194324)"/>
<path fill-rule="nonzero" fill="rgb(27.450562%, 54.902649%, 100%)" fill-opacity="1" stroke-width="1.55907" stroke-linecap="round" stroke-linejoin="round" stroke="rgb(0%, 0%, 0%)" stroke-opacity="1" stroke-miterlimit="10" d="M 20.561948 2.834591 C 20.561948 4.4841 19.226631 5.823345 17.573194 5.823345 C 15.923685 5.823345 14.584441 4.4841 14.584441 2.834591 C 14.584441 1.185082 15.923685 -0.154163 17.573194 -0.154163 C 19.226631 -0.154163 20.561948 1.185082 20.561948 2.834591 Z M 20.561948 2.834591 " transform="matrix(0.994614, 0, 0, -0.994614, 28.193329, 28.194324)"/>
<path fill-rule="nonzero" fill="rgb(27.450562%, 54.902649%, 100%)" fill-opacity="1" stroke-width="1.55907" stroke-linecap="round" stroke-linejoin="round" stroke="rgb(0%, 0%, 0%)" stroke-opacity="1" stroke-miterlimit="10" d="M 13.19414 -10.204386 C 13.19414 -8.554877 11.854896 -7.215633 10.205386 -7.215633 C 8.555877 -7.215633 7.216633 -8.554877 7.216633 -10.204386 C 7.216633 -11.853896 8.555877 -13.19314 10.205386 -13.19314 C 11.854896 -13.19314 13.19414 -11.853896 13.19414 -10.204386 Z M 13.19414 -10.204386 " transform="matrix(0.994614, 0, 0, -0.994614, 28.193329, 28.194324)"/>
</svg>
