<?xml version="1.0" encoding="UTF-8"?>
<svg xmlns="http://www.w3.org/2000/svg" xmlns:xlink="http://www.w3.org/1999/xlink" width="56.693" height="56.693" viewBox="0 0 56.693 56.693">
<path fill="none" stroke-width="3.4016" stroke-linecap="round" stroke-linejoin="round" stroke="rgb(0%, 0%, 0%)" stroke-opacity="1" stroke-miterlimit="10" d="M -25.510415 -18.424441 L -25.510415 18.42638 C -25.510415 22.338074 -22.341001 25.511415 -18.42538 25.511415 L 18.425441 25.511415 C 22.341061 25.511415 25.510475 22.338074 25.510475 18.42638 L 25.510475 -18.424441 C 25.510475 -22.340061 22.341061 -25.513403 18.425441 -25.513403 L -18.42538 -25.513403 C -22.341001 -25.513403 -25.510415 -22.340061 -25.510415 -18.424441 Z M -25.510415 -18.424441 " transform="matrix(0.994614, 0, 0, -0.994614, 28.193329, 28.194324)"/>
<path fill="none" stroke-width="3.4016" stroke-linecap="round" stroke-linejoin="round" stroke="rgb(0%, 0%, 0%)" stroke-opacity="1" stroke-miterlimit="10" d="M -21.260965 -14.174991 L 21.261025 -14.174991 " transform="matrix(0.994614, 0, 0, -0.994614, 28.193329, 28.194324)"/>
<path fill="none" stroke-width="3.4016" stroke-linecap="round" stroke-linejoin="round" stroke="rgb(0%, 0%, 0%)" stroke-opacity="1" stroke-miterlimit="10" d="M -21.260965 -15.592783 L -21.260965 -12.757198 " transform="matrix(0.994614, 0, 0, -0.994614, 28.193329, 28.194324)"/>
<path fill="none" stroke-width="3.4016" stroke-linecap="round" stroke-linejoin="round" stroke="rgb(0%, 0%, 0%)" stroke-opacity="1" stroke-miterlimit="10" d="M -0.0019336 -15.592783 L -0.0019336 -12.757198 " transform="matrix(0.994614, 0, 0, -0.994614, 28.193329, 28.194324)"/>
<path fill="none" stroke-width="3.4016" stroke-linecap="round" stroke-linejoin="round" stroke="rgb(0%, 0%, 0%)" stroke-opacity="1" stroke-miterlimit="10" d="M 21.261025 -15.592783 L 21.261025 -12.757198 " transform="matrix(0.994614, 0, 0, -0.994614, 28.193329, 28.194324)"/>
<path fill-rule="nonzero" fill="rgb(27.450562%, 54.902649%, 100%)" fill-opacity="1" stroke-width="3.4016" stroke-linecap="round" stroke-linejoin="round" stroke="rgb(0%, 0%, 0%)" stroke-opacity="1" stroke-miterlimit="10" d="M -18.42538 -6.512628 L -18.42538 -4.827772 C -18.42538 -3.728099 -17.53386 -2.836579 -16.434187 -2.836579 L -3.410919 -2.836579 C -2.311246 -2.836579 -1.415799 -3.728099 -1.415799 -4.827772 L -1.415799 -6.512628 C -1.415799 -7.612301 -2.311246 -8.503821 -3.410919 -8.503821 L -16.434187 -8.503821 C -17.53386 -8.503821 -18.42538 -7.612301 -18.42538 -6.512628 Z M -18.42538 -6.512628 " transform="matrix(0.994614, 0, 0, -0.994614, 28.193329, 28.194324)"/>
<path fill-rule="nonzero" fill="rgb(27.450562%, 54.902649%, 100%)" fill-opacity="1" stroke-width="3.4016" stroke-linecap="round" stroke-linejoin="round" stroke="rgb(0%, 0%, 0%)" stroke-opacity="1" stroke-miterlimit="10" d="M -9.922553 1.994127 L -9.922553 3.675055 C -9.922553 4.778655 -9.031033 5.670176 -7.927433 5.670176 L 7.927493 5.670176 C 9.031093 5.670176 9.922613 4.778655 9.922613 3.675055 L 9.922613 1.994127 C 9.922613 0.890527 9.031093 -0.0009938 7.927493 -0.0009938 L -7.927433 -0.0009938 C -9.031033 -0.0009938 -9.922553 0.890527 -9.922553 1.994127 Z M -9.922553 1.994127 " transform="matrix(0.994614, 0, 0, -0.994614, 28.193329, 28.194324)"/>
<path fill-rule="nonzero" fill="rgb(27.450562%, 54.902649%, 100%)" fill-opacity="1" stroke-width="3.4016" stroke-linecap="round" stroke-linejoin="round" stroke="rgb(0%, 0%, 0%)" stroke-opacity="1" stroke-miterlimit="10" d="M 1.415859 10.496954 L 1.415859 12.18181 C 1.415859 13.281483 2.311307 14.173003 3.410979 14.173003 L 16.434247 14.173003 C 17.53392 14.173003 18.425441 13.281483 18.425441 12.18181 L 18.425441 10.496954 C 18.425441 9.397281 17.53392 8.505761 16.434247 8.505761 L 3.410979 8.505761 C 2.311307 8.505761 1.415859 9.397281 1.415859 10.496954 Z M 1.415859 10.496954 " transform="matrix(0.994614, 0, 0, -0.994614, 28.193329, 28.194324)"/>
</svg>
