<?xml version="1.0" encoding="UTF-8"?>
<svg xmlns="http://www.w3.org/2000/svg" xmlns:xlink="http://www.w3.org/1999/xlink" width="56.693" height="56.693" viewBox="0 0 56.693 56.693">
<defs>
<clipPath id="clip-0">
<path clip-rule="nonzero" d="M 5 0 L 56.386719 0 L 56.386719 56.386719 L 5 56.386719 Z M 5 0 "/>
</clipPath>
</defs>
<path fill="none" stroke-width="3.4016" stroke-linecap="round" stroke-linejoin="round" stroke="rgb(0%, 0%, 0%)" stroke-opacity="1" stroke-miterlimit="10" d="M -25.510415 -18.424441 L -25.510415 18.42638 C -25.510415 22.338074 -22.341001 25.511415 -18.42538 25.511415 L 18.425441 25.511415 C 22.341061 25.511415 25.510475 22.338074 25.510475 18.42638 L 25.510475 -18.424441 C 25.510475 -22.340061 22.341061 -25.513403 18.425441 -25.513403 L -18.42538 -25.513403 C -22.341001 -25.513403 -25.510415 -22.340061 -25.510415 -18.424441 Z M -25.510415 -18.424441 " transform="matrix(0.994614, 0, 0, -0.994614, 28.193329, 28.194324)"/>
<path fill="none" stroke-width="1.13385" stroke-linecap="round" stroke-linejoin="round" stroke="rgb(72.499084%, 72.499084%, 72.499084%)" stroke-opacity="1" stroke-miterlimit="10" d="M -16.442042 -16.441102 L 16.866262 -16.441102 M -16.442042 -9.780227 L 16.866262 -9.780227 M -16.442042 -3.119352 L 16.866262 -3.119352 M -16.442042 3.541524 L 16.866262 3.541524 M -16.442042 10.206326 L 16.866262 10.206326 M -16.442042 16.867201 L 16.866262 16.867201 M -16.442042 -16.441102 L -16.442042 16.867201 M -9.781167 -16.441102 L -9.781167 16.867201 M -3.116364 -16.441102 L -3.116364 16.867201 M 3.544511 -16.441102 L 3.544511 16.867201 M 10.205386 -16.441102 L 10.205386 16.867201 M 16.866262 -16.441102 L 16.866262 16.867201 " transform="matrix(0.994614, 0, 0, -0.994614, 28.193329, 28.194324)"/>
<path fill-rule="nonzero" fill="rgb(74.607849%, 84.214783%, 100%)" fill-opacity="1" stroke-width="1.55907" stroke-linecap="round" stroke-linejoin="round" stroke="rgb(0%, 0%, 0%)" stroke-opacity="1" stroke-miterlimit="10" d="M -9.781167 -9.780227 L 10.205386 -9.780227 L 10.205386 3.541524 L -3.116364 10.206326 L -9.781167 -3.119352 Z M -9.781167 -9.780227 " transform="matrix(0.994614, 0, 0, -0.994614, 28.193329, 28.194324)"/>
<path fill-rule="nonzero" fill="rgb(0%, 0%, 0%)" fill-opacity="1" d="M 12.4375 44.546875 C 12.4375 44.21875 12.171875 43.949219 11.839844 43.949219 C 11.511719 43.949219 11.246094 44.21875 11.246094 44.546875 C 11.246094 44.875 11.511719 45.144531 11.839844 45.144531 C 12.171875 45.144531 12.4375 44.875 12.4375 44.546875 Z M 12.4375 44.546875 "/>
<path fill-rule="nonzero" fill="rgb(0%, 0%, 0%)" fill-opacity="1" d="M 12.4375 37.921875 C 12.4375 37.59375 12.171875 37.324219 11.839844 37.324219 C 11.511719 37.324219 11.246094 37.59375 11.246094 37.921875 C 11.246094 38.25 11.511719 38.519531 11.839844 38.519531 C 12.171875 38.519531 12.4375 38.25 12.4375 37.921875 Z M 12.4375 37.921875 "/>
<path fill-rule="nonzero" fill="rgb(0%, 0%, 0%)" fill-opacity="1" d="M 12.4375 31.296875 C 12.4375 30.964844 12.171875 30.699219 11.839844 30.699219 C 11.511719 30.699219 11.246094 30.964844 11.246094 31.296875 C 11.246094 31.625 11.511719 31.890625 11.839844 31.890625 C 12.171875 31.890625 12.4375 31.625 12.4375 31.296875 Z M 12.4375 31.296875 "/>
<path fill-rule="nonzero" fill="rgb(0%, 0%, 0%)" fill-opacity="1" d="M 12.4375 24.671875 C 12.4375 24.339844 12.171875 24.074219 11.839844 24.074219 C 11.511719 24.074219 11.246094 24.339844 11.246094 24.671875 C 11.246094 25 11.511719 25.265625 11.839844 25.265625 C 12.171875 25.265625 12.4375 25 12.4375 24.671875 Z M 12.4375 24.671875 "/>
<path fill-rule="nonzero" fill="rgb(0%, 0%, 0%)" fill-opacity="1" d="M 12.4375 18.042969 C 12.4375 17.714844 12.171875 17.449219 11.839844 17.449219 C 11.511719 17.449219 11.246094 17.714844 11.246094 18.042969 C 11.246094 18.375 11.511719 18.640625 11.839844 18.640625 C 12.171875 18.640625 12.4375 18.375 12.4375 18.042969 Z M 12.4375 18.042969 "/>
<path fill-rule="nonzero" fill="rgb(0%, 0%, 0%)" fill-opacity="1" d="M 12.4375 11.417969 C 12.4375 11.089844 12.171875 10.824219 11.839844 10.824219 C 11.511719 10.824219 11.246094 11.089844 11.246094 11.417969 C 11.246094 11.75 11.511719 12.015625 11.839844 12.015625 C 12.171875 12.015625 12.4375 11.75 12.4375 11.417969 Z M 12.4375 11.417969 "/>
<path fill-rule="nonzero" fill="rgb(0%, 0%, 0%)" fill-opacity="1" d="M 19.0625 44.546875 C 19.0625 44.21875 18.796875 43.949219 18.464844 43.949219 C 18.136719 43.949219 17.871094 44.21875 17.871094 44.546875 C 17.871094 44.875 18.136719 45.144531 18.464844 45.144531 C 18.796875 45.144531 19.0625 44.875 19.0625 44.546875 Z M 19.0625 44.546875 "/>
<path fill-rule="nonzero" fill="rgb(0%, 0%, 0%)" fill-opacity="1" d="M 19.0625 37.921875 C 19.0625 37.59375 18.796875 37.324219 18.464844 37.324219 C 18.136719 37.324219 17.871094 37.59375 17.871094 37.921875 C 17.871094 38.25 18.136719 38.519531 18.464844 38.519531 C 18.796875 38.519531 19.0625 38.25 19.0625 37.921875 Z M 19.0625 37.921875 "/>
<path fill-rule="nonzero" fill="rgb(0%, 0%, 0%)" fill-opacity="1" d="M 19.0625 31.296875 C 19.0625 30.964844 18.796875 30.699219 18.464844 30.699219 C 18.136719 30.699219 17.871094 30.964844 17.871094 31.296875 C 17.871094 31.625 18.136719 31.890625 18.464844 31.890625 C 18.796875 31.890625 19.0625 31.625 19.0625 31.296875 Z M 19.0625 31.296875 "/>
<path fill-rule="nonzero" fill="rgb(0%, 0%, 0%)" fill-opacity="1" d="M 19.0625 24.671875 C 19.0625 24.339844 18.796875 24.074219 18.464844 24.074219 C 18.136719 24.074219 17.871094 24.339844 17.871094 24.671875 C 17.871094 25 18.136719 25.265625 18.464844 25.265625 C 18.796875 25.265625 19.0625 25 19.0625 24.671875 Z M 19.0625 24.671875 "/>
<path fill-rule="nonzero" fill="rgb(0%, 0%, 0%)" fill-opacity="1" d="M 19.0625 18.042969 C 19.0625 17.714844 18.796875 17.449219 18.464844 17.449219 C 18.136719 17.449219 17.871094 17.714844 17.871094 18.042969 C 17.871094 18.375 18.136719 18.640625 18.464844 18.640625 C 18.796875 18.640625 19.0625 18.375 19.0625 18.042969 Z M 19.0625 18.042969 "/>
<path fill-rule="nonzero" fill="rgb(0%, 0%, 0%)" fill-opacity="1" d="M 19.0625 11.417969 C 19.0625 11.089844 18.796875 10.824219 18.464844 10.824219 C 18.136719 10.824219 17.871094 11.089844 17.871094 11.417969 C 17.871094 11.75 18.136719 12.015625 18.464844 12.015625 C 18.796875 12.015625 19.0625 11.75 19.0625 11.417969 Z M 19.0625 11.417969 "/>
<path fill-rule="nonzero" fill="rgb(0%, 0%, 0%)" fill-opacity="1" d="M 25.6875 44.546875 C 25.6875 44.21875 25.421875 43.949219 25.09375 43.949219 C 24.761719 43.949219 24.496094 44.21875 24.496094 44.546875 C 24.496094 44.875 24.761719 45.144531 25.09375 45.144531 C 25.421875 45.144531 25.6875 44.875 25.6875 44.546875 Z M 25.6875 44.546875 "/>
<path fill-rule="nonzero" fill="rgb(0%, 0%, 0%)" fill-opacity="1" d="M 25.6875 37.921875 C 25.6875 37.59375 25.421875 37.324219 25.09375 37.324219 C 24.761719 37.324219 24.496094 37.59375 24.496094 37.921875 C 24.496094 38.25 24.761719 38.519531 25.09375 38.519531 C 25.421875 38.519531 25.6875 38.25 25.6875 37.921875 Z M 25.6875 37.921875 "/>
<path fill-rule="nonzero" fill="rgb(0%, 0%, 0%)" fill-opacity="1" d="M 25.6875 31.296875 C 25.6875 30.964844 25.421875 30.699219 25.09375 30.699219 C 24.761719 30.699219 24.496094 30.964844 24.496094 31.296875 C 24.496094 31.625 24.761719 31.890625 25.09375 31.890625 C 25.421875 31.890625 25.6875 31.625 25.6875 31.296875 Z M 25.6875 31.296875 "/>
<path fill-rule="nonzero" fill="rgb(0%, 0%, 0%)" fill-opacity="1" d="M 25.6875 24.671875 C 25.6875 24.339844 25.421875 24.074219 25.09375 24.074219 C 24.761719 24.074219 24.496094 24.339844 24.496094 24.671875 C 24.496094 25 24.761719 25.265625 25.09375 25.265625 C 25.421875 25.265625 25.6875 25 25.6875 24.671875 Z M 25.6875 24.671875 "/>
<path fill-rule="nonzero" fill="rgb(0%, 0%, 0%)" fill-opacity="1" d="M 25.6875 18.042969 C 25.6875 17.714844 25.421875 17.449219 25.09375 17.449219 C 24.761719 17.449219 24.496094 17.714844 24.496094 18.042969 C 24.496094 18.375 24.761719 18.640625 25.09375 18.640625 C 25.421875 18.640625 25.6875 18.375 25.6875 18.042969 Z M 25.6875 18.042969 "/>
<path fill-rule="nonzero" fill="rgb(0%, 0%, 0%)" fill-opacity="1" d="M 25.6875 11.417969 C 25.6875 11.089844 25.421875 10.824219 25.09375 10.824219 C 24.761719 10.824219 24.496094 11.089844 24.496094 11.417969 C 24.496094 11.75 24.761719 12.015625 25.09375 12.015625 C 25.421875 12.015625 25.6875 11.75 25.6875 11.417969 Z M 25.6875 11.417969 "/>
<path fill-rule="nonzero" fill="rgb(0%, 0%, 0%)" fill-opacity="1" d="M 32.3125 44.546875 C 32.3125 44.21875 32.046875 43.949219 31.71875 43.949219 C 31.386719 43.949219 31.121094 44.21875 31.121094 44.546875 C 31.121094 44.875 31.386719 45.144531 31.71875 45.144531 C 32.046875 45.144531 32.3125 44.875 32.3125 44.546875 Z M 32.3125 44.546875 "/>
<path fill-rule="nonzero" fill="rgb(0%, 0%, 0%)" fill-opacity="1" d="M 32.3125 37.921875 C 32.3125 37.59375 32.046875 37.324219 31.71875 37.324219 C 31.386719 37.324219 31.121094 37.59375 31.121094 37.921875 C 31.121094 38.25 31.386719 38.519531 31.71875 38.519531 C 32.046875 38.519531 32.3125 38.25 32.3125 37.921875 Z M 32.3125 37.921875 "/>
<path fill-rule="nonzero" fill="rgb(0%, 0%, 0%)" fill-opacity="1" d="M 32.3125 31.296875 C 32.3125 30.964844 32.046875 30.699219 31.71875 30.699219 C 31.386719 30.699219 31.121094 30.964844 31.121094 31.296875 C 31.121094 31.625 31.386719 31.890625 31.71875 31.890625 C 32.046875 31.890625 32.3125 31.625 32.3125 31.296875 Z M 32.3125 31.296875 "/>
<path fill-rule="nonzero" fill="rgb(0%, 0%, 0%)" fill-opacity="1" d="M 32.3125 24.671875 C 32.3125 24.339844 32.046875 24.074219 31.71875 24.074219 C 31.386719 24.074219 31.121094 24.339844 31.121094 24.671875 C 31.121094 25 31.386719 25.265625 31.71875 25.265625 C 32.046875 25.265625 32.3125 25 32.3125 24.671875 Z M 32.3125 24.671875 "/>
<path fill-rule="nonzero" fill="rgb(0%, 0%, 0%)" fill-opacity="1" d="M 32.3125 18.042969 C 32.3125 17.714844 32.046875 17.449219 31.71875 17.449219 C 31.386719 17.449219 31.121094 17.714844 31.121094 18.042969 C 31.121094 18.375 31.386719 18.640625 31.71875 18.640625 C 32.046875 18.640625 32.3125 18.375 32.3125 18.042969 Z M 32.3125 18.042969 "/>
<path fill-rule="nonzero" fill="rgb(0%, 0%, 0%)" fill-opacity="1" d="M 32.3125 11.417969 C 32.3125 11.089844 32.046875 10.824219 31.71875 10.824219 C 31.386719 10.824219 31.121094 11.089844 31.121094 11.417969 C 31.121094 11.75 31.386719 12.015625 31.71875 12.015625 C 32.046875 12.015625 32.3125 11.75 32.3125 11.417969 Z M 32.3125 11.417969 "/>
<path fill-rule="nonzero" fill="rgb(0%, 0%, 0%)" fill-opacity="1" d="M 38.941406 44.546875 C 38.941406 44.21875 38.671875 43.949219 38.34375 43.949219 C 38.015625 43.949219 37.746094 44.21875 37.746094 44.546875 C 37.746094 44.875 38.015625 45.144531 38.34375 45.144531 C 38.671875 45.144531 38.941406 44.875 38.941406 44.546875 Z M 38.941406 44.546875 "/>
<path fill-rule="nonzero" fill="rgb(0%, 0%, 0%)" fill-opacity="1" d="M 38.941406 37.921875 C 38.941406 37.59375 38.671875 37.324219 38.34375 37.324219 C 38.015625 37.324219 37.746094 37.59375 37.746094 37.921875 C 37.746094 38.25 38.015625 38.519531 38.34375 38.519531 C 38.671875 38.519531 38.941406 38.25 38.941406 37.921875 Z M 38.941406 37.921875 "/>
<path fill-rule="nonzero" fill="rgb(0%, 0%, 0%)" fill-opacity="1" d="M 38.941406 31.296875 C 38.941406 30.964844 38.671875 30.699219 38.34375 30.699219 C 38.015625 30.699219 37.746094 30.964844 37.746094 31.296875 C 37.746094 31.625 38.015625 31.890625 38.34375 31.890625 C 38.671875 31.890625 38.941406 31.625 38.941406 31.296875 Z M 38.941406 31.296875 "/>
<path fill-rule="nonzero" fill="rgb(0%, 0%, 0%)" fill-opacity="1" d="M 38.941406 24.671875 C 38.941406 24.339844 38.671875 24.074219 38.34375 24.074219 C 38.015625 24.074219 37.746094 24.339844 37.746094 24.671875 C 37.746094 25 38.015625 25.265625 38.34375 25.265625 C 38.671875 25.265625 38.941406 25 38.941406 24.671875 Z M 38.941406 24.671875 "/>
<path fill-rule="nonzero" fill="rgb(0%, 0%, 0%)" fill-opacity="1" d="M 38.941406 18.042969 C 38.941406 17.714844 38.671875 17.449219 38.34375 17.449219 C 38.015625 17.449219 37.746094 17.714844 37.746094 18.042969 C 37.746094 18.375 38.015625 18.640625 38.34375 18.640625 C 38.671875 18.640625 38.941406 18.375 38.941406 18.042969 Z M 38.941406 18.042969 "/>
<path fill-rule="nonzero" fill="rgb(0%, 0%, 0%)" fill-opacity="1" d="M 38.941406 11.417969 C 38.941406 11.089844 38.671875 10.824219 38.34375 10.824219 C 38.015625 10.824219 37.746094 11.089844 37.746094 11.417969 C 37.746094 11.75 38.015625 12.015625 38.34375 12.015625 C 38.671875 12.015625 38.941406 11.75 38.941406 11.417969 Z M 38.941406 11.417969 "/>
<path fill-rule="nonzero" fill="rgb(0%, 0%, 0%)" fill-opacity="1" d="M 45.566406 44.546875 C 45.566406 44.21875 45.296875 43.949219 44.96875 43.949219 C 44.640625 43.949219 44.371094 44.21875 44.371094 44.546875 C 44.371094 44.875 44.640625 45.144531 44.96875 45.144531 C 45.296875 45.144531 45.566406 44.875 45.566406 44.546875 Z M 45.566406 44.546875 "/>
<path fill-rule="nonzero" fill="rgb(0%, 0%, 0%)" fill-opacity="1" d="M 45.566406 37.921875 C 45.566406 37.59375 45.296875 37.324219 44.96875 37.324219 C 44.640625 37.324219 44.371094 37.59375 44.371094 37.921875 C 44.371094 38.25 44.640625 38.519531 44.96875 38.519531 C 45.296875 38.519531 45.566406 38.25 45.566406 37.921875 Z M 45.566406 37.921875 "/>
<path fill-rule="nonzero" fill="rgb(0%, 0%, 0%)" fill-opacity="1" d="M 45.566406 31.296875 C 45.566406 30.964844 45.296875 30.699219 44.96875 30.699219 C 44.640625 30.699219 44.371094 30.964844 44.371094 31.296875 C 44.371094 31.625 44.640625 31.890625 44.96875 31.890625 C 45.296875 31.890625 45.566406 31.625 45.566406 31.296875 Z M 45.566406 31.296875 "/>
<path fill-rule="nonzero" fill="rgb(0%, 0%, 0%)" fill-opacity="1" d="M 45.566406 24.671875 C 45.566406 24.339844 45.296875 24.074219 44.96875 24.074219 C 44.640625 24.074219 44.371094 24.339844 44.371094 24.671875 C 44.371094 25 44.640625 25.265625 44.96875 25.265625 C 45.296875 25.265625 45.566406 25 45.566406 24.671875 Z M 45.566406 24.671875 "/>
<path fill-rule="nonzero" fill="rgb(0%, 0%, 0%)" fill-opacity="1" d="M 45.566406 18.042969 C 45.566406 17.714844 45.296875 17.449219 44.96875 17.449219 C 44.640625 17.449219 44.371094 17.714844 44.371094 18.042969 C 44.371094 18.375 44.640625 18.640625 44.96875 18.640625 C 45.296875 18.640625 45.566406 18.375 45.566406 18.042969 Z M 45.566406 18.042969 "/>
<path fill-rule="nonzero" fill="rgb(0%, 0%, 0%)" fill-opacity="1" d="M 45.566406 11.417969 C 45.566406 11.089844 45.296875 10.824219 44.96875 10.824219 C 44.640625 10.824219 44.371094 11.089844 44.371094 11.417969 C 44.371094 11.75 44.640625 12.015625 44.96875 12.015625 C 45.296875 12.015625 45.566406 11.75 45.566406 11.417969 Z M 45.566406 11.417969 "/>
<path fill="none" stroke-width="2.26773" stroke-linecap="round" stroke-linejoin="round" stroke="rgb(27.450562%, 54.902649%, 100%)" stroke-opacity="1" stroke-miterlimit="10" d="M 7.087029 -7.086029 C 13.327672 -4.81599 12.487207 1.966635 11.454301 1.102606 " transform="matrix(0.994614, 0, 0, -0.994614, 28.193329, 28.194324)"/>
<path fill-rule="nonzero" fill="rgb(27.450562%, 54.902649%, 100%)" fill-opacity="1" d="M 43.257812 24.019531 L 36.796875 26.265625 L 40.011719 26.742188 L 39.925781 29.992188 Z M 43.257812 24.019531 "/>
<g clip-path="url(#clip-0)">
<path fill="none" stroke-width="2.22643" stroke-linecap="round" stroke-linejoin="miter" stroke="rgb(27.450562%, 54.902649%, 100%)" stroke-opacity="1" stroke-miterlimit="10" d="M 10.022472 -0.000645735 L 3.594725 2.444964 L 5.762779 0.000252112 L 3.596203 -2.44733 Z M 10.022472 -0.000645735 " transform="matrix(0.761914, -0.639328, -0.639328, -0.761914, 35.621137, 30.426686)"/>
</g>
<path fill="none" stroke-width="1.98427" stroke-linecap="round" stroke-linejoin="round" stroke="rgb(0%, 0%, 0%)" stroke-opacity="1" stroke-miterlimit="10" d="M 10.770932 5.100703 L 14.172063 12.189665 L 17.859895 5.100703 L 21.543798 12.189665 " transform="matrix(0.994614, 0, 0, -0.994614, 28.193329, 28.194324)"/>
<path fill="none" stroke-width="1.98427" stroke-linecap="round" stroke-linejoin="round" stroke="rgb(27.450562%, 54.902649%, 100%)" stroke-opacity="1" stroke-miterlimit="10" d="M 10.770932 5.100703 L 21.543798 5.100703 " transform="matrix(0.994614, 0, 0, -0.994614, 28.193329, 28.194324)"/>
</svg>
