<?xml version="1.0" encoding="UTF-8"?>
<svg xmlns="http://www.w3.org/2000/svg" xmlns:xlink="http://www.w3.org/1999/xlink" width="56.693" height="56.693" viewBox="0 0 56.693 56.693">
<path fill="none" stroke-width="3.4016" stroke-linecap="round" stroke-linejoin="round" stroke="rgb(0%, 0%, 0%)" stroke-opacity="1" stroke-miterlimit="10" d="M -25.510415 -18.424441 L -25.510415 18.42638 C -25.510415 22.338074 -22.341001 25.511415 -18.42538 25.511415 L 18.425441 25.511415 C 22.341061 25.511415 25.510475 22.338074 25.510475 18.42638 L 25.510475 -18.424441 C 25.510475 -22.340061 22.341061 -25.513403 18.425441 -25.513403 L -18.42538 -25.513403 C -22.341001 -25.513403 -25.510415 -22.340061 -25.510415 -18.424441 Z M -25.510415 -18.424441 " transform="matrix(0.994614, 0, 0, -0.994614, 28.193329, 28.194324)"/>
<path fill-rule="nonzero" fill="rgb(85.488892%, 90.979004%, 100%)" fill-opacity="1" d="M 9.867188 9.867188 L 46.519531 9.867188 L 35.242188 21.144531 L 21.144531 21.144531 Z M 9.867188 9.867188 "/>
<path fill-rule="nonzero" fill="rgb(74.607849%, 84.214783%, 100%)" fill-opacity="1" d="M 9.867188 9.867188 L 9.867188 46.519531 L 21.144531 35.242188 L 21.144531 21.144531 Z M 9.867188 9.867188 "/>
<path fill-rule="nonzero" fill="rgb(74.607849%, 84.214783%, 100%)" fill-opacity="1" d="M 46.519531 9.867188 L 46.519531 46.519531 L 35.242188 35.242188 L 35.242188 21.144531 Z M 46.519531 9.867188 "/>
<path fill-rule="nonzero" fill="rgb(56.469727%, 72.941589%, 100%)" fill-opacity="1" d="M 9.867188 46.519531 L 46.519531 46.519531 L 35.242188 35.242188 L 21.144531 35.242188 Z M 9.867188 46.519531 "/>
<path fill="none" stroke-width="3.4016" stroke-linecap="round" stroke-linejoin="round" stroke="rgb(0%, 0%, 0%)" stroke-opacity="1" stroke-miterlimit="10" d="M -18.42538 18.42638 L 18.425441 18.42638 L 18.425441 -18.424441 L -18.42538 -18.424441 Z M -18.42538 18.42638 " transform="matrix(0.994614, 0, 0, -0.994614, 28.193329, 28.194324)"/>
<path fill="none" stroke-width="3.4016" stroke-linecap="round" stroke-linejoin="round" stroke="rgb(0%, 0%, 0%)" stroke-opacity="1" stroke-miterlimit="10" d="M -7.086968 7.087968 L 7.087029 7.087968 L 7.087029 -7.086029 L -7.086968 -7.086029 Z M -7.086968 7.087968 " transform="matrix(0.994614, 0, 0, -0.994614, 28.193329, 28.194324)"/>
<path fill="none" stroke-width="3.4016" stroke-linecap="round" stroke-linejoin="round" stroke="rgb(0%, 0%, 0%)" stroke-opacity="1" stroke-miterlimit="10" d="M -18.42538 18.42638 L -7.086968 7.087968 " transform="matrix(0.994614, 0, 0, -0.994614, 28.193329, 28.194324)"/>
<path fill="none" stroke-width="3.4016" stroke-linecap="round" stroke-linejoin="round" stroke="rgb(0%, 0%, 0%)" stroke-opacity="1" stroke-miterlimit="10" d="M 18.425441 18.42638 L 7.087029 7.087968 " transform="matrix(0.994614, 0, 0, -0.994614, 28.193329, 28.194324)"/>
<path fill="none" stroke-width="3.4016" stroke-linecap="round" stroke-linejoin="round" stroke="rgb(0%, 0%, 0%)" stroke-opacity="1" stroke-miterlimit="10" d="M 18.425441 -18.424441 L 7.087029 -7.086029 " transform="matrix(0.994614, 0, 0, -0.994614, 28.193329, 28.194324)"/>
<path fill="none" stroke-width="3.4016" stroke-linecap="round" stroke-linejoin="round" stroke="rgb(0%, 0%, 0%)" stroke-opacity="1" stroke-miterlimit="10" d="M -18.42538 -18.424441 L -7.086968 -7.086029 " transform="matrix(0.994614, 0, 0, -0.994614, 28.193329, 28.194324)"/>
<path fill-rule="nonzero" fill="rgb(27.450562%, 54.902649%, 100%)" fill-opacity="1" stroke-width="1.98427" stroke-linecap="round" stroke-linejoin="round" stroke="rgb(0%, 0%, 0%)" stroke-opacity="1" stroke-miterlimit="10" d="M -4.098215 7.087968 C -4.098215 8.737478 -5.437459 10.076722 -7.086968 10.076722 C -8.736478 10.076722 -10.075722 8.737478 -10.075722 7.087968 C -10.075722 5.434532 -8.736478 4.099215 -7.086968 4.099215 C -5.437459 4.099215 -4.098215 5.434532 -4.098215 7.087968 Z M -4.098215 7.087968 " transform="matrix(0.994614, 0, 0, -0.994614, 28.193329, 28.194324)"/>
<path fill-rule="nonzero" fill="rgb(27.450562%, 54.902649%, 100%)" fill-opacity="1" stroke-width="1.98427" stroke-linecap="round" stroke-linejoin="round" stroke="rgb(0%, 0%, 0%)" stroke-opacity="1" stroke-miterlimit="10" d="M 10.075782 7.087968 C 10.075782 8.737478 8.736538 10.076722 7.087029 10.076722 C 5.437519 10.076722 4.098275 8.737478 4.098275 7.087968 C 4.098275 5.434532 5.437519 4.099215 7.087029 4.099215 C 8.736538 4.099215 10.075782 5.434532 10.075782 7.087968 Z M 10.075782 7.087968 " transform="matrix(0.994614, 0, 0, -0.994614, 28.193329, 28.194324)"/>
<path fill-rule="nonzero" fill="rgb(27.450562%, 54.902649%, 100%)" fill-opacity="1" stroke-width="1.98427" stroke-linecap="round" stroke-linejoin="round" stroke="rgb(0%, 0%, 0%)" stroke-opacity="1" stroke-miterlimit="10" d="M 10.075782 -7.086029 C 10.075782 -5.436519 8.736538 -4.097275 7.087029 -4.097275 C 5.437519 -4.097275 4.098275 -5.436519 4.098275 -7.086029 C 4.098275 -8.735538 5.437519 -10.074782 7.087029 -10.074782 C 8.736538 -10.074782 10.075782 -8.735538 10.075782 -7.086029 Z M 10.075782 -7.086029 " transform="matrix(0.994614, 0, 0, -0.994614, 28.193329, 28.194324)"/>
<path fill-rule="nonzero" fill="rgb(27.450562%, 54.902649%, 100%)" fill-opacity="1" stroke-width="1.98427" stroke-linecap="round" stroke-linejoin="round" stroke="rgb(0%, 0%, 0%)" stroke-opacity="1" stroke-miterlimit="10" d="M -4.098215 -7.086029 C -4.098215 -5.436519 -5.437459 -4.097275 -7.086968 -4.097275 C -8.736478 -4.097275 -10.075722 -5.436519 -10.075722 -7.086029 C -10.075722 -8.735538 -8.736478 -10.074782 -7.086968 -10.074782 C -5.437459 -10.074782 -4.098215 -8.735538 -4.098215 -7.086029 Z M -4.098215 -7.086029 " transform="matrix(0.994614, 0, 0, -0.994614, 28.193329, 28.194324)"/>
</svg>
