<?xml version="1.0" encoding="UTF-8"?>
<svg xmlns="http://www.w3.org/2000/svg" xmlns:xlink="http://www.w3.org/1999/xlink" width="56.693" height="56.693" viewBox="0 0 56.693 56.693">
<path fill="none" stroke-width="3.4016" stroke-linecap="round" stroke-linejoin="round" stroke="rgb(0%, 0%, 0%)" stroke-opacity="1" stroke-miterlimit="10" d="M -25.510415 -18.424441 L -25.510415 18.42638 C -25.510415 22.338074 -22.341001 25.511415 -18.42538 25.511415 L 18.425441 25.511415 C 22.341061 25.511415 25.510475 22.338074 25.510475 18.42638 L 25.510475 -18.424441 C 25.510475 -22.340061 22.341061 -25.513403 18.425441 -25.513403 L -18.42538 -25.513403 C -22.341001 -25.513403 -25.510415 -22.340061 -25.510415 -18.424441 Z M -25.510415 -18.424441 " transform="matrix(0.994614, 0, 0, -0.994614, 28.193329, 28.194324)"/>
<path fill-rule="nonzero" fill="rgb(27.450562%, 54.902649%, 100%)" fill-opacity="1" stroke-width="1.98427" stroke-linecap="round" stroke-linejoin="round" stroke="rgb(0%, 0%, 0%)" stroke-opacity="1" stroke-miterlimit="10" d="M -14.018834 14.173003 C -14.018834 15.822512 -15.358079 17.161757 -17.007588 17.161757 C -18.657097 17.161757 -19.996342 15.822512 -19.996342 14.173003 C -19.996342 12.523494 -18.657097 11.18425 -17.007588 11.18425 C -15.358079 11.18425 -14.018834 12.523494 -14.018834 14.173003 Z M -14.018834 14.173003 " transform="matrix(0.994614, 0, 0, -0.994614, 28.193329, 28.194324)"/>
<path fill-rule="nonzero" fill="rgb(27.450562%, 54.902649%, 100%)" fill-opacity="1" stroke-width="1.98427" stroke-linecap="round" stroke-linejoin="round" stroke="rgb(0%, 0%, 0%)" stroke-opacity="1" stroke-miterlimit="10" d="M 2.990747 14.173003 C 2.990747 15.822512 1.651503 17.161757 -0.0019336 17.161757 C -1.651443 17.161757 -2.990687 15.822512 -2.990687 14.173003 C -2.990687 12.523494 -1.651443 11.18425 -0.0019336 11.18425 C 1.651503 11.18425 2.990747 12.523494 2.990747 14.173003 Z M 2.990747 14.173003 " transform="matrix(0.994614, 0, 0, -0.994614, 28.193329, 28.194324)"/>
<path fill-rule="nonzero" fill="rgb(27.450562%, 54.902649%, 100%)" fill-opacity="1" stroke-width="1.98427" stroke-linecap="round" stroke-linejoin="round" stroke="rgb(0%, 0%, 0%)" stroke-opacity="1" stroke-miterlimit="10" d="M 19.996402 14.173003 C 19.996402 15.822512 18.657157 17.161757 17.007648 17.161757 C 15.358139 17.161757 14.018895 15.822512 14.018895 14.173003 C 14.018895 12.523494 15.358139 11.18425 17.007648 11.18425 C 18.657157 11.18425 19.996402 12.523494 19.996402 14.173003 Z M 19.996402 14.173003 " transform="matrix(0.994614, 0, 0, -0.994614, 28.193329, 28.194324)"/>
<path fill-rule="nonzero" fill="rgb(0%, 0%, 0%)" fill-opacity="1" stroke-width="1.98427" stroke-linecap="round" stroke-linejoin="round" stroke="rgb(0%, 0%, 0%)" stroke-opacity="1" stroke-miterlimit="10" d="M -5.516007 -0.0009938 C -5.516007 1.652443 -6.855252 2.98776 -8.504761 2.98776 C -10.15427 2.98776 -11.493514 1.652443 -11.493514 -0.0009938 C -11.493514 -1.650503 -10.15427 -2.989747 -8.504761 -2.989747 C -6.855252 -2.989747 -5.516007 -1.650503 -5.516007 -0.0009938 Z M -5.516007 -0.0009938 " transform="matrix(0.994614, 0, 0, -0.994614, 28.193329, 28.194324)"/>
<path fill-rule="nonzero" fill="rgb(0%, 0%, 0%)" fill-opacity="1" stroke-width="1.98427" stroke-linecap="round" stroke-linejoin="round" stroke="rgb(0%, 0%, 0%)" stroke-opacity="1" stroke-miterlimit="10" d="M 11.493575 -0.0009938 C 11.493575 1.652443 10.15433 2.98776 8.504821 2.98776 C 6.855312 2.98776 5.516067 1.652443 5.516067 -0.0009938 C 5.516067 -1.650503 6.855312 -2.989747 8.504821 -2.989747 C 10.15433 -2.989747 11.493575 -1.650503 11.493575 -0.0009938 Z M 11.493575 -0.0009938 " transform="matrix(0.994614, 0, 0, -0.994614, 28.193329, 28.194324)"/>
<path fill-rule="nonzero" fill="rgb(27.450562%, 54.902649%, 100%)" fill-opacity="1" stroke-width="1.98427" stroke-linecap="round" stroke-linejoin="round" stroke="rgb(0%, 0%, 0%)" stroke-opacity="1" stroke-miterlimit="10" d="M 2.990747 -14.174991 C 2.990747 -12.521554 1.651503 -11.186237 -0.0019336 -11.186237 C -1.651443 -11.186237 -2.990687 -12.521554 -2.990687 -14.174991 C -2.990687 -15.8245 -1.651443 -17.163744 -0.0019336 -17.163744 C 1.651503 -17.163744 2.990747 -15.8245 2.990747 -14.174991 Z M 2.990747 -14.174991 " transform="matrix(0.994614, 0, 0, -0.994614, 28.193329, 28.194324)"/>
</svg>
