<?xml version="1.0" encoding="UTF-8"?>
<svg xmlns="http://www.w3.org/2000/svg" xmlns:xlink="http://www.w3.org/1999/xlink" width="56.693" height="56.693" viewBox="0 0 56.693 56.693">
<path fill="none" stroke-width="3.4016" stroke-linecap="round" stroke-linejoin="round" stroke="rgb(0%, 0%, 0%)" stroke-opacity="1" stroke-miterlimit="10" d="M -25.510415 -18.424441 L -25.510415 18.42638 C -25.510415 22.338074 -22.341001 25.511415 -18.42538 25.511415 L 18.425441 25.511415 C 22.341061 25.511415 25.510475 22.338074 25.510475 18.42638 L 25.510475 -18.424441 C 25.510475 -22.340061 22.341061 -25.513403 18.425441 -25.513403 L -18.42538 -25.513403 C -22.341001 -25.513403 -25.510415 -22.340061 -25.510415 -18.424441 Z M -25.510415 -18.424441 " transform="matrix(0.994614, 0, 0, -0.994614, 28.193329, 28.194324)"/>
<path fill="none" stroke-width="3.4016" stroke-linecap="round" stroke-linejoin="round" stroke="rgb(0%, 0%, 0%)" stroke-opacity="1" stroke-miterlimit="10" d="M 19.843233 -0.0009938 C 19.843233 10.960388 10.959448 19.844173 -0.0019336 19.844173 C -10.959388 19.844173 -19.843173 10.960388 -19.843173 -0.0009938 C -19.843173 -10.958448 -10.959388 -19.842233 -0.0019336 -19.842233 C 10.959448 -19.842233 19.843233 -10.958448 19.843233 -0.0009938 Z M 19.843233 -0.0009938 " transform="matrix(0.994614, 0, 0, -0.994614, 28.193329, 28.194324)"/>
<path fill="none" stroke-width="3.4016" stroke-linecap="round" stroke-linejoin="round" stroke="rgb(0%, 0%, 0%)" stroke-opacity="1" stroke-miterlimit="10" d="M -14.172003 4.252383 C -14.172003 12.079697 -7.829247 18.42638 -0.0019336 18.42638 C 7.829308 18.42638 14.172063 12.079697 14.172063 4.252383 " transform="matrix(0.994614, 0, 0, -0.994614, 28.193329, 28.194324)"/>
<path fill="none" stroke-width="3.4016" stroke-linecap="round" stroke-linejoin="round" stroke="rgb(0%, 0%, 0%)" stroke-opacity="1" stroke-miterlimit="10" d="M -9.922553 9.919626 C -9.922553 15.40228 -5.480661 19.844173 -0.0019336 19.844173 C 5.480721 19.844173 9.922613 15.40228 9.922613 9.919626 " transform="matrix(0.994614, 0, 0, -0.994614, 28.193329, 28.194324)"/>
<path fill-rule="nonzero" fill="rgb(27.450562%, 54.902649%, 100%)" fill-opacity="1" stroke-width="3.4016" stroke-linecap="round" stroke-linejoin="round" stroke="rgb(27.450562%, 54.902649%, 100%)" stroke-opacity="1" stroke-miterlimit="10" d="M 6.234782 -9.921613 C 6.234782 -6.477281 3.442399 -3.684898 -0.0019336 -3.684898 C -3.442339 -3.684898 -6.234722 -6.477281 -6.234722 -9.921613 C -6.234722 -13.365946 -3.442339 -16.158329 -0.0019336 -16.158329 C 3.442399 -16.158329 6.234782 -13.365946 6.234782 -9.921613 Z M 6.234782 -9.921613 " transform="matrix(0.994614, 0, 0, -0.994614, 28.193329, 28.194324)"/>
</svg>
