<?xml version="1.0" encoding="UTF-8"?>
<svg xmlns="http://www.w3.org/2000/svg" xmlns:xlink="http://www.w3.org/1999/xlink" width="56.693" height="56.693" viewBox="0 0 56.693 56.693">
<defs>
<clipPath id="clip-0">
<path clip-rule="nonzero" d="M 0 1 L 56.386719 1 L 56.386719 56.386719 L 0 56.386719 Z M 0 1 "/>
</clipPath>
</defs>
<path fill="none" stroke-width="3.4016" stroke-linecap="round" stroke-linejoin="round" stroke="rgb(0%, 0%, 0%)" stroke-opacity="1" stroke-miterlimit="10" d="M -25.510415 -18.424441 L -25.510415 18.42638 C -25.510415 22.338074 -22.341001 25.511415 -18.42538 25.511415 L 18.425441 25.511415 C 22.341061 25.511415 25.510475 22.338074 25.510475 18.42638 L 25.510475 -18.424441 C 25.510475 -22.340061 22.341061 -25.513403 18.425441 -25.513403 L -18.42538 -25.513403 C -22.341001 -25.513403 -25.510415 -22.340061 -25.510415 -18.424441 Z M -25.510415 -18.424441 " transform="matrix(0.994614, 0, 0, -0.994614, 28.193329, 28.194324)"/>
<path fill-rule="nonzero" fill="rgb(62.275696%, 76.548767%, 100%)" fill-opacity="1" stroke-width="1.55907" stroke-linecap="round" stroke-linejoin="round" stroke="rgb(0%, 0%, 0%)" stroke-opacity="1" stroke-miterlimit="10" d="M -22.109284 13.037984 L -22.109284 5.952949 L -15.02425 5.952949 L -15.02425 13.037984 Z M -22.109284 13.037984 " transform="matrix(0.994614, 0, 0, -0.994614, 28.193329, 28.194324)"/>
<path fill-rule="nonzero" fill="rgb(62.275696%, 76.548767%, 100%)" fill-opacity="1" stroke-width="1.55907" stroke-linecap="round" stroke-linejoin="round" stroke="rgb(0%, 0%, 0%)" stroke-opacity="1" stroke-miterlimit="10" d="M -15.02425 13.037984 L -15.02425 5.952949 L -7.935287 5.952949 L -7.935287 13.037984 Z M -15.02425 13.037984 " transform="matrix(0.994614, 0, 0, -0.994614, 28.193329, 28.194324)"/>
<path fill-rule="nonzero" fill="rgb(62.275696%, 76.548767%, 100%)" fill-opacity="1" stroke-width="1.55907" stroke-linecap="round" stroke-linejoin="round" stroke="rgb(0%, 0%, 0%)" stroke-opacity="1" stroke-miterlimit="10" d="M -22.109284 5.952949 L -22.109284 -1.132086 L -15.02425 -1.132086 L -15.02425 5.952949 Z M -22.109284 5.952949 " transform="matrix(0.994614, 0, 0, -0.994614, 28.193329, 28.194324)"/>
<path fill-rule="nonzero" fill="rgb(62.275696%, 76.548767%, 100%)" fill-opacity="1" stroke-width="1.55907" stroke-linecap="round" stroke-linejoin="round" stroke="rgb(0%, 0%, 0%)" stroke-opacity="1" stroke-miterlimit="10" d="M -7.935287 5.952949 L -7.935287 -1.132086 L -0.850253 -1.132086 L -0.850253 5.952949 Z M -7.935287 5.952949 " transform="matrix(0.994614, 0, 0, -0.994614, 28.193329, 28.194324)"/>
<path fill-rule="nonzero" fill="rgb(62.275696%, 76.548767%, 100%)" fill-opacity="1" stroke-width="1.55907" stroke-linecap="round" stroke-linejoin="round" stroke="rgb(0%, 0%, 0%)" stroke-opacity="1" stroke-miterlimit="10" d="M -0.850253 5.952949 L -0.850253 -1.132086 L 6.234782 -1.132086 L 6.234782 5.952949 Z M -0.850253 5.952949 " transform="matrix(0.994614, 0, 0, -0.994614, 28.193329, 28.194324)"/>
<path fill-rule="nonzero" fill="rgb(62.275696%, 76.548767%, 100%)" fill-opacity="1" stroke-width="1.55907" stroke-linecap="round" stroke-linejoin="round" stroke="rgb(0%, 0%, 0%)" stroke-opacity="1" stroke-miterlimit="10" d="M -15.02425 -1.132086 L -15.02425 -8.221048 L -7.935287 -8.221048 L -7.935287 -1.132086 Z M -15.02425 -1.132086 " transform="matrix(0.994614, 0, 0, -0.994614, 28.193329, 28.194324)"/>
<path fill-rule="nonzero" fill="rgb(62.275696%, 76.548767%, 100%)" fill-opacity="1" stroke-width="1.55907" stroke-linecap="round" stroke-linejoin="round" stroke="rgb(0%, 0%, 0%)" stroke-opacity="1" stroke-miterlimit="10" d="M -7.935287 -1.132086 L -7.935287 -8.221048 L -0.850253 -8.221048 L -0.850253 -1.132086 Z M -7.935287 -1.132086 " transform="matrix(0.994614, 0, 0, -0.994614, 28.193329, 28.194324)"/>
<path fill="none" stroke-width="2.12599" stroke-linecap="round" stroke-linejoin="round" stroke="rgb(27.450562%, 54.902649%, 100%)" stroke-opacity="1" stroke-miterlimit="10" d="M -5.10363 -5.10269 L -1.934216 -5.10269 " transform="matrix(0.994614, 0, 0, -0.994614, 28.193329, 28.194324)"/>
<path fill-rule="nonzero" fill="rgb(27.450562%, 54.902649%, 100%)" fill-opacity="1" d="M 30.832031 33.269531 L 24.746094 30.953125 L 26.796875 33.269531 L 24.746094 35.585938 Z M 30.832031 33.269531 "/>
<g clip-path="url(#clip-0)">
<path fill="none" stroke-width="2.1188" stroke-linecap="round" stroke-linejoin="miter" stroke="rgb(27.450562%, 54.902649%, 100%)" stroke-opacity="1" stroke-miterlimit="10" d="M 9.539531 -0.000490107 L 3.420637 2.32846 L 5.482524 -0.000490107 L 3.420637 -2.32944 Z M 9.539531 -0.000490107 " transform="matrix(0.994614, 0, 0, -0.994614, 21.34388, 33.269044)"/>
</g>
<path fill-rule="nonzero" fill="rgb(92.939758%, 72.706604%, 54.824829%)" fill-opacity="1" stroke-width="1.55907" stroke-linecap="round" stroke-linejoin="round" stroke="rgb(0%, 0%, 0%)" stroke-opacity="1" stroke-miterlimit="10" d="M -4.534156 12.755211 L -4.534156 6.235722 L 1.985332 6.235722 L 1.985332 12.755211 Z M -4.534156 12.755211 " transform="matrix(0.994614, 0, 0, -0.994614, 28.193329, 28.194324)"/>
<path fill-rule="nonzero" fill="rgb(92.939758%, 72.706604%, 54.824829%)" fill-opacity="1" stroke-width="1.55907" stroke-linecap="round" stroke-linejoin="round" stroke="rgb(0%, 0%, 0%)" stroke-opacity="1" stroke-miterlimit="10" d="M 1.985332 12.755211 L 1.985332 6.235722 L 8.504821 6.235722 L 8.504821 12.755211 Z M 1.985332 12.755211 " transform="matrix(0.994614, 0, 0, -0.994614, 28.193329, 28.194324)"/>
<path fill-rule="nonzero" fill="rgb(92.939758%, 72.706604%, 54.824829%)" fill-opacity="1" stroke-width="1.55907" stroke-linecap="round" stroke-linejoin="round" stroke="rgb(0%, 0%, 0%)" stroke-opacity="1" stroke-miterlimit="10" d="M 8.504821 12.755211 L 8.504821 6.235722 L 15.02431 6.235722 L 15.02431 12.755211 Z M 8.504821 12.755211 " transform="matrix(0.994614, 0, 0, -0.994614, 28.193329, 28.194324)"/>
<path fill-rule="nonzero" fill="rgb(92.939758%, 72.706604%, 54.824829%)" fill-opacity="1" stroke-width="1.55907" stroke-linecap="round" stroke-linejoin="round" stroke="rgb(0%, 0%, 0%)" stroke-opacity="1" stroke-miterlimit="10" d="M -4.534156 6.235722 L -4.534156 -0.283767 L 1.985332 -0.283767 L 1.985332 6.235722 Z M -4.534156 6.235722 " transform="matrix(0.994614, 0, 0, -0.994614, 28.193329, 28.194324)"/>
<path fill-rule="nonzero" fill="rgb(92.939758%, 72.706604%, 54.824829%)" fill-opacity="1" stroke-width="1.55907" stroke-linecap="round" stroke-linejoin="round" stroke="rgb(0%, 0%, 0%)" stroke-opacity="1" stroke-miterlimit="10" d="M 1.985332 6.235722 L 1.985332 -0.283767 L 8.504821 -0.283767 L 8.504821 6.235722 Z M 1.985332 6.235722 " transform="matrix(0.994614, 0, 0, -0.994614, 28.193329, 28.194324)"/>
<path fill-rule="nonzero" fill="rgb(92.939758%, 72.706604%, 54.824829%)" fill-opacity="1" stroke-width="1.55907" stroke-linecap="round" stroke-linejoin="round" stroke="rgb(0%, 0%, 0%)" stroke-opacity="1" stroke-miterlimit="10" d="M 8.504821 6.235722 L 8.504821 -0.283767 L 15.02431 -0.283767 L 15.02431 6.235722 Z M 8.504821 6.235722 " transform="matrix(0.994614, 0, 0, -0.994614, 28.193329, 28.194324)"/>
<path fill-rule="nonzero" fill="rgb(92.939758%, 72.706604%, 54.824829%)" fill-opacity="1" stroke-width="1.55907" stroke-linecap="round" stroke-linejoin="round" stroke="rgb(0%, 0%, 0%)" stroke-opacity="1" stroke-miterlimit="10" d="M 15.02431 6.235722 L 15.02431 -0.283767 L 21.543798 -0.283767 L 21.543798 6.235722 Z M 15.02431 6.235722 " transform="matrix(0.994614, 0, 0, -0.994614, 28.193329, 28.194324)"/>
<path fill-rule="nonzero" fill="rgb(92.939758%, 72.706604%, 54.824829%)" fill-opacity="1" stroke-width="1.55907" stroke-linecap="round" stroke-linejoin="round" stroke="rgb(0%, 0%, 0%)" stroke-opacity="1" stroke-miterlimit="10" d="M 1.985332 -0.283767 L 1.985332 -6.803256 L 8.504821 -6.803256 L 8.504821 -0.283767 Z M 1.985332 -0.283767 " transform="matrix(0.994614, 0, 0, -0.994614, 28.193329, 28.194324)"/>
</svg>
