<?xml version="1.0" encoding="UTF-8"?>
<svg xmlns="http://www.w3.org/2000/svg" xmlns:xlink="http://www.w3.org/1999/xlink" width="56.693" height="56.693" viewBox="0 0 56.693 56.693">
<path fill="none" stroke-width="3.4016" stroke-linecap="round" stroke-linejoin="round" stroke="rgb(0%, 0%, 0%)" stroke-opacity="1" stroke-miterlimit="10" d="M -25.510415 -18.424441 L -25.510415 18.42638 C -25.510415 22.338074 -22.341001 25.511415 -18.42538 25.511415 L 18.425441 25.511415 C 22.341061 25.511415 25.510475 22.338074 25.510475 18.42638 L 25.510475 -18.424441 C 25.510475 -22.340061 22.341061 -25.513403 18.425441 -25.513403 L -18.42538 -25.513403 C -22.341001 -25.513403 -25.510415 -22.340061 -25.510415 -18.424441 Z M -25.510415 -18.424441 " transform="matrix(0.994614, 0, 0, -0.994614, 28.193329, 28.194324)"/>
<path fill="none" stroke-width="3.4016" stroke-linecap="round" stroke-linejoin="round" stroke="rgb(0%, 0%, 0%)" stroke-opacity="1" stroke-miterlimit="10" d="M -17.007588 -17.006648 L 20.342013 -17.006648 " transform="matrix(0.994614, 0, 0, -0.994614, 28.193329, 28.194324)"/>
<path fill="none" stroke-width="2.72128" stroke-linecap="round" stroke-linejoin="round" stroke="rgb(0%, 0%, 0%)" stroke-opacity="1" stroke-miterlimit="10" d="M -3.900188 5.197546 C -3.574213 3.249554 -0.000276819 0.323639 0.973719 0.00159184 C -0.000276819 -0.324383 -3.574213 -3.250298 -3.900188 -5.19829 " transform="matrix(0.994614, 0, 0, -0.994614, 48.426057, 45.110958)"/>
<path fill="none" stroke-width="3.4016" stroke-linecap="round" stroke-linejoin="round" stroke="rgb(0%, 0%, 0%)" stroke-opacity="1" stroke-miterlimit="10" d="M -17.007588 -17.006648 L -17.007588 20.342953 " transform="matrix(0.994614, 0, 0, -0.994614, 28.193329, 28.194324)"/>
<path fill="none" stroke-width="2.72128" stroke-linecap="round" stroke-linejoin="round" stroke="rgb(0%, 0%, 0%)" stroke-opacity="1" stroke-miterlimit="10" d="M -3.899248 5.199229 C -3.573274 3.24731 0.000662984 0.325322 0.974659 -0.000652039 C 0.000662984 -0.326626 -3.573274 -3.248614 -3.899248 -5.196606 " transform="matrix(0, -0.994614, -0.994614, 0, 11.276695, 7.961597)"/>
<path fill="none" stroke-width="3.4016" stroke-linecap="round" stroke-linejoin="round" stroke="rgb(0%, 0%, 0%)" stroke-opacity="1" stroke-miterlimit="10" d="M -17.007588 -17.006648 L 9.168552 -6.536192 " transform="matrix(0.994614, 0, 0, -0.994614, 28.193329, 28.194324)"/>
<path fill="none" stroke-width="2.72128" stroke-linecap="round" stroke-linejoin="round" stroke="rgb(0%, 0%, 0%)" stroke-opacity="1" stroke-miterlimit="10" d="M -3.899941 5.198177 C -3.571731 3.247948 0.00127687 0.325539 0.974935 -0.000466194 C -0.000907501 -0.325024 -3.573154 -3.248931 -3.899154 -5.195517 " transform="matrix(0.923439, -0.36937, -0.36937, -0.923439, 37.314378, 34.695619)"/>
<path fill="none" stroke-width="3.4016" stroke-linecap="round" stroke-linejoin="round" stroke="rgb(0%, 0%, 0%)" stroke-opacity="1" stroke-miterlimit="10" d="M -17.007588 -17.006648 L -6.537132 9.169492 " transform="matrix(0.994614, 0, 0, -0.994614, 28.193329, 28.194324)"/>
<path fill="none" stroke-width="2.72128" stroke-linecap="round" stroke-linejoin="round" stroke="rgb(0%, 0%, 0%)" stroke-opacity="1" stroke-miterlimit="10" d="M -3.89863 5.196739 C -3.57263 3.250153 -0.000383921 0.326246 0.975459 0.00168786 C 0.00180045 -0.324318 -3.574854 -3.248185 -3.899417 -5.196955 " transform="matrix(0.36937, -0.923439, -0.923439, -0.36937, 21.692035, 19.073276)"/>
<path fill="none" stroke-width="1.49442" stroke-linecap="round" stroke-linejoin="round" stroke="rgb(27.450562%, 54.902649%, 100%)" stroke-opacity="1" stroke-miterlimit="10" d="M -17.007588 -17.006648 L 10.531361 10.528373 " transform="matrix(0.994614, 0, 0, -0.994614, 28.193329, 28.194324)"/>
<path fill="none" stroke-width="1.19553" stroke-linecap="round" stroke-linejoin="round" stroke="rgb(27.450562%, 54.902649%, 100%)" stroke-opacity="1" stroke-miterlimit="10" d="M -2.183245 2.908309 C -1.999955 1.819678 -0.000428438 0.181177 0.546664 0.000664547 C -0.000428438 -0.179848 -1.999955 -1.818349 -2.180467 -2.909757 " transform="matrix(0.703292, -0.703292, -0.703292, -0.703292, 38.666784, 17.720869)"/>
</svg>
