<?xml version="1.0" encoding="UTF-8"?>
<svg xmlns="http://www.w3.org/2000/svg" xmlns:xlink="http://www.w3.org/1999/xlink" width="56.693" height="56.693" viewBox="0 0 56.693 56.693">
<path fill="none" stroke-width="3.4016" stroke-linecap="round" stroke-linejoin="round" stroke="rgb(0%, 0%, 0%)" stroke-opacity="1" stroke-miterlimit="10" d="M -25.510415 -18.424441 L -25.510415 18.42638 C -25.510415 22.338074 -22.341001 25.511415 -18.42538 25.511415 L 18.425441 25.511415 C 22.341061 25.511415 25.510475 22.338074 25.510475 18.42638 L 25.510475 -18.424441 C 25.510475 -22.340061 22.341061 -25.513403 18.425441 -25.513403 L -18.42538 -25.513403 C -22.341001 -25.513403 -25.510415 -22.340061 -25.510415 -18.424441 Z M -25.510415 -18.424441 " transform="matrix(0.994614, 0, 0, -0.994614, 28.193329, 28.194324)"/>
<path fill-rule="nonzero" fill="rgb(27.450562%, 54.902649%, 100%)" fill-opacity="1" stroke-width="1.55907" stroke-linecap="round" stroke-linejoin="round" stroke="rgb(0%, 0%, 0%)" stroke-opacity="1" stroke-miterlimit="10" d="M -21.826511 6.801268 L -21.826511 17.008588 C -21.826511 17.633045 -21.319876 18.143607 -20.695419 18.143607 L -10.488099 18.143607 C -9.863642 18.143607 -9.35308 17.633045 -9.35308 17.008588 L -9.35308 6.801268 C -9.35308 6.176811 -9.863642 5.670176 -10.488099 5.670176 L -20.695419 5.670176 C -21.319876 5.670176 -21.826511 6.176811 -21.826511 6.801268 Z M -21.826511 6.801268 " transform="matrix(0.994614, 0, 0, -0.994614, 28.193329, 28.194324)"/>
<path fill-rule="nonzero" fill="rgb(100%, 100%, 100%)" fill-opacity="1" stroke-width="1.27559" stroke-linecap="round" stroke-linejoin="round" stroke="rgb(0%, 0%, 0%)" stroke-opacity="1" stroke-miterlimit="10" d="M -13.598602 11.906892 C -13.598602 13.006564 -14.490123 13.898085 -15.589796 13.898085 C -16.689468 13.898085 -17.584916 13.006564 -17.584916 11.906892 C -17.584916 10.803291 -16.689468 9.911771 -15.589796 9.911771 C -14.490123 9.911771 -13.598602 10.803291 -13.598602 11.906892 Z M -13.598602 11.906892 " transform="matrix(0.994614, 0, 0, -0.994614, 28.193329, 28.194324)"/>
<path fill-rule="nonzero" fill="rgb(27.450562%, 54.902649%, 100%)" fill-opacity="1" stroke-width="1.55907" stroke-linecap="round" stroke-linejoin="round" stroke="rgb(0%, 0%, 0%)" stroke-opacity="1" stroke-miterlimit="10" d="M 9.35314 6.801268 L 9.35314 17.008588 C 9.35314 17.633045 9.863702 18.143607 10.488159 18.143607 L 20.691552 18.143607 C 21.319936 18.143607 21.826571 17.633045 21.826571 17.008588 L 21.826571 6.801268 C 21.826571 6.176811 21.319936 5.670176 20.691552 5.670176 L 10.488159 5.670176 C 9.863702 5.670176 9.35314 6.176811 9.35314 6.801268 Z M 9.35314 6.801268 " transform="matrix(0.994614, 0, 0, -0.994614, 28.193329, 28.194324)"/>
<path fill-rule="nonzero" fill="rgb(100%, 100%, 100%)" fill-opacity="1" stroke-width="1.27559" stroke-linecap="round" stroke-linejoin="round" stroke="rgb(0%, 0%, 0%)" stroke-opacity="1" stroke-miterlimit="10" d="M 17.584976 11.906892 C 17.584976 13.006564 16.689529 13.898085 15.589856 13.898085 C 14.490183 13.898085 13.598662 13.006564 13.598662 11.906892 C 13.598662 10.803291 14.490183 9.911771 15.589856 9.911771 C 16.689529 9.911771 17.584976 10.803291 17.584976 11.906892 Z M 17.584976 11.906892 " transform="matrix(0.994614, 0, 0, -0.994614, 28.193329, 28.194324)"/>
<path fill-rule="nonzero" fill="rgb(27.450562%, 54.902649%, 100%)" fill-opacity="1" stroke-width="1.55907" stroke-linecap="round" stroke-linejoin="round" stroke="rgb(0%, 0%, 0%)" stroke-opacity="1" stroke-miterlimit="10" d="M -21.826511 -17.006648 L -21.826511 -6.803256 C -21.826511 -6.174871 -21.319876 -5.668236 -20.695419 -5.668236 L -10.488099 -5.668236 C -9.863642 -5.668236 -9.35308 -6.174871 -9.35308 -6.803256 L -9.35308 -17.006648 C -9.35308 -17.635033 -9.863642 -18.141668 -10.488099 -18.141668 L -20.695419 -18.141668 C -21.319876 -18.141668 -21.826511 -17.635033 -21.826511 -17.006648 Z M -21.826511 -17.006648 " transform="matrix(0.994614, 0, 0, -0.994614, 28.193329, 28.194324)"/>
<path fill-rule="nonzero" fill="rgb(100%, 100%, 100%)" fill-opacity="1" stroke-width="1.27559" stroke-linecap="round" stroke-linejoin="round" stroke="rgb(0%, 0%, 0%)" stroke-opacity="1" stroke-miterlimit="10" d="M -13.598602 -11.904952 C -13.598602 -10.805279 -14.490123 -9.913759 -15.589796 -9.913759 C -16.689468 -9.913759 -17.584916 -10.805279 -17.584916 -11.904952 C -17.584916 -13.004625 -16.689468 -13.900073 -15.589796 -13.900073 C -14.490123 -13.900073 -13.598602 -13.004625 -13.598602 -11.904952 Z M -13.598602 -11.904952 " transform="matrix(0.994614, 0, 0, -0.994614, 28.193329, 28.194324)"/>
<path fill-rule="nonzero" fill="rgb(27.450562%, 54.902649%, 100%)" fill-opacity="1" stroke-width="1.55907" stroke-linecap="round" stroke-linejoin="round" stroke="rgb(0%, 0%, 0%)" stroke-opacity="1" stroke-miterlimit="10" d="M 9.35314 -17.006648 L 9.35314 -6.803256 C 9.35314 -6.174871 9.863702 -5.668236 10.488159 -5.668236 L 20.691552 -5.668236 C 21.319936 -5.668236 21.826571 -6.174871 21.826571 -6.803256 L 21.826571 -17.006648 C 21.826571 -17.635033 21.319936 -18.141668 20.691552 -18.141668 L 10.488159 -18.141668 C 9.863702 -18.141668 9.35314 -17.635033 9.35314 -17.006648 Z M 9.35314 -17.006648 " transform="matrix(0.994614, 0, 0, -0.994614, 28.193329, 28.194324)"/>
<path fill-rule="nonzero" fill="rgb(100%, 100%, 100%)" fill-opacity="1" stroke-width="1.27559" stroke-linecap="round" stroke-linejoin="round" stroke="rgb(0%, 0%, 0%)" stroke-opacity="1" stroke-miterlimit="10" d="M 17.584976 -11.904952 C 17.584976 -10.805279 16.689529 -9.913759 15.589856 -9.913759 C 14.490183 -9.913759 13.598662 -10.805279 13.598662 -11.904952 C 13.598662 -13.004625 14.490183 -13.900073 15.589856 -13.900073 C 16.689529 -13.900073 17.584976 -13.004625 17.584976 -11.904952 Z M 17.584976 -11.904952 " transform="matrix(0.994614, 0, 0, -0.994614, 28.193329, 28.194324)"/>
<path fill="none" stroke-width="1.98427" stroke-linecap="round" stroke-linejoin="round" stroke="rgb(0%, 0%, 0%)" stroke-opacity="1" stroke-miterlimit="10" d="M -9.070307 11.906892 L 9.070367 11.906892 " transform="matrix(0.994614, 0, 0, -0.994614, 28.193329, 28.194324)"/>
<path fill="none" stroke-width="1.98427" stroke-linecap="round" stroke-linejoin="round" stroke="rgb(0%, 0%, 0%)" stroke-opacity="1" stroke-miterlimit="10" d="M -9.070307 -11.904952 L 9.070367 -11.904952 " transform="matrix(0.994614, 0, 0, -0.994614, 28.193329, 28.194324)"/>
<path fill="none" stroke-width="1.98427" stroke-linecap="round" stroke-linejoin="round" stroke="rgb(0%, 0%, 0%)" stroke-opacity="1" stroke-miterlimit="10" d="M -15.589796 5.670176 L -15.589796 -5.668236 " transform="matrix(0.994614, 0, 0, -0.994614, 28.193329, 28.194324)"/>
<path fill="none" stroke-width="1.98427" stroke-linecap="round" stroke-linejoin="round" stroke="rgb(0%, 0%, 0%)" stroke-opacity="1" stroke-miterlimit="10" d="M 15.589856 5.670176 L 15.589856 -5.668236 " transform="matrix(0.994614, 0, 0, -0.994614, 28.193329, 28.194324)"/>
<path fill="none" stroke-width="1.98427" stroke-linecap="round" stroke-linejoin="round" stroke="rgb(0%, 0%, 0%)" stroke-opacity="1" stroke-miterlimit="10" d="M -10.770872 7.087968 L 10.770932 -7.086029 " transform="matrix(0.994614, 0, 0, -0.994614, 28.193329, 28.194324)"/>
<path fill="none" stroke-width="1.98427" stroke-linecap="round" stroke-linejoin="round" stroke="rgb(0%, 0%, 0%)" stroke-opacity="1" stroke-miterlimit="10" d="M 10.770932 7.087968 L -10.770872 -7.086029 " transform="matrix(0.994614, 0, 0, -0.994614, 28.193329, 28.194324)"/>
</svg>
