<?xml version="1.0" encoding="UTF-8"?>
<svg xmlns="http://www.w3.org/2000/svg" xmlns:xlink="http://www.w3.org/1999/xlink" width="56.693" height="56.693" viewBox="0 0 56.693 56.693">
<path fill="none" stroke-width="3.4016" stroke-linecap="round" stroke-linejoin="round" stroke="rgb(0%, 0%, 0%)" stroke-opacity="1" stroke-miterlimit="10" d="M -25.510415 -18.424441 L -25.510415 18.42638 C -25.510415 22.338074 -22.341001 25.511415 -18.42538 25.511415 L 18.425441 25.511415 C 22.341061 25.511415 25.510475 22.338074 25.510475 18.42638 L 25.510475 -18.424441 C 25.510475 -22.340061 22.341061 -25.513403 18.425441 -25.513403 L -18.42538 -25.513403 C -22.341001 -25.513403 -25.510415 -22.340061 -25.510415 -18.424441 Z M -25.510415 -18.424441 " transform="matrix(0.994614, 0, 0, -0.994614, 28.193329, 28.194324)"/>
<path fill="none" stroke-width="3.4016" stroke-linecap="round" stroke-linejoin="round" stroke="rgb(0%, 0%, 0%)" stroke-opacity="1" stroke-miterlimit="10" d="M 10.629546 -5.31477 C 10.629546 0.556697 5.869534 5.31671 -0.0019336 5.31671 C -5.869473 5.31671 -10.629486 0.556697 -10.629486 -5.31477 C -10.629486 -11.186237 -5.869473 -15.946249 -0.0019336 -15.946249 C 5.869534 -15.946249 10.629546 -11.186237 10.629546 -5.31477 Z M 10.629546 -5.31477 " transform="matrix(0.994614, 0, 0, -0.994614, 28.193329, 28.194324)"/>
<path fill="none" stroke-width="3.4016" stroke-linecap="round" stroke-linejoin="round" stroke="rgb(0%, 0%, 0%)" stroke-opacity="1" stroke-miterlimit="10" d="M -0.0019336 15.944262 L -18.413598 -15.946249 L 18.413658 -15.946249 Z M -0.0019336 15.944262 " transform="matrix(0.994614, 0, 0, -0.994614, 28.193329, 28.194324)"/>
<path fill="none" stroke-width="3.4016" stroke-linecap="round" stroke-linejoin="round" stroke="rgb(0%, 0%, 0%)" stroke-opacity="1" stroke-miterlimit="10" d="M -0.0019336 15.944262 L -0.0019336 -15.946249 " transform="matrix(0.994614, 0, 0, -0.994614, 28.193329, 28.194324)"/>
<path fill="none" stroke-width="3.4016" stroke-linecap="round" stroke-linejoin="round" stroke="rgb(0%, 0%, 0%)" stroke-opacity="1" stroke-miterlimit="10" d="M -18.413598 -15.946249 L 9.203899 -0.0009938 " transform="matrix(0.994614, 0, 0, -0.994614, 28.193329, 28.194324)"/>
<path fill="none" stroke-width="3.4016" stroke-linecap="round" stroke-linejoin="round" stroke="rgb(0%, 0%, 0%)" stroke-opacity="1" stroke-miterlimit="10" d="M 18.413658 -15.946249 L -9.203838 -0.0009938 " transform="matrix(0.994614, 0, 0, -0.994614, 28.193329, 28.194324)"/>
<path fill-rule="nonzero" fill="rgb(27.450562%, 54.902649%, 100%)" fill-opacity="1" stroke-width="1.98427" stroke-linecap="round" stroke-linejoin="round" stroke="rgb(0%, 0%, 0%)" stroke-opacity="1" stroke-miterlimit="10" d="M 2.990747 15.944262 C 2.990747 17.597698 1.651503 18.933015 -0.0019336 18.933015 C -1.651443 18.933015 -2.990687 17.597698 -2.990687 15.944262 C -2.990687 14.294753 -1.651443 12.955508 -0.0019336 12.955508 C 1.651503 12.955508 2.990747 14.294753 2.990747 15.944262 Z M 2.990747 15.944262 " transform="matrix(0.994614, 0, 0, -0.994614, 28.193329, 28.194324)"/>
<path fill-rule="nonzero" fill="rgb(27.450562%, 54.902649%, 100%)" fill-opacity="1" stroke-width="1.98427" stroke-linecap="round" stroke-linejoin="round" stroke="rgb(0%, 0%, 0%)" stroke-opacity="1" stroke-miterlimit="10" d="M -15.424845 -15.946249 C -15.424845 -14.292813 -16.760162 -12.957496 -18.413598 -12.957496 C -20.063107 -12.957496 -21.402352 -14.292813 -21.402352 -15.946249 C -21.402352 -17.595759 -20.063107 -18.935003 -18.413598 -18.935003 C -16.760162 -18.935003 -15.424845 -17.595759 -15.424845 -15.946249 Z M -15.424845 -15.946249 " transform="matrix(0.994614, 0, 0, -0.994614, 28.193329, 28.194324)"/>
<path fill-rule="nonzero" fill="rgb(27.450562%, 54.902649%, 100%)" fill-opacity="1" stroke-width="1.98427" stroke-linecap="round" stroke-linejoin="round" stroke="rgb(0%, 0%, 0%)" stroke-opacity="1" stroke-miterlimit="10" d="M 21.402412 -15.946249 C 21.402412 -14.292813 20.063168 -12.957496 18.413658 -12.957496 C 16.760222 -12.957496 15.424905 -14.292813 15.424905 -15.946249 C 15.424905 -17.595759 16.760222 -18.935003 18.413658 -18.935003 C 20.063168 -18.935003 21.402412 -17.595759 21.402412 -15.946249 Z M 21.402412 -15.946249 " transform="matrix(0.994614, 0, 0, -0.994614, 28.193329, 28.194324)"/>
<path fill-rule="nonzero" fill="rgb(27.450562%, 54.902649%, 100%)" fill-opacity="1" stroke-width="1.98427" stroke-linecap="round" stroke-linejoin="round" stroke="rgb(0%, 0%, 0%)" stroke-opacity="1" stroke-miterlimit="10" d="M -6.215085 -0.0009938 C -6.215085 1.652443 -7.554329 2.98776 -9.203838 2.98776 C -10.857275 2.98776 -12.192592 1.652443 -12.192592 -0.0009938 C -12.192592 -1.650503 -10.857275 -2.989747 -9.203838 -2.989747 C -7.554329 -2.989747 -6.215085 -1.650503 -6.215085 -0.0009938 Z M -6.215085 -0.0009938 " transform="matrix(0.994614, 0, 0, -0.994614, 28.193329, 28.194324)"/>
<path fill-rule="nonzero" fill="rgb(27.450562%, 54.902649%, 100%)" fill-opacity="1" stroke-width="1.98427" stroke-linecap="round" stroke-linejoin="round" stroke="rgb(0%, 0%, 0%)" stroke-opacity="1" stroke-miterlimit="10" d="M 2.990747 -15.946249 C 2.990747 -14.292813 1.651503 -12.957496 -0.0019336 -12.957496 C -1.651443 -12.957496 -2.990687 -14.292813 -2.990687 -15.946249 C -2.990687 -17.595759 -1.651443 -18.935003 -0.0019336 -18.935003 C 1.651503 -18.935003 2.990747 -17.595759 2.990747 -15.946249 Z M 2.990747 -15.946249 " transform="matrix(0.994614, 0, 0, -0.994614, 28.193329, 28.194324)"/>
<path fill-rule="nonzero" fill="rgb(27.450562%, 54.902649%, 100%)" fill-opacity="1" stroke-width="1.98427" stroke-linecap="round" stroke-linejoin="round" stroke="rgb(0%, 0%, 0%)" stroke-opacity="1" stroke-miterlimit="10" d="M 12.192652 -0.0009938 C 12.192652 1.652443 10.857335 2.98776 9.203899 2.98776 C 7.554389 2.98776 6.215145 1.652443 6.215145 -0.0009938 C 6.215145 -1.650503 7.554389 -2.989747 9.203899 -2.989747 C 10.857335 -2.989747 12.192652 -1.650503 12.192652 -0.0009938 Z M 12.192652 -0.0009938 " transform="matrix(0.994614, 0, 0, -0.994614, 28.193329, 28.194324)"/>
<path fill-rule="nonzero" fill="rgb(27.450562%, 54.902649%, 100%)" fill-opacity="1" stroke-width="1.98427" stroke-linecap="round" stroke-linejoin="round" stroke="rgb(0%, 0%, 0%)" stroke-opacity="1" stroke-miterlimit="10" d="M 2.990747 -5.31477 C 2.990747 -3.665261 1.651503 -2.326016 -0.0019336 -2.326016 C -1.651443 -2.326016 -2.990687 -3.665261 -2.990687 -5.31477 C -2.990687 -6.964279 -1.651443 -8.303523 -0.0019336 -8.303523 C 1.651503 -8.303523 2.990747 -6.964279 2.990747 -5.31477 Z M 2.990747 -5.31477 " transform="matrix(0.994614, 0, 0, -0.994614, 28.193329, 28.194324)"/>
</svg>
