<?xml version="1.0" encoding="UTF-8"?>
<svg xmlns="http://www.w3.org/2000/svg" xmlns:xlink="http://www.w3.org/1999/xlink" width="56.693" height="56.693" viewBox="0 0 56.693 56.693">
<path fill="none" stroke-width="3.4016" stroke-linecap="round" stroke-linejoin="round" stroke="rgb(0%, 0%, 0%)" stroke-opacity="1" stroke-miterlimit="10" d="M -25.510415 -18.424441 L -25.510415 18.42638 C -25.510415 22.338074 -22.341001 25.511415 -18.42538 25.511415 L 18.425441 25.511415 C 22.341061 25.511415 25.510475 22.338074 25.510475 18.42638 L 25.510475 -18.424441 C 25.510475 -22.340061 22.341061 -25.513403 18.425441 -25.513403 L -18.42538 -25.513403 C -22.341001 -25.513403 -25.510415 -22.340061 -25.510415 -18.424441 Z M -25.510415 -18.424441 " transform="matrix(0.994614, 0, 0, -0.994614, 28.193329, 28.194324)"/>
<path fill="none" stroke-width="3.4016" stroke-linecap="round" stroke-linejoin="round" stroke="rgb(0%, 0%, 0%)" stroke-opacity="1" stroke-miterlimit="10" d="M -20.978192 9.919626 L 1.702559 9.919626 " transform="matrix(0.994614, 0, 0, -0.994614, 28.193329, 28.194324)"/>
<path fill-rule="nonzero" fill="rgb(27.450562%, 54.902649%, 100%)" fill-opacity="1" stroke-width="1.55907" stroke-linecap="round" stroke-linejoin="round" stroke="rgb(0%, 0%, 0%)" stroke-opacity="1" stroke-miterlimit="10" d="M -17.989439 9.919626 C -17.989439 11.573062 -19.324756 12.912307 -20.978192 12.912307 C -22.627701 12.912307 -23.966946 11.573062 -23.966946 9.919626 C -23.966946 8.270117 -22.627701 6.930872 -20.978192 6.930872 C -19.324756 6.930872 -17.989439 8.270117 -17.989439 9.919626 Z M -17.989439 9.919626 " transform="matrix(0.994614, 0, 0, -0.994614, 28.193329, 28.194324)"/>
<path fill-rule="nonzero" fill="rgb(27.450562%, 54.902649%, 100%)" fill-opacity="1" stroke-width="1.55907" stroke-linecap="round" stroke-linejoin="round" stroke="rgb(0%, 0%, 0%)" stroke-opacity="1" stroke-miterlimit="10" d="M -6.647099 9.919626 C -6.647099 11.573062 -7.986344 12.912307 -9.635853 12.912307 C -11.289289 12.912307 -12.628534 11.573062 -12.628534 9.919626 C -12.628534 8.270117 -11.289289 6.930872 -9.635853 6.930872 C -7.986344 6.930872 -6.647099 8.270117 -6.647099 9.919626 Z M -6.647099 9.919626 " transform="matrix(0.994614, 0, 0, -0.994614, 28.193329, 28.194324)"/>
<path fill-rule="nonzero" fill="rgb(27.450562%, 54.902649%, 100%)" fill-opacity="1" stroke-width="1.55907" stroke-linecap="round" stroke-linejoin="round" stroke="rgb(0%, 0%, 0%)" stroke-opacity="1" stroke-miterlimit="10" d="M 4.691313 9.919626 C 4.691313 11.573062 3.352068 12.912307 1.702559 12.912307 C 0.0491226 12.912307 -1.286194 11.573062 -1.286194 9.919626 C -1.286194 8.270117 0.0491226 6.930872 1.702559 6.930872 C 3.352068 6.930872 4.691313 8.270117 4.691313 9.919626 Z M 4.691313 9.919626 " transform="matrix(0.994614, 0, 0, -0.994614, 28.193329, 28.194324)"/>
<path fill="none" stroke-width="3.4016" stroke-linecap="round" stroke-linejoin="round" stroke="rgb(0%, 0%, 0%)" stroke-opacity="1" stroke-miterlimit="10" d="M -19.843173 -5.668236 L -9.070307 -5.668236 " transform="matrix(0.994614, 0, 0, -0.994614, 28.193329, 28.194324)"/>
<path fill="none" stroke-width="3.4016" stroke-linecap="round" stroke-linejoin="round" stroke="rgb(0%, 0%, 0%)" stroke-opacity="1" stroke-miterlimit="10" d="M -9.070307 -4.109057 L 2.268105 -4.109057 " transform="matrix(0.994614, 0, 0, -0.994614, 28.193329, 28.194324)"/>
<path fill="none" stroke-width="3.4016" stroke-linecap="round" stroke-linejoin="round" stroke="rgb(0%, 0%, 0%)" stroke-opacity="1" stroke-miterlimit="10" d="M -9.070307 -7.227415 L 2.268105 -7.227415 " transform="matrix(0.994614, 0, 0, -0.994614, 28.193329, 28.194324)"/>
<path fill-rule="nonzero" fill="rgb(27.450562%, 54.902649%, 100%)" fill-opacity="1" stroke-width="1.55907" stroke-linecap="round" stroke-linejoin="round" stroke="rgb(0%, 0%, 0%)" stroke-opacity="1" stroke-miterlimit="10" d="M -16.854419 -5.668236 C -16.854419 -4.018727 -18.193664 -2.679483 -19.843173 -2.679483 C -21.492682 -2.679483 -22.831926 -4.018727 -22.831926 -5.668236 C -22.831926 -7.321673 -21.492682 -8.65699 -19.843173 -8.65699 C -18.193664 -8.65699 -16.854419 -7.321673 -16.854419 -5.668236 Z M -16.854419 -5.668236 " transform="matrix(0.994614, 0, 0, -0.994614, 28.193329, 28.194324)"/>
<path fill-rule="nonzero" fill="rgb(27.450562%, 54.902649%, 100%)" fill-opacity="1" stroke-width="1.55907" stroke-linecap="round" stroke-linejoin="round" stroke="rgb(0%, 0%, 0%)" stroke-opacity="1" stroke-miterlimit="10" d="M -6.081553 -5.668236 C -6.081553 -4.018727 -7.420798 -2.679483 -9.070307 -2.679483 C -10.723743 -2.679483 -12.05906 -4.018727 -12.05906 -5.668236 C -12.05906 -7.321673 -10.723743 -8.65699 -9.070307 -8.65699 C -7.420798 -8.65699 -6.081553 -7.321673 -6.081553 -5.668236 Z M -6.081553 -5.668236 " transform="matrix(0.994614, 0, 0, -0.994614, 28.193329, 28.194324)"/>
<path fill-rule="nonzero" fill="rgb(27.450562%, 54.902649%, 100%)" fill-opacity="1" stroke-width="1.55907" stroke-linecap="round" stroke-linejoin="round" stroke="rgb(0%, 0%, 0%)" stroke-opacity="1" stroke-miterlimit="10" d="M 5.256859 -5.668236 C 5.256859 -4.018727 3.917614 -2.679483 2.268105 -2.679483 C 0.618596 -2.679483 -0.720648 -4.018727 -0.720648 -5.668236 C -0.720648 -7.321673 0.618596 -8.65699 2.268105 -8.65699 C 3.917614 -8.65699 5.256859 -7.321673 5.256859 -5.668236 Z M 5.256859 -5.668236 " transform="matrix(0.994614, 0, 0, -0.994614, 28.193329, 28.194324)"/>
<path fill="none" stroke-width="3.4016" stroke-linecap="round" stroke-linejoin="round" stroke="rgb(0%, 0%, 0%)" stroke-opacity="1" stroke-miterlimit="10" d="M -7.766409 -14.740537 L 10.602054 -14.740537 " transform="matrix(0.994614, 0, 0, -0.994614, 28.193329, 28.194324)"/>
<path fill="none" stroke-width="3.4016" stroke-linecap="round" stroke-linejoin="round" stroke="rgb(0%, 0%, 0%)" stroke-opacity="1" stroke-miterlimit="10" d="M 1.415859 -14.740537 L 1.415859 -5.554341 " transform="matrix(0.994614, 0, 0, -0.994614, 28.193329, 28.194324)"/>
<path fill-rule="nonzero" fill="rgb(27.450562%, 54.902649%, 100%)" fill-opacity="1" stroke-width="1.55907" stroke-linecap="round" stroke-linejoin="round" stroke="rgb(0%, 0%, 0%)" stroke-opacity="1" stroke-miterlimit="10" d="M -4.777655 -14.740537 C -4.777655 -13.091028 -6.1169 -11.751783 -7.766409 -11.751783 C -9.415918 -11.751783 -10.755163 -13.091028 -10.755163 -14.740537 C -10.755163 -16.390046 -9.415918 -17.72929 -7.766409 -17.72929 C -6.1169 -17.72929 -4.777655 -16.390046 -4.777655 -14.740537 Z M -4.777655 -14.740537 " transform="matrix(0.994614, 0, 0, -0.994614, 28.193329, 28.194324)"/>
<path fill-rule="nonzero" fill="rgb(27.450562%, 54.902649%, 100%)" fill-opacity="1" stroke-width="1.55907" stroke-linecap="round" stroke-linejoin="round" stroke="rgb(0%, 0%, 0%)" stroke-opacity="1" stroke-miterlimit="10" d="M 13.590808 -14.740537 C 13.590808 -13.091028 12.251563 -11.751783 10.602054 -11.751783 C 8.952545 -11.751783 7.613301 -13.091028 7.613301 -14.740537 C 7.613301 -16.390046 8.952545 -17.72929 10.602054 -17.72929 C 12.251563 -17.72929 13.590808 -16.390046 13.590808 -14.740537 Z M 13.590808 -14.740537 " transform="matrix(0.994614, 0, 0, -0.994614, 28.193329, 28.194324)"/>
<path fill-rule="nonzero" fill="rgb(27.450562%, 54.902649%, 100%)" fill-opacity="1" stroke-width="1.55907" stroke-linecap="round" stroke-linejoin="round" stroke="rgb(0%, 0%, 0%)" stroke-opacity="1" stroke-miterlimit="10" d="M 4.404612 -14.740537 C 4.404612 -13.091028 3.069295 -11.751783 1.415859 -11.751783 C -0.23365 -11.751783 -1.572895 -13.091028 -1.572895 -14.740537 C -1.572895 -16.390046 -0.23365 -17.72929 1.415859 -17.72929 C 3.069295 -17.72929 4.404612 -16.390046 4.404612 -14.740537 Z M 4.404612 -14.740537 " transform="matrix(0.994614, 0, 0, -0.994614, 28.193329, 28.194324)"/>
<path fill-rule="nonzero" fill="rgb(27.450562%, 54.902649%, 100%)" fill-opacity="1" stroke-width="1.55907" stroke-linecap="round" stroke-linejoin="round" stroke="rgb(0%, 0%, 0%)" stroke-opacity="1" stroke-miterlimit="10" d="M 4.404612 -5.554341 C 4.404612 -3.904832 3.069295 -2.565588 1.415859 -2.565588 C -0.23365 -2.565588 -1.572895 -3.904832 -1.572895 -5.554341 C -1.572895 -7.207778 -0.23365 -8.543095 1.415859 -8.543095 C 3.069295 -8.543095 4.404612 -7.207778 4.404612 -5.554341 Z M 4.404612 -5.554341 " transform="matrix(0.994614, 0, 0, -0.994614, 28.193329, 28.194324)"/>
</svg>
