<?xml version="1.0" encoding="UTF-8"?>
<svg xmlns="http://www.w3.org/2000/svg" xmlns:xlink="http://www.w3.org/1999/xlink" width="56.693" height="56.693" viewBox="0 0 56.693 56.693">
<defs>
<clipPath id="clip-0">
<path clip-rule="nonzero" d="M 0 4 L 56.386719 4 L 56.386719 56.386719 L 0 56.386719 Z M 0 4 "/>
</clipPath>
</defs>
<path fill="none" stroke-width="3.4016" stroke-linecap="round" stroke-linejoin="round" stroke="rgb(0%, 0%, 0%)" stroke-opacity="1" stroke-miterlimit="10" d="M -25.510415 -18.424441 L -25.510415 18.42638 C -25.510415 22.338074 -22.341001 25.511415 -18.42538 25.511415 L 18.425441 25.511415 C 22.341061 25.511415 25.510475 22.338074 25.510475 18.42638 L 25.510475 -18.424441 C 25.510475 -22.340061 22.341061 -25.513403 18.425441 -25.513403 L -18.42538 -25.513403 C -22.341001 -25.513403 -25.510415 -22.340061 -25.510415 -18.424441 Z M -25.510415 -18.424441 " transform="matrix(0.994614, 0, 0, -0.994614, 28.193329, 28.194324)"/>
<path fill-rule="nonzero" fill="rgb(62.275696%, 76.548767%, 100%)" fill-opacity="1" stroke-width="1.55907" stroke-linecap="round" stroke-linejoin="round" stroke="rgb(0%, 0%, 0%)" stroke-opacity="1" stroke-miterlimit="10" d="M -16.442042 13.607457 L -16.442042 2.834591 L -5.669176 2.834591 L -5.669176 13.607457 Z M -16.442042 13.607457 " transform="matrix(0.994614, 0, 0, -0.994614, 28.193329, 28.194324)"/>
<path fill-rule="nonzero" fill="rgb(62.275696%, 76.548767%, 100%)" fill-opacity="1" stroke-width="1.55907" stroke-linecap="round" stroke-linejoin="round" stroke="rgb(0%, 0%, 0%)" stroke-opacity="1" stroke-miterlimit="10" d="M -5.669176 13.607457 L -5.669176 2.834591 L 5.10369 2.834591 L 5.10369 13.607457 Z M -5.669176 13.607457 " transform="matrix(0.994614, 0, 0, -0.994614, 28.193329, 28.194324)"/>
<path fill-rule="nonzero" fill="rgb(62.275696%, 76.548767%, 100%)" fill-opacity="1" stroke-width="1.55907" stroke-linecap="round" stroke-linejoin="round" stroke="rgb(0%, 0%, 0%)" stroke-opacity="1" stroke-miterlimit="10" d="M -16.442042 2.834591 L -16.442042 -7.938275 L -5.669176 -7.938275 L -5.669176 2.834591 Z M -16.442042 2.834591 " transform="matrix(0.994614, 0, 0, -0.994614, 28.193329, 28.194324)"/>
<path fill-rule="nonzero" fill="rgb(62.275696%, 76.548767%, 100%)" fill-opacity="1" stroke-width="1.55907" stroke-linecap="round" stroke-linejoin="round" stroke="rgb(0%, 0%, 0%)" stroke-opacity="1" stroke-miterlimit="10" d="M 5.10369 2.834591 L 5.10369 -7.938275 L 15.872629 -7.938275 L 15.872629 2.834591 Z M 5.10369 2.834591 " transform="matrix(0.994614, 0, 0, -0.994614, 28.193329, 28.194324)"/>
<path fill-rule="nonzero" fill="rgb(62.275696%, 76.548767%, 100%)" fill-opacity="1" stroke-width="1.55907" stroke-linecap="round" stroke-linejoin="round" stroke="rgb(0%, 0%, 0%)" stroke-opacity="1" stroke-miterlimit="10" d="M 15.872629 2.834591 L 15.872629 -7.938275 L 26.645495 -7.938275 L 26.645495 2.834591 Z M 15.872629 2.834591 " transform="matrix(0.994614, 0, 0, -0.994614, 28.193329, 28.194324)"/>
<path fill-rule="nonzero" fill="rgb(62.275696%, 76.548767%, 100%)" fill-opacity="1" stroke-width="1.55907" stroke-linecap="round" stroke-linejoin="round" stroke="rgb(0%, 0%, 0%)" stroke-opacity="1" stroke-miterlimit="10" d="M -5.669176 -7.938275 L -5.669176 -18.711141 L 5.10369 -18.711141 L 5.10369 -7.938275 Z M -5.669176 -7.938275 " transform="matrix(0.994614, 0, 0, -0.994614, 28.193329, 28.194324)"/>
<path fill-rule="nonzero" fill="rgb(62.275696%, 76.548767%, 100%)" fill-opacity="1" stroke-width="1.55907" stroke-linecap="round" stroke-linejoin="round" stroke="rgb(0%, 0%, 0%)" stroke-opacity="1" stroke-miterlimit="10" d="M 5.10369 -7.938275 L 5.10369 -18.711141 L 15.872629 -18.711141 L 15.872629 -7.938275 Z M 5.10369 -7.938275 " transform="matrix(0.994614, 0, 0, -0.994614, 28.193329, 28.194324)"/>
<path fill="none" stroke-width="2.40947" stroke-linecap="round" stroke-linejoin="round" stroke="rgb(27.450562%, 54.902649%, 100%)" stroke-opacity="1" stroke-miterlimit="10" d="M -9.35308 -11.904952 L 3.528802 -11.904952 " transform="matrix(0.994614, 0, 0, -0.994614, 28.193329, 28.194324)"/>
<path fill-rule="nonzero" fill="rgb(27.450562%, 54.902649%, 100%)" fill-opacity="1" d="M 36.730469 40.035156 L 30.027344 37.484375 L 32.285156 40.035156 L 30.027344 42.585938 Z M 36.730469 40.035156 "/>
<g clip-path="url(#clip-0)">
<path fill="none" stroke-width="2.33406" stroke-linecap="round" stroke-linejoin="miter" stroke="rgb(27.450562%, 54.902649%, 100%)" stroke-opacity="1" stroke-miterlimit="10" d="M 10.509269 0.00064815 L 3.769846 2.565242 L 6.039885 0.00064815 L 3.769846 -2.563946 Z M 10.509269 0.00064815 " transform="matrix(0.994614, 0, 0, -0.994614, 26.277802, 40.035801)"/>
</g>
<path fill-rule="nonzero" fill="rgb(92.939758%, 72.706604%, 54.824829%)" fill-opacity="1" stroke-width="1.55907" stroke-linecap="round" stroke-linejoin="round" stroke="rgb(0%, 0%, 0%)" stroke-opacity="1" stroke-miterlimit="10" d="M -2.268045 6.518495 L -2.268045 -0.56654 L 4.81699 -0.56654 L 4.81699 6.518495 Z M -2.268045 6.518495 " transform="matrix(0.994614, 0, 0, -0.994614, 28.193329, 28.194324)"/>
<path fill-rule="nonzero" fill="rgb(92.939758%, 72.706604%, 54.824829%)" fill-opacity="1" stroke-width="1.55907" stroke-linecap="round" stroke-linejoin="round" stroke="rgb(0%, 0%, 0%)" stroke-opacity="1" stroke-miterlimit="10" d="M 4.81699 6.518495 L 4.81699 -0.56654 L 11.905952 -0.56654 L 11.905952 6.518495 Z M 4.81699 6.518495 " transform="matrix(0.994614, 0, 0, -0.994614, 28.193329, 28.194324)"/>
<path fill-rule="nonzero" fill="rgb(92.939758%, 72.706604%, 54.824829%)" fill-opacity="1" stroke-width="1.55907" stroke-linecap="round" stroke-linejoin="round" stroke="rgb(0%, 0%, 0%)" stroke-opacity="1" stroke-miterlimit="10" d="M 11.905952 6.518495 L 11.905952 -0.56654 L 18.990987 -0.56654 L 18.990987 6.518495 Z M 11.905952 6.518495 " transform="matrix(0.994614, 0, 0, -0.994614, 28.193329, 28.194324)"/>
<path fill-rule="nonzero" fill="rgb(92.939758%, 72.706604%, 54.824829%)" fill-opacity="1" stroke-width="1.55907" stroke-linecap="round" stroke-linejoin="round" stroke="rgb(0%, 0%, 0%)" stroke-opacity="1" stroke-miterlimit="10" d="M -2.268045 -0.56654 L -2.268045 -7.655502 L 4.81699 -7.655502 L 4.81699 -0.56654 Z M -2.268045 -0.56654 " transform="matrix(0.994614, 0, 0, -0.994614, 28.193329, 28.194324)"/>
<path fill-rule="nonzero" fill="rgb(92.939758%, 72.706604%, 54.824829%)" fill-opacity="1" stroke-width="1.55907" stroke-linecap="round" stroke-linejoin="round" stroke="rgb(0%, 0%, 0%)" stroke-opacity="1" stroke-miterlimit="10" d="M 4.81699 -0.56654 L 4.81699 -7.655502 L 11.905952 -7.655502 L 11.905952 -0.56654 Z M 4.81699 -0.56654 " transform="matrix(0.994614, 0, 0, -0.994614, 28.193329, 28.194324)"/>
<path fill-rule="nonzero" fill="rgb(92.939758%, 72.706604%, 54.824829%)" fill-opacity="1" stroke-width="1.55907" stroke-linecap="round" stroke-linejoin="round" stroke="rgb(0%, 0%, 0%)" stroke-opacity="1" stroke-miterlimit="10" d="M 11.905952 -0.56654 L 11.905952 -7.655502 L 18.990987 -7.655502 L 18.990987 -0.56654 Z M 11.905952 -0.56654 " transform="matrix(0.994614, 0, 0, -0.994614, 28.193329, 28.194324)"/>
<path fill-rule="nonzero" fill="rgb(92.939758%, 72.706604%, 54.824829%)" fill-opacity="1" stroke-width="1.55907" stroke-linecap="round" stroke-linejoin="round" stroke="rgb(0%, 0%, 0%)" stroke-opacity="1" stroke-miterlimit="10" d="M 18.990987 -0.56654 L 18.990987 -7.655502 L 26.079949 -7.655502 L 26.079949 -0.56654 Z M 18.990987 -0.56654 " transform="matrix(0.994614, 0, 0, -0.994614, 28.193329, 28.194324)"/>
<path fill-rule="nonzero" fill="rgb(92.939758%, 72.706604%, 54.824829%)" fill-opacity="1" stroke-width="1.55907" stroke-linecap="round" stroke-linejoin="round" stroke="rgb(0%, 0%, 0%)" stroke-opacity="1" stroke-miterlimit="10" d="M 4.81699 -7.655502 L 4.81699 -14.740537 L 11.905952 -14.740537 L 11.905952 -7.655502 Z M 4.81699 -7.655502 " transform="matrix(0.994614, 0, 0, -0.994614, 28.193329, 28.194324)"/>
</svg>
