<?xml version="1.0" encoding="UTF-8"?>
<svg xmlns="http://www.w3.org/2000/svg" xmlns:xlink="http://www.w3.org/1999/xlink" width="56.693" height="56.693" viewBox="0 0 56.693 56.693">
<path fill="none" stroke-width="3.4016" stroke-linecap="round" stroke-linejoin="round" stroke="rgb(0%, 0%, 0%)" stroke-opacity="1" stroke-miterlimit="10" d="M -25.510415 -18.424441 L -25.510415 18.42638 C -25.510415 22.338074 -22.341001 25.511415 -18.42538 25.511415 L 18.425441 25.511415 C 22.341061 25.511415 25.510475 22.338074 25.510475 18.42638 L 25.510475 -18.424441 C 25.510475 -22.340061 22.341061 -25.513403 18.425441 -25.513403 L -18.42538 -25.513403 C -22.341001 -25.513403 -25.510415 -22.340061 -25.510415 -18.424441 Z M -25.510415 -18.424441 " transform="matrix(0.994614, 0, 0, -0.994614, 28.193329, 28.194324)"/>
<path fill="none" stroke-width="1.49442" stroke-linecap="round" stroke-linejoin="round" stroke="rgb(0%, 0%, 0%)" stroke-opacity="1" stroke-miterlimit="10" d="M -8.504761 21.261965 L -19.843173 21.261965 L -19.843173 -21.260025 L -8.504761 -21.260025 M 8.504821 21.261965 L 19.843233 21.261965 L 19.843233 -21.260025 L 8.504821 -21.260025 " transform="matrix(0.994614, 0, 0, -0.994614, 28.193329, 28.194324)"/>
<path fill="none" stroke-width="2.83466" stroke-linecap="round" stroke-linejoin="round" stroke="rgb(27.450562%, 54.902649%, 100%)" stroke-opacity="1" stroke-miterlimit="10" d="M -0.0019336 12.755211 L 8.815086 -4.870973 " transform="matrix(0.994614, 0, 0, -0.994614, 28.193329, 28.194324)"/>
<path fill-rule="nonzero" fill="rgb(27.450562%, 54.902649%, 100%)" fill-opacity="1" d="M 39.472656 38.0625 L 39.472656 28.015625 L 36.960938 33.039062 L 31.433594 32.035156 "/>
<path fill="none" stroke-width="2.83466" stroke-linecap="round" stroke-linejoin="round" stroke="rgb(27.450562%, 54.902649%, 100%)" stroke-opacity="1" stroke-miterlimit="10" d="M 11.340406 -9.921613 L -5.69274 -9.921613 " transform="matrix(0.994614, 0, 0, -0.994614, 28.193329, 28.194324)"/>
<path fill-rule="nonzero" fill="rgb(27.450562%, 54.902649%, 100%)" fill-opacity="1" d="M 16.914062 38.0625 L 25.902344 42.554688 L 22.53125 38.0625 L 25.902344 33.570312 "/>
<path fill="none" stroke-width="2.83466" stroke-linecap="round" stroke-linejoin="round" stroke="rgb(27.450562%, 54.902649%, 100%)" stroke-opacity="1" stroke-miterlimit="10" d="M -11.340346 -9.921613 L -2.523326 7.704571 " transform="matrix(0.994614, 0, 0, -0.994614, 28.193329, 28.194324)"/>
<path fill-rule="nonzero" fill="rgb(27.450562%, 54.902649%, 100%)" fill-opacity="1" d="M 28.191406 15.507812 L 20.15625 21.535156 L 25.683594 20.53125 L 28.195312 25.554688 "/>
<path fill-rule="nonzero" fill="rgb(27.450562%, 54.902649%, 100%)" fill-opacity="1" stroke-width="1.98427" stroke-linecap="round" stroke-linejoin="round" stroke="rgb(0%, 0%, 0%)" stroke-opacity="1" stroke-miterlimit="10" d="M 2.990747 12.755211 C 2.990747 14.40472 1.651503 15.743964 -0.0019336 15.743964 C -1.651443 15.743964 -2.990687 14.40472 -2.990687 12.755211 C -2.990687 11.105701 -1.651443 9.766457 -0.0019336 9.766457 C 1.651503 9.766457 2.990747 11.105701 2.990747 12.755211 Z M 2.990747 12.755211 " transform="matrix(0.994614, 0, 0, -0.994614, 28.193329, 28.194324)"/>
<path fill-rule="nonzero" fill="rgb(27.450562%, 54.902649%, 100%)" fill-opacity="1" stroke-width="1.98427" stroke-linecap="round" stroke-linejoin="round" stroke="rgb(0%, 0%, 0%)" stroke-opacity="1" stroke-miterlimit="10" d="M -8.351592 -9.921613 C -8.351592 -8.272104 -9.686909 -6.93286 -11.340346 -6.93286 C -12.989855 -6.93286 -14.329099 -8.272104 -14.329099 -9.921613 C -14.329099 -11.571123 -12.989855 -12.910367 -11.340346 -12.910367 C -9.686909 -12.910367 -8.351592 -11.571123 -8.351592 -9.921613 Z M -8.351592 -9.921613 " transform="matrix(0.994614, 0, 0, -0.994614, 28.193329, 28.194324)"/>
<path fill-rule="nonzero" fill="rgb(27.450562%, 54.902649%, 100%)" fill-opacity="1" stroke-width="1.98427" stroke-linecap="round" stroke-linejoin="round" stroke="rgb(0%, 0%, 0%)" stroke-opacity="1" stroke-miterlimit="10" d="M 14.329159 -9.921613 C 14.329159 -8.272104 12.989915 -6.93286 11.340406 -6.93286 C 9.686969 -6.93286 8.351652 -8.272104 8.351652 -9.921613 C 8.351652 -11.571123 9.686969 -12.910367 11.340406 -12.910367 C 12.989915 -12.910367 14.329159 -11.571123 14.329159 -9.921613 Z M 14.329159 -9.921613 " transform="matrix(0.994614, 0, 0, -0.994614, 28.193329, 28.194324)"/>
</svg>
