<?xml version="1.0" encoding="UTF-8"?>
<svg xmlns="http://www.w3.org/2000/svg" xmlns:xlink="http://www.w3.org/1999/xlink" width="56.693" height="56.693" viewBox="0 0 56.693 56.693">
<path fill="none" stroke-width="3.4016" stroke-linecap="round" stroke-linejoin="round" stroke="rgb(0%, 0%, 0%)" stroke-opacity="1" stroke-miterlimit="10" d="M -25.510415 -18.424441 L -25.510415 18.42638 C -25.510415 22.338074 -22.341001 25.511415 -18.42538 25.511415 L 18.425441 25.511415 C 22.341061 25.511415 25.510475 22.338074 25.510475 18.42638 L 25.510475 -18.424441 C 25.510475 -22.340061 22.341061 -25.513403 18.425441 -25.513403 L -18.42538 -25.513403 C -22.341001 -25.513403 -25.510415 -22.340061 -25.510415 -18.424441 Z M -25.510415 -18.424441 " transform="matrix(0.994614, 0, 0, -0.994614, 28.193329, 28.194324)"/>
<path fill-rule="nonzero" fill="rgb(27.450562%, 54.902649%, 100%)" fill-opacity="1" stroke-width="1.55907" stroke-linecap="round" stroke-linejoin="round" stroke="rgb(0%, 0%, 0%)" stroke-opacity="1" stroke-miterlimit="10" d="M 4.852336 -11.86175 C 4.852336 -10.542143 3.780155 -9.473889 2.460548 -9.473889 C 1.140941 -9.473889 0.0687596 -10.542143 0.0687596 -11.86175 C 0.0687596 -13.185285 1.140941 -14.253539 2.460548 -14.253539 C 3.780155 -14.253539 4.852336 -13.185285 4.852336 -11.86175 Z M 4.852336 -11.86175 " transform="matrix(0.994614, 0, 0, -0.994614, 28.193329, 28.194324)"/>
<path fill-rule="nonzero" fill="rgb(27.450562%, 54.902649%, 100%)" fill-opacity="1" stroke-width="1.55907" stroke-linecap="round" stroke-linejoin="round" stroke="rgb(0%, 0%, 0%)" stroke-opacity="1" stroke-miterlimit="10" d="M 0.457573 -4.305427 C 0.457573 -2.98582 -0.610681 -1.913639 -1.934216 -1.913639 C -3.253823 -1.913639 -4.326004 -2.98582 -4.326004 -4.305427 C -4.326004 -5.625035 -3.253823 -6.697216 -1.934216 -6.697216 C -0.610681 -6.697216 0.457573 -5.625035 0.457573 -4.305427 Z M 0.457573 -4.305427 " transform="matrix(0.994614, 0, 0, -0.994614, 28.193329, 28.194324)"/>
<path fill-rule="nonzero" fill="rgb(27.450562%, 54.902649%, 100%)" fill-opacity="1" stroke-width="1.55907" stroke-linecap="round" stroke-linejoin="round" stroke="rgb(0%, 0%, 0%)" stroke-opacity="1" stroke-miterlimit="10" d="M 9.2471 -4.305427 C 9.2471 -2.98582 8.174919 -1.913639 6.855312 -1.913639 C 5.531777 -1.913639 4.463523 -2.98582 4.463523 -4.305427 C 4.463523 -5.625035 5.531777 -6.697216 6.855312 -6.697216 C 8.174919 -6.697216 9.2471 -5.625035 9.2471 -4.305427 Z M 9.2471 -4.305427 " transform="matrix(0.994614, 0, 0, -0.994614, 28.193329, 28.194324)"/>
<path fill-rule="nonzero" fill="rgb(27.450562%, 54.902649%, 100%)" fill-opacity="1" stroke-width="1.55907" stroke-linecap="round" stroke-linejoin="round" stroke="rgb(0%, 0%, 0%)" stroke-opacity="1" stroke-miterlimit="10" d="M -3.937191 3.250896 C -3.937191 4.570503 -5.005445 5.642684 -6.325052 5.642684 C -7.648587 5.642684 -8.716841 4.570503 -8.716841 3.250896 C -8.716841 1.931288 -7.648587 0.859107 -6.325052 0.859107 C -5.005445 0.859107 -3.937191 1.931288 -3.937191 3.250896 Z M -3.937191 3.250896 " transform="matrix(0.994614, 0, 0, -0.994614, 28.193329, 28.194324)"/>
<path fill-rule="nonzero" fill="rgb(27.450562%, 54.902649%, 100%)" fill-opacity="1" stroke-width="1.55907" stroke-linecap="round" stroke-linejoin="round" stroke="rgb(0%, 0%, 0%)" stroke-opacity="1" stroke-miterlimit="10" d="M 4.852336 3.250896 C 4.852336 4.570503 3.780155 5.642684 2.460548 5.642684 C 1.140941 5.642684 0.0687596 4.570503 0.0687596 3.250896 C 0.0687596 1.931288 1.140941 0.859107 2.460548 0.859107 C 3.780155 0.859107 4.852336 1.931288 4.852336 3.250896 Z M 4.852336 3.250896 " transform="matrix(0.994614, 0, 0, -0.994614, 28.193329, 28.194324)"/>
<path fill-rule="nonzero" fill="rgb(27.450562%, 54.902649%, 100%)" fill-opacity="1" stroke-width="1.55907" stroke-linecap="round" stroke-linejoin="round" stroke="rgb(0%, 0%, 0%)" stroke-opacity="1" stroke-miterlimit="10" d="M 13.637937 3.250896 C 13.637937 4.570503 12.569683 5.642684 11.246148 5.642684 C 9.926541 5.642684 8.858287 4.570503 8.858287 3.250896 C 8.858287 1.931288 9.926541 0.859107 11.246148 0.859107 C 12.569683 0.859107 13.637937 1.931288 13.637937 3.250896 Z M 13.637937 3.250896 " transform="matrix(0.994614, 0, 0, -0.994614, 28.193329, 28.194324)"/>
<path fill-rule="nonzero" fill="rgb(27.450562%, 54.902649%, 100%)" fill-opacity="1" stroke-width="1.55907" stroke-linecap="round" stroke-linejoin="round" stroke="rgb(0%, 0%, 0%)" stroke-opacity="1" stroke-miterlimit="10" d="M -8.328028 10.807219 C -8.328028 12.130754 -9.400209 13.199007 -10.719816 13.199007 C -12.039423 13.199007 -13.111604 12.130754 -13.111604 10.807219 C -13.111604 9.487611 -12.039423 8.419358 -10.719816 8.419358 C -9.400209 8.419358 -8.328028 9.487611 -8.328028 10.807219 Z M -8.328028 10.807219 " transform="matrix(0.994614, 0, 0, -0.994614, 28.193329, 28.194324)"/>
<path fill-rule="nonzero" fill="rgb(27.450562%, 54.902649%, 100%)" fill-opacity="1" stroke-width="1.55907" stroke-linecap="round" stroke-linejoin="round" stroke="rgb(0%, 0%, 0%)" stroke-opacity="1" stroke-miterlimit="10" d="M 0.457573 10.807219 C 0.457573 12.130754 -0.610681 13.199007 -1.934216 13.199007 C -3.253823 13.199007 -4.326004 12.130754 -4.326004 10.807219 C -4.326004 9.487611 -3.253823 8.419358 -1.934216 8.419358 C -0.610681 8.419358 0.457573 9.487611 0.457573 10.807219 Z M 0.457573 10.807219 " transform="matrix(0.994614, 0, 0, -0.994614, 28.193329, 28.194324)"/>
<path fill-rule="nonzero" fill="rgb(27.450562%, 54.902649%, 100%)" fill-opacity="1" stroke-width="1.55907" stroke-linecap="round" stroke-linejoin="round" stroke="rgb(0%, 0%, 0%)" stroke-opacity="1" stroke-miterlimit="10" d="M 9.2471 10.807219 C 9.2471 12.130754 8.174919 13.199007 6.855312 13.199007 C 5.531777 13.199007 4.463523 12.130754 4.463523 10.807219 C 4.463523 9.487611 5.531777 8.419358 6.855312 8.419358 C 8.174919 8.419358 9.2471 9.487611 9.2471 10.807219 Z M 9.2471 10.807219 " transform="matrix(0.994614, 0, 0, -0.994614, 28.193329, 28.194324)"/>
<path fill-rule="nonzero" fill="rgb(27.450562%, 54.902649%, 100%)" fill-opacity="1" stroke-width="1.55907" stroke-linecap="round" stroke-linejoin="round" stroke="rgb(0%, 0%, 0%)" stroke-opacity="1" stroke-miterlimit="10" d="M 18.0327 10.807219 C 18.0327 12.130754 16.960519 13.199007 15.640912 13.199007 C 14.321305 13.199007 13.249124 12.130754 13.249124 10.807219 C 13.249124 9.487611 14.321305 8.419358 15.640912 8.419358 C 16.960519 8.419358 18.0327 9.487611 18.0327 10.807219 Z M 18.0327 10.807219 " transform="matrix(0.994614, 0, 0, -0.994614, 28.193329, 28.194324)"/>
<path fill-rule="nonzero" fill="rgb(27.450562%, 54.902649%, 100%)" fill-opacity="1" stroke-width="1.55907" stroke-linecap="round" stroke-linejoin="round" stroke="rgb(0%, 0%, 0%)" stroke-opacity="1" stroke-miterlimit="10" d="M -12.722791 18.367469 C -12.722791 19.687077 -13.794972 20.75533 -15.11458 20.75533 C -16.434187 20.75533 -17.506368 19.687077 -17.506368 18.367469 C -17.506368 17.043935 -16.434187 15.975681 -15.11458 15.975681 C -13.794972 15.975681 -12.722791 17.043935 -12.722791 18.367469 Z M -12.722791 18.367469 " transform="matrix(0.994614, 0, 0, -0.994614, 28.193329, 28.194324)"/>
<path fill-rule="nonzero" fill="rgb(27.450562%, 54.902649%, 100%)" fill-opacity="1" stroke-width="1.55907" stroke-linecap="round" stroke-linejoin="round" stroke="rgb(0%, 0%, 0%)" stroke-opacity="1" stroke-miterlimit="10" d="M -3.937191 18.367469 C -3.937191 19.687077 -5.005445 20.75533 -6.325052 20.75533 C -7.648587 20.75533 -8.716841 19.687077 -8.716841 18.367469 C -8.716841 17.043935 -7.648587 15.975681 -6.325052 15.975681 C -5.005445 15.975681 -3.937191 17.043935 -3.937191 18.367469 Z M -3.937191 18.367469 " transform="matrix(0.994614, 0, 0, -0.994614, 28.193329, 28.194324)"/>
<path fill-rule="nonzero" fill="rgb(27.450562%, 54.902649%, 100%)" fill-opacity="1" stroke-width="1.55907" stroke-linecap="round" stroke-linejoin="round" stroke="rgb(0%, 0%, 0%)" stroke-opacity="1" stroke-miterlimit="10" d="M 4.852336 18.367469 C 4.852336 19.687077 3.780155 20.75533 2.460548 20.75533 C 1.140941 20.75533 0.0687596 19.687077 0.0687596 18.367469 C 0.0687596 17.043935 1.140941 15.975681 2.460548 15.975681 C 3.780155 15.975681 4.852336 17.043935 4.852336 18.367469 Z M 4.852336 18.367469 " transform="matrix(0.994614, 0, 0, -0.994614, 28.193329, 28.194324)"/>
<path fill-rule="nonzero" fill="rgb(27.450562%, 54.902649%, 100%)" fill-opacity="1" stroke-width="1.55907" stroke-linecap="round" stroke-linejoin="round" stroke="rgb(0%, 0%, 0%)" stroke-opacity="1" stroke-miterlimit="10" d="M 13.637937 18.367469 C 13.637937 19.687077 12.569683 20.75533 11.246148 20.75533 C 9.926541 20.75533 8.858287 19.687077 8.858287 18.367469 C 8.858287 17.043935 9.926541 15.975681 11.246148 15.975681 C 12.569683 15.975681 13.637937 17.043935 13.637937 18.367469 Z M 13.637937 18.367469 " transform="matrix(0.994614, 0, 0, -0.994614, 28.193329, 28.194324)"/>
<path fill-rule="nonzero" fill="rgb(27.450562%, 54.902649%, 100%)" fill-opacity="1" stroke-width="1.55907" stroke-linecap="round" stroke-linejoin="round" stroke="rgb(0%, 0%, 0%)" stroke-opacity="1" stroke-miterlimit="10" d="M 22.427464 18.367469 C 22.427464 19.687077 21.355283 20.75533 20.035676 20.75533 C 18.716068 20.75533 17.643887 19.687077 17.643887 18.367469 C 17.643887 17.043935 18.716068 15.975681 20.035676 15.975681 C 21.355283 15.975681 22.427464 17.043935 22.427464 18.367469 Z M 22.427464 18.367469 " transform="matrix(0.994614, 0, 0, -0.994614, 28.193329, 28.194324)"/>
<path fill="none" stroke-width="1.55907" stroke-linecap="round" stroke-linejoin="round" stroke="rgb(0%, 0%, 0%)" stroke-opacity="1" stroke-miterlimit="10" d="M 2.460548 -11.86175 L -1.934216 -4.305427 " transform="matrix(0.994614, 0, 0, -0.994614, 28.193329, 28.194324)"/>
<path fill="none" stroke-width="1.55907" stroke-linecap="round" stroke-linejoin="round" stroke="rgb(0%, 0%, 0%)" stroke-opacity="1" stroke-miterlimit="10" d="M 2.460548 -11.86175 L 6.855312 -4.305427 " transform="matrix(0.994614, 0, 0, -0.994614, 28.193329, 28.194324)"/>
<path fill="none" stroke-width="1.55907" stroke-linecap="round" stroke-linejoin="round" stroke="rgb(0%, 0%, 0%)" stroke-opacity="1" stroke-miterlimit="10" d="M -1.934216 -4.305427 L -6.325052 3.250896 " transform="matrix(0.994614, 0, 0, -0.994614, 28.193329, 28.194324)"/>
<path fill="none" stroke-width="1.55907" stroke-linecap="round" stroke-linejoin="round" stroke="rgb(0%, 0%, 0%)" stroke-opacity="1" stroke-miterlimit="10" d="M -1.934216 -4.305427 L 2.460548 3.250896 " transform="matrix(0.994614, 0, 0, -0.994614, 28.193329, 28.194324)"/>
<path fill="none" stroke-width="1.55907" stroke-linecap="round" stroke-linejoin="round" stroke="rgb(0%, 0%, 0%)" stroke-opacity="1" stroke-miterlimit="10" d="M 6.855312 -4.305427 L 2.460548 3.250896 " transform="matrix(0.994614, 0, 0, -0.994614, 28.193329, 28.194324)"/>
<path fill="none" stroke-width="1.55907" stroke-linecap="round" stroke-linejoin="round" stroke="rgb(0%, 0%, 0%)" stroke-opacity="1" stroke-miterlimit="10" d="M 6.855312 -4.305427 L 11.246148 3.250896 " transform="matrix(0.994614, 0, 0, -0.994614, 28.193329, 28.194324)"/>
<path fill="none" stroke-width="1.55907" stroke-linecap="round" stroke-linejoin="round" stroke="rgb(0%, 0%, 0%)" stroke-opacity="1" stroke-miterlimit="10" d="M -6.325052 3.250896 L -10.719816 10.807219 " transform="matrix(0.994614, 0, 0, -0.994614, 28.193329, 28.194324)"/>
<path fill="none" stroke-width="1.55907" stroke-linecap="round" stroke-linejoin="round" stroke="rgb(0%, 0%, 0%)" stroke-opacity="1" stroke-miterlimit="10" d="M -6.325052 3.250896 L -1.934216 10.807219 " transform="matrix(0.994614, 0, 0, -0.994614, 28.193329, 28.194324)"/>
<path fill="none" stroke-width="1.55907" stroke-linecap="round" stroke-linejoin="round" stroke="rgb(0%, 0%, 0%)" stroke-opacity="1" stroke-miterlimit="10" d="M 2.460548 3.250896 L -1.934216 10.807219 " transform="matrix(0.994614, 0, 0, -0.994614, 28.193329, 28.194324)"/>
<path fill="none" stroke-width="1.55907" stroke-linecap="round" stroke-linejoin="round" stroke="rgb(0%, 0%, 0%)" stroke-opacity="1" stroke-miterlimit="10" d="M 2.460548 3.250896 L 6.855312 10.807219 " transform="matrix(0.994614, 0, 0, -0.994614, 28.193329, 28.194324)"/>
<path fill="none" stroke-width="1.55907" stroke-linecap="round" stroke-linejoin="round" stroke="rgb(0%, 0%, 0%)" stroke-opacity="1" stroke-miterlimit="10" d="M 11.246148 3.250896 L 6.855312 10.807219 " transform="matrix(0.994614, 0, 0, -0.994614, 28.193329, 28.194324)"/>
<path fill="none" stroke-width="1.55907" stroke-linecap="round" stroke-linejoin="round" stroke="rgb(0%, 0%, 0%)" stroke-opacity="1" stroke-miterlimit="10" d="M 11.246148 3.250896 L 15.640912 10.807219 " transform="matrix(0.994614, 0, 0, -0.994614, 28.193329, 28.194324)"/>
<path fill="none" stroke-width="1.55907" stroke-linecap="round" stroke-linejoin="round" stroke="rgb(0%, 0%, 0%)" stroke-opacity="1" stroke-miterlimit="10" d="M -10.719816 10.807219 L -15.11458 18.367469 " transform="matrix(0.994614, 0, 0, -0.994614, 28.193329, 28.194324)"/>
<path fill="none" stroke-width="1.55907" stroke-linecap="round" stroke-linejoin="round" stroke="rgb(0%, 0%, 0%)" stroke-opacity="1" stroke-miterlimit="10" d="M -10.719816 10.807219 L -6.325052 18.367469 " transform="matrix(0.994614, 0, 0, -0.994614, 28.193329, 28.194324)"/>
<path fill="none" stroke-width="1.55907" stroke-linecap="round" stroke-linejoin="round" stroke="rgb(0%, 0%, 0%)" stroke-opacity="1" stroke-miterlimit="10" d="M -1.934216 10.807219 L -6.325052 18.367469 " transform="matrix(0.994614, 0, 0, -0.994614, 28.193329, 28.194324)"/>
<path fill="none" stroke-width="1.55907" stroke-linecap="round" stroke-linejoin="round" stroke="rgb(0%, 0%, 0%)" stroke-opacity="1" stroke-miterlimit="10" d="M -1.934216 10.807219 L 2.460548 18.367469 " transform="matrix(0.994614, 0, 0, -0.994614, 28.193329, 28.194324)"/>
<path fill="none" stroke-width="1.55907" stroke-linecap="round" stroke-linejoin="round" stroke="rgb(0%, 0%, 0%)" stroke-opacity="1" stroke-miterlimit="10" d="M 6.855312 10.807219 L 2.460548 18.367469 " transform="matrix(0.994614, 0, 0, -0.994614, 28.193329, 28.194324)"/>
<path fill="none" stroke-width="1.55907" stroke-linecap="round" stroke-linejoin="round" stroke="rgb(0%, 0%, 0%)" stroke-opacity="1" stroke-miterlimit="10" d="M 6.855312 10.807219 L 11.246148 18.367469 " transform="matrix(0.994614, 0, 0, -0.994614, 28.193329, 28.194324)"/>
<path fill="none" stroke-width="1.55907" stroke-linecap="round" stroke-linejoin="round" stroke="rgb(0%, 0%, 0%)" stroke-opacity="1" stroke-miterlimit="10" d="M 15.640912 10.807219 L 11.246148 18.367469 " transform="matrix(0.994614, 0, 0, -0.994614, 28.193329, 28.194324)"/>
<path fill="none" stroke-width="1.55907" stroke-linecap="round" stroke-linejoin="round" stroke="rgb(0%, 0%, 0%)" stroke-opacity="1" stroke-miterlimit="10" d="M 15.640912 10.807219 L 20.035676 18.367469 " transform="matrix(0.994614, 0, 0, -0.994614, 28.193329, 28.194324)"/>
<path fill="none" stroke-width="1.55907" stroke-linecap="round" stroke-linejoin="round" stroke="rgb(0%, 0%, 0%)" stroke-opacity="1" stroke-miterlimit="10" d="M -1.934216 -4.305427 L 6.855312 -4.305427 " transform="matrix(0.994614, 0, 0, -0.994614, 28.193329, 28.194324)"/>
<path fill="none" stroke-width="1.55907" stroke-linecap="round" stroke-linejoin="round" stroke="rgb(0%, 0%, 0%)" stroke-opacity="1" stroke-miterlimit="10" d="M -6.325052 3.250896 L 2.460548 3.250896 " transform="matrix(0.994614, 0, 0, -0.994614, 28.193329, 28.194324)"/>
<path fill="none" stroke-width="1.55907" stroke-linecap="round" stroke-linejoin="round" stroke="rgb(0%, 0%, 0%)" stroke-opacity="1" stroke-miterlimit="10" d="M 2.460548 3.250896 L 11.246148 3.250896 " transform="matrix(0.994614, 0, 0, -0.994614, 28.193329, 28.194324)"/>
<path fill="none" stroke-width="1.55907" stroke-linecap="round" stroke-linejoin="round" stroke="rgb(0%, 0%, 0%)" stroke-opacity="1" stroke-miterlimit="10" d="M -10.719816 10.807219 L -1.934216 10.807219 " transform="matrix(0.994614, 0, 0, -0.994614, 28.193329, 28.194324)"/>
<path fill="none" stroke-width="1.55907" stroke-linecap="round" stroke-linejoin="round" stroke="rgb(0%, 0%, 0%)" stroke-opacity="1" stroke-miterlimit="10" d="M -1.934216 10.807219 L 6.855312 10.807219 " transform="matrix(0.994614, 0, 0, -0.994614, 28.193329, 28.194324)"/>
<path fill="none" stroke-width="1.55907" stroke-linecap="round" stroke-linejoin="round" stroke="rgb(0%, 0%, 0%)" stroke-opacity="1" stroke-miterlimit="10" d="M 6.855312 10.807219 L 15.640912 10.807219 " transform="matrix(0.994614, 0, 0, -0.994614, 28.193329, 28.194324)"/>
<path fill="none" stroke-width="1.55907" stroke-linecap="round" stroke-linejoin="round" stroke="rgb(0%, 0%, 0%)" stroke-opacity="1" stroke-miterlimit="10" d="M -15.11458 18.367469 L -6.325052 18.367469 " transform="matrix(0.994614, 0, 0, -0.994614, 28.193329, 28.194324)"/>
<path fill="none" stroke-width="1.55907" stroke-linecap="round" stroke-linejoin="round" stroke="rgb(0%, 0%, 0%)" stroke-opacity="1" stroke-miterlimit="10" d="M -6.325052 18.367469 L 2.460548 18.367469 " transform="matrix(0.994614, 0, 0, -0.994614, 28.193329, 28.194324)"/>
<path fill="none" stroke-width="1.55907" stroke-linecap="round" stroke-linejoin="round" stroke="rgb(0%, 0%, 0%)" stroke-opacity="1" stroke-miterlimit="10" d="M 2.460548 18.367469 L 11.246148 18.367469 " transform="matrix(0.994614, 0, 0, -0.994614, 28.193329, 28.194324)"/>
<path fill="none" stroke-width="1.55907" stroke-linecap="round" stroke-linejoin="round" stroke="rgb(0%, 0%, 0%)" stroke-opacity="1" stroke-miterlimit="10" d="M 11.246148 18.367469 L 20.035676 18.367469 " transform="matrix(0.994614, 0, 0, -0.994614, 28.193329, 28.194324)"/>
<path fill-rule="nonzero" fill="rgb(92.939758%, 72.706604%, 54.824829%)" fill-opacity="1" stroke-width="1.41731" stroke-linecap="round" stroke-linejoin="round" stroke="rgb(0%, 0%, 0%)" stroke-opacity="1" stroke-miterlimit="10" d="M 2.460548 3.250896 L -1.934216 10.807219 L 2.460548 18.367469 L 6.855312 10.807219 Z M 2.460548 3.250896 " transform="matrix(0.994614, 0, 0, -0.994614, 28.193329, 28.194324)"/>
</svg>
