<?xml version="1.0" encoding="UTF-8"?>
<svg xmlns="http://www.w3.org/2000/svg" xmlns:xlink="http://www.w3.org/1999/xlink" width="56.693" height="56.693" viewBox="0 0 56.693 56.693">
<path fill="none" stroke-width="3.4016" stroke-linecap="round" stroke-linejoin="round" stroke="rgb(0%, 0%, 0%)" stroke-opacity="1" stroke-miterlimit="10" d="M -25.510415 -18.424441 L -25.510415 18.42638 C -25.510415 22.338074 -22.341001 25.511415 -18.42538 25.511415 L 18.425441 25.511415 C 22.341061 25.511415 25.510475 22.338074 25.510475 18.42638 L 25.510475 -18.424441 C 25.510475 -22.340061 22.341061 -25.513403 18.425441 -25.513403 L -18.42538 -25.513403 C -22.341001 -25.513403 -25.510415 -22.340061 -25.510415 -18.424441 Z M -25.510415 -18.424441 " transform="matrix(0.994614, 0, 0, -0.994614, 28.193329, 28.194324)"/>
<path fill="none" stroke-width="3.4016" stroke-linecap="round" stroke-linejoin="round" stroke="rgb(27.450562%, 54.902649%, 100%)" stroke-opacity="1" stroke-miterlimit="10" d="M -0.0019336 -0.0009938 L 16.178966 -0.0009938 " transform="matrix(0.994614, 0, 0, -0.994614, 28.193329, 28.194324)"/>
<path fill-rule="nonzero" fill="rgb(27.450562%, 54.902649%, 100%)" fill-opacity="1" d="M 50.75 28.195312 L 40.410156 23.023438 L 44.285156 28.195312 L 40.410156 33.363281 "/>
<path fill="none" stroke-width="3.4016" stroke-linecap="round" stroke-linejoin="round" stroke="rgb(27.450562%, 54.902649%, 100%)" stroke-opacity="1" stroke-miterlimit="10" d="M -0.0019336 -0.0009938 L -8.088456 14.01198 " transform="matrix(0.994614, 0, 0, -0.994614, 28.193329, 28.194324)"/>
<path fill-rule="nonzero" fill="rgb(27.450562%, 54.902649%, 100%)" fill-opacity="1" d="M 16.914062 8.660156 L 17.609375 20.199219 L 20.148438 14.257812 L 26.5625 15.03125 "/>
<path fill="none" stroke-width="3.4016" stroke-linecap="round" stroke-linejoin="round" stroke="rgb(27.450562%, 54.902649%, 100%)" stroke-opacity="1" stroke-miterlimit="10" d="M -0.0019336 -0.0009938 L -8.088456 -14.013967 " transform="matrix(0.994614, 0, 0, -0.994614, 28.193329, 28.194324)"/>
<path fill-rule="nonzero" fill="rgb(27.450562%, 54.902649%, 100%)" fill-opacity="1" d="M 16.914062 47.726562 L 26.5625 41.359375 L 20.148438 42.132812 L 17.609375 36.1875 "/>
<path fill="none" stroke-width="3.4016" stroke-linecap="round" stroke-linejoin="round" stroke="rgb(0%, 0%, 0%)" stroke-opacity="1" stroke-miterlimit="10" d="M -0.0019336 -0.0009938 L 8.088516 14.01198 " transform="matrix(0.994614, 0, 0, -0.994614, 28.193329, 28.194324)"/>
<path fill-rule="nonzero" fill="rgb(0%, 0%, 0%)" fill-opacity="1" d="M 39.472656 8.660156 L 29.824219 15.03125 L 36.238281 14.257812 L 38.777344 20.199219 "/>
<path fill="none" stroke-width="3.4016" stroke-linecap="round" stroke-linejoin="round" stroke="rgb(0%, 0%, 0%)" stroke-opacity="1" stroke-miterlimit="10" d="M -0.0019336 -0.0009938 L -16.178906 -0.0009938 " transform="matrix(0.994614, 0, 0, -0.994614, 28.193329, 28.194324)"/>
<path fill-rule="nonzero" fill="rgb(0%, 0%, 0%)" fill-opacity="1" d="M 5.636719 28.195312 L 15.976562 33.363281 L 12.101562 28.195312 L 15.976562 23.023438 "/>
<path fill="none" stroke-width="3.4016" stroke-linecap="round" stroke-linejoin="round" stroke="rgb(0%, 0%, 0%)" stroke-opacity="1" stroke-miterlimit="10" d="M -0.0019336 -0.0009938 L 8.088516 -14.013967 " transform="matrix(0.994614, 0, 0, -0.994614, 28.193329, 28.194324)"/>
<path fill-rule="nonzero" fill="rgb(0%, 0%, 0%)" fill-opacity="1" d="M 39.472656 47.726562 L 38.777344 36.1875 L 36.238281 42.132812 L 29.824219 41.359375 "/>
<path fill-rule="nonzero" fill="rgb(27.450562%, 54.902649%, 100%)" fill-opacity="1" stroke-width="1.98427" stroke-linecap="round" stroke-linejoin="round" stroke="rgb(0%, 0%, 0%)" stroke-opacity="1" stroke-miterlimit="10" d="M 2.990747 -0.0009938 C 2.990747 1.652443 1.651503 2.98776 -0.0019336 2.98776 C -1.651443 2.98776 -2.990687 1.652443 -2.990687 -0.0009938 C -2.990687 -1.650503 -1.651443 -2.989747 -0.0019336 -2.989747 C 1.651503 -2.989747 2.990747 -1.650503 2.990747 -0.0009938 Z M 2.990747 -0.0009938 " transform="matrix(0.994614, 0, 0, -0.994614, 28.193329, 28.194324)"/>
</svg>
