<?xml version="1.0" encoding="UTF-8"?>
<svg xmlns="http://www.w3.org/2000/svg" xmlns:xlink="http://www.w3.org/1999/xlink" width="56.693" height="56.693" viewBox="0 0 56.693 56.693">
<path fill="none" stroke-width="3.4016" stroke-linecap="round" stroke-linejoin="round" stroke="rgb(0%, 0%, 0%)" stroke-opacity="1" stroke-miterlimit="10" d="M -25.510415 -18.424441 L -25.510415 18.42638 C -25.510415 22.338074 -22.341001 25.511415 -18.42538 25.511415 L 18.425441 25.511415 C 22.341061 25.511415 25.510475 22.338074 25.510475 18.42638 L 25.510475 -18.424441 C 25.510475 -22.340061 22.341061 -25.513403 18.425441 -25.513403 L -18.42538 -25.513403 C -22.341001 -25.513403 -25.510415 -22.340061 -25.510415 -18.424441 Z M -25.510415 -18.424441 " transform="matrix(0.994614, 0, 0, -0.994614, 28.193329, 28.194324)"/>
<path fill-rule="nonzero" fill="rgb(27.450562%, 54.902649%, 100%)" fill-opacity="1" d="M 7.894531 45.109375 L 7.894531 34.960938 L 48.492188 34.960938 L 48.492188 45.109375 Z M 7.894531 45.109375 "/>
<path fill-rule="nonzero" fill="rgb(27.450562%, 54.902649%, 100%)" fill-opacity="1" d="M 48.492188 34.960938 C 48.492188 32.160156 39.40625 29.886719 28.191406 29.886719 C 16.980469 29.886719 7.894531 32.160156 7.894531 34.960938 C 7.894531 37.765625 16.980469 40.035156 28.191406 40.035156 C 39.40625 40.035156 48.492188 37.765625 48.492188 34.960938 Z M 48.492188 34.960938 "/>
<path fill="none" stroke-width="1.98427" stroke-linecap="round" stroke-linejoin="round" stroke="rgb(0%, 0%, 0%)" stroke-opacity="1" stroke-miterlimit="10" d="M -20.408719 -17.006648 L -20.408719 -6.803256 " transform="matrix(0.994614, 0, 0, -0.994614, 28.193329, 28.194324)"/>
<path fill="none" stroke-width="1.98427" stroke-linecap="round" stroke-linejoin="round" stroke="rgb(0%, 0%, 0%)" stroke-opacity="1" stroke-miterlimit="10" d="M 20.408779 -17.006648 L 20.408779 -6.803256 " transform="matrix(0.994614, 0, 0, -0.994614, 28.193329, 28.194324)"/>
<path fill="none" stroke-width="1.98427" stroke-linecap="round" stroke-linejoin="round" stroke="rgb(0%, 0%, 0%)" stroke-opacity="1" stroke-miterlimit="10" d="M 20.408779 -17.006648 C 20.408779 -14.1907 11.27364 -11.904952 -0.0019336 -11.904952 C -11.27358 -11.904952 -20.408719 -14.1907 -20.408719 -17.006648 C -20.408719 -19.826523 -11.27358 -22.108344 -0.0019336 -22.108344 C 11.27364 -22.108344 20.408779 -19.826523 20.408779 -17.006648 Z M 20.408779 -17.006648 " transform="matrix(0.994614, 0, 0, -0.994614, 28.193329, 28.194324)"/>
<path fill="none" stroke-width="1.98427" stroke-linecap="round" stroke-linejoin="round" stroke="rgb(0%, 0%, 0%)" stroke-opacity="1" stroke-miterlimit="10" d="M 20.408779 -6.803256 C 20.408779 -3.987308 11.27364 -1.701559 -0.0019336 -1.701559 C -11.27358 -1.701559 -20.408719 -3.987308 -20.408719 -6.803256 C -20.408719 -9.623131 -11.27358 -11.904952 -0.0019336 -11.904952 C 11.27364 -11.904952 20.408779 -9.623131 20.408779 -6.803256 Z M 20.408779 -6.803256 " transform="matrix(0.994614, 0, 0, -0.994614, 28.193329, 28.194324)"/>
<path fill-rule="nonzero" fill="rgb(27.450562%, 54.902649%, 100%)" fill-opacity="1" d="M 7.894531 34.113281 L 7.894531 23.964844 L 48.492188 23.964844 L 48.492188 34.113281 Z M 7.894531 34.113281 "/>
<path fill-rule="nonzero" fill="rgb(27.450562%, 54.902649%, 100%)" fill-opacity="1" d="M 48.492188 23.964844 C 48.492188 21.164062 39.40625 18.890625 28.191406 18.890625 C 16.980469 18.890625 7.894531 21.164062 7.894531 23.964844 C 7.894531 26.769531 16.980469 29.039062 28.191406 29.039062 C 39.40625 29.039062 48.492188 26.769531 48.492188 23.964844 Z M 48.492188 23.964844 "/>
<path fill="none" stroke-width="1.98427" stroke-linecap="round" stroke-linejoin="round" stroke="rgb(0%, 0%, 0%)" stroke-opacity="1" stroke-miterlimit="10" d="M -20.408719 -5.951009 L -20.408719 4.252383 " transform="matrix(0.994614, 0, 0, -0.994614, 28.193329, 28.194324)"/>
<path fill="none" stroke-width="1.98427" stroke-linecap="round" stroke-linejoin="round" stroke="rgb(0%, 0%, 0%)" stroke-opacity="1" stroke-miterlimit="10" d="M 20.408779 -5.951009 L 20.408779 4.252383 " transform="matrix(0.994614, 0, 0, -0.994614, 28.193329, 28.194324)"/>
<path fill="none" stroke-width="1.98427" stroke-linecap="round" stroke-linejoin="round" stroke="rgb(0%, 0%, 0%)" stroke-opacity="1" stroke-miterlimit="10" d="M 20.408779 -5.951009 C 20.408779 -3.135061 11.27364 -0.849313 -0.0019336 -0.849313 C -11.27358 -0.849313 -20.408719 -3.135061 -20.408719 -5.951009 C -20.408719 -8.770884 -11.27358 -11.056633 -0.0019336 -11.056633 C 11.27364 -11.056633 20.408779 -8.770884 20.408779 -5.951009 Z M 20.408779 -5.951009 " transform="matrix(0.994614, 0, 0, -0.994614, 28.193329, 28.194324)"/>
<path fill="none" stroke-width="1.98427" stroke-linecap="round" stroke-linejoin="round" stroke="rgb(0%, 0%, 0%)" stroke-opacity="1" stroke-miterlimit="10" d="M 20.408779 4.252383 C 20.408779 7.068331 11.27364 9.35408 -0.0019336 9.35408 C -11.27358 9.35408 -20.408719 7.068331 -20.408719 4.252383 C -20.408719 1.432508 -11.27358 -0.849313 -0.0019336 -0.849313 C 11.27364 -0.849313 20.408779 1.432508 20.408779 4.252383 Z M 20.408779 4.252383 " transform="matrix(0.994614, 0, 0, -0.994614, 28.193329, 28.194324)"/>
<path fill-rule="nonzero" fill="rgb(27.450562%, 54.902649%, 100%)" fill-opacity="1" d="M 7.894531 23.683594 L 7.894531 13.535156 L 48.492188 13.535156 L 48.492188 23.683594 Z M 7.894531 23.683594 "/>
<path fill-rule="nonzero" fill="rgb(27.450562%, 54.902649%, 100%)" fill-opacity="1" d="M 48.492188 13.535156 C 48.492188 10.730469 39.40625 8.457031 28.191406 8.457031 C 16.980469 8.457031 7.894531 10.730469 7.894531 13.535156 C 7.894531 16.335938 16.980469 18.609375 28.191406 18.609375 C 39.40625 18.609375 48.492188 16.335938 48.492188 13.535156 Z M 48.492188 13.535156 "/>
<path fill="none" stroke-width="1.98427" stroke-linecap="round" stroke-linejoin="round" stroke="rgb(0%, 0%, 0%)" stroke-opacity="1" stroke-miterlimit="10" d="M -20.408719 4.535156 L -20.408719 14.738549 " transform="matrix(0.994614, 0, 0, -0.994614, 28.193329, 28.194324)"/>
<path fill="none" stroke-width="1.98427" stroke-linecap="round" stroke-linejoin="round" stroke="rgb(0%, 0%, 0%)" stroke-opacity="1" stroke-miterlimit="10" d="M 20.408779 4.535156 L 20.408779 14.738549 " transform="matrix(0.994614, 0, 0, -0.994614, 28.193329, 28.194324)"/>
<path fill="none" stroke-width="1.98427" stroke-linecap="round" stroke-linejoin="round" stroke="rgb(0%, 0%, 0%)" stroke-opacity="1" stroke-miterlimit="10" d="M 20.408779 4.535156 C 20.408779 7.355032 11.27364 9.636853 -0.0019336 9.636853 C -11.27358 9.636853 -20.408719 7.355032 -20.408719 4.535156 C -20.408719 1.719209 -11.27358 -0.56654 -0.0019336 -0.56654 C 11.27364 -0.56654 20.408779 1.719209 20.408779 4.535156 Z M 20.408779 4.535156 " transform="matrix(0.994614, 0, 0, -0.994614, 28.193329, 28.194324)"/>
<path fill="none" stroke-width="1.98427" stroke-linecap="round" stroke-linejoin="round" stroke="rgb(0%, 0%, 0%)" stroke-opacity="1" stroke-miterlimit="10" d="M 20.408779 14.738549 C 20.408779 17.558424 11.27364 19.844173 -0.0019336 19.844173 C -11.27358 19.844173 -20.408719 17.558424 -20.408719 14.738549 C -20.408719 11.922601 -11.27358 9.636853 -0.0019336 9.636853 C 11.27364 9.636853 20.408779 11.922601 20.408779 14.738549 Z M 20.408779 14.738549 " transform="matrix(0.994614, 0, 0, -0.994614, 28.193329, 28.194324)"/>
</svg>
