<?xml version="1.0" encoding="UTF-8"?>
<svg xmlns="http://www.w3.org/2000/svg" xmlns:xlink="http://www.w3.org/1999/xlink" width="56.693" height="56.693" viewBox="0 0 56.693 56.693">
<defs>
<clipPath id="clip-0">
<path clip-rule="nonzero" d="M 29 48 L 38 48 L 38 56.386719 L 29 56.386719 Z M 29 48 "/>
</clipPath>
</defs>
<path fill="none" stroke-width="3.4016" stroke-linecap="round" stroke-linejoin="round" stroke="rgb(0%, 0%, 0%)" stroke-opacity="1" stroke-miterlimit="10" d="M -25.510415 -18.424441 L -25.510415 18.42638 C -25.510415 22.338074 -22.341001 25.511415 -18.42538 25.511415 L 18.425441 25.511415 C 22.341061 25.511415 25.510475 22.338074 25.510475 18.42638 L 25.510475 -18.424441 C 25.510475 -22.340061 22.341061 -25.513403 18.425441 -25.513403 L -18.42538 -25.513403 C -22.341001 -25.513403 -25.510415 -22.340061 -25.510415 -18.424441 Z M -25.510415 -18.424441 " transform="matrix(0.994614, 0, 0, -0.994614, 28.193329, 28.194324)"/>
<path fill-rule="nonzero" fill="rgb(27.450562%, 54.902649%, 100%)" fill-opacity="1" stroke-width="1.98427" stroke-linecap="round" stroke-linejoin="round" stroke="rgb(0%, 0%, 0%)" stroke-opacity="1" stroke-miterlimit="10" d="M -14.018834 9.919626 C -14.018834 11.573062 -15.358079 12.908379 -17.007588 12.908379 C -18.657097 12.908379 -19.996342 11.573062 -19.996342 9.919626 C -19.996342 8.270117 -18.657097 6.930872 -17.007588 6.930872 C -15.358079 6.930872 -14.018834 8.270117 -14.018834 9.919626 Z M -14.018834 9.919626 " transform="matrix(0.994614, 0, 0, -0.994614, 28.193329, 28.194324)"/>
<path fill-rule="nonzero" fill="rgb(27.450562%, 54.902649%, 100%)" fill-opacity="1" stroke-width="1.98427" stroke-linecap="round" stroke-linejoin="round" stroke="rgb(0%, 0%, 0%)" stroke-opacity="1" stroke-miterlimit="10" d="M -2.680422 21.261965 C -2.680422 22.911474 -4.019667 24.250719 -5.669176 24.250719 C -7.318685 24.250719 -8.657929 22.911474 -8.657929 21.261965 C -8.657929 19.608529 -7.318685 18.273212 -5.669176 18.273212 C -4.019667 18.273212 -2.680422 19.608529 -2.680422 21.261965 Z M -2.680422 21.261965 " transform="matrix(0.994614, 0, 0, -0.994614, 28.193329, 28.194324)"/>
<path fill-rule="nonzero" fill="rgb(27.450562%, 54.902649%, 100%)" fill-opacity="1" stroke-width="1.98427" stroke-linecap="round" stroke-linejoin="round" stroke="rgb(0%, 0%, 0%)" stroke-opacity="1" stroke-miterlimit="10" d="M 8.65799 9.919626 C 8.65799 11.573062 7.318745 12.908379 5.669236 12.908379 C 4.019727 12.908379 2.680483 11.573062 2.680483 9.919626 C 2.680483 8.270117 4.019727 6.930872 5.669236 6.930872 C 7.318745 6.930872 8.65799 8.270117 8.65799 9.919626 Z M 8.65799 9.919626 " transform="matrix(0.994614, 0, 0, -0.994614, 28.193329, 28.194324)"/>
<path fill-rule="nonzero" fill="rgb(27.450562%, 54.902649%, 100%)" fill-opacity="1" stroke-width="1.98427" stroke-linecap="round" stroke-linejoin="round" stroke="rgb(0%, 0%, 0%)" stroke-opacity="1" stroke-miterlimit="10" d="M 19.996402 21.261965 C 19.996402 22.911474 18.657157 24.250719 17.007648 24.250719 C 15.358139 24.250719 14.018895 22.911474 14.018895 21.261965 C 14.018895 19.608529 15.358139 18.273212 17.007648 18.273212 C 18.657157 18.273212 19.996402 19.608529 19.996402 21.261965 Z M 19.996402 21.261965 " transform="matrix(0.994614, 0, 0, -0.994614, 28.193329, 28.194324)"/>
<path fill="none" stroke-width="1.7008" stroke-linecap="round" stroke-linejoin="round" stroke="rgb(27.450562%, 54.902649%, 100%)" stroke-opacity="1" stroke-miterlimit="10" d="M -17.007588 9.919626 L -5.669176 21.261965 L 5.669236 9.919626 L 17.007648 21.261965 " transform="matrix(0.994614, 0, 0, -0.994614, 28.193329, 28.194324)"/>
<path fill-rule="nonzero" fill="rgb(0%, 0%, 0%)" fill-opacity="1" stroke-width="1.98427" stroke-linecap="round" stroke-linejoin="round" stroke="rgb(0%, 0%, 0%)" stroke-opacity="1" stroke-miterlimit="10" d="M -14.018834 -8.503821 C -14.018834 -6.854312 -15.358079 -5.515067 -17.007588 -5.515067 C -18.657097 -5.515067 -19.996342 -6.854312 -19.996342 -8.503821 C -19.996342 -10.15333 -18.657097 -11.492575 -17.007588 -11.492575 C -15.358079 -11.492575 -14.018834 -10.15333 -14.018834 -8.503821 Z M -14.018834 -8.503821 " transform="matrix(0.994614, 0, 0, -0.994614, 28.193329, 28.194324)"/>
<path fill-rule="nonzero" fill="rgb(0%, 0%, 0%)" fill-opacity="1" stroke-width="1.98427" stroke-linecap="round" stroke-linejoin="round" stroke="rgb(0%, 0%, 0%)" stroke-opacity="1" stroke-miterlimit="10" d="M -2.680422 -2.836579 C -2.680422 -1.183142 -4.019667 0.152175 -5.669176 0.152175 C -7.318685 0.152175 -8.657929 -1.183142 -8.657929 -2.836579 C -8.657929 -4.486088 -7.318685 -5.825332 -5.669176 -5.825332 C -4.019667 -5.825332 -2.680422 -4.486088 -2.680422 -2.836579 Z M -2.680422 -2.836579 " transform="matrix(0.994614, 0, 0, -0.994614, 28.193329, 28.194324)"/>
<path fill-rule="nonzero" fill="rgb(0%, 0%, 0%)" fill-opacity="1" stroke-width="1.98427" stroke-linecap="round" stroke-linejoin="round" stroke="rgb(0%, 0%, 0%)" stroke-opacity="1" stroke-miterlimit="10" d="M 8.65799 2.834591 C 8.65799 4.4841 7.318745 5.823345 5.669236 5.823345 C 4.019727 5.823345 2.680483 4.4841 2.680483 2.834591 C 2.680483 1.185082 4.019727 -0.154163 5.669236 -0.154163 C 7.318745 -0.154163 8.65799 1.185082 8.65799 2.834591 Z M 8.65799 2.834591 " transform="matrix(0.994614, 0, 0, -0.994614, 28.193329, 28.194324)"/>
<path fill-rule="nonzero" fill="rgb(0%, 0%, 0%)" fill-opacity="1" stroke-width="1.98427" stroke-linecap="round" stroke-linejoin="round" stroke="rgb(0%, 0%, 0%)" stroke-opacity="1" stroke-miterlimit="10" d="M 19.996402 8.505761 C 19.996402 10.15527 18.657157 11.494514 17.007648 11.494514 C 15.358139 11.494514 14.018895 10.15527 14.018895 8.505761 C 14.018895 6.852324 15.358139 5.517007 17.007648 5.517007 C 18.657157 5.517007 19.996402 6.852324 19.996402 8.505761 Z M 19.996402 8.505761 " transform="matrix(0.994614, 0, 0, -0.994614, 28.193329, 28.194324)"/>
<path fill="none" stroke-width="1.7008" stroke-linecap="round" stroke-linejoin="round" stroke="rgb(0%, 0%, 0%)" stroke-opacity="1" stroke-miterlimit="10" d="M -17.007588 -8.503821 L -5.669176 -2.836579 L 17.007648 8.505761 " transform="matrix(0.994614, 0, 0, -0.994614, 28.193329, 28.194324)"/>
<path fill-rule="nonzero" fill="rgb(27.450562%, 54.902649%, 100%)" fill-opacity="1" stroke-width="1.98427" stroke-linecap="round" stroke-linejoin="round" stroke="rgb(0%, 0%, 0%)" stroke-opacity="1" stroke-miterlimit="10" d="M -14.018834 -12.757198 C -14.018834 -11.103762 -15.358079 -9.768445 -17.007588 -9.768445 C -18.657097 -9.768445 -19.996342 -11.103762 -19.996342 -12.757198 C -19.996342 -14.406707 -18.657097 -15.745952 -17.007588 -15.745952 C -15.358079 -15.745952 -14.018834 -14.406707 -14.018834 -12.757198 Z M -14.018834 -12.757198 " transform="matrix(0.994614, 0, 0, -0.994614, 28.193329, 28.194324)"/>
<path fill-rule="nonzero" fill="rgb(27.450562%, 54.902649%, 100%)" fill-opacity="1" stroke-width="1.98427" stroke-linecap="round" stroke-linejoin="round" stroke="rgb(0%, 0%, 0%)" stroke-opacity="1" stroke-miterlimit="10" d="M -2.680422 -18.424441 C -2.680422 -16.774931 -4.019667 -15.435687 -5.669176 -15.435687 C -7.318685 -15.435687 -8.657929 -16.774931 -8.657929 -18.424441 C -8.657929 -20.077877 -7.318685 -21.413194 -5.669176 -21.413194 C -4.019667 -21.413194 -2.680422 -20.077877 -2.680422 -18.424441 Z M -2.680422 -18.424441 " transform="matrix(0.994614, 0, 0, -0.994614, 28.193329, 28.194324)"/>
<path fill-rule="nonzero" fill="rgb(27.450562%, 54.902649%, 100%)" fill-opacity="1" d="M 36.804688 52.160156 C 36.804688 50.515625 35.472656 49.1875 33.832031 49.1875 C 32.191406 49.1875 30.859375 50.515625 30.859375 52.160156 C 30.859375 53.800781 32.191406 55.132812 33.832031 55.132812 C 35.472656 55.132812 36.804688 53.800781 36.804688 52.160156 Z M 36.804688 52.160156 "/>
<g clip-path="url(#clip-0)">
<path fill="none" stroke-width="1.98427" stroke-linecap="round" stroke-linejoin="round" stroke="rgb(0%, 0%, 0%)" stroke-opacity="1" stroke-miterlimit="10" d="M 8.65799 -24.09561 C 8.65799 -22.442174 7.318745 -21.106857 5.669236 -21.106857 C 4.019727 -21.106857 2.680483 -22.442174 2.680483 -24.09561 C 2.680483 -25.74512 4.019727 -27.084364 5.669236 -27.084364 C 7.318745 -27.084364 8.65799 -25.74512 8.65799 -24.09561 Z M 8.65799 -24.09561 " transform="matrix(0.994614, 0, 0, -0.994614, 28.193329, 28.194324)"/>
</g>
<path fill-rule="nonzero" fill="rgb(27.450562%, 54.902649%, 100%)" fill-opacity="1" stroke-width="1.98427" stroke-linecap="round" stroke-linejoin="round" stroke="rgb(0%, 0%, 0%)" stroke-opacity="1" stroke-miterlimit="10" d="M 19.996402 -9.921613 C 19.996402 -8.272104 18.657157 -6.93286 17.007648 -6.93286 C 15.358139 -6.93286 14.018895 -8.272104 14.018895 -9.921613 C 14.018895 -11.571123 15.358139 -12.910367 17.007648 -12.910367 C 18.657157 -12.910367 19.996402 -11.571123 19.996402 -9.921613 Z M 19.996402 -9.921613 " transform="matrix(0.994614, 0, 0, -0.994614, 28.193329, 28.194324)"/>
<path fill="none" stroke-width="1.7008" stroke-linecap="round" stroke-linejoin="round" stroke="rgb(27.450562%, 54.902649%, 100%)" stroke-opacity="1" stroke-miterlimit="10" d="M -17.007588 -12.757198 L -5.669176 -18.424441 L 5.669236 -24.09561 L 17.007648 -9.921613 " transform="matrix(0.994614, 0, 0, -0.994614, 28.193329, 28.194324)"/>
</svg>
