<?xml version="1.0" encoding="UTF-8"?>
<svg xmlns="http://www.w3.org/2000/svg" xmlns:xlink="http://www.w3.org/1999/xlink" width="56.693" height="56.693" viewBox="0 0 56.693 56.693">
<path fill="none" stroke-width="3.4016" stroke-linecap="round" stroke-linejoin="round" stroke="rgb(0%, 0%, 0%)" stroke-opacity="1" stroke-miterlimit="10" d="M -25.510415 -18.424441 L -25.510415 18.42638 C -25.510415 22.338074 -22.341001 25.511415 -18.42538 25.511415 L 18.425441 25.511415 C 22.341061 25.511415 25.510475 22.338074 25.510475 18.42638 L 25.510475 -18.424441 C 25.510475 -22.340061 22.341061 -25.513403 18.425441 -25.513403 L -18.42538 -25.513403 C -22.341001 -25.513403 -25.510415 -22.340061 -25.510415 -18.424441 Z M -25.510415 -18.424441 " transform="matrix(0.994614, 0, 0, -0.994614, 28.193329, 28.194324)"/>
<path fill-rule="nonzero" fill="rgb(27.450562%, 54.902649%, 100%)" fill-opacity="1" stroke-width="1.98427" stroke-linecap="round" stroke-linejoin="round" stroke="rgb(0%, 0%, 0%)" stroke-opacity="1" stroke-miterlimit="10" d="M -11.18325 14.173003 C -11.18325 15.822512 -12.522494 17.161757 -14.172003 17.161757 C -15.82544 17.161757 -17.160757 15.822512 -17.160757 14.173003 C -17.160757 12.523494 -15.82544 11.18425 -14.172003 11.18425 C -12.522494 11.18425 -11.18325 12.523494 -11.18325 14.173003 Z M -11.18325 14.173003 " transform="matrix(0.994614, 0, 0, -0.994614, 28.193329, 28.194324)"/>
<path fill-rule="nonzero" fill="rgb(0%, 0%, 0%)" fill-opacity="1" stroke-width="1.98427" stroke-linecap="round" stroke-linejoin="round" stroke="rgb(0%, 0%, 0%)" stroke-opacity="1" stroke-miterlimit="10" d="M 2.990747 14.173003 C 2.990747 15.822512 1.651503 17.161757 -0.0019336 17.161757 C -1.651443 17.161757 -2.990687 15.822512 -2.990687 14.173003 C -2.990687 12.523494 -1.651443 11.18425 -0.0019336 11.18425 C 1.651503 11.18425 2.990747 12.523494 2.990747 14.173003 Z M 2.990747 14.173003 " transform="matrix(0.994614, 0, 0, -0.994614, 28.193329, 28.194324)"/>
<path fill-rule="nonzero" fill="rgb(27.450562%, 54.902649%, 100%)" fill-opacity="1" stroke-width="1.98427" stroke-linecap="round" stroke-linejoin="round" stroke="rgb(0%, 0%, 0%)" stroke-opacity="1" stroke-miterlimit="10" d="M 17.160817 14.173003 C 17.160817 15.822512 15.8255 17.161757 14.172063 17.161757 C 12.522554 17.161757 11.18331 15.822512 11.18331 14.173003 C 11.18331 12.523494 12.522554 11.18425 14.172063 11.18425 C 15.8255 11.18425 17.160817 12.523494 17.160817 14.173003 Z M 17.160817 14.173003 " transform="matrix(0.994614, 0, 0, -0.994614, 28.193329, 28.194324)"/>
<path fill-rule="nonzero" fill="rgb(0%, 0%, 0%)" fill-opacity="1" stroke-width="1.98427" stroke-linecap="round" stroke-linejoin="round" stroke="rgb(0%, 0%, 0%)" stroke-opacity="1" stroke-miterlimit="10" d="M -11.18325 -0.0009938 C -11.18325 1.652443 -12.522494 2.98776 -14.172003 2.98776 C -15.82544 2.98776 -17.160757 1.652443 -17.160757 -0.0009938 C -17.160757 -1.650503 -15.82544 -2.989747 -14.172003 -2.989747 C -12.522494 -2.989747 -11.18325 -1.650503 -11.18325 -0.0009938 Z M -11.18325 -0.0009938 " transform="matrix(0.994614, 0, 0, -0.994614, 28.193329, 28.194324)"/>
<path fill-rule="nonzero" fill="rgb(27.450562%, 54.902649%, 100%)" fill-opacity="1" stroke-width="1.98427" stroke-linecap="round" stroke-linejoin="round" stroke="rgb(0%, 0%, 0%)" stroke-opacity="1" stroke-miterlimit="10" d="M 2.990747 -0.0009938 C 2.990747 1.652443 1.651503 2.98776 -0.0019336 2.98776 C -1.651443 2.98776 -2.990687 1.652443 -2.990687 -0.0009938 C -2.990687 -1.650503 -1.651443 -2.989747 -0.0019336 -2.989747 C 1.651503 -2.989747 2.990747 -1.650503 2.990747 -0.0009938 Z M 2.990747 -0.0009938 " transform="matrix(0.994614, 0, 0, -0.994614, 28.193329, 28.194324)"/>
<path fill-rule="nonzero" fill="rgb(0%, 0%, 0%)" fill-opacity="1" stroke-width="1.98427" stroke-linecap="round" stroke-linejoin="round" stroke="rgb(0%, 0%, 0%)" stroke-opacity="1" stroke-miterlimit="10" d="M 17.160817 -0.0009938 C 17.160817 1.652443 15.8255 2.98776 14.172063 2.98776 C 12.522554 2.98776 11.18331 1.652443 11.18331 -0.0009938 C 11.18331 -1.650503 12.522554 -2.989747 14.172063 -2.989747 C 15.8255 -2.989747 17.160817 -1.650503 17.160817 -0.0009938 Z M 17.160817 -0.0009938 " transform="matrix(0.994614, 0, 0, -0.994614, 28.193329, 28.194324)"/>
<path fill-rule="nonzero" fill="rgb(27.450562%, 54.902649%, 100%)" fill-opacity="1" stroke-width="1.98427" stroke-linecap="round" stroke-linejoin="round" stroke="rgb(0%, 0%, 0%)" stroke-opacity="1" stroke-miterlimit="10" d="M -11.18325 -14.174991 C -11.18325 -12.521554 -12.522494 -11.186237 -14.172003 -11.186237 C -15.82544 -11.186237 -17.160757 -12.521554 -17.160757 -14.174991 C -17.160757 -15.8245 -15.82544 -17.163744 -14.172003 -17.163744 C -12.522494 -17.163744 -11.18325 -15.8245 -11.18325 -14.174991 Z M -11.18325 -14.174991 " transform="matrix(0.994614, 0, 0, -0.994614, 28.193329, 28.194324)"/>
<path fill-rule="nonzero" fill="rgb(27.450562%, 54.902649%, 100%)" fill-opacity="1" stroke-width="1.98427" stroke-linecap="round" stroke-linejoin="round" stroke="rgb(0%, 0%, 0%)" stroke-opacity="1" stroke-miterlimit="10" d="M 2.990747 -14.174991 C 2.990747 -12.521554 1.651503 -11.186237 -0.0019336 -11.186237 C -1.651443 -11.186237 -2.990687 -12.521554 -2.990687 -14.174991 C -2.990687 -15.8245 -1.651443 -17.163744 -0.0019336 -17.163744 C 1.651503 -17.163744 2.990747 -15.8245 2.990747 -14.174991 Z M 2.990747 -14.174991 " transform="matrix(0.994614, 0, 0, -0.994614, 28.193329, 28.194324)"/>
<path fill-rule="nonzero" fill="rgb(0%, 0%, 0%)" fill-opacity="1" stroke-width="1.98427" stroke-linecap="round" stroke-linejoin="round" stroke="rgb(0%, 0%, 0%)" stroke-opacity="1" stroke-miterlimit="10" d="M 17.160817 -14.174991 C 17.160817 -12.521554 15.8255 -11.186237 14.172063 -11.186237 C 12.522554 -11.186237 11.18331 -12.521554 11.18331 -14.174991 C 11.18331 -15.8245 12.522554 -17.163744 14.172063 -17.163744 C 15.8255 -17.163744 17.160817 -15.8245 17.160817 -14.174991 Z M 17.160817 -14.174991 " transform="matrix(0.994614, 0, 0, -0.994614, 28.193329, 28.194324)"/>
</svg>
