<?xml version="1.0" encoding="UTF-8"?>
<svg xmlns="http://www.w3.org/2000/svg" xmlns:xlink="http://www.w3.org/1999/xlink" width="56.693" height="56.693" viewBox="0 0 56.693 56.693">
<path fill="none" stroke-width="3.4016" stroke-linecap="round" stroke-linejoin="round" stroke="rgb(0%, 0%, 0%)" stroke-opacity="1" stroke-miterlimit="10" d="M -25.510415 -18.424441 L -25.510415 18.42638 C -25.510415 22.338074 -22.341001 25.511415 -18.42538 25.511415 L 18.425441 25.511415 C 22.341061 25.511415 25.510475 22.338074 25.510475 18.42638 L 25.510475 -18.424441 C 25.510475 -22.340061 22.341061 -25.513403 18.425441 -25.513403 L -18.42538 -25.513403 C -22.341001 -25.513403 -25.510415 -22.340061 -25.510415 -18.424441 Z M -25.510415 -18.424441 " transform="matrix(0.994614, 0, 0, -0.994614, 28.193329, 28.194324)"/>
<path fill="none" stroke-width="1.49442" stroke-linecap="round" stroke-linejoin="round" stroke="rgb(75%, 75%, 75%)" stroke-opacity="1" stroke-miterlimit="10" d="M -17.007588 -15.015455 L -17.007588 15.013467 C -17.007588 16.117068 -16.116068 17.008588 -15.016395 17.008588 L 15.016455 17.008588 C 16.116128 17.008588 17.007648 16.117068 17.007648 15.013467 L 17.007648 -15.015455 C 17.007648 -16.115128 16.116128 -17.006648 15.016455 -17.006648 L -15.016395 -17.006648 C -16.116068 -17.006648 -17.007588 -16.115128 -17.007588 -15.015455 Z M -17.007588 -15.015455 " transform="matrix(0.994614, 0, 0, -0.994614, 28.193329, 28.194324)"/>
<path fill-rule="nonzero" fill="rgb(27.450562%, 54.902649%, 100%)" fill-opacity="1" stroke-width="0.99628" stroke-linecap="round" stroke-linejoin="round" stroke="rgb(0%, 0%, 0%)" stroke-opacity="1" stroke-miterlimit="10" d="M -17.007588 -17.006648 L -17.007588 -5.668236 L -5.669176 -5.668236 L -5.669176 -17.006648 Z M -17.007588 -17.006648 " transform="matrix(0.994614, 0, 0, -0.994614, 28.193329, 28.194324)"/>
<path fill-rule="nonzero" fill="rgb(27.450562%, 54.902649%, 100%)" fill-opacity="1" stroke-width="0.99628" stroke-linecap="round" stroke-linejoin="round" stroke="rgb(0%, 0%, 0%)" stroke-opacity="1" stroke-miterlimit="10" d="M -5.669176 -17.006648 L -5.669176 -5.668236 L 5.669236 -5.668236 L 5.669236 -17.006648 Z M -5.669176 -17.006648 " transform="matrix(0.994614, 0, 0, -0.994614, 28.193329, 28.194324)"/>
<path fill-rule="nonzero" fill="rgb(27.450562%, 54.902649%, 100%)" fill-opacity="1" stroke-width="0.99628" stroke-linecap="round" stroke-linejoin="round" stroke="rgb(0%, 0%, 0%)" stroke-opacity="1" stroke-miterlimit="10" d="M -17.007588 -5.668236 L -17.007588 5.670176 L -5.669176 5.670176 L -5.669176 -5.668236 Z M -17.007588 -5.668236 " transform="matrix(0.994614, 0, 0, -0.994614, 28.193329, 28.194324)"/>
<path fill="none" stroke-width="3.4016" stroke-linecap="round" stroke-linejoin="round" stroke="rgb(0%, 0%, 0%)" stroke-opacity="1" stroke-miterlimit="10" d="M -17.007588 17.008588 L -17.007588 5.670176 L -5.669176 5.670176 L -5.669176 -5.668236 L 5.669236 -5.668236 L 5.669236 -17.006648 L 17.007648 -17.006648 " transform="matrix(0.994614, 0, 0, -0.994614, 28.193329, 28.194324)"/>
<path fill-rule="nonzero" fill="rgb(0%, 0%, 0%)" fill-opacity="1" d="M 13.53125 11.277344 C 13.53125 10.03125 12.523438 9.023438 11.277344 9.023438 C 10.03125 9.023438 9.019531 10.03125 9.019531 11.277344 C 9.019531 12.523438 10.03125 13.535156 11.277344 13.535156 C 12.523438 13.535156 13.53125 12.523438 13.53125 11.277344 Z M 13.53125 11.277344 "/>
<path fill-rule="nonzero" fill="rgb(0%, 0%, 0%)" fill-opacity="1" d="M 47.363281 45.109375 C 47.363281 43.863281 46.355469 42.855469 45.109375 42.855469 C 43.863281 42.855469 42.855469 43.863281 42.855469 45.109375 C 42.855469 46.355469 43.863281 47.367188 45.109375 47.367188 C 46.355469 47.367188 47.363281 46.355469 47.363281 45.109375 Z M 47.363281 45.109375 "/>
</svg>
