<?xml version="1.0" encoding="UTF-8"?>
<svg xmlns="http://www.w3.org/2000/svg" xmlns:xlink="http://www.w3.org/1999/xlink" width="56.693" height="56.693" viewBox="0 0 56.693 56.693">
<defs>
<clipPath id="clip-0">
<path clip-rule="nonzero" d="M 7 3 L 56.386719 3 L 56.386719 56.386719 L 7 56.386719 Z M 7 3 "/>
</clipPath>
<clipPath id="clip-1">
<path clip-rule="nonzero" d="M 5 0 L 56.386719 0 L 56.386719 48 L 5 48 Z M 5 0 "/>
</clipPath>
</defs>
<path fill="none" stroke-width="3.4016" stroke-linecap="round" stroke-linejoin="round" stroke="rgb(0%, 0%, 0%)" stroke-opacity="1" stroke-miterlimit="10" d="M -25.510415 -18.424441 L -25.510415 18.42638 C -25.510415 22.338074 -22.341001 25.511415 -18.42538 25.511415 L 18.425441 25.511415 C 22.341061 25.511415 25.510475 22.338074 25.510475 18.42638 L 25.510475 -18.424441 C 25.510475 -22.340061 22.341061 -25.513403 18.425441 -25.513403 L -18.42538 -25.513403 C -22.341001 -25.513403 -25.510415 -22.340061 -25.510415 -18.424441 Z M -25.510415 -18.424441 " transform="matrix(0.994614, 0, 0, -0.994614, 28.193329, 28.194324)"/>
<path fill-rule="nonzero" fill="rgb(27.450562%, 54.902649%, 100%)" fill-opacity="1" stroke-width="1.55907" stroke-linecap="round" stroke-linejoin="round" stroke="rgb(0%, 0%, 0%)" stroke-opacity="1" stroke-miterlimit="10" d="M -15.7194 -15.592783 C -15.7194 -13.939347 -17.058644 -12.600102 -18.708153 -12.600102 C -20.36159 -12.600102 -21.696907 -13.939347 -21.696907 -15.592783 C -21.696907 -17.242292 -20.36159 -18.581537 -18.708153 -18.581537 C -17.058644 -18.581537 -15.7194 -17.242292 -15.7194 -15.592783 Z M -15.7194 -15.592783 " transform="matrix(0.994614, 0, 0, -0.994614, 28.193329, 28.194324)"/>
<path fill-rule="nonzero" fill="rgb(27.450562%, 54.902649%, 100%)" fill-opacity="1" stroke-width="1.55907" stroke-linecap="round" stroke-linejoin="round" stroke="rgb(0%, 0%, 0%)" stroke-opacity="1" stroke-miterlimit="10" d="M 21.696967 -15.592783 C 21.696967 -13.939347 20.357723 -12.600102 18.708214 -12.600102 C 17.058704 -12.600102 15.71946 -13.939347 15.71946 -15.592783 C 15.71946 -17.242292 17.058704 -18.581537 18.708214 -18.581537 C 20.357723 -18.581537 21.696967 -17.242292 21.696967 -15.592783 Z M 21.696967 -15.592783 " transform="matrix(0.994614, 0, 0, -0.994614, 28.193329, 28.194324)"/>
<path fill-rule="nonzero" fill="rgb(27.450562%, 54.902649%, 100%)" fill-opacity="1" stroke-width="1.55907" stroke-linecap="round" stroke-linejoin="round" stroke="rgb(0%, 0%, 0%)" stroke-opacity="1" stroke-miterlimit="10" d="M -15.7194 -0.0009938 C -15.7194 1.652443 -17.058644 2.98776 -18.708153 2.98776 C -20.36159 2.98776 -21.696907 1.652443 -21.696907 -0.0009938 C -21.696907 -1.650503 -20.36159 -2.989747 -18.708153 -2.989747 C -17.058644 -2.989747 -15.7194 -1.650503 -15.7194 -0.0009938 Z M -15.7194 -0.0009938 " transform="matrix(0.994614, 0, 0, -0.994614, 28.193329, 28.194324)"/>
<path fill-rule="nonzero" fill="rgb(27.450562%, 54.902649%, 100%)" fill-opacity="1" stroke-width="1.55907" stroke-linecap="round" stroke-linejoin="round" stroke="rgb(0%, 0%, 0%)" stroke-opacity="1" stroke-miterlimit="10" d="M 21.696967 -0.0009938 C 21.696967 1.652443 20.357723 2.98776 18.708214 2.98776 C 17.058704 2.98776 15.71946 1.652443 15.71946 -0.0009938 C 15.71946 -1.650503 17.058704 -2.989747 18.708214 -2.989747 C 20.357723 -2.989747 21.696967 -1.650503 21.696967 -0.0009938 Z M 21.696967 -0.0009938 " transform="matrix(0.994614, 0, 0, -0.994614, 28.193329, 28.194324)"/>
<path fill-rule="nonzero" fill="rgb(27.450562%, 54.902649%, 100%)" fill-opacity="1" stroke-width="1.55907" stroke-linecap="round" stroke-linejoin="round" stroke="rgb(0%, 0%, 0%)" stroke-opacity="1" stroke-miterlimit="10" d="M -15.7194 15.590796 C -15.7194 17.240305 -17.058644 18.579549 -18.708153 18.579549 C -20.36159 18.579549 -21.696907 17.240305 -21.696907 15.590796 C -21.696907 13.941286 -20.36159 12.602042 -18.708153 12.602042 C -17.058644 12.602042 -15.7194 13.941286 -15.7194 15.590796 Z M -15.7194 15.590796 " transform="matrix(0.994614, 0, 0, -0.994614, 28.193329, 28.194324)"/>
<path fill-rule="nonzero" fill="rgb(27.450562%, 54.902649%, 100%)" fill-opacity="1" stroke-width="1.55907" stroke-linecap="round" stroke-linejoin="round" stroke="rgb(0%, 0%, 0%)" stroke-opacity="1" stroke-miterlimit="10" d="M 21.696967 15.590796 C 21.696967 17.240305 20.357723 18.579549 18.708214 18.579549 C 17.058704 18.579549 15.71946 17.240305 15.71946 15.590796 C 15.71946 13.941286 17.058704 12.602042 18.708214 12.602042 C 20.357723 12.602042 21.696967 13.941286 21.696967 15.590796 Z M 21.696967 15.590796 " transform="matrix(0.994614, 0, 0, -0.994614, 28.193329, 28.194324)"/>
<path fill-rule="nonzero" fill="rgb(0%, 0%, 0%)" fill-opacity="1" stroke-width="1.55907" stroke-linecap="round" stroke-linejoin="round" stroke="rgb(0%, 0%, 0%)" stroke-opacity="1" stroke-miterlimit="10" d="M -3.245968 -10.77386 C -3.245968 -9.120423 -4.585213 -7.781179 -6.234722 -7.781179 C -7.888159 -7.781179 -9.223476 -9.120423 -9.223476 -10.77386 C -9.223476 -12.423369 -7.888159 -13.762613 -6.234722 -13.762613 C -4.585213 -13.762613 -3.245968 -12.423369 -3.245968 -10.77386 Z M -3.245968 -10.77386 " transform="matrix(0.994614, 0, 0, -0.994614, 28.193329, 28.194324)"/>
<path fill-rule="nonzero" fill="rgb(0%, 0%, 0%)" fill-opacity="1" stroke-width="1.55907" stroke-linecap="round" stroke-linejoin="round" stroke="rgb(0%, 0%, 0%)" stroke-opacity="1" stroke-miterlimit="10" d="M 0.720709 6.235722 C 0.720709 7.885231 -0.618536 9.224476 -2.268045 9.224476 C -3.917554 9.224476 -5.256799 7.885231 -5.256799 6.235722 C -5.256799 4.586213 -3.917554 3.246968 -2.268045 3.246968 C -0.618536 3.246968 0.720709 4.586213 0.720709 6.235722 Z M 0.720709 6.235722 " transform="matrix(0.994614, 0, 0, -0.994614, 28.193329, 28.194324)"/>
<path fill-rule="nonzero" fill="rgb(0%, 0%, 0%)" fill-opacity="1" stroke-width="1.55907" stroke-linecap="round" stroke-linejoin="round" stroke="rgb(0%, 0%, 0%)" stroke-opacity="1" stroke-miterlimit="10" d="M 9.793009 -2.267105 C 9.793009 -0.617596 8.453765 0.721648 6.804256 0.721648 C 5.150819 0.721648 3.815502 -0.617596 3.815502 -2.267105 C 3.815502 -3.916614 5.150819 -5.255859 6.804256 -5.255859 C 8.453765 -5.255859 9.793009 -3.916614 9.793009 -2.267105 Z M 9.793009 -2.267105 " transform="matrix(0.994614, 0, 0, -0.994614, 28.193329, 28.194324)"/>
<path fill-rule="nonzero" fill="rgb(0%, 0%, 0%)" fill-opacity="1" stroke-width="1.55907" stroke-linecap="round" stroke-linejoin="round" stroke="rgb(0%, 0%, 0%)" stroke-opacity="1" stroke-miterlimit="10" d="M 7.52297 13.607457 C 7.52297 15.256966 6.187653 16.596211 4.534217 16.596211 C 2.884707 16.596211 1.545463 15.256966 1.545463 13.607457 C 1.545463 11.95402 2.884707 10.618704 4.534217 10.618704 C 6.187653 10.618704 7.52297 11.95402 7.52297 13.607457 Z M 7.52297 13.607457 " transform="matrix(0.994614, 0, 0, -0.994614, 28.193329, 28.194324)"/>
<path fill="none" stroke-width="1.98427" stroke-linecap="round" stroke-linejoin="round" stroke="rgb(0%, 0%, 0%)" stroke-opacity="1" stroke-miterlimit="10" d="M -18.708153 -15.592783 L -6.234722 -10.77386 L 6.804256 -2.267105 L 18.708214 -15.592783 " transform="matrix(0.994614, 0, 0, -0.994614, 28.193329, 28.194324)"/>
<path fill="none" stroke-width="1.98427" stroke-linecap="round" stroke-linejoin="round" stroke="rgb(0%, 0%, 0%)" stroke-opacity="1" stroke-miterlimit="10" d="M -18.708153 -0.0009938 L -2.268045 6.235722 L 6.804256 -2.267105 L 18.708214 -0.0009938 " transform="matrix(0.994614, 0, 0, -0.994614, 28.193329, 28.194324)"/>
<path fill="none" stroke-width="1.98427" stroke-linecap="round" stroke-linejoin="round" stroke="rgb(0%, 0%, 0%)" stroke-opacity="1" stroke-miterlimit="10" d="M -18.708153 15.590796 L -2.268045 6.235722 L 4.534217 13.607457 L 18.708214 15.590796 " transform="matrix(0.994614, 0, 0, -0.994614, 28.193329, 28.194324)"/>
<path fill="none" stroke-width="2.26773" stroke-linecap="round" stroke-linejoin="round" stroke="rgb(27.450562%, 54.902649%, 100%)" stroke-opacity="1" stroke-miterlimit="10" d="M -18.708153 -15.592783 L -6.234722 -10.77386 L 6.804256 -2.267105 L 13.386583 -9.634913 " transform="matrix(0.994614, 0, 0, -0.994614, 28.193329, 28.194324)"/>
<path fill-rule="nonzero" fill="rgb(27.450562%, 54.902649%, 100%)" fill-opacity="1" d="M 44.699219 41.351562 L 42.253906 34.960938 L 41.875 38.1875 L 38.625 38.203125 Z M 44.699219 41.351562 "/>
<g clip-path="url(#clip-0)">
<path fill="none" stroke-width="2.22643" stroke-linecap="round" stroke-linejoin="miter" stroke="rgb(27.450562%, 54.902649%, 100%)" stroke-opacity="1" stroke-miterlimit="10" d="M 10.023577 -0.00202239 L 3.593988 2.446163 L 5.759212 0.000380029 L 3.593522 -2.44674 Z M 10.023577 -0.00202239 " transform="matrix(0.662701, 0.741604, 0.741604, -0.662701, 38.058081, 33.916697)"/>
</g>
<path fill="none" stroke-width="2.26773" stroke-linecap="round" stroke-linejoin="round" stroke="rgb(27.450562%, 54.902649%, 100%)" stroke-opacity="1" stroke-miterlimit="10" d="M -18.708153 15.590796 L -2.268045 6.235722 L 4.534217 13.607457 L 10.798424 14.483268 " transform="matrix(0.994614, 0, 0, -0.994614, 28.193329, 28.194324)"/>
<path fill-rule="nonzero" fill="rgb(27.450562%, 54.902649%, 100%)" fill-opacity="1" d="M 43.679688 13.125 L 37.007812 11.601562 L 39.480469 13.710938 L 37.683594 16.421875 Z M 43.679688 13.125 "/>
<g clip-path="url(#clip-1)">
<path fill="none" stroke-width="2.22643" stroke-linecap="round" stroke-linejoin="miter" stroke="rgb(27.450562%, 54.902649%, 100%)" stroke-opacity="1" stroke-miterlimit="10" d="M 10.024128 -0.000463149 L 3.59318 2.446472 L 5.761213 0.00145544 L 3.594143 -2.4474 Z M 10.024128 -0.000463149 " transform="matrix(0.984996, -0.137893, -0.137893, -0.984996, 33.805897, 14.506804)"/>
</g>
</svg>
