<?xml version="1.0" encoding="UTF-8"?>
<svg xmlns="http://www.w3.org/2000/svg" xmlns:xlink="http://www.w3.org/1999/xlink" width="56.693" height="56.693" viewBox="0 0 56.693 56.693">
<path fill="none" stroke-width="3.4016" stroke-linecap="round" stroke-linejoin="round" stroke="rgb(0%, 0%, 0%)" stroke-opacity="1" stroke-miterlimit="10" d="M -25.510415 -18.424441 L -25.510415 18.42638 C -25.510415 22.338074 -22.341001 25.511415 -18.42538 25.511415 L 18.425441 25.511415 C 22.341061 25.511415 25.510475 22.338074 25.510475 18.42638 L 25.510475 -18.424441 C 25.510475 -22.340061 22.341061 -25.513403 18.425441 -25.513403 L -18.42538 -25.513403 C -22.341001 -25.513403 -25.510415 -22.340061 -25.510415 -18.424441 Z M -25.510415 -18.424441 " transform="matrix(0.994614, 0, 0, -0.994614, 28.193329, 28.194324)"/>
<path fill="none" stroke-width="1.98427" stroke-linecap="round" stroke-linejoin="round" stroke="rgb(54.998779%, 54.998779%, 54.998779%)" stroke-opacity="1" stroke-miterlimit="10" d="M -20.408719 -17.576122 L 20.408779 -17.576122 " transform="matrix(0.994614, 0, 0, -0.994614, 28.193329, 28.194324)"/>
<path fill="none" stroke-width="1.98427" stroke-linecap="round" stroke-linejoin="round" stroke="rgb(54.998779%, 54.998779%, 54.998779%)" stroke-opacity="1" stroke-miterlimit="10" d="M -20.408719 -19.55946 L -20.408719 -15.592783 " transform="matrix(0.994614, 0, 0, -0.994614, 28.193329, 28.194324)"/>
<path fill="none" stroke-width="1.98427" stroke-linecap="round" stroke-linejoin="round" stroke="rgb(54.998779%, 54.998779%, 54.998779%)" stroke-opacity="1" stroke-miterlimit="10" d="M -10.205326 -19.55946 L -10.205326 -15.592783 " transform="matrix(0.994614, 0, 0, -0.994614, 28.193329, 28.194324)"/>
<path fill="none" stroke-width="1.98427" stroke-linecap="round" stroke-linejoin="round" stroke="rgb(54.998779%, 54.998779%, 54.998779%)" stroke-opacity="1" stroke-miterlimit="10" d="M -0.0019336 -19.55946 L -0.0019336 -15.592783 " transform="matrix(0.994614, 0, 0, -0.994614, 28.193329, 28.194324)"/>
<path fill="none" stroke-width="1.98427" stroke-linecap="round" stroke-linejoin="round" stroke="rgb(54.998779%, 54.998779%, 54.998779%)" stroke-opacity="1" stroke-miterlimit="10" d="M 10.205386 -19.55946 L 10.205386 -15.592783 " transform="matrix(0.994614, 0, 0, -0.994614, 28.193329, 28.194324)"/>
<path fill="none" stroke-width="1.98427" stroke-linecap="round" stroke-linejoin="round" stroke="rgb(54.998779%, 54.998779%, 54.998779%)" stroke-opacity="1" stroke-miterlimit="10" d="M 20.408779 -19.55946 L 20.408779 -15.592783 " transform="matrix(0.994614, 0, 0, -0.994614, 28.193329, 28.194324)"/>
<path fill="none" stroke-width="3.4016" stroke-linecap="round" stroke-linejoin="round" stroke="rgb(27.450562%, 54.902649%, 100%)" stroke-opacity="1" stroke-miterlimit="10" d="M -20.408719 2.834591 L -10.205326 -7.368802 " transform="matrix(0.994614, 0, 0, -0.994614, 28.193329, 28.194324)"/>
<path fill="none" stroke-width="3.4016" stroke-linecap="round" stroke-linejoin="round" stroke="rgb(0%, 0%, 0%)" stroke-opacity="1" stroke-miterlimit="10" d="M -10.205326 -7.368802 L -0.0019336 12.472438 " transform="matrix(0.994614, 0, 0, -0.994614, 28.193329, 28.194324)"/>
<path fill="none" stroke-width="3.4016" stroke-linecap="round" stroke-linejoin="round" stroke="rgb(27.450562%, 54.902649%, 100%)" stroke-opacity="1" stroke-miterlimit="10" d="M -0.0019336 12.472438 L 10.205386 -0.56654 " transform="matrix(0.994614, 0, 0, -0.994614, 28.193329, 28.194324)"/>
<path fill="none" stroke-width="3.4016" stroke-linecap="round" stroke-linejoin="round" stroke="rgb(0%, 0%, 0%)" stroke-opacity="1" stroke-miterlimit="10" d="M 10.205386 -0.56654 L 20.408779 17.574134 " transform="matrix(0.994614, 0, 0, -0.994614, 28.193329, 28.194324)"/>
<path fill-rule="nonzero" fill="rgb(27.450562%, 54.902649%, 100%)" fill-opacity="1" stroke-width="1.98427" stroke-linecap="round" stroke-linejoin="round" stroke="rgb(0%, 0%, 0%)" stroke-opacity="1" stroke-miterlimit="10" d="M -17.419965 2.834591 C -17.419965 4.4841 -18.75921 5.823345 -20.408719 5.823345 C -22.062155 5.823345 -23.397472 4.4841 -23.397472 2.834591 C -23.397472 1.185082 -22.062155 -0.154163 -20.408719 -0.154163 C -18.75921 -0.154163 -17.419965 1.185082 -17.419965 2.834591 Z M -17.419965 2.834591 " transform="matrix(0.994614, 0, 0, -0.994614, 28.193329, 28.194324)"/>
<path fill-rule="nonzero" fill="rgb(0%, 0%, 0%)" fill-opacity="1" stroke-width="1.98427" stroke-linecap="round" stroke-linejoin="round" stroke="rgb(0%, 0%, 0%)" stroke-opacity="1" stroke-miterlimit="10" d="M -7.216573 -7.368802 C -7.216573 -5.719292 -8.555817 -4.380048 -10.205326 -4.380048 C -11.854835 -4.380048 -13.19408 -5.719292 -13.19408 -7.368802 C -13.19408 -9.022238 -11.854835 -10.357555 -10.205326 -10.357555 C -8.555817 -10.357555 -7.216573 -9.022238 -7.216573 -7.368802 Z M -7.216573 -7.368802 " transform="matrix(0.994614, 0, 0, -0.994614, 28.193329, 28.194324)"/>
<path fill-rule="nonzero" fill="rgb(27.450562%, 54.902649%, 100%)" fill-opacity="1" stroke-width="1.98427" stroke-linecap="round" stroke-linejoin="round" stroke="rgb(0%, 0%, 0%)" stroke-opacity="1" stroke-miterlimit="10" d="M 2.990747 12.472438 C 2.990747 14.121947 1.651503 15.461191 -0.0019336 15.461191 C -1.651443 15.461191 -2.990687 14.121947 -2.990687 12.472438 C -2.990687 10.822928 -1.651443 9.483684 -0.0019336 9.483684 C 1.651503 9.483684 2.990747 10.822928 2.990747 12.472438 Z M 2.990747 12.472438 " transform="matrix(0.994614, 0, 0, -0.994614, 28.193329, 28.194324)"/>
<path fill-rule="nonzero" fill="rgb(0%, 0%, 0%)" fill-opacity="1" stroke-width="1.98427" stroke-linecap="round" stroke-linejoin="round" stroke="rgb(0%, 0%, 0%)" stroke-opacity="1" stroke-miterlimit="10" d="M 13.19414 -0.56654 C 13.19414 1.082969 11.854896 2.422214 10.205386 2.422214 C 8.555877 2.422214 7.216633 1.082969 7.216633 -0.56654 C 7.216633 -2.216049 8.555877 -3.555293 10.205386 -3.555293 C 11.854896 -3.555293 13.19414 -2.216049 13.19414 -0.56654 Z M 13.19414 -0.56654 " transform="matrix(0.994614, 0, 0, -0.994614, 28.193329, 28.194324)"/>
<path fill-rule="nonzero" fill="rgb(0%, 0%, 0%)" fill-opacity="1" stroke-width="1.98427" stroke-linecap="round" stroke-linejoin="round" stroke="rgb(0%, 0%, 0%)" stroke-opacity="1" stroke-miterlimit="10" d="M 23.397533 17.574134 C 23.397533 19.223643 22.062216 20.562888 20.408779 20.562888 C 18.75927 20.562888 17.420025 19.223643 17.420025 17.574134 C 17.420025 15.924625 18.75927 14.58538 20.408779 14.58538 C 22.062216 14.58538 23.397533 15.924625 23.397533 17.574134 Z M 23.397533 17.574134 " transform="matrix(0.994614, 0, 0, -0.994614, 28.193329, 28.194324)"/>
<path fill-rule="nonzero" fill="rgb(27.450562%, 54.902649%, 100%)" fill-opacity="1" stroke-width="1.98427" stroke-linecap="round" stroke-linejoin="round" stroke="rgb(0%, 0%, 0%)" stroke-opacity="1" stroke-miterlimit="10" d="M -18.166172 -17.576122 C -18.166172 -16.335062 -19.171587 -15.333575 -20.408719 -15.333575 C -21.645851 -15.333575 -22.651266 -16.335062 -22.651266 -17.576122 C -22.651266 -18.813253 -21.645851 -19.814741 -20.408719 -19.814741 C -19.171587 -19.814741 -18.166172 -18.813253 -18.166172 -17.576122 Z M -18.166172 -17.576122 " transform="matrix(0.994614, 0, 0, -0.994614, 28.193329, 28.194324)"/>
<path fill-rule="nonzero" fill="rgb(27.450562%, 54.902649%, 100%)" fill-opacity="1" stroke-width="1.98427" stroke-linecap="round" stroke-linejoin="round" stroke="rgb(0%, 0%, 0%)" stroke-opacity="1" stroke-miterlimit="10" d="M 2.240613 -17.576122 C 2.240613 -16.335062 1.239126 -15.333575 -0.0019336 -15.333575 C -1.239066 -15.333575 -2.240553 -16.335062 -2.240553 -17.576122 C -2.240553 -18.813253 -1.239066 -19.814741 -0.0019336 -19.814741 C 1.239126 -19.814741 2.240613 -18.813253 2.240613 -17.576122 Z M 2.240613 -17.576122 " transform="matrix(0.994614, 0, 0, -0.994614, 28.193329, 28.194324)"/>
</svg>
