<?xml version="1.0" encoding="UTF-8"?>
<svg xmlns="http://www.w3.org/2000/svg" xmlns:xlink="http://www.w3.org/1999/xlink" width="56.693" height="56.693" viewBox="0 0 56.693 56.693">
<path fill="none" stroke-width="3.4016" stroke-linecap="round" stroke-linejoin="round" stroke="rgb(0%, 0%, 0%)" stroke-opacity="1" stroke-miterlimit="10" d="M -25.510415 -18.424441 L -25.510415 18.42638 C -25.510415 22.338074 -22.341001 25.511415 -18.42538 25.511415 L 18.425441 25.511415 C 22.341061 25.511415 25.510475 22.338074 25.510475 18.42638 L 25.510475 -18.424441 C 25.510475 -22.340061 22.341061 -25.513403 18.425441 -25.513403 L -18.42538 -25.513403 C -22.341001 -25.513403 -25.510415 -22.340061 -25.510415 -18.424441 Z M -25.510415 -18.424441 " transform="matrix(0.994614, 0, 0, -0.994614, 28.193329, 28.194324)"/>
<path fill-rule="nonzero" fill="rgb(27.450562%, 54.902649%, 100%)" fill-opacity="1" stroke-width="3.4016" stroke-linecap="round" stroke-linejoin="round" stroke="rgb(0%, 0%, 0%)" stroke-opacity="1" stroke-miterlimit="10" d="M -15.589796 -14.740537 L -15.589796 -13.605517 C -15.589796 -10.789569 -13.307974 -8.503821 -10.488099 -8.503821 L 16.159329 -8.503821 C 18.975277 -8.503821 21.261025 -10.789569 21.261025 -13.605517 L 21.261025 -14.740537 C 21.261025 -17.556485 18.975277 -19.842233 16.159329 -19.842233 L -10.488099 -19.842233 C -13.307974 -19.842233 -15.589796 -17.556485 -15.589796 -14.740537 Z M -15.589796 -14.740537 " transform="matrix(0.994614, 0, 0, -0.994614, 28.193329, 28.194324)"/>
<path fill="none" stroke-width="3.4016" stroke-linecap="round" stroke-linejoin="round" stroke="rgb(0%, 0%, 0%)" stroke-opacity="1" stroke-miterlimit="10" d="M -15.589796 0.851253 L -15.589796 1.986272 C -15.589796 4.80222 -13.307974 7.087968 -10.488099 7.087968 L 4.820917 7.087968 C 7.636865 7.087968 9.922613 4.80222 9.922613 1.986272 L 9.922613 0.851253 C 9.922613 -1.968623 7.636865 -4.250444 4.820917 -4.250444 L -10.488099 -4.250444 C -13.307974 -4.250444 -15.589796 -1.968623 -15.589796 0.851253 Z M -15.589796 0.851253 " transform="matrix(0.994614, 0, 0, -0.994614, 28.193329, 28.194324)"/>
<path fill="none" stroke-width="3.4016" stroke-linecap="round" stroke-linejoin="round" stroke="rgb(0%, 0%, 0%)" stroke-opacity="1" stroke-miterlimit="10" d="M -15.589796 16.439115 L -15.589796 17.574134 C -15.589796 20.394009 -13.307974 22.67583 -10.488099 22.67583 L -6.521422 22.67583 C -3.701547 22.67583 -1.415799 20.394009 -1.415799 17.574134 L -1.415799 16.439115 C -1.415799 13.623167 -3.701547 11.337418 -6.521422 11.337418 L -10.488099 11.337418 C -13.307974 11.337418 -15.589796 13.623167 -15.589796 16.439115 Z M -15.589796 16.439115 " transform="matrix(0.994614, 0, 0, -0.994614, 28.193329, 28.194324)"/>
</svg>
