<?xml version="1.0" encoding="UTF-8"?>
<svg xmlns="http://www.w3.org/2000/svg" xmlns:xlink="http://www.w3.org/1999/xlink" width="56.693" height="56.693" viewBox="0 0 56.693 56.693">
<path fill="none" stroke-width="3.4016" stroke-linecap="round" stroke-linejoin="round" stroke="rgb(0%, 0%, 0%)" stroke-opacity="1" stroke-miterlimit="10" d="M -25.510415 -18.424441 L -25.510415 18.42638 C -25.510415 22.338074 -22.341001 25.511415 -18.42538 25.511415 L 18.425441 25.511415 C 22.341061 25.511415 25.510475 22.338074 25.510475 18.42638 L 25.510475 -18.424441 C 25.510475 -22.340061 22.341061 -25.513403 18.425441 -25.513403 L -18.42538 -25.513403 C -22.341001 -25.513403 -25.510415 -22.340061 -25.510415 -18.424441 Z M -25.510415 -18.424441 " transform="matrix(0.994614, 0, 0, -0.994614, 28.193329, 28.194324)"/>
<path fill-rule="nonzero" fill="rgb(86.941528%, 91.880798%, 100%)" fill-opacity="1" d="M 28.191406 28.195312 L 7.894531 7.894531 L 48.492188 7.894531 Z M 28.191406 28.195312 "/>
<path fill="none" stroke-width="2.5512" stroke-linecap="round" stroke-linejoin="round" stroke="rgb(27.450562%, 54.902649%, 100%)" stroke-opacity="1" stroke-miterlimit="10" d="M -0.0019336 -0.0009938 L -20.408719 20.409719 " transform="matrix(0.994614, 0, 0, -0.994614, 28.193329, 28.194324)"/>
<path fill="none" stroke-width="2.5512" stroke-linecap="round" stroke-linejoin="round" stroke="rgb(27.450562%, 54.902649%, 100%)" stroke-opacity="1" stroke-miterlimit="10" d="M -0.0019336 -0.0009938 L 20.408779 20.409719 " transform="matrix(0.994614, 0, 0, -0.994614, 28.193329, 28.194324)"/>
<path fill="none" stroke-width="1.98427" stroke-linecap="round" stroke-linejoin="round" stroke="rgb(44.999695%, 44.999695%, 44.999695%)" stroke-opacity="1" stroke-miterlimit="10" d="M -0.0019336 -0.0009938 L -20.408719 -20.407779 " transform="matrix(0.994614, 0, 0, -0.994614, 28.193329, 28.194324)"/>
<path fill="none" stroke-width="1.98427" stroke-linecap="round" stroke-linejoin="round" stroke="rgb(44.999695%, 44.999695%, 44.999695%)" stroke-opacity="1" stroke-miterlimit="10" d="M -0.0019336 -0.0009938 L 20.408779 -20.407779 " transform="matrix(0.994614, 0, 0, -0.994614, 28.193329, 28.194324)"/>
<path fill-rule="nonzero" fill="rgb(0%, 0%, 0%)" fill-opacity="1" stroke-width="1.98427" stroke-linecap="round" stroke-linejoin="round" stroke="rgb(0%, 0%, 0%)" stroke-opacity="1" stroke-miterlimit="10" d="M 2.990747 -0.0009938 C 2.990747 1.652443 1.651503 2.98776 -0.0019336 2.98776 C -1.651443 2.98776 -2.990687 1.652443 -2.990687 -0.0009938 C -2.990687 -1.650503 -1.651443 -2.989747 -0.0019336 -2.989747 C 1.651503 -2.989747 2.990747 -1.650503 2.990747 -0.0009938 Z M 2.990747 -0.0009938 " transform="matrix(0.994614, 0, 0, -0.994614, 28.193329, 28.194324)"/>
</svg>
