<?xml version="1.0" encoding="UTF-8"?>
<svg xmlns="http://www.w3.org/2000/svg" xmlns:xlink="http://www.w3.org/1999/xlink" width="56.693" height="56.693" viewBox="0 0 56.693 56.693">
<path fill="none" stroke-width="3.4016" stroke-linecap="round" stroke-linejoin="round" stroke="rgb(0%, 0%, 0%)" stroke-opacity="1" stroke-miterlimit="10" d="M -25.510415 -18.424441 L -25.510415 18.42638 C -25.510415 22.338074 -22.341001 25.511415 -18.42538 25.511415 L 18.425441 25.511415 C 22.341061 25.511415 25.510475 22.338074 25.510475 18.42638 L 25.510475 -18.424441 C 25.510475 -22.340061 22.341061 -25.513403 18.425441 -25.513403 L -18.42538 -25.513403 C -22.341001 -25.513403 -25.510415 -22.340061 -25.510415 -18.424441 Z M -25.510415 -18.424441 " transform="matrix(0.994614, 0, 0, -0.994614, 28.193329, 28.194324)"/>
<path fill-rule="nonzero" fill="rgb(60.096741%, 75.196838%, 100%)" fill-opacity="1" stroke-width="1.55907" stroke-linecap="round" stroke-linejoin="round" stroke="rgb(0%, 0%, 0%)" stroke-opacity="1" stroke-miterlimit="10" d="M -17.573134 13.607457 L -17.573134 1.699572 L -5.669176 1.699572 L -5.669176 13.607457 Z M -17.573134 13.607457 " transform="matrix(0.994614, 0, 0, -0.994614, 28.193329, 28.194324)"/>
<path fill-rule="nonzero" fill="rgb(60.096741%, 75.196838%, 100%)" fill-opacity="1" stroke-width="1.55907" stroke-linecap="round" stroke-linejoin="round" stroke="rgb(0%, 0%, 0%)" stroke-opacity="1" stroke-miterlimit="10" d="M -5.669176 13.607457 L -5.669176 1.699572 L 6.234782 1.699572 L 6.234782 13.607457 Z M -5.669176 13.607457 " transform="matrix(0.994614, 0, 0, -0.994614, 28.193329, 28.194324)"/>
<path fill-rule="nonzero" fill="rgb(60.096741%, 75.196838%, 100%)" fill-opacity="1" stroke-width="1.55907" stroke-linecap="round" stroke-linejoin="round" stroke="rgb(0%, 0%, 0%)" stroke-opacity="1" stroke-miterlimit="10" d="M -17.573134 1.699572 L -17.573134 -10.204386 L -5.669176 -10.204386 L -5.669176 1.699572 Z M -17.573134 1.699572 " transform="matrix(0.994614, 0, 0, -0.994614, 28.193329, 28.194324)"/>
<path fill-rule="nonzero" fill="rgb(60.096741%, 75.196838%, 100%)" fill-opacity="1" stroke-width="1.55907" stroke-linecap="round" stroke-linejoin="round" stroke="rgb(0%, 0%, 0%)" stroke-opacity="1" stroke-miterlimit="10" d="M -17.573134 -10.204386 L -17.573134 -22.112272 L -5.669176 -22.112272 L -5.669176 -10.204386 Z M -17.573134 -10.204386 " transform="matrix(0.994614, 0, 0, -0.994614, 28.193329, 28.194324)"/>
<path fill-rule="nonzero" fill="rgb(60.096741%, 75.196838%, 100%)" fill-opacity="1" stroke-width="1.55907" stroke-linecap="round" stroke-linejoin="round" stroke="rgb(0%, 0%, 0%)" stroke-opacity="1" stroke-miterlimit="10" d="M -5.669176 -10.204386 L -5.669176 -22.112272 L 6.234782 -22.112272 L 6.234782 -10.204386 Z M -5.669176 -10.204386 " transform="matrix(0.994614, 0, 0, -0.994614, 28.193329, 28.194324)"/>
<path fill-rule="nonzero" fill="rgb(60.096741%, 75.196838%, 100%)" fill-opacity="1" stroke-width="1.55907" stroke-linecap="round" stroke-linejoin="round" stroke="rgb(0%, 0%, 0%)" stroke-opacity="1" stroke-miterlimit="10" d="M 6.234782 -10.204386 L 6.234782 -22.112272 L 18.142668 -22.112272 L 18.142668 -10.204386 Z M 6.234782 -10.204386 " transform="matrix(0.994614, 0, 0, -0.994614, 28.193329, 28.194324)"/>
</svg>
