<?xml version="1.0" encoding="UTF-8"?>
<svg xmlns="http://www.w3.org/2000/svg" xmlns:xlink="http://www.w3.org/1999/xlink" width="56.693" height="56.693" viewBox="0 0 56.693 56.693">
<path fill="none" stroke-width="3.4016" stroke-linecap="round" stroke-linejoin="round" stroke="rgb(0%, 0%, 0%)" stroke-opacity="1" stroke-miterlimit="10" d="M -25.510415 -18.424441 L -25.510415 18.42638 C -25.510415 22.338074 -22.341001 25.511415 -18.42538 25.511415 L 18.425441 25.511415 C 22.341061 25.511415 25.510475 22.338074 25.510475 18.42638 L 25.510475 -18.424441 C 25.510475 -22.340061 22.341061 -25.513403 18.425441 -25.513403 L -18.42538 -25.513403 C -22.341001 -25.513403 -25.510415 -22.340061 -25.510415 -18.424441 Z M -25.510415 -18.424441 " transform="matrix(0.994614, 0, 0, -0.994614, 28.193329, 28.194324)"/>
<path fill="none" stroke-width="2.78957" stroke-linecap="round" stroke-linejoin="round" stroke="rgb(27.450562%, 54.902649%, 100%)" stroke-opacity="1" stroke-miterlimit="10" d="M -18.42538 -19.842233 L -7.086968 -19.842233 L -7.086968 -8.503821 L 9.922613 -8.503821 L 9.922613 -2.836579 L 18.425441 -2.836579 " transform="matrix(0.994614, 0, 0, -0.994614, 28.193329, 28.194324)"/>
<path fill="none" stroke-width="2.78957" stroke-linecap="round" stroke-linejoin="round" stroke="rgb(27.450562%, 54.902649%, 100%)" stroke-opacity="1" stroke-miterlimit="10" d="M -18.42538 -5.668236 L -12.754211 -5.668236 L -12.754211 2.834591 L 4.251444 2.834591 L 4.251444 8.505761 L 18.425441 8.505761 " transform="matrix(0.994614, 0, 0, -0.994614, 28.193329, 28.194324)"/>
<path fill="none" stroke-width="2.78957" stroke-linecap="round" stroke-linejoin="round" stroke="rgb(27.450562%, 54.902649%, 100%)" stroke-opacity="1" stroke-miterlimit="10" d="M -18.42538 8.505761 L -15.589796 8.505761 L -15.589796 17.008588 L 1.415859 17.008588 L 1.415859 22.67583 L 18.425441 22.67583 " transform="matrix(0.994614, 0, 0, -0.994614, 28.193329, 28.194324)"/>
<path fill-rule="nonzero" fill="rgb(27.450562%, 54.902649%, 100%)" fill-opacity="1" stroke-width="1.98427" stroke-linecap="round" stroke-linejoin="round" stroke="rgb(0%, 0%, 0%)" stroke-opacity="1" stroke-miterlimit="10" d="M -15.436627 -19.842233 C -15.436627 -18.192724 -16.775871 -16.853479 -18.42538 -16.853479 C -20.07489 -16.853479 -21.414134 -18.192724 -21.414134 -19.842233 C -21.414134 -21.491742 -20.07489 -22.830987 -18.42538 -22.830987 C -16.775871 -22.830987 -15.436627 -21.491742 -15.436627 -19.842233 Z M -15.436627 -19.842233 " transform="matrix(0.994614, 0, 0, -0.994614, 28.193329, 28.194324)"/>
<path fill-rule="nonzero" fill="rgb(27.450562%, 54.902649%, 100%)" fill-opacity="1" stroke-width="1.98427" stroke-linecap="round" stroke-linejoin="round" stroke="rgb(0%, 0%, 0%)" stroke-opacity="1" stroke-miterlimit="10" d="M -15.436627 -5.668236 C -15.436627 -4.018727 -16.775871 -2.679483 -18.42538 -2.679483 C -20.07489 -2.679483 -21.414134 -4.018727 -21.414134 -5.668236 C -21.414134 -7.321673 -20.07489 -8.65699 -18.42538 -8.65699 C -16.775871 -8.65699 -15.436627 -7.321673 -15.436627 -5.668236 Z M -15.436627 -5.668236 " transform="matrix(0.994614, 0, 0, -0.994614, 28.193329, 28.194324)"/>
<path fill-rule="nonzero" fill="rgb(27.450562%, 54.902649%, 100%)" fill-opacity="1" stroke-width="1.98427" stroke-linecap="round" stroke-linejoin="round" stroke="rgb(0%, 0%, 0%)" stroke-opacity="1" stroke-miterlimit="10" d="M -15.436627 8.505761 C -15.436627 10.15527 -16.775871 11.494514 -18.42538 11.494514 C -20.07489 11.494514 -21.414134 10.15527 -21.414134 8.505761 C -21.414134 6.852324 -20.07489 5.517007 -18.42538 5.517007 C -16.775871 5.517007 -15.436627 6.852324 -15.436627 8.505761 Z M -15.436627 8.505761 " transform="matrix(0.994614, 0, 0, -0.994614, 28.193329, 28.194324)"/>
<path fill-rule="nonzero" fill="rgb(27.450562%, 54.902649%, 100%)" fill-opacity="1" stroke-width="1.98427" stroke-linecap="round" stroke-linejoin="round" stroke="rgb(0%, 0%, 0%)" stroke-opacity="1" stroke-miterlimit="10" d="M 21.414194 -2.836579 C 21.414194 -1.183142 20.07495 0.152175 18.425441 0.152175 C 16.775931 0.152175 15.436687 -1.183142 15.436687 -2.836579 C 15.436687 -4.486088 16.775931 -5.825332 18.425441 -5.825332 C 20.07495 -5.825332 21.414194 -4.486088 21.414194 -2.836579 Z M 21.414194 -2.836579 " transform="matrix(0.994614, 0, 0, -0.994614, 28.193329, 28.194324)"/>
<path fill-rule="nonzero" fill="rgb(27.450562%, 54.902649%, 100%)" fill-opacity="1" stroke-width="1.98427" stroke-linecap="round" stroke-linejoin="round" stroke="rgb(0%, 0%, 0%)" stroke-opacity="1" stroke-miterlimit="10" d="M 21.414194 8.505761 C 21.414194 10.15527 20.07495 11.494514 18.425441 11.494514 C 16.775931 11.494514 15.436687 10.15527 15.436687 8.505761 C 15.436687 6.852324 16.775931 5.517007 18.425441 5.517007 C 20.07495 5.517007 21.414194 6.852324 21.414194 8.505761 Z M 21.414194 8.505761 " transform="matrix(0.994614, 0, 0, -0.994614, 28.193329, 28.194324)"/>
<path fill-rule="nonzero" fill="rgb(27.450562%, 54.902649%, 100%)" fill-opacity="1" stroke-width="1.98427" stroke-linecap="round" stroke-linejoin="round" stroke="rgb(0%, 0%, 0%)" stroke-opacity="1" stroke-miterlimit="10" d="M 21.414194 22.67583 C 21.414194 24.329267 20.07495 25.664584 18.425441 25.664584 C 16.775931 25.664584 15.436687 24.329267 15.436687 22.67583 C 15.436687 21.026321 16.775931 19.687077 18.425441 19.687077 C 20.07495 19.687077 21.414194 21.026321 21.414194 22.67583 Z M 21.414194 22.67583 " transform="matrix(0.994614, 0, 0, -0.994614, 28.193329, 28.194324)"/>
</svg>
