<?xml version="1.0" encoding="UTF-8"?>
<svg xmlns="http://www.w3.org/2000/svg" xmlns:xlink="http://www.w3.org/1999/xlink" width="56.693" height="56.693" viewBox="0 0 56.693 56.693">
<path fill="none" stroke-width="3.4016" stroke-linecap="round" stroke-linejoin="round" stroke="rgb(0%, 0%, 0%)" stroke-opacity="1" stroke-miterlimit="10" d="M -25.510415 -18.424441 L -25.510415 18.42638 C -25.510415 22.338074 -22.341001 25.511415 -18.42538 25.511415 L 18.425441 25.511415 C 22.341061 25.511415 25.510475 22.338074 25.510475 18.42638 L 25.510475 -18.424441 C 25.510475 -22.340061 22.341061 -25.513403 18.425441 -25.513403 L -18.42538 -25.513403 C -22.341001 -25.513403 -25.510415 -22.340061 -25.510415 -18.424441 Z M -25.510415 -18.424441 " transform="matrix(0.994614, 0, 0, -0.994614, 28.193329, 28.194324)"/>
<path fill="none" stroke-width="1.84251" stroke-linecap="round" stroke-linejoin="round" stroke="rgb(44.999695%, 44.999695%, 44.999695%)" stroke-opacity="1" stroke-miterlimit="10" d="M -13.606457 -13.605517 L -13.606457 3.400137 " transform="matrix(0.994614, 0, 0, -0.994614, 28.193329, 28.194324)"/>
<path fill="none" stroke-width="1.84251" stroke-linecap="round" stroke-linejoin="round" stroke="rgb(44.999695%, 44.999695%, 44.999695%)" stroke-opacity="1" stroke-miterlimit="10" d="M 13.606517 -13.605517 L 13.606517 3.400137 " transform="matrix(0.994614, 0, 0, -0.994614, 28.193329, 28.194324)"/>
<path fill="none" stroke-width="1.84251" stroke-linecap="round" stroke-linejoin="round" stroke="rgb(44.999695%, 44.999695%, 44.999695%)" stroke-opacity="1" stroke-miterlimit="10" d="M -13.606457 3.400137 L -0.0019336 18.709153 " transform="matrix(0.994614, 0, 0, -0.994614, 28.193329, 28.194324)"/>
<path fill="none" stroke-width="1.84251" stroke-linecap="round" stroke-linejoin="round" stroke="rgb(44.999695%, 44.999695%, 44.999695%)" stroke-opacity="1" stroke-miterlimit="10" d="M 13.606517 3.400137 L -0.0019336 18.709153 " transform="matrix(0.994614, 0, 0, -0.994614, 28.193329, 28.194324)"/>
<path fill="none" stroke-width="2.12599" stroke-linecap="round" stroke-linejoin="round" stroke="rgb(27.450562%, 54.902649%, 100%)" stroke-opacity="1" stroke-miterlimit="10" d="M -13.606457 -13.605517 L 13.606517 3.400137 " transform="matrix(0.994614, 0, 0, -0.994614, 28.193329, 28.194324)"/>
<path fill="none" stroke-width="2.12599" stroke-linecap="round" stroke-linejoin="round" stroke="rgb(27.450562%, 54.902649%, 100%)" stroke-opacity="1" stroke-miterlimit="10" d="M 13.606517 -13.605517 L -13.606457 3.400137 " transform="matrix(0.994614, 0, 0, -0.994614, 28.193329, 28.194324)"/>
<path fill-rule="nonzero" fill="rgb(27.450562%, 54.902649%, 100%)" fill-opacity="1" stroke-width="1.98427" stroke-linecap="round" stroke-linejoin="round" stroke="rgb(0%, 0%, 0%)" stroke-opacity="1" stroke-miterlimit="10" d="M -10.617704 -13.605517 C -10.617704 -11.956008 -11.956948 -10.616764 -13.606457 -10.616764 C -15.255966 -10.616764 -16.595211 -11.956008 -16.595211 -13.605517 C -16.595211 -15.258954 -15.255966 -16.594271 -13.606457 -16.594271 C -11.956948 -16.594271 -10.617704 -15.258954 -10.617704 -13.605517 Z M -10.617704 -13.605517 " transform="matrix(0.994614, 0, 0, -0.994614, 28.193329, 28.194324)"/>
<path fill-rule="nonzero" fill="rgb(27.450562%, 54.902649%, 100%)" fill-opacity="1" stroke-width="1.98427" stroke-linecap="round" stroke-linejoin="round" stroke="rgb(0%, 0%, 0%)" stroke-opacity="1" stroke-miterlimit="10" d="M 16.595271 -13.605517 C 16.595271 -11.956008 15.256026 -10.616764 13.606517 -10.616764 C 11.957008 -10.616764 10.617764 -11.956008 10.617764 -13.605517 C 10.617764 -15.258954 11.957008 -16.594271 13.606517 -16.594271 C 15.256026 -16.594271 16.595271 -15.258954 16.595271 -13.605517 Z M 16.595271 -13.605517 " transform="matrix(0.994614, 0, 0, -0.994614, 28.193329, 28.194324)"/>
<path fill-rule="nonzero" fill="rgb(27.450562%, 54.902649%, 100%)" fill-opacity="1" stroke-width="1.98427" stroke-linecap="round" stroke-linejoin="round" stroke="rgb(0%, 0%, 0%)" stroke-opacity="1" stroke-miterlimit="10" d="M -10.617704 3.400137 C -10.617704 5.053574 -11.956948 6.388891 -13.606457 6.388891 C -15.255966 6.388891 -16.595211 5.053574 -16.595211 3.400137 C -16.595211 1.750628 -15.255966 0.411383 -13.606457 0.411383 C -11.956948 0.411383 -10.617704 1.750628 -10.617704 3.400137 Z M -10.617704 3.400137 " transform="matrix(0.994614, 0, 0, -0.994614, 28.193329, 28.194324)"/>
<path fill-rule="nonzero" fill="rgb(27.450562%, 54.902649%, 100%)" fill-opacity="1" stroke-width="1.98427" stroke-linecap="round" stroke-linejoin="round" stroke="rgb(0%, 0%, 0%)" stroke-opacity="1" stroke-miterlimit="10" d="M 16.595271 3.400137 C 16.595271 5.053574 15.256026 6.388891 13.606517 6.388891 C 11.957008 6.388891 10.617764 5.053574 10.617764 3.400137 C 10.617764 1.750628 11.957008 0.411383 13.606517 0.411383 C 15.256026 0.411383 16.595271 1.750628 16.595271 3.400137 Z M 16.595271 3.400137 " transform="matrix(0.994614, 0, 0, -0.994614, 28.193329, 28.194324)"/>
<path fill-rule="nonzero" fill="rgb(27.450562%, 54.902649%, 100%)" fill-opacity="1" stroke-width="1.98427" stroke-linecap="round" stroke-linejoin="round" stroke="rgb(0%, 0%, 0%)" stroke-opacity="1" stroke-miterlimit="10" d="M 2.990747 18.709153 C 2.990747 20.358663 1.651503 21.697907 -0.0019336 21.697907 C -1.651443 21.697907 -2.990687 20.358663 -2.990687 18.709153 C -2.990687 17.059644 -1.651443 15.7204 -0.0019336 15.7204 C 1.651503 15.7204 2.990747 17.059644 2.990747 18.709153 Z M 2.990747 18.709153 " transform="matrix(0.994614, 0, 0, -0.994614, 28.193329, 28.194324)"/>
</svg>
