<?xml version="1.0" encoding="UTF-8"?>
<svg xmlns="http://www.w3.org/2000/svg" xmlns:xlink="http://www.w3.org/1999/xlink" width="56.693" height="56.693" viewBox="0 0 56.693 56.693">
<path fill="none" stroke-width="3.4016" stroke-linecap="round" stroke-linejoin="round" stroke="rgb(0%, 0%, 0%)" stroke-opacity="1" stroke-miterlimit="10" d="M -25.510415 -18.424441 L -25.510415 18.42638 C -25.510415 22.338074 -22.341001 25.511415 -18.42538 25.511415 L 18.425441 25.511415 C 22.341061 25.511415 25.510475 22.338074 25.510475 18.42638 L 25.510475 -18.424441 C 25.510475 -22.340061 22.341061 -25.513403 18.425441 -25.513403 L -18.42538 -25.513403 C -22.341001 -25.513403 -25.510415 -22.340061 -25.510415 -18.424441 Z M -25.510415 -18.424441 " transform="matrix(0.994614, 0, 0, -0.994614, 28.193329, 28.194324)"/>
<path fill="none" stroke-width="2.26773" stroke-linecap="round" stroke-linejoin="round" stroke="rgb(0%, 0%, 0%)" stroke-opacity="1" stroke-miterlimit="10" d="M 17.007648 -0.0009938 C 17.007648 9.393354 9.392414 17.008588 -0.0019336 17.008588 C -9.392354 17.008588 -17.007588 9.393354 -17.007588 -0.0009938 C -17.007588 -9.395341 -9.392354 -17.006648 -0.0019336 -17.006648 C 9.392414 -17.006648 17.007648 -9.395341 17.007648 -0.0009938 Z M 17.007648 -0.0009938 " transform="matrix(0.994614, 0, 0, -0.994614, 28.193329, 28.194324)"/>
<path fill="none" stroke-width="2.26773" stroke-linecap="round" stroke-linejoin="round" stroke="rgb(27.450562%, 54.902649%, 100%)" stroke-opacity="1" stroke-miterlimit="10" d="M -0.0019336 17.008588 C -3.980393 8.474342 -8.473342 3.981393 -12.659953 2.025546 " transform="matrix(0.994614, 0, 0, -0.994614, 28.193329, 28.194324)"/>
<path fill-rule="nonzero" fill="rgb(27.450562%, 54.902649%, 100%)" fill-opacity="1" d="M 11.277344 28.195312 L 19.808594 28.425781 L 15.601562 26.179688 L 16.582031 21.511719 "/>
<path fill="none" stroke-width="2.26773" stroke-linecap="round" stroke-linejoin="round" stroke="rgb(27.450562%, 54.902649%, 100%)" stroke-opacity="1" stroke-miterlimit="10" d="M -17.007588 -0.0009938 C -8.473342 -3.979453 -3.980393 -8.472402 -2.028473 -12.662941 " transform="matrix(0.994614, 0, 0, -0.994614, 28.193329, 28.194324)"/>
<path fill-rule="nonzero" fill="rgb(27.450562%, 54.902649%, 100%)" fill-opacity="1" d="M 28.191406 45.109375 L 28.425781 36.582031 L 26.175781 40.789062 L 21.507812 39.804688 "/>
<path fill="none" stroke-width="2.26773" stroke-linecap="round" stroke-linejoin="round" stroke="rgb(27.450562%, 54.902649%, 100%)" stroke-opacity="1" stroke-miterlimit="10" d="M -0.0019336 -17.006648 C 3.980453 -8.472402 8.473402 -3.979453 12.660013 -2.027534 " transform="matrix(0.994614, 0, 0, -0.994614, 28.193329, 28.194324)"/>
<path fill-rule="nonzero" fill="rgb(27.450562%, 54.902649%, 100%)" fill-opacity="1" d="M 45.109375 28.195312 L 36.578125 27.960938 L 40.785156 30.210938 L 39.804688 34.878906 "/>
<path fill="none" stroke-width="2.26773" stroke-linecap="round" stroke-linejoin="round" stroke="rgb(27.450562%, 54.902649%, 100%)" stroke-opacity="1" stroke-miterlimit="10" d="M 17.007648 -0.0009938 C 8.473402 3.981393 3.980453 8.474342 2.028534 12.660953 " transform="matrix(0.994614, 0, 0, -0.994614, 28.193329, 28.194324)"/>
<path fill-rule="nonzero" fill="rgb(27.450562%, 54.902649%, 100%)" fill-opacity="1" d="M 28.191406 11.277344 L 27.960938 19.808594 L 30.210938 15.601562 L 34.878906 16.582031 "/>
<path fill-rule="nonzero" fill="rgb(27.450562%, 54.902649%, 100%)" fill-opacity="1" stroke-width="1.98427" stroke-linecap="round" stroke-linejoin="round" stroke="rgb(0%, 0%, 0%)" stroke-opacity="1" stroke-miterlimit="10" d="M 2.990747 17.008588 C 2.990747 18.658097 1.651503 19.997342 -0.0019336 19.997342 C -1.651443 19.997342 -2.990687 18.658097 -2.990687 17.008588 C -2.990687 15.359079 -1.651443 14.019834 -0.0019336 14.019834 C 1.651503 14.019834 2.990747 15.359079 2.990747 17.008588 Z M 2.990747 17.008588 " transform="matrix(0.994614, 0, 0, -0.994614, 28.193329, 28.194324)"/>
<path fill-rule="nonzero" fill="rgb(27.450562%, 54.902649%, 100%)" fill-opacity="1" stroke-width="1.98427" stroke-linecap="round" stroke-linejoin="round" stroke="rgb(0%, 0%, 0%)" stroke-opacity="1" stroke-miterlimit="10" d="M -14.018834 -0.0009938 C -14.018834 1.652443 -15.358079 2.98776 -17.007588 2.98776 C -18.657097 2.98776 -19.996342 1.652443 -19.996342 -0.0009938 C -19.996342 -1.650503 -18.657097 -2.989747 -17.007588 -2.989747 C -15.358079 -2.989747 -14.018834 -1.650503 -14.018834 -0.0009938 Z M -14.018834 -0.0009938 " transform="matrix(0.994614, 0, 0, -0.994614, 28.193329, 28.194324)"/>
<path fill-rule="nonzero" fill="rgb(27.450562%, 54.902649%, 100%)" fill-opacity="1" stroke-width="1.98427" stroke-linecap="round" stroke-linejoin="round" stroke="rgb(0%, 0%, 0%)" stroke-opacity="1" stroke-miterlimit="10" d="M 2.990747 -17.006648 C 2.990747 -15.357139 1.651503 -14.017895 -0.0019336 -14.017895 C -1.651443 -14.017895 -2.990687 -15.357139 -2.990687 -17.006648 C -2.990687 -18.660085 -1.651443 -19.995402 -0.0019336 -19.995402 C 1.651503 -19.995402 2.990747 -18.660085 2.990747 -17.006648 Z M 2.990747 -17.006648 " transform="matrix(0.994614, 0, 0, -0.994614, 28.193329, 28.194324)"/>
<path fill-rule="nonzero" fill="rgb(27.450562%, 54.902649%, 100%)" fill-opacity="1" stroke-width="1.98427" stroke-linecap="round" stroke-linejoin="round" stroke="rgb(0%, 0%, 0%)" stroke-opacity="1" stroke-miterlimit="10" d="M 19.996402 -0.0009938 C 19.996402 1.652443 18.657157 2.98776 17.007648 2.98776 C 15.358139 2.98776 14.018895 1.652443 14.018895 -0.0009938 C 14.018895 -1.650503 15.358139 -2.989747 17.007648 -2.989747 C 18.657157 -2.989747 19.996402 -1.650503 19.996402 -0.0009938 Z M 19.996402 -0.0009938 " transform="matrix(0.994614, 0, 0, -0.994614, 28.193329, 28.194324)"/>
<path fill-rule="nonzero" fill="rgb(0%, 0%, 0%)" fill-opacity="1" stroke-width="1.98427" stroke-linecap="round" stroke-linejoin="round" stroke="rgb(0%, 0%, 0%)" stroke-opacity="1" stroke-miterlimit="10" d="M -9.038888 12.024714 C -9.038888 13.67815 -10.374205 15.013467 -12.027641 15.013467 C -13.67715 15.013467 -15.016395 13.67815 -15.016395 12.024714 C -15.016395 10.375205 -13.67715 9.03596 -12.027641 9.03596 C -10.374205 9.03596 -9.038888 10.375205 -9.038888 12.024714 Z M -9.038888 12.024714 " transform="matrix(0.994614, 0, 0, -0.994614, 28.193329, 28.194324)"/>
<path fill-rule="nonzero" fill="rgb(0%, 0%, 0%)" fill-opacity="1" stroke-width="1.98427" stroke-linecap="round" stroke-linejoin="round" stroke="rgb(0%, 0%, 0%)" stroke-opacity="1" stroke-miterlimit="10" d="M -9.038888 -12.026701 C -9.038888 -10.377192 -10.374205 -9.037948 -12.027641 -9.037948 C -13.67715 -9.037948 -15.016395 -10.377192 -15.016395 -12.026701 C -15.016395 -13.676211 -13.67715 -15.015455 -12.027641 -15.015455 C -10.374205 -15.015455 -9.038888 -13.676211 -9.038888 -12.026701 Z M -9.038888 -12.026701 " transform="matrix(0.994614, 0, 0, -0.994614, 28.193329, 28.194324)"/>
<path fill-rule="nonzero" fill="rgb(0%, 0%, 0%)" fill-opacity="1" stroke-width="1.98427" stroke-linecap="round" stroke-linejoin="round" stroke="rgb(0%, 0%, 0%)" stroke-opacity="1" stroke-miterlimit="10" d="M 15.016455 -12.026701 C 15.016455 -10.377192 13.677211 -9.037948 12.027701 -9.037948 C 10.374265 -9.037948 9.038948 -10.377192 9.038948 -12.026701 C 9.038948 -13.676211 10.374265 -15.015455 12.027701 -15.015455 C 13.677211 -15.015455 15.016455 -13.676211 15.016455 -12.026701 Z M 15.016455 -12.026701 " transform="matrix(0.994614, 0, 0, -0.994614, 28.193329, 28.194324)"/>
<path fill-rule="nonzero" fill="rgb(0%, 0%, 0%)" fill-opacity="1" stroke-width="1.98427" stroke-linecap="round" stroke-linejoin="round" stroke="rgb(0%, 0%, 0%)" stroke-opacity="1" stroke-miterlimit="10" d="M 15.016455 12.024714 C 15.016455 13.67815 13.677211 15.013467 12.027701 15.013467 C 10.374265 15.013467 9.038948 13.67815 9.038948 12.024714 C 9.038948 10.375205 10.374265 9.03596 12.027701 9.03596 C 13.677211 9.03596 15.016455 10.375205 15.016455 12.024714 Z M 15.016455 12.024714 " transform="matrix(0.994614, 0, 0, -0.994614, 28.193329, 28.194324)"/>
</svg>
