<?xml version="1.0" encoding="UTF-8" standalone="no"?>
<!DOCTYPE svg PUBLIC "-//W3C//DTD SVG 1.1//EN"
"http://www.w3.org/Graphics/SVG/1.1/DTD/svg11.dtd">

<svg x="0" y="0" width="123" height="109" viewBox="0 0 123 109" version="1.1" 
     xmlns="http://www.w3.org/2000/svg" xmlns:xlink="http://www.w3.org/1999/xlink"
style="display: block; margin-left: auto;margin-right: auto;">
<defs>
<clipPath id="c_1"><path d="M0,0H123V109H0Z"/></clipPath>
<style type="text/css"><![CDATA[
text { white-space: pre; }

.s1{
font-size: 0.9em;
font-family: sans-serif;
fill: #000000;
}
.s2{
font-size: 0.75em;
font-family: sans-serif;
fill: #000000;
}

.g0{
fill: none;
stroke: #7F7F7F;
stroke-width: 0.304;
stroke-linecap: butt;
stroke-linejoin: miter;
stroke-dasharray: 5,5;
}

.g1{
fill: none;
stroke: #000000;
stroke-width: 0.608;
stroke-linecap: butt;
stroke-linejoin: miter;
}

]]></style>

</defs>
<g clip-path="url(#c_1)">
<path d="M0,0
L0,109
L123,109
L123,0 Z " 
fill="#FFFFFF" stroke="none"/>
<path d="M1.3,91.6l15.2,15.3M1.3,46L46.9,91.6M1.3,.3L77.4,76.4M46.9,.3L92.6,46M92.6,.3l15.2,15.2" class="g0"/>
<path d="M1.3,.3H31.7V15.5H1.3V.3m0,15.2H16.5V61.2H1.3V15.5m0,45.7H16.5v45.7H1.3V61.2M31.7,.3H46.9V30.7H16.5V15.5H31.7V.3m15.2,0H77.4V15.5H62.2V30.7H46.9V.3M16.5,30.7V46H62.2V30.7H16.5m0,15.3V61.2H62.2V46H16.5M62.2,15.5H77.4V61.2H62.2V15.5M77.4,.3H92.6V46H77.4V.3m15.2,0H123V15.5H107.8V30.7H92.6V.3M16.5,61.2H46.9V76.4H31.7V91.6H16.5V61.2m30.4,0H62.2V91.6H31.7V76.4H46.9V61.2M77.4,46H92.6V76.4H62.2V61.2H77.4V46" class="g1"/>
<text x="5" y="58" class="s1">1</text>
<text x="5" y="104" class="s1">2</text>
<text x="20" y="27" class="s1">3</text>
<text x="50" y="27" class="s1">4</text>
<text x="20" y="43" class="s1">5</text>
<text x="20" y="58" class="s1">6</text>
<text x="65" y="58" class="s1">7</text>
<text x="81" y="43" class="s1">8</text>
<text x="96" y="27" class="s1">9</text>
<text x="17" y="88" dx="0,0,1.1,0" class="s2">1011</text>
<text x="62" y="73" class="s2">12</text>

</g>


</svg>
