<?xml version="1.0" encoding="UTF-8"?>
<svg xmlns="http://www.w3.org/2000/svg" xmlns:xlink="http://www.w3.org/1999/xlink" width="158.74" height="76.535" viewBox="0 0 158.74 76.535">
<path fill-rule="nonzero" fill="rgb(45.588684%, 66.175842%, 100%)" fill-opacity="1" stroke-width="0.49814" stroke-linecap="round" stroke-linejoin="round" stroke="rgb(0%, 0%, 0%)" stroke-opacity="1" stroke-miterlimit="10" d="M -58.453156 20.409157 C -58.453156 21.784651 -59.569272 22.900766 -60.944766 22.900766 C -62.32026 22.900766 -63.436375 21.784651 -63.436375 20.409157 C -63.436375 19.033663 -62.32026 17.917548 -60.944766 17.917548 C -59.569272 17.917548 -58.453156 19.033663 -58.453156 20.409157 Z M -58.453156 20.409157 " transform="matrix(0.993961, 0, 0, -0.993961, 79.240785, 38.035907)"/>
<path fill-rule="nonzero" fill="rgb(45.588684%, 66.175842%, 100%)" fill-opacity="1" stroke-width="0.49814" stroke-linecap="round" stroke-linejoin="round" stroke="rgb(0%, 0%, 0%)" stroke-opacity="1" stroke-miterlimit="10" d="M -41.44812 20.409157 C -41.44812 21.784651 -42.560305 22.900766 -43.935799 22.900766 C -45.311293 22.900766 -46.427408 21.784651 -46.427408 20.409157 C -46.427408 19.033663 -45.311293 17.917548 -43.935799 17.917548 C -42.560305 17.917548 -41.44812 19.033663 -41.44812 20.409157 Z M -41.44812 20.409157 " transform="matrix(0.993961, 0, 0, -0.993961, 79.240785, 38.035907)"/>
<path fill-rule="nonzero" fill="rgb(45.588684%, 66.175842%, 100%)" fill-opacity="1" stroke-width="0.49814" stroke-linecap="round" stroke-linejoin="round" stroke="rgb(0%, 0%, 0%)" stroke-opacity="1" stroke-miterlimit="10" d="M -24.439153 20.409157 C -24.439153 21.784651 -25.555269 22.900766 -26.930763 22.900766 C -28.306257 22.900766 -29.418442 21.784651 -29.418442 20.409157 C -29.418442 19.033663 -28.306257 17.917548 -26.930763 17.917548 C -25.555269 17.917548 -24.439153 19.033663 -24.439153 20.409157 Z M -24.439153 20.409157 " transform="matrix(0.993961, 0, 0, -0.993961, 79.240785, 38.035907)"/>
<path fill="none" stroke-width="0.89664" stroke-linecap="round" stroke-linejoin="round" stroke="rgb(0%, 0%, 0%)" stroke-opacity="1" stroke-miterlimit="10" d="M -60.944766 20.409157 L -26.930763 20.409157 " transform="matrix(0.993961, 0, 0, -0.993961, 79.240785, 38.035907)"/>
<path fill-rule="nonzero" fill="rgb(45.588684%, 66.175842%, 100%)" fill-opacity="1" stroke-width="0.49814" stroke-linecap="round" stroke-linejoin="round" stroke="rgb(0%, 0%, 0%)" stroke-opacity="1" stroke-miterlimit="10" d="M 22.331574 20.409157 C 22.331574 21.784651 21.219389 22.900766 19.843895 22.900766 C 18.468401 22.900766 17.352286 21.784651 17.352286 20.409157 C 17.352286 19.033663 18.468401 17.917548 19.843895 17.917548 C 21.219389 17.917548 22.331574 19.033663 22.331574 20.409157 Z M 22.331574 20.409157 " transform="matrix(0.993961, 0, 0, -0.993961, 79.240785, 38.035907)"/>
<path fill-rule="nonzero" fill="rgb(45.588684%, 66.175842%, 100%)" fill-opacity="1" stroke-width="0.49814" stroke-linecap="round" stroke-linejoin="round" stroke="rgb(0%, 0%, 0%)" stroke-opacity="1" stroke-miterlimit="10" d="M 39.340541 20.409157 C 39.340541 21.784651 38.228356 22.900766 36.852862 22.900766 C 35.473438 22.900766 34.361252 21.784651 34.361252 20.409157 C 34.361252 19.033663 35.473438 17.917548 36.852862 17.917548 C 38.228356 17.917548 39.340541 19.033663 39.340541 20.409157 Z M 39.340541 20.409157 " transform="matrix(0.993961, 0, 0, -0.993961, 79.240785, 38.035907)"/>
<path fill-rule="nonzero" fill="rgb(45.588684%, 66.175842%, 100%)" fill-opacity="1" stroke-width="0.49814" stroke-linecap="round" stroke-linejoin="round" stroke="rgb(0%, 0%, 0%)" stroke-opacity="1" stroke-miterlimit="10" d="M 56.349507 20.409157 C 56.349507 21.784651 55.233392 22.900766 53.857898 22.900766 C 52.482404 22.900766 51.366289 21.784651 51.366289 20.409157 C 51.366289 19.033663 52.482404 17.917548 53.857898 17.917548 C 55.233392 17.917548 56.349507 19.033663 56.349507 20.409157 Z M 56.349507 20.409157 " transform="matrix(0.993961, 0, 0, -0.993961, 79.240785, 38.035907)"/>
<path fill="none" stroke-width="0.89664" stroke-linecap="round" stroke-linejoin="round" stroke="rgb(0%, 0%, 0%)" stroke-opacity="1" stroke-miterlimit="10" d="M 19.843895 20.409157 L 36.852862 20.409157 " transform="matrix(0.993961, 0, 0, -0.993961, 79.240785, 38.035907)"/>
<path fill="none" stroke-width="0.89664" stroke-linecap="round" stroke-linejoin="round" stroke="rgb(0%, 0%, 0%)" stroke-opacity="1" stroke-miterlimit="10" d="M 36.852862 22.393799 L 53.857898 22.393799 " transform="matrix(0.993961, 0, 0, -0.993961, 79.240785, 38.035907)"/>
<path fill="none" stroke-width="0.89664" stroke-linecap="round" stroke-linejoin="round" stroke="rgb(0%, 0%, 0%)" stroke-opacity="1" stroke-miterlimit="10" d="M 36.852862 18.424516 L 53.857898 18.424516 " transform="matrix(0.993961, 0, 0, -0.993961, 79.240785, 38.035907)"/>
<path fill-rule="nonzero" fill="rgb(45.588684%, 66.175842%, 100%)" fill-opacity="1" stroke-width="0.49814" stroke-linecap="round" stroke-linejoin="round" stroke="rgb(0%, 0%, 0%)" stroke-opacity="1" stroke-miterlimit="10" d="M -41.44812 -15.589487 C -41.44812 -14.213993 -42.560305 -13.101808 -43.935799 -13.101808 C -45.311293 -13.101808 -46.427408 -14.213993 -46.427408 -15.589487 C -46.427408 -16.964981 -45.311293 -18.081096 -43.935799 -18.081096 C -42.560305 -18.081096 -41.44812 -16.964981 -41.44812 -15.589487 Z M -41.44812 -15.589487 " transform="matrix(0.993961, 0, 0, -0.993961, 79.240785, 38.035907)"/>
<path fill-rule="nonzero" fill="rgb(45.588684%, 66.175842%, 100%)" fill-opacity="1" stroke-width="0.49814" stroke-linecap="round" stroke-linejoin="round" stroke="rgb(0%, 0%, 0%)" stroke-opacity="1" stroke-miterlimit="10" d="M -58.453156 -15.589487 C -58.453156 -14.213993 -59.569272 -13.101808 -60.944766 -13.101808 C -62.32026 -13.101808 -63.436375 -14.213993 -63.436375 -15.589487 C -63.436375 -16.964981 -62.32026 -18.081096 -60.944766 -18.081096 C -59.569272 -18.081096 -58.453156 -16.964981 -58.453156 -15.589487 Z M -58.453156 -15.589487 " transform="matrix(0.993961, 0, 0, -0.993961, 79.240785, 38.035907)"/>
<path fill-rule="nonzero" fill="rgb(45.588684%, 66.175842%, 100%)" fill-opacity="1" stroke-width="0.49814" stroke-linecap="round" stroke-linejoin="round" stroke="rgb(0%, 0%, 0%)" stroke-opacity="1" stroke-miterlimit="10" d="M -24.439153 -15.589487 C -24.439153 -14.213993 -25.555269 -13.101808 -26.930763 -13.101808 C -28.306257 -13.101808 -29.418442 -14.213993 -29.418442 -15.589487 C -29.418442 -16.964981 -28.306257 -18.081096 -26.930763 -18.081096 C -25.555269 -18.081096 -24.439153 -16.964981 -24.439153 -15.589487 Z M -24.439153 -15.589487 " transform="matrix(0.993961, 0, 0, -0.993961, 79.240785, 38.035907)"/>
<path fill-rule="nonzero" fill="rgb(45.588684%, 66.175842%, 100%)" fill-opacity="1" stroke-width="0.49814" stroke-linecap="round" stroke-linejoin="round" stroke="rgb(0%, 0%, 0%)" stroke-opacity="1" stroke-miterlimit="10" d="M -41.44812 1.415549 C -41.44812 2.791043 -42.560305 3.907159 -43.935799 3.907159 C -45.311293 3.907159 -46.427408 2.791043 -46.427408 1.415549 C -46.427408 0.0400552 -45.311293 -1.07213 -43.935799 -1.07213 C -42.560305 -1.07213 -41.44812 0.0400552 -41.44812 1.415549 Z M -41.44812 1.415549 " transform="matrix(0.993961, 0, 0, -0.993961, 79.240785, 38.035907)"/>
<path fill="none" stroke-width="0.89664" stroke-linecap="round" stroke-linejoin="round" stroke="rgb(0%, 0%, 0%)" stroke-opacity="1" stroke-miterlimit="10" d="M -58.205567 -15.589487 L -46.678927 -15.589487 M -41.196601 -15.589487 L -29.669961 -15.589487 " transform="matrix(0.993961, 0, 0, -0.993961, 79.240785, 38.035907)"/>
<path fill="none" stroke-width="0.89664" stroke-linecap="round" stroke-linejoin="round" stroke="rgb(0%, 0%, 0%)" stroke-opacity="1" stroke-miterlimit="10" d="M -43.935799 -12.850289 L -43.935799 -1.323649 " transform="matrix(0.993961, 0, 0, -0.993961, 79.240785, 38.035907)"/>
<path fill-rule="nonzero" fill="rgb(45.588684%, 66.175842%, 100%)" fill-opacity="1" stroke-width="0.49814" stroke-linecap="round" stroke-linejoin="round" stroke="rgb(0%, 0%, 0%)" stroke-opacity="1" stroke-miterlimit="10" d="M 25.169022 -25.512694 C 25.169022 -24.1372 24.052907 -23.021085 22.677413 -23.021085 C 21.301919 -23.021085 20.185804 -24.1372 20.185804 -25.512694 C 20.185804 -26.888188 21.301919 -28.004304 22.677413 -28.004304 C 24.052907 -28.004304 25.169022 -26.888188 25.169022 -25.512694 Z M 25.169022 -25.512694 " transform="matrix(0.993961, 0, 0, -0.993961, 79.240785, 38.035907)"/>
<path fill-rule="nonzero" fill="rgb(45.588684%, 66.175842%, 100%)" fill-opacity="1" stroke-width="0.49814" stroke-linecap="round" stroke-linejoin="round" stroke="rgb(0%, 0%, 0%)" stroke-opacity="1" stroke-miterlimit="10" d="M 53.51599 -25.512694 C 53.51599 -24.1372 52.399874 -23.021085 51.02438 -23.021085 C 49.648886 -23.021085 48.532771 -24.1372 48.532771 -25.512694 C 48.532771 -26.888188 49.648886 -28.004304 51.02438 -28.004304 C 52.399874 -28.004304 53.51599 -26.888188 53.51599 -25.512694 Z M 53.51599 -25.512694 " transform="matrix(0.993961, 0, 0, -0.993961, 79.240785, 38.035907)"/>
<path fill-rule="nonzero" fill="rgb(45.588684%, 66.175842%, 100%)" fill-opacity="1" stroke-width="0.49814" stroke-linecap="round" stroke-linejoin="round" stroke="rgb(0%, 0%, 0%)" stroke-opacity="1" stroke-miterlimit="10" d="M 39.340541 -1.417968 C 39.340541 -0.0424744 38.228356 1.073641 36.852862 1.073641 C 35.473438 1.073641 34.361252 -0.0424744 34.361252 -1.417968 C 34.361252 -2.793463 35.473438 -3.909578 36.852862 -3.909578 C 38.228356 -3.909578 39.340541 -2.793463 39.340541 -1.417968 Z M 39.340541 -1.417968 " transform="matrix(0.993961, 0, 0, -0.993961, 79.240785, 38.035907)"/>
<path fill="none" stroke-width="0.89664" stroke-linecap="round" stroke-linejoin="round" stroke="rgb(0%, 0%, 0%)" stroke-opacity="1" stroke-miterlimit="10" d="M 25.416611 -25.512694 L 48.285182 -25.512694 M 49.637096 -23.150775 L 38.240146 -3.779888 M 35.461648 -3.779888 L 24.064697 -23.150775 " transform="matrix(0.993961, 0, 0, -0.993961, 79.240785, 38.035907)"/>
</svg>
