<svg xmlns="http://www.w3.org/2000/svg" xmlns:xlink="http://www.w3.org/1999/xlink"
id="miscSVG" viewBox="0 0 500 500">
	<style>
		.svgIconBGColor {
			fill: none;
		}
		.strokeColor {
			stroke: white;
			fill: white;
		}
		.lineClass {
			stroke-width: 2%;
		}
		.circ {
			stroke-width: 2%;
			fill: none;
		}
	</style>

	<rect width="100%" height="100%" class="svgIconBGColor"/>
	<circle class="strokeColor circ" cx="50%" cy="50%" r="40%"/>
	<circle class="circVert strokeColor" cx="50%" cy="90%" r="2%"/>
	<circle class="circVert strokeColor" cx="50%" cy="10%" r="2%"/>
	<circle class="circVert strokeColor" cx="85%" cy="70%" r="2%"/>
	<circle class="circVert strokeColor" cx="85%" cy="30%" r="2%"/>
	<circle class="circVert strokeColor" cx="15%" cy="70%" r="2%"/>
	<circle class="circVert strokeColor" cx="15%" cy="30%" r="2%"/>
	<circle class="circVert strokeColor" cx="90%" cy="50%" r="2%"/>
	<circle class="circVert strokeColor" cx="10%" cy="50%" r="2%"/>
	<circle class="circVert strokeColor" cx="70%" cy="85%" r="2%"/>
	<circle class="circVert strokeColor" cx="30%" cy="85%" r="2%"/>
	<circle class="circVert strokeColor" cx="70%" cy="15%" r="2%"/>
	<circle class="circVert strokeColor" cx="30%" cy="15%" r="2%"/>

	<line class="lineClass  strokeColor" x1="30%" y1="15%" x2="15%" y2="70%"/>
	<line class="lineClass  strokeColor" x1="15%" y1="30%" x2="30%" y2="85%"/>
	<line class="lineClass  strokeColor" x1="50%" y1="10%" x2="70%" y2="85%"/>
	<line class="lineClass  strokeColor" x1="50%" y1="90%" x2="85%" y2="70%"/>
	<line class="lineClass  strokeColor" x1="70%" y1="15%" x2="90%" y2="50%"/>
	<line class="lineClass  strokeColor" x1="85%" y1="30%" x2="10%" y2="50%"/>
</svg>
