<svg xmlns="http://www.w3.org/2000/svg" xmlns:xlink="http://www.w3.org/1999/xlink"
id="miscSVG" viewBox="0 0 500 500">
	<style>
		.svgIconBGColor {
			fill: none;
		}
		.strokeColor {
			stroke: white;
			fill: white;
		}
	.lineClass {
		stroke-width: 2%;
	}
	</style>
	<rect width="100%" height="100%" class="svgIconBGColor"/>
	<circle class="strokeColor" cx="10%" cy="10%" r="4%"/>
	<circle class="strokeColor" cx="10%" cy="30%" r="4%"/>
	<circle class="strokeColor" cx="30%" cy="30%" r="4%"/>
	<circle class="strokeColor" cx="30%" cy="50%" r="4%"/>
	<circle class="strokeColor" cx="50%" cy="50%" r="4%"/>
	<circle class="strokeColor" cx="70%" cy="50%" r="4%"/>
	<circle class="strokeColor" cx="70%" cy="70%" r="4%"/>
	<circle class="strokeColor" cx="70%" cy="90%" r="4%"/>
	<circle class="strokeColor" cx="90%" cy="90%" r="4%"/>
	
	<line class="lineClass strokeColor" x1="10%" y1="10%" x2="10%" y2="30%"/>
	<line class="lineClass strokeColor" x1="10%" y1="30%" x2="30%" y2="30%"/>
	<line class="lineClass strokeColor" x1="30%" y1="30%" x2="30%" y2="50%"/>
	<line class="lineClass strokeColor" x1="30%" y1="50%" x2="50%" y2="50%"/>
	<line class="lineClass strokeColor" x1="50%" y1="50%" x2="70%" y2="50%"/>
	<line class="lineClass strokeColor" x1="70%" y1="50%" x2="70%" y2="70%"/>
	<line class="lineClass strokeColor" x1="70%" y1="70%" x2="70%" y2="90%"/>
	<line class="lineClass strokeColor" x1="70%" y1="90%" x2="90%" y2="90%"/>
</svg>
