<?xml version="1.0" encoding="UTF-8"?>
<svg xmlns="http://www.w3.org/2000/svg" xmlns:xlink="http://www.w3.org/1999/xlink" width="195.59" height="70.866" viewBox="0 0 195.59 70.866">
<defs>
<clipPath id="clip-0">
<path clip-rule="nonzero" d="M 163 14 L 195.179688 14 L 195.179688 57 L 163 57 Z M 163 14 "/>
</clipPath>
</defs>
<path fill-rule="nonzero" fill="rgb(45.588684%, 66.175842%, 100%)" fill-opacity="1" stroke-width="0.49814" stroke-linecap="round" stroke-linejoin="round" stroke="rgb(0%, 0%, 0%)" stroke-opacity="1" stroke-miterlimit="10" d="M -82.548263 15.590158 C -82.548263 16.968041 -83.663877 18.079741 -85.04176 18.079741 C -86.415728 18.079741 -87.531343 16.968041 -87.531343 15.590158 C -87.531343 14.216191 -86.415728 13.100576 -85.04176 13.100576 C -83.663877 13.100576 -82.548263 14.216191 -82.548263 15.590158 Z M -82.548263 15.590158 " transform="matrix(0.997908, 0, 0, -0.997908, 97.590429, 35.36614)"/>
<path fill-rule="nonzero" fill="rgb(45.588684%, 66.175842%, 100%)" fill-opacity="1" stroke-width="0.49814" stroke-linecap="round" stroke-linejoin="round" stroke="rgb(0%, 0%, 0%)" stroke-opacity="1" stroke-miterlimit="10" d="M -82.548263 -0.00104954 C -82.548263 1.376833 -83.663877 2.492448 -85.04176 2.492448 C -86.415728 2.492448 -87.531343 1.376833 -87.531343 -0.00104954 C -87.531343 -1.375017 -86.415728 -2.490632 -85.04176 -2.490632 C -83.663877 -2.490632 -82.548263 -1.375017 -82.548263 -0.00104954 Z M -82.548263 -0.00104954 " transform="matrix(0.997908, 0, 0, -0.997908, 97.590429, 35.36614)"/>
<path fill-rule="nonzero" fill="rgb(45.588684%, 66.175842%, 100%)" fill-opacity="1" stroke-width="0.49814" stroke-linecap="round" stroke-linejoin="round" stroke="rgb(0%, 0%, 0%)" stroke-opacity="1" stroke-miterlimit="10" d="M -82.548263 -15.592258 C -82.548263 -14.214375 -83.663877 -13.09876 -85.04176 -13.09876 C -86.415728 -13.09876 -87.531343 -14.214375 -87.531343 -15.592258 C -87.531343 -16.966225 -86.415728 -18.08184 -85.04176 -18.08184 C -83.663877 -18.08184 -82.548263 -16.966225 -82.548263 -15.592258 Z M -82.548263 -15.592258 " transform="matrix(0.997908, 0, 0, -0.997908, 97.590429, 35.36614)"/>
<path fill="none" stroke-width="0.89664" stroke-linecap="round" stroke-linejoin="round" stroke="rgb(0%, 0%, 0%)" stroke-opacity="1" stroke-miterlimit="10" d="M -85.04176 12.850052 L -85.04176 2.739057 M -85.04176 -2.741156 L -85.04176 -12.852151 " transform="matrix(0.997908, 0, 0, -0.997908, 97.590429, 35.36614)"/>
<path fill-rule="nonzero" fill="rgb(86.941528%, 91.880798%, 100%)" fill-opacity="1" stroke-width="0.89664" stroke-linecap="round" stroke-linejoin="round" stroke="rgb(0%, 0%, 0%)" stroke-opacity="1" stroke-miterlimit="10" d="M -21.259901 -21.260364 L 21.258728 -21.260364 L 21.258728 21.258265 Z M -21.259901 -21.260364 " transform="matrix(0.997908, 0, 0, -0.997908, 97.590429, 35.36614)"/>
<path fill-rule="nonzero" fill="rgb(45.588684%, 66.175842%, 100%)" fill-opacity="1" stroke-width="0.49814" stroke-linecap="round" stroke-linejoin="round" stroke="rgb(0%, 0%, 0%)" stroke-opacity="1" stroke-miterlimit="10" d="M -18.770318 -21.260364 C -18.770318 -19.886396 -19.885933 -18.770782 -21.259901 -18.770782 C -22.633869 -18.770782 -23.749484 -19.886396 -23.749484 -21.260364 C -23.749484 -22.634332 -22.633869 -23.749947 -21.259901 -23.749947 C -19.885933 -23.749947 -18.770318 -22.634332 -18.770318 -21.260364 Z M -18.770318 -21.260364 " transform="matrix(0.997908, 0, 0, -0.997908, 97.590429, 35.36614)"/>
<path fill-rule="nonzero" fill="rgb(45.588684%, 66.175842%, 100%)" fill-opacity="1" stroke-width="0.49814" stroke-linecap="round" stroke-linejoin="round" stroke="rgb(0%, 0%, 0%)" stroke-opacity="1" stroke-miterlimit="10" d="M 23.752226 -21.260364 C 23.752226 -19.886396 22.636611 -18.770782 21.258728 -18.770782 C 19.884761 -18.770782 18.769146 -19.886396 18.769146 -21.260364 C 18.769146 -22.634332 19.884761 -23.749947 21.258728 -23.749947 C 22.636611 -23.749947 23.752226 -22.634332 23.752226 -21.260364 Z M 23.752226 -21.260364 " transform="matrix(0.997908, 0, 0, -0.997908, 97.590429, 35.36614)"/>
<path fill-rule="nonzero" fill="rgb(45.588684%, 66.175842%, 100%)" fill-opacity="1" stroke-width="0.49814" stroke-linecap="round" stroke-linejoin="round" stroke="rgb(0%, 0%, 0%)" stroke-opacity="1" stroke-miterlimit="10" d="M 23.752226 21.258265 C 23.752226 22.636148 22.636611 23.751762 21.258728 23.751762 C 19.884761 23.751762 18.769146 22.636148 18.769146 21.258265 C 18.769146 19.884297 19.884761 18.768682 21.258728 18.768682 C 22.636611 18.768682 23.752226 19.884297 23.752226 21.258265 Z M 23.752226 21.258265 " transform="matrix(0.997908, 0, 0, -0.997908, 97.590429, 35.36614)"/>
<path fill-rule="nonzero" fill="rgb(0%, 0%, 0%)" fill-opacity="1" d="M 91.511719 42.4375 C 91.511719 41.890625 91.066406 41.445312 90.519531 41.445312 C 89.96875 41.445312 89.523438 41.890625 89.523438 42.4375 C 89.523438 42.988281 89.96875 43.433594 90.519531 43.433594 C 91.066406 43.433594 91.511719 42.988281 91.511719 42.4375 Z M 91.511719 42.4375 "/>
<path fill-rule="nonzero" fill="rgb(0%, 0%, 0%)" fill-opacity="1" d="M 105.65625 42.4375 C 105.65625 41.890625 105.210938 41.445312 104.664062 41.445312 C 104.113281 41.445312 103.667969 41.890625 103.667969 42.4375 C 103.667969 42.988281 104.113281 43.433594 104.664062 43.433594 C 105.210938 43.433594 105.65625 42.988281 105.65625 42.4375 Z M 105.65625 42.4375 "/>
<path fill-rule="nonzero" fill="rgb(0%, 0%, 0%)" fill-opacity="1" d="M 105.65625 28.292969 C 105.65625 27.746094 105.210938 27.300781 104.664062 27.300781 C 104.113281 27.300781 103.667969 27.746094 103.667969 28.292969 C 103.667969 28.84375 104.113281 29.289062 104.664062 29.289062 C 105.210938 29.289062 105.65625 28.84375 105.65625 28.292969 Z M 105.65625 28.292969 "/>
<path fill="none" stroke-width="0.89664" stroke-linecap="round" stroke-linejoin="round" stroke="rgb(0%, 0%, 0%)" stroke-opacity="1" stroke-miterlimit="10" d="M -72.284605 -0.00104954 L -35.614147 -0.00104954 " transform="matrix(0.997908, 0, 0, -0.997908, 97.590429, 35.36614)"/>
<path fill-rule="nonzero" fill="rgb(0%, 0%, 0%)" fill-opacity="1" stroke-width="0.8406" stroke-linecap="round" stroke-linejoin="miter" stroke="rgb(0%, 0%, 0%)" stroke-opacity="1" stroke-miterlimit="10" d="M 3.786097 -0.00104954 L 1.359145 0.922758 L 2.173349 -0.00104954 L 1.359145 -0.924857 Z M 3.786097 -0.00104954 " transform="matrix(0.997908, 0, 0, -0.997908, 60.08901, 35.36614)"/>
<path fill="none" stroke-width="0.89664" stroke-linecap="round" stroke-linejoin="round" stroke="rgb(0%, 0%, 0%)" stroke-opacity="1" stroke-miterlimit="10" d="M 29.764803 -0.00104954 L 63.597294 -0.00104954 " transform="matrix(0.997908, 0, 0, -0.997908, 97.590429, 35.36614)"/>
<path fill-rule="nonzero" fill="rgb(0%, 0%, 0%)" fill-opacity="1" stroke-width="0.8406" stroke-linecap="round" stroke-linejoin="miter" stroke="rgb(0%, 0%, 0%)" stroke-opacity="1" stroke-miterlimit="10" d="M 3.783718 -0.00104954 L 1.356766 0.922758 L 2.174884 -0.00104954 L 1.356766 -0.924857 Z M 3.783718 -0.00104954 " transform="matrix(0.997908, 0, 0, -0.997908, 159.095291, 35.36614)"/>
<g clip-path="url(#clip-0)">
<path fill="none" stroke-width="0.89664" stroke-linecap="round" stroke-linejoin="round" stroke="rgb(0%, 0%, 0%)" stroke-opacity="1" stroke-miterlimit="10" d="M 66.615326 -20.410931 L 66.615326 20.408832 L 97.797742 20.408832 " transform="matrix(0.997908, 0, 0, -0.997908, 97.590429, 35.36614)"/>
</g>
<path fill="none" stroke-width="4.98138" stroke-linecap="round" stroke-linejoin="round" stroke="rgb(37.255859%, 65.098572%, 48.234558%)" stroke-opacity="1" stroke-miterlimit="10" d="M 72.283433 -15.592258 L 72.283433 7.087998 " transform="matrix(0.997908, 0, 0, -0.997908, 97.590429, 35.36614)"/>
<path fill="none" stroke-width="4.98138" stroke-linecap="round" stroke-linejoin="round" stroke="rgb(88.627625%, 56.861877%, 26.275635%)" stroke-opacity="1" stroke-miterlimit="10" d="M 82.206534 -15.592258 L 82.206534 12.756105 " transform="matrix(0.997908, 0, 0, -0.997908, 97.590429, 35.36614)"/>
<path fill="none" stroke-width="4.98138" stroke-linecap="round" stroke-linejoin="round" stroke="rgb(80.39093%, 34.510803%, 32.939148%)" stroke-opacity="1" stroke-miterlimit="10" d="M 92.125721 -15.592258 L 92.125721 -1.418076 " transform="matrix(0.997908, 0, 0, -0.997908, 97.590429, 35.36614)"/>
</svg>
