<?xml version="1.0" encoding="UTF-8"?>
<svg xmlns="http://www.w3.org/2000/svg" xmlns:xlink="http://www.w3.org/1999/xlink" width="138.898" height="87.874" viewBox="0 0 138.898 87.874">
<path fill-rule="nonzero" fill="rgb(96.360779%, 86.196899%, 76.40686%)" fill-opacity="1" d="M 78.320312 62.417969 L 69.402344 47.082031 L 78.320312 31.742188 L 87.234375 47.082031 Z M 78.320312 62.417969 "/>
<path fill-rule="nonzero" fill="rgb(81.176758%, 89.529419%, 84.469604%)" fill-opacity="1" d="M 60.484375 62.417969 L 51.566406 47.082031 L 60.484375 31.742188 L 69.402344 47.082031 Z M 60.484375 62.417969 "/>
<path fill-rule="nonzero" fill="rgb(95.292664%, 84.281921%, 83.906555%)" fill-opacity="1" d="M 69.402344 47.082031 L 60.484375 31.742188 L 69.402344 16.40625 L 78.320312 31.742188 Z M 69.402344 47.082031 "/>
<path fill="none" stroke-width="0.89664" stroke-linecap="round" stroke-linejoin="round" stroke="rgb(0%, 0%, 0%)" stroke-opacity="1" stroke-miterlimit="10" d="M 0.00427685 -33.932307 L -8.926479 -18.570468 " transform="matrix(0.998568, 0, 0, -0.998568, 69.398073, 43.87409)"/>
<path fill="none" stroke-width="0.89664" stroke-linecap="round" stroke-linejoin="round" stroke="rgb(0%, 0%, 0%)" stroke-opacity="1" stroke-miterlimit="10" d="M 0.00427685 -33.932307 L 8.935033 -18.570468 " transform="matrix(0.998568, 0, 0, -0.998568, 69.398073, 43.87409)"/>
<path fill="none" stroke-width="0.89664" stroke-linecap="round" stroke-linejoin="round" stroke="rgb(0%, 0%, 0%)" stroke-opacity="1" stroke-miterlimit="10" d="M -8.926479 -18.570468 L -17.857235 -3.212541 " transform="matrix(0.998568, 0, 0, -0.998568, 69.398073, 43.87409)"/>
<path fill="none" stroke-width="0.89664" stroke-linecap="round" stroke-linejoin="round" stroke="rgb(0%, 0%, 0%)" stroke-opacity="1" stroke-miterlimit="10" d="M -8.926479 -18.570468 L 0.00427685 -3.212541 " transform="matrix(0.998568, 0, 0, -0.998568, 69.398073, 43.87409)"/>
<path fill="none" stroke-width="0.89664" stroke-linecap="round" stroke-linejoin="round" stroke="rgb(0%, 0%, 0%)" stroke-opacity="1" stroke-miterlimit="10" d="M 8.935033 -18.570468 L 0.00427685 -3.212541 " transform="matrix(0.998568, 0, 0, -0.998568, 69.398073, 43.87409)"/>
<path fill="none" stroke-width="0.89664" stroke-linecap="round" stroke-linejoin="round" stroke="rgb(0%, 0%, 0%)" stroke-opacity="1" stroke-miterlimit="10" d="M 8.935033 -18.570468 L 17.861877 -3.212541 " transform="matrix(0.998568, 0, 0, -0.998568, 69.398073, 43.87409)"/>
<path fill="none" stroke-width="0.89664" stroke-linecap="round" stroke-linejoin="round" stroke="rgb(0%, 0%, 0%)" stroke-opacity="1" stroke-miterlimit="10" d="M -17.857235 -3.212541 L -26.787991 12.149298 " transform="matrix(0.998568, 0, 0, -0.998568, 69.398073, 43.87409)"/>
<path fill="none" stroke-width="0.89664" stroke-linecap="round" stroke-linejoin="round" stroke="rgb(0%, 0%, 0%)" stroke-opacity="1" stroke-miterlimit="10" d="M -17.857235 -3.212541 L -8.926479 12.149298 " transform="matrix(0.998568, 0, 0, -0.998568, 69.398073, 43.87409)"/>
<path fill="none" stroke-width="0.89664" stroke-linecap="round" stroke-linejoin="round" stroke="rgb(0%, 0%, 0%)" stroke-opacity="1" stroke-miterlimit="10" d="M 0.00427685 -3.212541 L -8.926479 12.149298 " transform="matrix(0.998568, 0, 0, -0.998568, 69.398073, 43.87409)"/>
<path fill="none" stroke-width="0.89664" stroke-linecap="round" stroke-linejoin="round" stroke="rgb(0%, 0%, 0%)" stroke-opacity="1" stroke-miterlimit="10" d="M 0.00427685 -3.212541 L 8.935033 12.149298 " transform="matrix(0.998568, 0, 0, -0.998568, 69.398073, 43.87409)"/>
<path fill="none" stroke-width="0.89664" stroke-linecap="round" stroke-linejoin="round" stroke="rgb(0%, 0%, 0%)" stroke-opacity="1" stroke-miterlimit="10" d="M 17.861877 -3.212541 L 8.935033 12.149298 " transform="matrix(0.998568, 0, 0, -0.998568, 69.398073, 43.87409)"/>
<path fill="none" stroke-width="0.89664" stroke-linecap="round" stroke-linejoin="round" stroke="rgb(0%, 0%, 0%)" stroke-opacity="1" stroke-miterlimit="10" d="M 17.861877 -3.212541 L 26.792633 12.149298 " transform="matrix(0.998568, 0, 0, -0.998568, 69.398073, 43.87409)"/>
<path fill="none" stroke-width="0.89664" stroke-linecap="round" stroke-linejoin="round" stroke="rgb(0%, 0%, 0%)" stroke-opacity="1" stroke-miterlimit="10" d="M -26.787991 12.149298 L -35.718747 27.507226 " transform="matrix(0.998568, 0, 0, -0.998568, 69.398073, 43.87409)"/>
<path fill="none" stroke-width="0.89664" stroke-linecap="round" stroke-linejoin="round" stroke="rgb(0%, 0%, 0%)" stroke-opacity="1" stroke-miterlimit="10" d="M -26.787991 12.149298 L -17.857235 27.507226 " transform="matrix(0.998568, 0, 0, -0.998568, 69.398073, 43.87409)"/>
<path fill="none" stroke-width="0.89664" stroke-linecap="round" stroke-linejoin="round" stroke="rgb(0%, 0%, 0%)" stroke-opacity="1" stroke-miterlimit="10" d="M -8.926479 12.149298 L -17.857235 27.507226 " transform="matrix(0.998568, 0, 0, -0.998568, 69.398073, 43.87409)"/>
<path fill="none" stroke-width="0.89664" stroke-linecap="round" stroke-linejoin="round" stroke="rgb(0%, 0%, 0%)" stroke-opacity="1" stroke-miterlimit="10" d="M -8.926479 12.149298 L 0.00427685 27.507226 " transform="matrix(0.998568, 0, 0, -0.998568, 69.398073, 43.87409)"/>
<path fill="none" stroke-width="0.89664" stroke-linecap="round" stroke-linejoin="round" stroke="rgb(0%, 0%, 0%)" stroke-opacity="1" stroke-miterlimit="10" d="M 8.935033 12.149298 L 0.00427685 27.507226 " transform="matrix(0.998568, 0, 0, -0.998568, 69.398073, 43.87409)"/>
<path fill="none" stroke-width="0.89664" stroke-linecap="round" stroke-linejoin="round" stroke="rgb(0%, 0%, 0%)" stroke-opacity="1" stroke-miterlimit="10" d="M 8.935033 12.149298 L 17.861877 27.507226 " transform="matrix(0.998568, 0, 0, -0.998568, 69.398073, 43.87409)"/>
<path fill="none" stroke-width="0.89664" stroke-linecap="round" stroke-linejoin="round" stroke="rgb(0%, 0%, 0%)" stroke-opacity="1" stroke-miterlimit="10" d="M 26.792633 12.149298 L 17.861877 27.507226 " transform="matrix(0.998568, 0, 0, -0.998568, 69.398073, 43.87409)"/>
<path fill="none" stroke-width="0.89664" stroke-linecap="round" stroke-linejoin="round" stroke="rgb(0%, 0%, 0%)" stroke-opacity="1" stroke-miterlimit="10" d="M 26.792633 12.149298 L 35.723389 27.507226 " transform="matrix(0.998568, 0, 0, -0.998568, 69.398073, 43.87409)"/>
<path fill="none" stroke-width="0.89664" stroke-linecap="round" stroke-linejoin="round" stroke="rgb(0%, 0%, 0%)" stroke-opacity="1" stroke-miterlimit="10" d="M -8.926479 -18.570468 L 8.935033 -18.570468 " transform="matrix(0.998568, 0, 0, -0.998568, 69.398073, 43.87409)"/>
<path fill="none" stroke-width="0.89664" stroke-linecap="round" stroke-linejoin="round" stroke="rgb(0%, 0%, 0%)" stroke-opacity="1" stroke-miterlimit="10" d="M -17.857235 -3.212541 L 0.00427685 -3.212541 " transform="matrix(0.998568, 0, 0, -0.998568, 69.398073, 43.87409)"/>
<path fill="none" stroke-width="0.89664" stroke-linecap="round" stroke-linejoin="round" stroke="rgb(0%, 0%, 0%)" stroke-opacity="1" stroke-miterlimit="10" d="M 0.00427685 -3.212541 L 17.861877 -3.212541 " transform="matrix(0.998568, 0, 0, -0.998568, 69.398073, 43.87409)"/>
<path fill="none" stroke-width="0.89664" stroke-linecap="round" stroke-linejoin="round" stroke="rgb(0%, 0%, 0%)" stroke-opacity="1" stroke-miterlimit="10" d="M -26.787991 12.149298 L -8.926479 12.149298 " transform="matrix(0.998568, 0, 0, -0.998568, 69.398073, 43.87409)"/>
<path fill="none" stroke-width="0.89664" stroke-linecap="round" stroke-linejoin="round" stroke="rgb(0%, 0%, 0%)" stroke-opacity="1" stroke-miterlimit="10" d="M -8.926479 12.149298 L 8.935033 12.149298 " transform="matrix(0.998568, 0, 0, -0.998568, 69.398073, 43.87409)"/>
<path fill="none" stroke-width="0.89664" stroke-linecap="round" stroke-linejoin="round" stroke="rgb(0%, 0%, 0%)" stroke-opacity="1" stroke-miterlimit="10" d="M 8.935033 12.149298 L 26.792633 12.149298 " transform="matrix(0.998568, 0, 0, -0.998568, 69.398073, 43.87409)"/>
<path fill="none" stroke-width="0.89664" stroke-linecap="round" stroke-linejoin="round" stroke="rgb(0%, 0%, 0%)" stroke-opacity="1" stroke-miterlimit="10" d="M -35.718747 27.507226 L -17.857235 27.507226 " transform="matrix(0.998568, 0, 0, -0.998568, 69.398073, 43.87409)"/>
<path fill="none" stroke-width="0.89664" stroke-linecap="round" stroke-linejoin="round" stroke="rgb(0%, 0%, 0%)" stroke-opacity="1" stroke-miterlimit="10" d="M -17.857235 27.507226 L 0.00427685 27.507226 " transform="matrix(0.998568, 0, 0, -0.998568, 69.398073, 43.87409)"/>
<path fill="none" stroke-width="0.89664" stroke-linecap="round" stroke-linejoin="round" stroke="rgb(0%, 0%, 0%)" stroke-opacity="1" stroke-miterlimit="10" d="M 0.00427685 27.507226 L 17.861877 27.507226 " transform="matrix(0.998568, 0, 0, -0.998568, 69.398073, 43.87409)"/>
<path fill="none" stroke-width="0.89664" stroke-linecap="round" stroke-linejoin="round" stroke="rgb(0%, 0%, 0%)" stroke-opacity="1" stroke-miterlimit="10" d="M 17.861877 27.507226 L 35.723389 27.507226 " transform="matrix(0.998568, 0, 0, -0.998568, 69.398073, 43.87409)"/>
<path fill="none" stroke-width="2.09218" stroke-linecap="round" stroke-linejoin="round" stroke="rgb(88.627625%, 56.861877%, 26.275635%)" stroke-opacity="1" stroke-miterlimit="10" d="M 8.935033 -18.570468 L 0.00427685 -3.212541 L 8.935033 12.149298 L 17.861877 -3.212541 Z M 8.935033 -18.570468 " transform="matrix(0.998568, 0, 0, -0.998568, 69.398073, 43.87409)"/>
<path fill="none" stroke-width="2.09218" stroke-linecap="round" stroke-linejoin="round" stroke="rgb(37.255859%, 65.098572%, 48.234558%)" stroke-opacity="1" stroke-miterlimit="10" d="M -8.926479 -18.570468 L -17.857235 -3.212541 L -8.926479 12.149298 L 0.00427685 -3.212541 Z M -8.926479 -18.570468 " transform="matrix(0.998568, 0, 0, -0.998568, 69.398073, 43.87409)"/>
<path fill="none" stroke-width="2.09218" stroke-linecap="round" stroke-linejoin="round" stroke="rgb(80.39093%, 34.510803%, 32.939148%)" stroke-opacity="1" stroke-miterlimit="10" d="M 0.00427685 -3.212541 L -8.926479 12.149298 L 0.00427685 27.507226 L 8.935033 12.149298 Z M 0.00427685 -3.212541 " transform="matrix(0.998568, 0, 0, -0.998568, 69.398073, 43.87409)"/>
<path fill-rule="nonzero" fill="rgb(45.588684%, 66.175842%, 100%)" fill-opacity="1" stroke-width="0.49814" stroke-linecap="round" stroke-linejoin="round" stroke="rgb(0%, 0%, 0%)" stroke-opacity="1" stroke-miterlimit="10" d="M 2.492214 -33.932307 C 2.492214 -32.555336 1.377337 -31.440458 0.00427685 -31.440458 C -1.372695 -31.440458 -2.487572 -32.555336 -2.487572 -33.932307 C -2.487572 -35.305367 -1.372695 -36.420244 0.00427685 -36.420244 C 1.377337 -36.420244 2.492214 -35.305367 2.492214 -33.932307 Z M 2.492214 -33.932307 " transform="matrix(0.998568, 0, 0, -0.998568, 69.398073, 43.87409)"/>
<path fill-rule="nonzero" fill="rgb(45.588684%, 66.175842%, 100%)" fill-opacity="1" stroke-width="0.49814" stroke-linecap="round" stroke-linejoin="round" stroke="rgb(0%, 0%, 0%)" stroke-opacity="1" stroke-miterlimit="10" d="M -6.43463 -18.570468 C -6.43463 -17.197408 -7.549508 -16.082531 -8.926479 -16.082531 C -10.303451 -16.082531 -11.418328 -17.197408 -11.418328 -18.570468 C -11.418328 -19.94744 -10.303451 -21.062317 -8.926479 -21.062317 C -7.549508 -21.062317 -6.43463 -19.94744 -6.43463 -18.570468 Z M -6.43463 -18.570468 " transform="matrix(0.998568, 0, 0, -0.998568, 69.398073, 43.87409)"/>
<path fill-rule="nonzero" fill="rgb(45.588684%, 66.175842%, 100%)" fill-opacity="1" stroke-width="0.49814" stroke-linecap="round" stroke-linejoin="round" stroke="rgb(0%, 0%, 0%)" stroke-opacity="1" stroke-miterlimit="10" d="M 11.42297 -18.570468 C 11.42297 -17.197408 10.308093 -16.082531 8.935033 -16.082531 C 7.558061 -16.082531 6.443184 -17.197408 6.443184 -18.570468 C 6.443184 -19.94744 7.558061 -21.062317 8.935033 -21.062317 C 10.308093 -21.062317 11.42297 -19.94744 11.42297 -18.570468 Z M 11.42297 -18.570468 " transform="matrix(0.998568, 0, 0, -0.998568, 69.398073, 43.87409)"/>
<path fill-rule="nonzero" fill="rgb(45.588684%, 66.175842%, 100%)" fill-opacity="1" stroke-width="0.49814" stroke-linecap="round" stroke-linejoin="round" stroke="rgb(0%, 0%, 0%)" stroke-opacity="1" stroke-miterlimit="10" d="M -15.365386 -3.212541 C -15.365386 -1.835569 -16.480264 -0.720692 -17.857235 -0.720692 C -19.234207 -0.720692 -20.349084 -1.835569 -20.349084 -3.212541 C -20.349084 -4.585601 -19.234207 -5.700478 -17.857235 -5.700478 C -16.480264 -5.700478 -15.365386 -4.585601 -15.365386 -3.212541 Z M -15.365386 -3.212541 " transform="matrix(0.998568, 0, 0, -0.998568, 69.398073, 43.87409)"/>
<path fill-rule="nonzero" fill="rgb(45.588684%, 66.175842%, 100%)" fill-opacity="1" stroke-width="0.49814" stroke-linecap="round" stroke-linejoin="round" stroke="rgb(0%, 0%, 0%)" stroke-opacity="1" stroke-miterlimit="10" d="M 2.492214 -3.212541 C 2.492214 -1.835569 1.377337 -0.720692 0.00427685 -0.720692 C -1.372695 -0.720692 -2.487572 -1.835569 -2.487572 -3.212541 C -2.487572 -4.585601 -1.372695 -5.700478 0.00427685 -5.700478 C 1.377337 -5.700478 2.492214 -4.585601 2.492214 -3.212541 Z M 2.492214 -3.212541 " transform="matrix(0.998568, 0, 0, -0.998568, 69.398073, 43.87409)"/>
<path fill-rule="nonzero" fill="rgb(45.588684%, 66.175842%, 100%)" fill-opacity="1" stroke-width="0.49814" stroke-linecap="round" stroke-linejoin="round" stroke="rgb(0%, 0%, 0%)" stroke-opacity="1" stroke-miterlimit="10" d="M 20.353726 -3.212541 C 20.353726 -1.835569 19.238849 -0.720692 17.861877 -0.720692 C 16.488817 -0.720692 15.37394 -1.835569 15.37394 -3.212541 C 15.37394 -4.585601 16.488817 -5.700478 17.861877 -5.700478 C 19.238849 -5.700478 20.353726 -4.585601 20.353726 -3.212541 Z M 20.353726 -3.212541 " transform="matrix(0.998568, 0, 0, -0.998568, 69.398073, 43.87409)"/>
<path fill-rule="nonzero" fill="rgb(45.588684%, 66.175842%, 100%)" fill-opacity="1" stroke-width="0.49814" stroke-linecap="round" stroke-linejoin="round" stroke="rgb(0%, 0%, 0%)" stroke-opacity="1" stroke-miterlimit="10" d="M -24.296142 12.149298 C -24.296142 13.522358 -25.411019 14.637236 -26.787991 14.637236 C -28.161051 14.637236 -29.275928 13.522358 -29.275928 12.149298 C -29.275928 10.772327 -28.161051 9.657449 -26.787991 9.657449 C -25.411019 9.657449 -24.296142 10.772327 -24.296142 12.149298 Z M -24.296142 12.149298 " transform="matrix(0.998568, 0, 0, -0.998568, 69.398073, 43.87409)"/>
<path fill-rule="nonzero" fill="rgb(45.588684%, 66.175842%, 100%)" fill-opacity="1" stroke-width="0.49814" stroke-linecap="round" stroke-linejoin="round" stroke="rgb(0%, 0%, 0%)" stroke-opacity="1" stroke-miterlimit="10" d="M -6.43463 12.149298 C -6.43463 13.522358 -7.549508 14.637236 -8.926479 14.637236 C -10.303451 14.637236 -11.418328 13.522358 -11.418328 12.149298 C -11.418328 10.772327 -10.303451 9.657449 -8.926479 9.657449 C -7.549508 9.657449 -6.43463 10.772327 -6.43463 12.149298 Z M -6.43463 12.149298 " transform="matrix(0.998568, 0, 0, -0.998568, 69.398073, 43.87409)"/>
<path fill-rule="nonzero" fill="rgb(45.588684%, 66.175842%, 100%)" fill-opacity="1" stroke-width="0.49814" stroke-linecap="round" stroke-linejoin="round" stroke="rgb(0%, 0%, 0%)" stroke-opacity="1" stroke-miterlimit="10" d="M 11.42297 12.149298 C 11.42297 13.522358 10.308093 14.637236 8.935033 14.637236 C 7.558061 14.637236 6.443184 13.522358 6.443184 12.149298 C 6.443184 10.772327 7.558061 9.657449 8.935033 9.657449 C 10.308093 9.657449 11.42297 10.772327 11.42297 12.149298 Z M 11.42297 12.149298 " transform="matrix(0.998568, 0, 0, -0.998568, 69.398073, 43.87409)"/>
<path fill-rule="nonzero" fill="rgb(45.588684%, 66.175842%, 100%)" fill-opacity="1" stroke-width="0.49814" stroke-linecap="round" stroke-linejoin="round" stroke="rgb(0%, 0%, 0%)" stroke-opacity="1" stroke-miterlimit="10" d="M 29.284482 12.149298 C 29.284482 13.522358 28.169604 14.637236 26.792633 14.637236 C 25.419573 14.637236 24.304696 13.522358 24.304696 12.149298 C 24.304696 10.772327 25.419573 9.657449 26.792633 9.657449 C 28.169604 9.657449 29.284482 10.772327 29.284482 12.149298 Z M 29.284482 12.149298 " transform="matrix(0.998568, 0, 0, -0.998568, 69.398073, 43.87409)"/>
<path fill-rule="nonzero" fill="rgb(45.588684%, 66.175842%, 100%)" fill-opacity="1" stroke-width="0.49814" stroke-linecap="round" stroke-linejoin="round" stroke="rgb(0%, 0%, 0%)" stroke-opacity="1" stroke-miterlimit="10" d="M -33.226898 27.507226 C -33.226898 28.884197 -34.341775 29.999075 -35.718747 29.999075 C -37.091807 29.999075 -38.206684 28.884197 -38.206684 27.507226 C -38.206684 26.134166 -37.091807 25.015376 -35.718747 25.015376 C -34.341775 25.015376 -33.226898 26.134166 -33.226898 27.507226 Z M -33.226898 27.507226 " transform="matrix(0.998568, 0, 0, -0.998568, 69.398073, 43.87409)"/>
<path fill-rule="nonzero" fill="rgb(45.588684%, 66.175842%, 100%)" fill-opacity="1" stroke-width="0.49814" stroke-linecap="round" stroke-linejoin="round" stroke="rgb(0%, 0%, 0%)" stroke-opacity="1" stroke-miterlimit="10" d="M -15.365386 27.507226 C -15.365386 28.884197 -16.480264 29.999075 -17.857235 29.999075 C -19.234207 29.999075 -20.349084 28.884197 -20.349084 27.507226 C -20.349084 26.134166 -19.234207 25.015376 -17.857235 25.015376 C -16.480264 25.015376 -15.365386 26.134166 -15.365386 27.507226 Z M -15.365386 27.507226 " transform="matrix(0.998568, 0, 0, -0.998568, 69.398073, 43.87409)"/>
<path fill-rule="nonzero" fill="rgb(45.588684%, 66.175842%, 100%)" fill-opacity="1" stroke-width="0.49814" stroke-linecap="round" stroke-linejoin="round" stroke="rgb(0%, 0%, 0%)" stroke-opacity="1" stroke-miterlimit="10" d="M 2.492214 27.507226 C 2.492214 28.884197 1.377337 29.999075 0.00427685 29.999075 C -1.372695 29.999075 -2.487572 28.884197 -2.487572 27.507226 C -2.487572 26.134166 -1.372695 25.015376 0.00427685 25.015376 C 1.377337 25.015376 2.492214 26.134166 2.492214 27.507226 Z M 2.492214 27.507226 " transform="matrix(0.998568, 0, 0, -0.998568, 69.398073, 43.87409)"/>
<path fill-rule="nonzero" fill="rgb(45.588684%, 66.175842%, 100%)" fill-opacity="1" stroke-width="0.49814" stroke-linecap="round" stroke-linejoin="round" stroke="rgb(0%, 0%, 0%)" stroke-opacity="1" stroke-miterlimit="10" d="M 20.353726 27.507226 C 20.353726 28.884197 19.238849 29.999075 17.861877 29.999075 C 16.488817 29.999075 15.37394 28.884197 15.37394 27.507226 C 15.37394 26.134166 16.488817 25.015376 17.861877 25.015376 C 19.238849 25.015376 20.353726 26.134166 20.353726 27.507226 Z M 20.353726 27.507226 " transform="matrix(0.998568, 0, 0, -0.998568, 69.398073, 43.87409)"/>
<path fill-rule="nonzero" fill="rgb(45.588684%, 66.175842%, 100%)" fill-opacity="1" stroke-width="0.49814" stroke-linecap="round" stroke-linejoin="round" stroke="rgb(0%, 0%, 0%)" stroke-opacity="1" stroke-miterlimit="10" d="M 38.215238 27.507226 C 38.215238 28.884197 37.10036 29.999075 35.723389 29.999075 C 34.346417 29.999075 33.23154 28.884197 33.23154 27.507226 C 33.23154 26.134166 34.346417 25.015376 35.723389 25.015376 C 37.10036 25.015376 38.215238 26.134166 38.215238 27.507226 Z M 38.215238 27.507226 " transform="matrix(0.998568, 0, 0, -0.998568, 69.398073, 43.87409)"/>
</svg>
