<?xml version="1.0" encoding="UTF-8"?>
<svg xmlns="http://www.w3.org/2000/svg" xmlns:xlink="http://www.w3.org/1999/xlink" width="400pt" height="400pt" viewBox="0 0 400 400" version="1.1">
<g id="surface4">
<path style="fill-rule:nonzero;fill:rgb(99.998474%,50%,0%);fill-opacity:1;stroke-width:0.03;stroke-linecap:square;stroke-linejoin:miter;stroke:rgb(99.998474%,50%,0%);stroke-opacity:1;stroke-miterlimit:3.239307;" d="M 73.980469 396.019531 L 73.980469 214.578125 L 255.421875 214.578125 L 255.421875 396.019531 Z M 73.980469 396.019531 " transform="matrix(1,0,0,1,-66,-5)"/>
<path style="fill:none;stroke-width:7.98;stroke-linecap:square;stroke-linejoin:miter;stroke:rgb(0%,0%,0%);stroke-opacity:1;stroke-miterlimit:3.25;" d="M 73.980469 396.019531 L 73.980469 214.578125 L 255.421875 214.578125 L 255.421875 396.019531 Z M 73.980469 396.019531 " transform="matrix(1,0,0,1,-66,-5)"/>
<path style="fill-rule:nonzero;fill:rgb(99.998474%,50%,0%);fill-opacity:1;stroke-width:0.03;stroke-linecap:square;stroke-linejoin:miter;stroke:rgb(99.998474%,50%,0%);stroke-opacity:1;stroke-miterlimit:3.25;" d="M 275.578125 194.421875 L 275.578125 12.980469 L 457.019531 12.980469 L 457.019531 194.421875 Z M 275.578125 194.421875 " transform="matrix(1,0,0,1,-66,-5)"/>
<path style="fill:none;stroke-width:7.98;stroke-linecap:square;stroke-linejoin:miter;stroke:rgb(0%,0%,0%);stroke-opacity:1;stroke-miterlimit:3.25;" d="M 275.578125 194.421875 L 275.578125 12.980469 L 457.019531 12.980469 L 457.019531 194.421875 Z M 275.578125 194.421875 " transform="matrix(1,0,0,1,-66,-5)"/>
<path style="fill-rule:nonzero;fill:rgb(99.998474%,50%,0%);fill-opacity:1;stroke-width:0.03;stroke-linecap:square;stroke-linejoin:miter;stroke:rgb(99.998474%,50%,0%);stroke-opacity:1;stroke-miterlimit:3.25;" d="M 73.980469 194.421875 L 73.980469 12.980469 L 255.421875 12.980469 L 255.421875 194.421875 Z M 73.980469 194.421875 " transform="matrix(1,0,0,1,-66,-5)"/>
<path style="fill:none;stroke-width:7.98;stroke-linecap:square;stroke-linejoin:miter;stroke:rgb(0%,0%,0%);stroke-opacity:1;stroke-miterlimit:3.25;" d="M 73.980469 194.421875 L 73.980469 12.980469 L 255.421875 12.980469 L 255.421875 194.421875 Z M 73.980469 194.421875 " transform="matrix(1,0,0,1,-66,-5)"/>
</g>
</svg>
