<?xml version="1.0" encoding="UTF-8"?>
<svg xmlns="http://www.w3.org/2000/svg" xmlns:xlink="http://www.w3.org/1999/xlink" width="99.562" height="99.562" viewBox="0 0 99.562 99.562">
<path fill-rule="nonzero" fill="rgb(100%, 100%, 100%)" fill-opacity="1" stroke-width="0.3487" stroke-linecap="round" stroke-linejoin="round" stroke="rgb(64.99939%, 64.99939%, 64.99939%)" stroke-opacity="1" stroke-miterlimit="10" d="M 0.000274372 -0.000274372 L 0.000274372 -15.592004 L 15.592004 -15.592004 L 15.592004 -0.000274372 Z M 0.000274372 -0.000274372 " transform="matrix(0.99562, 0, 0, -0.99562, 2.995821, 2.995821)"/>
<path fill-rule="nonzero" fill="rgb(54.998779%, 54.998779%, 54.998779%)" fill-opacity="1" d="M 11.203125 10.757812 C 11.203125 10.511719 11.003906 10.3125 10.757812 10.3125 C 10.511719 10.3125 10.3125 10.511719 10.3125 10.757812 C 10.3125 11.003906 10.511719 11.203125 10.757812 11.203125 C 11.003906 11.203125 11.203125 11.003906 11.203125 10.757812 Z M 11.203125 10.757812 "/>
<path fill-rule="nonzero" fill="rgb(100%, 100%, 100%)" fill-opacity="1" stroke-width="0.3487" stroke-linecap="round" stroke-linejoin="round" stroke="rgb(64.99939%, 64.99939%, 64.99939%)" stroke-opacity="1" stroke-miterlimit="10" d="M 15.592004 -0.000274372 L 15.592004 -15.592004 L 31.179809 -15.592004 L 31.179809 -0.000274372 Z M 15.592004 -0.000274372 " transform="matrix(0.99562, 0, 0, -0.99562, 2.995821, 2.995821)"/>
<path fill-rule="nonzero" fill="rgb(54.998779%, 54.998779%, 54.998779%)" fill-opacity="1" d="M 26.726562 10.757812 C 26.726562 10.511719 26.527344 10.3125 26.28125 10.3125 C 26.03125 10.3125 25.832031 10.511719 25.832031 10.757812 C 25.832031 11.003906 26.03125 11.203125 26.28125 11.203125 C 26.527344 11.203125 26.726562 11.003906 26.726562 10.757812 Z M 26.726562 10.757812 "/>
<path fill-rule="nonzero" fill="rgb(100%, 100%, 100%)" fill-opacity="1" stroke-width="0.3487" stroke-linecap="round" stroke-linejoin="round" stroke="rgb(64.99939%, 64.99939%, 64.99939%)" stroke-opacity="1" stroke-miterlimit="10" d="M 31.179809 -0.000274372 L 31.179809 -15.592004 L 46.771539 -15.592004 L 46.771539 -0.000274372 Z M 31.179809 -0.000274372 " transform="matrix(0.99562, 0, 0, -0.99562, 2.995821, 2.995821)"/>
<path fill-rule="nonzero" fill="rgb(54.998779%, 54.998779%, 54.998779%)" fill-opacity="1" d="M 42.25 10.757812 C 42.25 10.511719 42.046875 10.3125 41.800781 10.3125 C 41.554688 10.3125 41.355469 10.511719 41.355469 10.757812 C 41.355469 11.003906 41.554688 11.203125 41.800781 11.203125 C 42.046875 11.203125 42.25 11.003906 42.25 10.757812 Z M 42.25 10.757812 "/>
<path fill-rule="nonzero" fill="rgb(100%, 100%, 100%)" fill-opacity="1" stroke-width="0.3487" stroke-linecap="round" stroke-linejoin="round" stroke="rgb(64.99939%, 64.99939%, 64.99939%)" stroke-opacity="1" stroke-miterlimit="10" d="M 46.771539 -0.000274372 L 46.771539 -15.592004 L 62.363268 -15.592004 L 62.363268 -0.000274372 Z M 46.771539 -0.000274372 " transform="matrix(0.99562, 0, 0, -0.99562, 2.995821, 2.995821)"/>
<path fill-rule="nonzero" fill="rgb(54.998779%, 54.998779%, 54.998779%)" fill-opacity="1" d="M 57.769531 10.757812 C 57.769531 10.511719 57.570312 10.3125 57.324219 10.3125 C 57.078125 10.3125 56.878906 10.511719 56.878906 10.757812 C 56.878906 11.003906 57.078125 11.203125 57.324219 11.203125 C 57.570312 11.203125 57.769531 11.003906 57.769531 10.757812 Z M 57.769531 10.757812 "/>
<path fill-rule="nonzero" fill="rgb(100%, 100%, 100%)" fill-opacity="1" stroke-width="0.3487" stroke-linecap="round" stroke-linejoin="round" stroke="rgb(64.99939%, 64.99939%, 64.99939%)" stroke-opacity="1" stroke-miterlimit="10" d="M 62.363268 -0.000274372 L 62.363268 -15.592004 L 77.954997 -15.592004 L 77.954997 -0.000274372 Z M 62.363268 -0.000274372 " transform="matrix(0.99562, 0, 0, -0.99562, 2.995821, 2.995821)"/>
<path fill-rule="nonzero" fill="rgb(54.998779%, 54.998779%, 54.998779%)" fill-opacity="1" d="M 73.292969 10.757812 C 73.292969 10.511719 73.09375 10.3125 72.847656 10.3125 C 72.601562 10.3125 72.402344 10.511719 72.402344 10.757812 C 72.402344 11.003906 72.601562 11.203125 72.847656 11.203125 C 73.09375 11.203125 73.292969 11.003906 73.292969 10.757812 Z M 73.292969 10.757812 "/>
<path fill-rule="nonzero" fill="rgb(100%, 100%, 100%)" fill-opacity="1" stroke-width="0.3487" stroke-linecap="round" stroke-linejoin="round" stroke="rgb(64.99939%, 64.99939%, 64.99939%)" stroke-opacity="1" stroke-miterlimit="10" d="M 77.954997 -0.000274372 L 77.954997 -15.592004 L 93.546727 -15.592004 L 93.546727 -0.000274372 Z M 77.954997 -0.000274372 " transform="matrix(0.99562, 0, 0, -0.99562, 2.995821, 2.995821)"/>
<path fill-rule="nonzero" fill="rgb(54.998779%, 54.998779%, 54.998779%)" fill-opacity="1" d="M 88.816406 10.757812 C 88.816406 10.511719 88.617188 10.3125 88.371094 10.3125 C 88.125 10.3125 87.921875 10.511719 87.921875 10.757812 C 87.921875 11.003906 88.125 11.203125 88.371094 11.203125 C 88.617188 11.203125 88.816406 11.003906 88.816406 10.757812 Z M 88.816406 10.757812 "/>
<path fill-rule="nonzero" fill="rgb(100%, 100%, 100%)" fill-opacity="1" stroke-width="0.3487" stroke-linecap="round" stroke-linejoin="round" stroke="rgb(64.99939%, 64.99939%, 64.99939%)" stroke-opacity="1" stroke-miterlimit="10" d="M 0.000274372 -15.592004 L 0.000274372 -31.179809 L 15.592004 -31.179809 L 15.592004 -15.592004 Z M 0.000274372 -15.592004 " transform="matrix(0.99562, 0, 0, -0.99562, 2.995821, 2.995821)"/>
<path fill-rule="nonzero" fill="rgb(54.998779%, 54.998779%, 54.998779%)" fill-opacity="1" d="M 11.203125 26.28125 C 11.203125 26.03125 11.003906 25.832031 10.757812 25.832031 C 10.511719 25.832031 10.3125 26.03125 10.3125 26.28125 C 10.3125 26.527344 10.511719 26.726562 10.757812 26.726562 C 11.003906 26.726562 11.203125 26.527344 11.203125 26.28125 Z M 11.203125 26.28125 "/>
<path fill-rule="nonzero" fill="rgb(100%, 100%, 100%)" fill-opacity="1" stroke-width="0.3487" stroke-linecap="round" stroke-linejoin="round" stroke="rgb(64.99939%, 64.99939%, 64.99939%)" stroke-opacity="1" stroke-miterlimit="10" d="M 15.592004 -15.592004 L 15.592004 -31.179809 L 31.179809 -31.179809 L 31.179809 -15.592004 Z M 15.592004 -15.592004 " transform="matrix(0.99562, 0, 0, -0.99562, 2.995821, 2.995821)"/>
<path fill-rule="nonzero" fill="rgb(54.998779%, 54.998779%, 54.998779%)" fill-opacity="1" d="M 26.726562 26.28125 C 26.726562 26.03125 26.527344 25.832031 26.28125 25.832031 C 26.03125 25.832031 25.832031 26.03125 25.832031 26.28125 C 25.832031 26.527344 26.03125 26.726562 26.28125 26.726562 C 26.527344 26.726562 26.726562 26.527344 26.726562 26.28125 Z M 26.726562 26.28125 "/>
<path fill-rule="nonzero" fill="rgb(100%, 100%, 100%)" fill-opacity="1" stroke-width="0.3487" stroke-linecap="round" stroke-linejoin="round" stroke="rgb(64.99939%, 64.99939%, 64.99939%)" stroke-opacity="1" stroke-miterlimit="10" d="M 31.179809 -15.592004 L 31.179809 -31.179809 L 46.771539 -31.179809 L 46.771539 -15.592004 Z M 31.179809 -15.592004 " transform="matrix(0.99562, 0, 0, -0.99562, 2.995821, 2.995821)"/>
<path fill-rule="nonzero" fill="rgb(54.998779%, 54.998779%, 54.998779%)" fill-opacity="1" d="M 42.25 26.28125 C 42.25 26.03125 42.046875 25.832031 41.800781 25.832031 C 41.554688 25.832031 41.355469 26.03125 41.355469 26.28125 C 41.355469 26.527344 41.554688 26.726562 41.800781 26.726562 C 42.046875 26.726562 42.25 26.527344 42.25 26.28125 Z M 42.25 26.28125 "/>
<path fill-rule="nonzero" fill="rgb(100%, 100%, 100%)" fill-opacity="1" stroke-width="0.3487" stroke-linecap="round" stroke-linejoin="round" stroke="rgb(64.99939%, 64.99939%, 64.99939%)" stroke-opacity="1" stroke-miterlimit="10" d="M 46.771539 -15.592004 L 46.771539 -31.179809 L 62.363268 -31.179809 L 62.363268 -15.592004 Z M 46.771539 -15.592004 " transform="matrix(0.99562, 0, 0, -0.99562, 2.995821, 2.995821)"/>
<path fill-rule="nonzero" fill="rgb(54.998779%, 54.998779%, 54.998779%)" fill-opacity="1" d="M 57.769531 26.28125 C 57.769531 26.03125 57.570312 25.832031 57.324219 25.832031 C 57.078125 25.832031 56.878906 26.03125 56.878906 26.28125 C 56.878906 26.527344 57.078125 26.726562 57.324219 26.726562 C 57.570312 26.726562 57.769531 26.527344 57.769531 26.28125 Z M 57.769531 26.28125 "/>
<path fill-rule="nonzero" fill="rgb(100%, 100%, 100%)" fill-opacity="1" stroke-width="0.3487" stroke-linecap="round" stroke-linejoin="round" stroke="rgb(64.99939%, 64.99939%, 64.99939%)" stroke-opacity="1" stroke-miterlimit="10" d="M 62.363268 -15.592004 L 62.363268 -31.179809 L 77.954997 -31.179809 L 77.954997 -15.592004 Z M 62.363268 -15.592004 " transform="matrix(0.99562, 0, 0, -0.99562, 2.995821, 2.995821)"/>
<path fill-rule="nonzero" fill="rgb(54.998779%, 54.998779%, 54.998779%)" fill-opacity="1" d="M 73.292969 26.28125 C 73.292969 26.03125 73.09375 25.832031 72.847656 25.832031 C 72.601562 25.832031 72.402344 26.03125 72.402344 26.28125 C 72.402344 26.527344 72.601562 26.726562 72.847656 26.726562 C 73.09375 26.726562 73.292969 26.527344 73.292969 26.28125 Z M 73.292969 26.28125 "/>
<path fill-rule="nonzero" fill="rgb(100%, 100%, 100%)" fill-opacity="1" stroke-width="0.3487" stroke-linecap="round" stroke-linejoin="round" stroke="rgb(64.99939%, 64.99939%, 64.99939%)" stroke-opacity="1" stroke-miterlimit="10" d="M 0.000274372 -31.179809 L 0.000274372 -46.771539 L 15.592004 -46.771539 L 15.592004 -31.179809 Z M 0.000274372 -31.179809 " transform="matrix(0.99562, 0, 0, -0.99562, 2.995821, 2.995821)"/>
<path fill-rule="nonzero" fill="rgb(54.998779%, 54.998779%, 54.998779%)" fill-opacity="1" d="M 11.203125 41.800781 C 11.203125 41.554688 11.003906 41.355469 10.757812 41.355469 C 10.511719 41.355469 10.3125 41.554688 10.3125 41.800781 C 10.3125 42.046875 10.511719 42.25 10.757812 42.25 C 11.003906 42.25 11.203125 42.046875 11.203125 41.800781 Z M 11.203125 41.800781 "/>
<path fill-rule="nonzero" fill="rgb(100%, 100%, 100%)" fill-opacity="1" stroke-width="0.3487" stroke-linecap="round" stroke-linejoin="round" stroke="rgb(64.99939%, 64.99939%, 64.99939%)" stroke-opacity="1" stroke-miterlimit="10" d="M 15.592004 -31.179809 L 15.592004 -46.771539 L 31.179809 -46.771539 L 31.179809 -31.179809 Z M 15.592004 -31.179809 " transform="matrix(0.99562, 0, 0, -0.99562, 2.995821, 2.995821)"/>
<path fill-rule="nonzero" fill="rgb(54.998779%, 54.998779%, 54.998779%)" fill-opacity="1" d="M 26.726562 41.800781 C 26.726562 41.554688 26.527344 41.355469 26.28125 41.355469 C 26.03125 41.355469 25.832031 41.554688 25.832031 41.800781 C 25.832031 42.046875 26.03125 42.25 26.28125 42.25 C 26.527344 42.25 26.726562 42.046875 26.726562 41.800781 Z M 26.726562 41.800781 "/>
<path fill-rule="nonzero" fill="rgb(100%, 100%, 100%)" fill-opacity="1" stroke-width="0.3487" stroke-linecap="round" stroke-linejoin="round" stroke="rgb(64.99939%, 64.99939%, 64.99939%)" stroke-opacity="1" stroke-miterlimit="10" d="M 31.179809 -31.179809 L 31.179809 -46.771539 L 46.771539 -46.771539 L 46.771539 -31.179809 Z M 31.179809 -31.179809 " transform="matrix(0.99562, 0, 0, -0.99562, 2.995821, 2.995821)"/>
<path fill-rule="nonzero" fill="rgb(54.998779%, 54.998779%, 54.998779%)" fill-opacity="1" d="M 42.25 41.800781 C 42.25 41.554688 42.046875 41.355469 41.800781 41.355469 C 41.554688 41.355469 41.355469 41.554688 41.355469 41.800781 C 41.355469 42.046875 41.554688 42.25 41.800781 42.25 C 42.046875 42.25 42.25 42.046875 42.25 41.800781 Z M 42.25 41.800781 "/>
<path fill-rule="nonzero" fill="rgb(100%, 100%, 100%)" fill-opacity="1" stroke-width="0.3487" stroke-linecap="round" stroke-linejoin="round" stroke="rgb(64.99939%, 64.99939%, 64.99939%)" stroke-opacity="1" stroke-miterlimit="10" d="M 46.771539 -31.179809 L 46.771539 -46.771539 L 62.363268 -46.771539 L 62.363268 -31.179809 Z M 46.771539 -31.179809 " transform="matrix(0.99562, 0, 0, -0.99562, 2.995821, 2.995821)"/>
<path fill-rule="nonzero" fill="rgb(54.998779%, 54.998779%, 54.998779%)" fill-opacity="1" d="M 57.769531 41.800781 C 57.769531 41.554688 57.570312 41.355469 57.324219 41.355469 C 57.078125 41.355469 56.878906 41.554688 56.878906 41.800781 C 56.878906 42.046875 57.078125 42.25 57.324219 42.25 C 57.570312 42.25 57.769531 42.046875 57.769531 41.800781 Z M 57.769531 41.800781 "/>
<path fill-rule="nonzero" fill="rgb(100%, 100%, 100%)" fill-opacity="1" stroke-width="0.3487" stroke-linecap="round" stroke-linejoin="round" stroke="rgb(64.99939%, 64.99939%, 64.99939%)" stroke-opacity="1" stroke-miterlimit="10" d="M 0.000274372 -46.771539 L 0.000274372 -62.363268 L 15.592004 -62.363268 L 15.592004 -46.771539 Z M 0.000274372 -46.771539 " transform="matrix(0.99562, 0, 0, -0.99562, 2.995821, 2.995821)"/>
<path fill-rule="nonzero" fill="rgb(54.998779%, 54.998779%, 54.998779%)" fill-opacity="1" d="M 11.203125 57.324219 C 11.203125 57.078125 11.003906 56.878906 10.757812 56.878906 C 10.511719 56.878906 10.3125 57.078125 10.3125 57.324219 C 10.3125 57.570312 10.511719 57.769531 10.757812 57.769531 C 11.003906 57.769531 11.203125 57.570312 11.203125 57.324219 Z M 11.203125 57.324219 "/>
<path fill-rule="nonzero" fill="rgb(100%, 100%, 100%)" fill-opacity="1" stroke-width="0.3487" stroke-linecap="round" stroke-linejoin="round" stroke="rgb(64.99939%, 64.99939%, 64.99939%)" stroke-opacity="1" stroke-miterlimit="10" d="M 15.592004 -46.771539 L 15.592004 -62.363268 L 31.179809 -62.363268 L 31.179809 -46.771539 Z M 15.592004 -46.771539 " transform="matrix(0.99562, 0, 0, -0.99562, 2.995821, 2.995821)"/>
<path fill-rule="nonzero" fill="rgb(54.998779%, 54.998779%, 54.998779%)" fill-opacity="1" d="M 26.726562 57.324219 C 26.726562 57.078125 26.527344 56.878906 26.28125 56.878906 C 26.03125 56.878906 25.832031 57.078125 25.832031 57.324219 C 25.832031 57.570312 26.03125 57.769531 26.28125 57.769531 C 26.527344 57.769531 26.726562 57.570312 26.726562 57.324219 Z M 26.726562 57.324219 "/>
<path fill-rule="nonzero" fill="rgb(100%, 100%, 100%)" fill-opacity="1" stroke-width="0.3487" stroke-linecap="round" stroke-linejoin="round" stroke="rgb(64.99939%, 64.99939%, 64.99939%)" stroke-opacity="1" stroke-miterlimit="10" d="M 31.179809 -46.771539 L 31.179809 -62.363268 L 46.771539 -62.363268 L 46.771539 -46.771539 Z M 31.179809 -46.771539 " transform="matrix(0.99562, 0, 0, -0.99562, 2.995821, 2.995821)"/>
<path fill-rule="nonzero" fill="rgb(54.998779%, 54.998779%, 54.998779%)" fill-opacity="1" d="M 42.25 57.324219 C 42.25 57.078125 42.046875 56.878906 41.800781 56.878906 C 41.554688 56.878906 41.355469 57.078125 41.355469 57.324219 C 41.355469 57.570312 41.554688 57.769531 41.800781 57.769531 C 42.046875 57.769531 42.25 57.570312 42.25 57.324219 Z M 42.25 57.324219 "/>
<path fill-rule="nonzero" fill="rgb(100%, 100%, 100%)" fill-opacity="1" stroke-width="0.3487" stroke-linecap="round" stroke-linejoin="round" stroke="rgb(64.99939%, 64.99939%, 64.99939%)" stroke-opacity="1" stroke-miterlimit="10" d="M 0.000274372 -62.363268 L 0.000274372 -77.954997 L 15.592004 -77.954997 L 15.592004 -62.363268 Z M 0.000274372 -62.363268 " transform="matrix(0.99562, 0, 0, -0.99562, 2.995821, 2.995821)"/>
<path fill-rule="nonzero" fill="rgb(54.998779%, 54.998779%, 54.998779%)" fill-opacity="1" d="M 11.203125 72.847656 C 11.203125 72.601562 11.003906 72.402344 10.757812 72.402344 C 10.511719 72.402344 10.3125 72.601562 10.3125 72.847656 C 10.3125 73.09375 10.511719 73.292969 10.757812 73.292969 C 11.003906 73.292969 11.203125 73.09375 11.203125 72.847656 Z M 11.203125 72.847656 "/>
<path fill-rule="nonzero" fill="rgb(100%, 100%, 100%)" fill-opacity="1" stroke-width="0.3487" stroke-linecap="round" stroke-linejoin="round" stroke="rgb(64.99939%, 64.99939%, 64.99939%)" stroke-opacity="1" stroke-miterlimit="10" d="M 15.592004 -62.363268 L 15.592004 -77.954997 L 31.179809 -77.954997 L 31.179809 -62.363268 Z M 15.592004 -62.363268 " transform="matrix(0.99562, 0, 0, -0.99562, 2.995821, 2.995821)"/>
<path fill-rule="nonzero" fill="rgb(54.998779%, 54.998779%, 54.998779%)" fill-opacity="1" d="M 26.726562 72.847656 C 26.726562 72.601562 26.527344 72.402344 26.28125 72.402344 C 26.03125 72.402344 25.832031 72.601562 25.832031 72.847656 C 25.832031 73.09375 26.03125 73.292969 26.28125 73.292969 C 26.527344 73.292969 26.726562 73.09375 26.726562 72.847656 Z M 26.726562 72.847656 "/>
<path fill-rule="nonzero" fill="rgb(100%, 100%, 100%)" fill-opacity="1" stroke-width="0.3487" stroke-linecap="round" stroke-linejoin="round" stroke="rgb(64.99939%, 64.99939%, 64.99939%)" stroke-opacity="1" stroke-miterlimit="10" d="M 0.000274372 -77.954997 L 0.000274372 -93.546727 L 15.592004 -93.546727 L 15.592004 -77.954997 Z M 0.000274372 -77.954997 " transform="matrix(0.99562, 0, 0, -0.99562, 2.995821, 2.995821)"/>
<path fill-rule="nonzero" fill="rgb(54.998779%, 54.998779%, 54.998779%)" fill-opacity="1" d="M 11.203125 88.371094 C 11.203125 88.125 11.003906 87.921875 10.757812 87.921875 C 10.511719 87.921875 10.3125 88.125 10.3125 88.371094 C 10.3125 88.617188 10.511719 88.816406 10.757812 88.816406 C 11.003906 88.816406 11.203125 88.617188 11.203125 88.371094 Z M 11.203125 88.371094 "/>
<path fill="none" stroke-width="0.69739" stroke-linecap="round" stroke-linejoin="round" stroke="rgb(0%, 0%, 0%)" stroke-opacity="1" stroke-miterlimit="10" d="M 4.990883 -7.796139 L 10.601395 -7.796139 " transform="matrix(0.99562, 0, 0, -0.99562, 2.995821, 2.995821)"/>
<path fill="none" stroke-width="0.69739" stroke-linecap="round" stroke-linejoin="round" stroke="rgb(0%, 0%, 0%)" stroke-opacity="1" stroke-miterlimit="10" d="M 7.796139 -4.990883 L 7.796139 -10.601395 " transform="matrix(0.99562, 0, 0, -0.99562, 2.995821, 2.995821)"/>
<path fill="none" stroke-width="0.69739" stroke-linecap="round" stroke-linejoin="round" stroke="rgb(0%, 0%, 0%)" stroke-opacity="1" stroke-miterlimit="10" d="M 20.578689 -7.796139 L 26.193124 -7.796139 " transform="matrix(0.99562, 0, 0, -0.99562, 2.995821, 2.995821)"/>
<path fill="none" stroke-width="0.69739" stroke-linecap="round" stroke-linejoin="round" stroke="rgb(0%, 0%, 0%)" stroke-opacity="1" stroke-miterlimit="10" d="M 23.387868 -4.990883 L 23.387868 -10.601395 " transform="matrix(0.99562, 0, 0, -0.99562, 2.995821, 2.995821)"/>
<path fill="none" stroke-width="0.69739" stroke-linecap="round" stroke-linejoin="round" stroke="rgb(0%, 0%, 0%)" stroke-opacity="1" stroke-miterlimit="10" d="M 67.353877 -7.796139 L 72.964388 -7.796139 " transform="matrix(0.99562, 0, 0, -0.99562, 2.995821, 2.995821)"/>
<path fill="none" stroke-width="0.69739" stroke-linecap="round" stroke-linejoin="round" stroke="rgb(0%, 0%, 0%)" stroke-opacity="1" stroke-miterlimit="10" d="M 70.159133 -4.990883 L 70.159133 -10.601395 " transform="matrix(0.99562, 0, 0, -0.99562, 2.995821, 2.995821)"/>
<path fill="none" stroke-width="0.69739" stroke-linecap="round" stroke-linejoin="round" stroke="rgb(0%, 0%, 0%)" stroke-opacity="1" stroke-miterlimit="10" d="M 20.578689 -23.387868 L 26.193124 -23.387868 " transform="matrix(0.99562, 0, 0, -0.99562, 2.995821, 2.995821)"/>
<path fill="none" stroke-width="0.69739" stroke-linecap="round" stroke-linejoin="round" stroke="rgb(0%, 0%, 0%)" stroke-opacity="1" stroke-miterlimit="10" d="M 23.387868 -20.578689 L 23.387868 -26.193124 " transform="matrix(0.99562, 0, 0, -0.99562, 2.995821, 2.995821)"/>
<path fill="none" stroke-width="0.69739" stroke-linecap="round" stroke-linejoin="round" stroke="rgb(0%, 0%, 0%)" stroke-opacity="1" stroke-miterlimit="10" d="M 20.578689 -38.975674 L 26.193124 -38.975674 " transform="matrix(0.99562, 0, 0, -0.99562, 2.995821, 2.995821)"/>
<path fill="none" stroke-width="0.69739" stroke-linecap="round" stroke-linejoin="round" stroke="rgb(0%, 0%, 0%)" stroke-opacity="1" stroke-miterlimit="10" d="M 23.387868 -36.170418 L 23.387868 -41.784853 " transform="matrix(0.99562, 0, 0, -0.99562, 2.995821, 2.995821)"/>
<path fill="none" stroke-width="0.69739" stroke-linecap="round" stroke-linejoin="round" stroke="rgb(0%, 0%, 0%)" stroke-opacity="1" stroke-miterlimit="10" d="M 4.990883 -70.159133 L 10.601395 -70.159133 " transform="matrix(0.99562, 0, 0, -0.99562, 2.995821, 2.995821)"/>
<path fill="none" stroke-width="0.69739" stroke-linecap="round" stroke-linejoin="round" stroke="rgb(0%, 0%, 0%)" stroke-opacity="1" stroke-miterlimit="10" d="M 7.796139 -67.353877 L 7.796139 -72.964388 " transform="matrix(0.99562, 0, 0, -0.99562, 2.995821, 2.995821)"/>
</svg>
