<?xml version="1.0" encoding="UTF-8"?>
<svg xmlns="http://www.w3.org/2000/svg" xmlns:xlink="http://www.w3.org/1999/xlink" width="111.709" height="110.412" viewBox="0 0 111.709 110.412">
<defs>
<g>
<g id="glyph-0-0">
<path d="M 2.328125 -4.40625 C 2.328125 -4.59375 2.3125 -4.609375 2.109375 -4.609375 C 1.671875 -4.171875 1.046875 -4.15625 0.75 -4.15625 L 0.75 -3.90625 C 0.921875 -3.90625 1.375 -3.90625 1.765625 -4.109375 L 1.765625 -0.5625 C 1.765625 -0.34375 1.765625 -0.25 1.0625 -0.25 L 0.8125 -0.25 L 0.8125 0 C 0.921875 0 1.78125 -0.03125 2.046875 -0.03125 C 2.25 -0.03125 3.125 0 3.28125 0 L 3.28125 -0.25 L 3.015625 -0.25 C 2.328125 -0.25 2.328125 -0.34375 2.328125 -0.5625 Z M 2.328125 -4.40625 "/>
</g>
<g id="glyph-0-1">
<path d="M 3.5 -1.265625 L 3.265625 -1.265625 C 3.25 -1.109375 3.171875 -0.703125 3.09375 -0.625 C 3.03125 -0.59375 2.5 -0.59375 2.40625 -0.59375 L 1.125 -0.59375 C 1.859375 -1.234375 2.09375 -1.421875 2.515625 -1.75 C 3.03125 -2.171875 3.5 -2.59375 3.5 -3.25 C 3.5 -4.09375 2.765625 -4.609375 1.875 -4.609375 C 1.015625 -4.609375 0.4375 -4 0.4375 -3.359375 C 0.4375 -3.015625 0.734375 -2.96875 0.8125 -2.96875 C 0.96875 -2.96875 1.171875 -3.09375 1.171875 -3.34375 C 1.171875 -3.46875 1.125 -3.71875 0.765625 -3.71875 C 0.984375 -4.203125 1.453125 -4.359375 1.78125 -4.359375 C 2.46875 -4.359375 2.828125 -3.8125 2.828125 -3.25 C 2.828125 -2.65625 2.40625 -2.171875 2.171875 -1.921875 L 0.5 -0.265625 C 0.4375 -0.203125 0.4375 -0.1875 0.4375 0 L 3.296875 0 Z M 3.5 -1.265625 "/>
</g>
<g id="glyph-0-2">
<path d="M 1.890625 -2.3125 C 2.4375 -2.3125 2.828125 -1.9375 2.828125 -1.203125 C 2.828125 -0.34375 2.328125 -0.078125 1.921875 -0.078125 C 1.640625 -0.078125 1.03125 -0.15625 0.75 -0.5625 C 1.0625 -0.578125 1.140625 -0.8125 1.140625 -0.953125 C 1.140625 -1.171875 0.984375 -1.34375 0.765625 -1.34375 C 0.5625 -1.34375 0.375 -1.21875 0.375 -0.9375 C 0.375 -0.28125 1.09375 0.140625 1.9375 0.140625 C 2.90625 0.140625 3.5625 -0.5 3.5625 -1.203125 C 3.5625 -1.734375 3.125 -2.28125 2.359375 -2.4375 C 3.09375 -2.703125 3.34375 -3.21875 3.34375 -3.65625 C 3.34375 -4.203125 2.71875 -4.609375 1.953125 -4.609375 C 1.171875 -4.609375 0.59375 -4.234375 0.59375 -3.671875 C 0.59375 -3.4375 0.75 -3.3125 0.953125 -3.3125 C 1.171875 -3.3125 1.296875 -3.46875 1.296875 -3.65625 C 1.296875 -3.859375 1.171875 -4.015625 0.953125 -4.03125 C 1.1875 -4.328125 1.671875 -4.40625 1.921875 -4.40625 C 2.234375 -4.40625 2.671875 -4.25 2.671875 -3.65625 C 2.671875 -3.359375 2.578125 -3.03125 2.40625 -2.828125 C 2.171875 -2.5625 1.984375 -2.546875 1.625 -2.53125 C 1.453125 -2.515625 1.4375 -2.515625 1.40625 -2.5 C 1.390625 -2.5 1.34375 -2.484375 1.34375 -2.421875 C 1.34375 -2.3125 1.40625 -2.3125 1.515625 -2.3125 Z M 1.890625 -2.3125 "/>
</g>
<g id="glyph-0-3">
<path d="M 3.671875 -1.140625 L 3.671875 -1.390625 L 2.90625 -1.390625 L 2.90625 -4.484375 C 2.90625 -4.625 2.90625 -4.671875 2.75 -4.671875 C 2.65625 -4.671875 2.640625 -4.671875 2.5625 -4.578125 L 0.265625 -1.390625 L 0.265625 -1.140625 L 2.3125 -1.140625 L 2.3125 -0.5625 C 2.3125 -0.328125 2.3125 -0.25 1.75 -0.25 L 1.5625 -0.25 L 1.5625 0 C 1.90625 -0.015625 2.359375 -0.03125 2.609375 -0.03125 C 2.859375 -0.03125 3.296875 -0.015625 3.65625 0 L 3.65625 -0.25 L 3.46875 -0.25 C 2.90625 -0.25 2.90625 -0.328125 2.90625 -0.5625 L 2.90625 -1.140625 Z M 2.359375 -3.921875 L 2.359375 -1.390625 L 0.53125 -1.390625 Z M 2.359375 -3.921875 "/>
</g>
<g id="glyph-0-4">
<path d="M 1.078125 -3.875 C 1.421875 -3.78125 1.640625 -3.78125 1.75 -3.78125 C 2.65625 -3.78125 3.203125 -4.40625 3.203125 -4.515625 C 3.203125 -4.578125 3.15625 -4.609375 3.125 -4.609375 C 3.109375 -4.609375 3.09375 -4.609375 3.0625 -4.578125 C 2.90625 -4.515625 2.53125 -4.390625 2.015625 -4.390625 C 1.828125 -4.390625 1.453125 -4.390625 1 -4.578125 C 0.9375 -4.609375 0.921875 -4.609375 0.921875 -4.609375 C 0.828125 -4.609375 0.828125 -4.53125 0.828125 -4.421875 L 0.828125 -2.375 C 0.828125 -2.25 0.828125 -2.171875 0.9375 -2.171875 C 1 -2.171875 1 -2.1875 1.078125 -2.265625 C 1.375 -2.65625 1.796875 -2.703125 2.046875 -2.703125 C 2.453125 -2.703125 2.640625 -2.375 2.671875 -2.3125 C 2.796875 -2.09375 2.84375 -1.828125 2.84375 -1.421875 C 2.84375 -1.21875 2.84375 -0.8125 2.640625 -0.5 C 2.46875 -0.25 2.171875 -0.078125 1.828125 -0.078125 C 1.375 -0.078125 0.90625 -0.328125 0.734375 -0.796875 C 1 -0.765625 1.125 -0.9375 1.125 -1.125 C 1.125 -1.421875 0.875 -1.484375 0.78125 -1.484375 C 0.765625 -1.484375 0.4375 -1.484375 0.4375 -1.109375 C 0.4375 -0.484375 1 0.140625 1.84375 0.140625 C 2.71875 0.140625 3.5 -0.515625 3.5 -1.390625 C 3.5 -2.171875 2.90625 -2.90625 2.046875 -2.90625 C 1.734375 -2.90625 1.375 -2.828125 1.078125 -2.5625 Z M 1.078125 -3.875 "/>
</g>
<g id="glyph-0-5">
<path d="M 1.046875 -2.265625 C 1.046875 -2.84375 1.09375 -3.34375 1.359375 -3.78125 C 1.59375 -4.15625 1.96875 -4.40625 2.40625 -4.40625 C 2.609375 -4.40625 2.890625 -4.34375 3.03125 -4.15625 C 2.859375 -4.15625 2.71875 -4.03125 2.71875 -3.828125 C 2.71875 -3.65625 2.828125 -3.5 3.03125 -3.5 C 3.25 -3.5 3.375 -3.640625 3.375 -3.84375 C 3.375 -4.25 3.078125 -4.609375 2.390625 -4.609375 C 1.390625 -4.609375 0.375 -3.6875 0.375 -2.203125 C 0.375 -0.40625 1.21875 0.140625 1.984375 0.140625 C 2.828125 0.140625 3.5625 -0.5 3.5625 -1.421875 C 3.5625 -2.296875 2.859375 -2.953125 2.046875 -2.953125 C 1.5 -2.953125 1.1875 -2.578125 1.046875 -2.265625 Z M 1.984375 -0.078125 C 1.640625 -0.078125 1.359375 -0.28125 1.21875 -0.59375 C 1.109375 -0.796875 1.0625 -1.140625 1.0625 -1.5625 C 1.0625 -2.234375 1.46875 -2.75 2.015625 -2.75 C 2.34375 -2.75 2.546875 -2.625 2.71875 -2.375 C 2.890625 -2.109375 2.90625 -1.8125 2.90625 -1.421875 C 2.90625 -1.015625 2.90625 -0.734375 2.71875 -0.453125 C 2.546875 -0.21875 2.328125 -0.078125 1.984375 -0.078125 Z M 1.984375 -0.078125 "/>
</g>
<g id="glyph-1-0">
<path d="M 1.578125 -1.734375 C 1.578125 -1.984375 1.359375 -2.140625 1.171875 -2.140625 C 0.953125 -2.140625 0.78125 -1.953125 0.78125 -1.734375 C 0.78125 -1.484375 0.984375 -1.34375 1.171875 -1.34375 C 1.40625 -1.34375 1.578125 -1.53125 1.578125 -1.734375 Z M 1.578125 -1.734375 "/>
</g>
<g id="glyph-2-0">
<path d="M 6.296875 -2.046875 C 6.421875 -2.046875 6.609375 -2.046875 6.609375 -2.234375 C 6.609375 -2.421875 6.4375 -2.421875 6.296875 -2.421875 L 3.75 -2.421875 L 3.75 -4.984375 C 3.75 -5.125 3.75 -5.296875 3.5625 -5.296875 C 3.375 -5.296875 3.375 -5.109375 3.375 -4.984375 L 3.375 -2.421875 L 0.828125 -2.421875 C 0.703125 -2.421875 0.515625 -2.421875 0.515625 -2.234375 C 0.515625 -2.046875 0.671875 -2.046875 0.828125 -2.046875 L 3.375 -2.046875 L 3.375 0.515625 C 3.375 0.65625 3.375 0.828125 3.5625 0.828125 C 3.75 0.828125 3.75 0.640625 3.75 0.515625 L 3.75 -2.046875 Z M 6.296875 -2.046875 "/>
</g>
</g>
</defs>
<g fill="rgb(29.998779%, 29.998779%, 29.998779%)" fill-opacity="1">
<use xlink:href="#glyph-0-0" x="6.273544" y="23.775384"/>
</g>
<path fill-rule="nonzero" fill="rgb(100%, 100%, 100%)" fill-opacity="1" stroke-width="0.3487" stroke-linecap="round" stroke-linejoin="round" stroke="rgb(64.99939%, 64.99939%, 64.99939%)" stroke-opacity="1" stroke-miterlimit="10" d="M -0.00030191 0.000430789 L -0.00030191 -15.589969 L 15.590098 -15.589969 L 15.590098 0.000430789 Z M -0.00030191 0.000430789 " transform="matrix(0.994703, 0, 0, -0.994703, 15.226863, 13.785585)"/>
<g fill="rgb(54.998779%, 54.998779%, 54.998779%)" fill-opacity="1">
<use xlink:href="#glyph-1-0" x="21.804832" y="23.153695"/>
</g>
<path fill-rule="nonzero" fill="rgb(100%, 100%, 100%)" fill-opacity="1" stroke-width="0.3487" stroke-linecap="round" stroke-linejoin="round" stroke="rgb(64.99939%, 64.99939%, 64.99939%)" stroke-opacity="1" stroke-miterlimit="10" d="M 15.590098 0.000430789 L 15.590098 -15.589969 L 31.180497 -15.589969 L 31.180497 0.000430789 Z M 15.590098 0.000430789 " transform="matrix(0.994703, 0, 0, -0.994703, 15.226863, 13.785585)"/>
<g fill="rgb(54.998779%, 54.998779%, 54.998779%)" fill-opacity="1">
<use xlink:href="#glyph-1-0" x="37.312247" y="23.153695"/>
</g>
<path fill-rule="nonzero" fill="rgb(100%, 100%, 100%)" fill-opacity="1" stroke-width="0.3487" stroke-linecap="round" stroke-linejoin="round" stroke="rgb(64.99939%, 64.99939%, 64.99939%)" stroke-opacity="1" stroke-miterlimit="10" d="M 31.180497 0.000430789 L 31.180497 -15.589969 L 46.770897 -15.589969 L 46.770897 0.000430789 Z M 31.180497 0.000430789 " transform="matrix(0.994703, 0, 0, -0.994703, 15.226863, 13.785585)"/>
<g fill="rgb(54.998779%, 54.998779%, 54.998779%)" fill-opacity="1">
<use xlink:href="#glyph-1-0" x="52.820657" y="23.153695"/>
</g>
<path fill-rule="nonzero" fill="rgb(100%, 100%, 100%)" fill-opacity="1" stroke-width="0.3487" stroke-linecap="round" stroke-linejoin="round" stroke="rgb(64.99939%, 64.99939%, 64.99939%)" stroke-opacity="1" stroke-miterlimit="10" d="M 46.770897 0.000430789 L 46.770897 -15.589969 L 62.365223 -15.589969 L 62.365223 0.000430789 Z M 46.770897 0.000430789 " transform="matrix(0.994703, 0, 0, -0.994703, 15.226863, 13.785585)"/>
<g fill="rgb(54.998779%, 54.998779%, 54.998779%)" fill-opacity="1">
<use xlink:href="#glyph-1-0" x="68.329067" y="23.153695"/>
</g>
<path fill-rule="nonzero" fill="rgb(100%, 100%, 100%)" fill-opacity="1" stroke-width="0.3487" stroke-linecap="round" stroke-linejoin="round" stroke="rgb(64.99939%, 64.99939%, 64.99939%)" stroke-opacity="1" stroke-miterlimit="10" d="M 62.365223 0.000430789 L 62.365223 -15.589969 L 77.955623 -15.589969 L 77.955623 0.000430789 Z M 62.365223 0.000430789 " transform="matrix(0.994703, 0, 0, -0.994703, 15.226863, 13.785585)"/>
<g fill="rgb(54.998779%, 54.998779%, 54.998779%)" fill-opacity="1">
<use xlink:href="#glyph-1-0" x="83.836482" y="23.153695"/>
</g>
<path fill-rule="nonzero" fill="rgb(100%, 100%, 100%)" fill-opacity="1" stroke-width="0.3487" stroke-linecap="round" stroke-linejoin="round" stroke="rgb(64.99939%, 64.99939%, 64.99939%)" stroke-opacity="1" stroke-miterlimit="10" d="M 77.955623 0.000430789 L 77.955623 -15.589969 L 93.546022 -15.589969 L 93.546022 0.000430789 Z M 77.955623 0.000430789 " transform="matrix(0.994703, 0, 0, -0.994703, 15.226863, 13.785585)"/>
<g fill="rgb(54.998779%, 54.998779%, 54.998779%)" fill-opacity="1">
<use xlink:href="#glyph-1-0" x="99.344892" y="23.153695"/>
</g>
<g fill="rgb(29.998779%, 29.998779%, 29.998779%)" fill-opacity="1">
<use xlink:href="#glyph-0-1" x="6.273544" y="39.282799"/>
</g>
<path fill-rule="nonzero" fill="rgb(100%, 100%, 100%)" fill-opacity="1" stroke-width="0.3487" stroke-linecap="round" stroke-linejoin="round" stroke="rgb(64.99939%, 64.99939%, 64.99939%)" stroke-opacity="1" stroke-miterlimit="10" d="M -0.00030191 -15.589969 L -0.00030191 -31.180368 L 15.590098 -31.180368 L 15.590098 -15.589969 Z M -0.00030191 -15.589969 " transform="matrix(0.994703, 0, 0, -0.994703, 15.226863, 13.785585)"/>
<g fill="rgb(54.998779%, 54.998779%, 54.998779%)" fill-opacity="1">
<use xlink:href="#glyph-1-0" x="21.804832" y="38.662105"/>
</g>
<path fill-rule="nonzero" fill="rgb(100%, 100%, 100%)" fill-opacity="1" stroke-width="0.3487" stroke-linecap="round" stroke-linejoin="round" stroke="rgb(64.99939%, 64.99939%, 64.99939%)" stroke-opacity="1" stroke-miterlimit="10" d="M 15.590098 -15.589969 L 15.590098 -31.180368 L 31.180497 -31.180368 L 31.180497 -15.589969 Z M 15.590098 -15.589969 " transform="matrix(0.994703, 0, 0, -0.994703, 15.226863, 13.785585)"/>
<g fill="rgb(54.998779%, 54.998779%, 54.998779%)" fill-opacity="1">
<use xlink:href="#glyph-1-0" x="37.312247" y="38.662105"/>
</g>
<path fill-rule="nonzero" fill="rgb(100%, 100%, 100%)" fill-opacity="1" stroke-width="0.3487" stroke-linecap="round" stroke-linejoin="round" stroke="rgb(64.99939%, 64.99939%, 64.99939%)" stroke-opacity="1" stroke-miterlimit="10" d="M 31.180497 -15.589969 L 31.180497 -31.180368 L 46.770897 -31.180368 L 46.770897 -15.589969 Z M 31.180497 -15.589969 " transform="matrix(0.994703, 0, 0, -0.994703, 15.226863, 13.785585)"/>
<g fill="rgb(54.998779%, 54.998779%, 54.998779%)" fill-opacity="1">
<use xlink:href="#glyph-1-0" x="52.820657" y="38.662105"/>
</g>
<path fill-rule="nonzero" fill="rgb(100%, 100%, 100%)" fill-opacity="1" stroke-width="0.3487" stroke-linecap="round" stroke-linejoin="round" stroke="rgb(64.99939%, 64.99939%, 64.99939%)" stroke-opacity="1" stroke-miterlimit="10" d="M 46.770897 -15.589969 L 46.770897 -31.180368 L 62.365223 -31.180368 L 62.365223 -15.589969 Z M 46.770897 -15.589969 " transform="matrix(0.994703, 0, 0, -0.994703, 15.226863, 13.785585)"/>
<g fill="rgb(54.998779%, 54.998779%, 54.998779%)" fill-opacity="1">
<use xlink:href="#glyph-1-0" x="68.329067" y="38.662105"/>
</g>
<path fill-rule="nonzero" fill="rgb(100%, 100%, 100%)" fill-opacity="1" stroke-width="0.3487" stroke-linecap="round" stroke-linejoin="round" stroke="rgb(64.99939%, 64.99939%, 64.99939%)" stroke-opacity="1" stroke-miterlimit="10" d="M 62.365223 -15.589969 L 62.365223 -31.180368 L 77.955623 -31.180368 L 77.955623 -15.589969 Z M 62.365223 -15.589969 " transform="matrix(0.994703, 0, 0, -0.994703, 15.226863, 13.785585)"/>
<g fill="rgb(54.998779%, 54.998779%, 54.998779%)" fill-opacity="1">
<use xlink:href="#glyph-1-0" x="83.836482" y="38.662105"/>
</g>
<g fill="rgb(29.998779%, 29.998779%, 29.998779%)" fill-opacity="1">
<use xlink:href="#glyph-0-2" x="6.273544" y="54.791209"/>
</g>
<path fill-rule="nonzero" fill="rgb(100%, 100%, 100%)" fill-opacity="1" stroke-width="0.3487" stroke-linecap="round" stroke-linejoin="round" stroke="rgb(64.99939%, 64.99939%, 64.99939%)" stroke-opacity="1" stroke-miterlimit="10" d="M -0.00030191 -31.180368 L -0.00030191 -46.770768 L 15.590098 -46.770768 L 15.590098 -31.180368 Z M -0.00030191 -31.180368 " transform="matrix(0.994703, 0, 0, -0.994703, 15.226863, 13.785585)"/>
<g fill="rgb(54.998779%, 54.998779%, 54.998779%)" fill-opacity="1">
<use xlink:href="#glyph-1-0" x="21.804832" y="54.16952"/>
</g>
<path fill-rule="nonzero" fill="rgb(100%, 100%, 100%)" fill-opacity="1" stroke-width="0.3487" stroke-linecap="round" stroke-linejoin="round" stroke="rgb(64.99939%, 64.99939%, 64.99939%)" stroke-opacity="1" stroke-miterlimit="10" d="M 15.590098 -31.180368 L 15.590098 -46.770768 L 31.180497 -46.770768 L 31.180497 -31.180368 Z M 15.590098 -31.180368 " transform="matrix(0.994703, 0, 0, -0.994703, 15.226863, 13.785585)"/>
<g fill="rgb(54.998779%, 54.998779%, 54.998779%)" fill-opacity="1">
<use xlink:href="#glyph-1-0" x="37.312247" y="54.16952"/>
</g>
<path fill-rule="nonzero" fill="rgb(100%, 100%, 100%)" fill-opacity="1" stroke-width="0.3487" stroke-linecap="round" stroke-linejoin="round" stroke="rgb(64.99939%, 64.99939%, 64.99939%)" stroke-opacity="1" stroke-miterlimit="10" d="M 31.180497 -31.180368 L 31.180497 -46.770768 L 46.770897 -46.770768 L 46.770897 -31.180368 Z M 31.180497 -31.180368 " transform="matrix(0.994703, 0, 0, -0.994703, 15.226863, 13.785585)"/>
<g fill="rgb(54.998779%, 54.998779%, 54.998779%)" fill-opacity="1">
<use xlink:href="#glyph-1-0" x="52.820657" y="54.16952"/>
</g>
<path fill-rule="nonzero" fill="rgb(100%, 100%, 100%)" fill-opacity="1" stroke-width="0.3487" stroke-linecap="round" stroke-linejoin="round" stroke="rgb(64.99939%, 64.99939%, 64.99939%)" stroke-opacity="1" stroke-miterlimit="10" d="M 46.770897 -31.180368 L 46.770897 -46.770768 L 62.365223 -46.770768 L 62.365223 -31.180368 Z M 46.770897 -31.180368 " transform="matrix(0.994703, 0, 0, -0.994703, 15.226863, 13.785585)"/>
<g fill="rgb(54.998779%, 54.998779%, 54.998779%)" fill-opacity="1">
<use xlink:href="#glyph-1-0" x="68.329067" y="54.16952"/>
</g>
<g fill="rgb(29.998779%, 29.998779%, 29.998779%)" fill-opacity="1">
<use xlink:href="#glyph-0-3" x="6.273544" y="70.298624"/>
</g>
<path fill-rule="nonzero" fill="rgb(100%, 100%, 100%)" fill-opacity="1" stroke-width="0.3487" stroke-linecap="round" stroke-linejoin="round" stroke="rgb(64.99939%, 64.99939%, 64.99939%)" stroke-opacity="1" stroke-miterlimit="10" d="M -0.00030191 -46.770768 L -0.00030191 -62.365094 L 15.590098 -62.365094 L 15.590098 -46.770768 Z M -0.00030191 -46.770768 " transform="matrix(0.994703, 0, 0, -0.994703, 15.226863, 13.785585)"/>
<g fill="rgb(54.998779%, 54.998779%, 54.998779%)" fill-opacity="1">
<use xlink:href="#glyph-1-0" x="21.804832" y="69.67793"/>
</g>
<path fill-rule="nonzero" fill="rgb(100%, 100%, 100%)" fill-opacity="1" stroke-width="0.3487" stroke-linecap="round" stroke-linejoin="round" stroke="rgb(64.99939%, 64.99939%, 64.99939%)" stroke-opacity="1" stroke-miterlimit="10" d="M 15.590098 -46.770768 L 15.590098 -62.365094 L 31.180497 -62.365094 L 31.180497 -46.770768 Z M 15.590098 -46.770768 " transform="matrix(0.994703, 0, 0, -0.994703, 15.226863, 13.785585)"/>
<g fill="rgb(54.998779%, 54.998779%, 54.998779%)" fill-opacity="1">
<use xlink:href="#glyph-1-0" x="37.312247" y="69.67793"/>
</g>
<path fill-rule="nonzero" fill="rgb(100%, 100%, 100%)" fill-opacity="1" stroke-width="0.3487" stroke-linecap="round" stroke-linejoin="round" stroke="rgb(64.99939%, 64.99939%, 64.99939%)" stroke-opacity="1" stroke-miterlimit="10" d="M 31.180497 -46.770768 L 31.180497 -62.365094 L 46.770897 -62.365094 L 46.770897 -46.770768 Z M 31.180497 -46.770768 " transform="matrix(0.994703, 0, 0, -0.994703, 15.226863, 13.785585)"/>
<g fill="rgb(54.998779%, 54.998779%, 54.998779%)" fill-opacity="1">
<use xlink:href="#glyph-1-0" x="52.820657" y="69.67793"/>
</g>
<g fill="rgb(29.998779%, 29.998779%, 29.998779%)" fill-opacity="1">
<use xlink:href="#glyph-0-4" x="6.273544" y="85.807034"/>
</g>
<path fill-rule="nonzero" fill="rgb(100%, 100%, 100%)" fill-opacity="1" stroke-width="0.3487" stroke-linecap="round" stroke-linejoin="round" stroke="rgb(64.99939%, 64.99939%, 64.99939%)" stroke-opacity="1" stroke-miterlimit="10" d="M -0.00030191 -62.365094 L -0.00030191 -77.955494 L 15.590098 -77.955494 L 15.590098 -62.365094 Z M -0.00030191 -62.365094 " transform="matrix(0.994703, 0, 0, -0.994703, 15.226863, 13.785585)"/>
<g fill="rgb(54.998779%, 54.998779%, 54.998779%)" fill-opacity="1">
<use xlink:href="#glyph-1-0" x="21.804832" y="85.185345"/>
</g>
<path fill-rule="nonzero" fill="rgb(100%, 100%, 100%)" fill-opacity="1" stroke-width="0.3487" stroke-linecap="round" stroke-linejoin="round" stroke="rgb(64.99939%, 64.99939%, 64.99939%)" stroke-opacity="1" stroke-miterlimit="10" d="M 15.590098 -62.365094 L 15.590098 -77.955494 L 31.180497 -77.955494 L 31.180497 -62.365094 Z M 15.590098 -62.365094 " transform="matrix(0.994703, 0, 0, -0.994703, 15.226863, 13.785585)"/>
<g fill="rgb(54.998779%, 54.998779%, 54.998779%)" fill-opacity="1">
<use xlink:href="#glyph-1-0" x="37.312247" y="85.185345"/>
</g>
<g fill="rgb(29.998779%, 29.998779%, 29.998779%)" fill-opacity="1">
<use xlink:href="#glyph-0-5" x="6.273544" y="101.315444"/>
</g>
<path fill-rule="nonzero" fill="rgb(100%, 100%, 100%)" fill-opacity="1" stroke-width="0.3487" stroke-linecap="round" stroke-linejoin="round" stroke="rgb(64.99939%, 64.99939%, 64.99939%)" stroke-opacity="1" stroke-miterlimit="10" d="M -0.00030191 -77.955494 L -0.00030191 -93.545893 L 15.590098 -93.545893 L 15.590098 -77.955494 Z M -0.00030191 -77.955494 " transform="matrix(0.994703, 0, 0, -0.994703, 15.226863, 13.785585)"/>
<g fill="rgb(54.998779%, 54.998779%, 54.998779%)" fill-opacity="1">
<use xlink:href="#glyph-1-0" x="21.804832" y="100.693755"/>
</g>
<g fill="rgb(29.998779%, 29.998779%, 29.998779%)" fill-opacity="1">
<use xlink:href="#glyph-0-0" x="21.006086" y="10.592589"/>
</g>
<g fill="rgb(29.998779%, 29.998779%, 29.998779%)" fill-opacity="1">
<use xlink:href="#glyph-0-1" x="36.514495" y="10.592589"/>
</g>
<g fill="rgb(29.998779%, 29.998779%, 29.998779%)" fill-opacity="1">
<use xlink:href="#glyph-0-2" x="52.02191" y="10.592589"/>
</g>
<g fill="rgb(29.998779%, 29.998779%, 29.998779%)" fill-opacity="1">
<use xlink:href="#glyph-0-3" x="67.53032" y="10.592589"/>
</g>
<g fill="rgb(29.998779%, 29.998779%, 29.998779%)" fill-opacity="1">
<use xlink:href="#glyph-0-4" x="83.03873" y="10.592589"/>
</g>
<g fill="rgb(29.998779%, 29.998779%, 29.998779%)" fill-opacity="1">
<use xlink:href="#glyph-0-5" x="98.546145" y="10.592589"/>
</g>
<g fill="rgb(0%, 0%, 0%)" fill-opacity="1">
<use xlink:href="#glyph-2-0" x="19.416551" y="23.769416"/>
</g>
<g fill="rgb(0%, 0%, 0%)" fill-opacity="1">
<use xlink:href="#glyph-2-0" x="34.92496" y="23.769416"/>
</g>
<g fill="rgb(0%, 0%, 0%)" fill-opacity="1">
<use xlink:href="#glyph-2-0" x="81.449195" y="23.769416"/>
</g>
<g fill="rgb(0%, 0%, 0%)" fill-opacity="1">
<use xlink:href="#glyph-2-0" x="34.92496" y="39.277826"/>
</g>
<g fill="rgb(0%, 0%, 0%)" fill-opacity="1">
<use xlink:href="#glyph-2-0" x="34.92496" y="54.785241"/>
</g>
<g fill="rgb(0%, 0%, 0%)" fill-opacity="1">
<use xlink:href="#glyph-2-0" x="19.416551" y="85.80206"/>
</g>
</svg>
