<?xml version="1.0" encoding="UTF-8"?>
<svg xmlns="http://www.w3.org/2000/svg" xmlns:xlink="http://www.w3.org/1999/xlink" width="155.906" height="93.543" viewBox="0 0 155.906 93.543">
<path fill-rule="nonzero" fill="rgb(89.84375%, 93.685913%, 100%)" fill-opacity="1" stroke-width="0.3985" stroke-linecap="round" stroke-linejoin="round" stroke="rgb(0%, 0%, 0%)" stroke-opacity="1" stroke-miterlimit="10" d="M -34.032622 28.632032 L -59.511964 28.632032 C -61.714076 28.632032 -63.496178 26.846006 -63.496178 24.643893 L -63.496178 10.504841 C -63.496178 8.302729 -61.714076 6.520627 -59.511964 6.520627 L -34.032622 6.520627 C -31.83051 6.520627 -30.048409 8.302729 -30.048409 10.504841 L -30.048409 24.643893 C -30.048409 26.846006 -31.83051 28.632032 -34.032622 28.632032 Z M -34.032622 28.632032 " transform="matrix(0.995138, 0, 0, -0.995138, 77.906228, 46.543613)"/>
<path fill-rule="nonzero" fill="rgb(89.959717%, 94.413757%, 91.717529%)" fill-opacity="1" stroke-width="0.3985" stroke-linecap="round" stroke-linejoin="round" stroke="rgb(0%, 0%, 0%)" stroke-opacity="1" stroke-miterlimit="10" d="M 59.512007 28.632032 L 34.032666 28.632032 C 31.830553 28.632032 30.048452 26.846006 30.048452 24.643893 L 30.048452 10.504841 C 30.048452 8.302729 31.830553 6.520627 34.032666 6.520627 L 59.512007 6.520627 C 61.71412 6.520627 63.496221 8.302729 63.496221 10.504841 L 63.496221 24.643893 C 63.496221 26.846006 61.71412 28.632032 59.512007 28.632032 Z M 59.512007 28.632032 " transform="matrix(0.995138, 0, 0, -0.995138, 77.906228, 46.543613)"/>
<path fill-rule="nonzero" fill="rgb(97.950745%, 92.234802%, 86.729431%)" fill-opacity="1" stroke-width="0.3985" stroke-linecap="round" stroke-linejoin="round" stroke="rgb(0%, 0%, 0%)" stroke-opacity="1" stroke-miterlimit="10" d="M 14.158701 -9.636047 L -14.158657 -9.636047 C -16.356844 -9.636047 -18.142871 -11.422074 -18.142871 -13.624186 L -18.142871 -28.89766 C -18.142871 -31.099772 -16.356844 -32.881874 -14.158657 -32.881874 L 14.158701 -32.881874 C 16.356888 -32.881874 18.142914 -31.099772 18.142914 -28.89766 L 18.142914 -13.624186 C 18.142914 -11.422074 16.356888 -9.636047 14.158701 -9.636047 Z M 14.158701 -9.636047 " transform="matrix(0.995138, 0, 0, -0.995138, 77.906228, 46.543613)"/>
<path fill="none" stroke-width="0.89664" stroke-linecap="round" stroke-linejoin="round" stroke="rgb(0%, 0%, 0%)" stroke-opacity="1" stroke-miterlimit="10" d="M -25.475395 17.574367 L 25.475438 17.574367 " transform="matrix(0.995138, 0, 0, -0.995138, 77.906228, 46.543613)"/>
<path fill-rule="nonzero" fill="rgb(0%, 0%, 0%)" fill-opacity="1" stroke-width="0.89664" stroke-linecap="round" stroke-linejoin="miter" stroke="rgb(0%, 0%, 0%)" stroke-opacity="1" stroke-miterlimit="10" d="M 5.747943 0.000492832 L 1.449703 1.625581 L 2.874599 0.000492832 L 1.449703 -1.628521 Z M 5.747943 0.000492832 " transform="matrix(-0.995138, 0, 0, 0.995138, 55.192655, 29.054197)"/>
<path fill-rule="nonzero" fill="rgb(0%, 0%, 0%)" fill-opacity="1" stroke-width="0.89664" stroke-linecap="round" stroke-linejoin="miter" stroke="rgb(0%, 0%, 0%)" stroke-opacity="1" stroke-miterlimit="10" d="M 5.747986 -0.000492832 L 1.449746 1.628521 L 2.874642 -0.000492832 L 1.449746 -1.625581 Z M 5.747986 -0.000492832 " transform="matrix(0.995138, 0, 0, -0.995138, 100.619802, 29.054197)"/>
<path fill="none" stroke-width="0.89664" stroke-linecap="round" stroke-linejoin="round" stroke="rgb(0%, 0%, 0%)" stroke-opacity="1" stroke-miterlimit="10" d="M -14.237164 -9.43978 L -29.856067 3.529523 " transform="matrix(0.995138, 0, 0, -0.995138, 77.906228, 46.543613)"/>
<path fill-rule="nonzero" fill="rgb(0%, 0%, 0%)" fill-opacity="1" stroke-width="0.89664" stroke-linecap="round" stroke-linejoin="miter" stroke="rgb(0%, 0%, 0%)" stroke-opacity="1" stroke-miterlimit="10" d="M 5.747422 0.00160225 L 1.449079 1.627117 L 2.875965 0.000473031 L 1.447977 -1.628839 Z M 5.747422 0.00160225 " transform="matrix(-0.76564, -0.635595, -0.635595, 0.76564, 50.22569, 44.718211)"/>
<path fill="none" stroke-width="0.89664" stroke-linecap="round" stroke-linejoin="round" stroke="rgb(0%, 0%, 0%)" stroke-opacity="1" stroke-miterlimit="10" d="M 14.237207 -9.43978 L 29.856111 3.529523 " transform="matrix(0.995138, 0, 0, -0.995138, 77.906228, 46.543613)"/>
<path fill-rule="nonzero" fill="rgb(0%, 0%, 0%)" fill-opacity="1" stroke-width="0.89664" stroke-linecap="round" stroke-linejoin="miter" stroke="rgb(0%, 0%, 0%)" stroke-opacity="1" stroke-miterlimit="10" d="M 5.747455 -0.00162985 L 1.44801 1.628811 L 2.875998 -0.000500633 L 1.449112 -1.627144 Z M 5.747455 -0.00162985 " transform="matrix(0.76564, -0.635595, -0.635595, -0.76564, 105.586767, 44.718211)"/>
<path fill-rule="nonzero" fill="rgb(65.174866%, 78.353882%, 100%)" fill-opacity="1" stroke-width="0.44832" stroke-linecap="round" stroke-linejoin="round" stroke="rgb(0%, 0%, 0%)" stroke-opacity="1" stroke-miterlimit="10" d="M -56.128326 23.246475 L -56.128326 18.143541 L -51.025393 18.143541 L -51.025393 23.246475 Z M -56.128326 23.246475 " transform="matrix(0.995138, 0, 0, -0.995138, 77.906228, 46.543613)"/>
<path fill-rule="nonzero" fill="rgb(65.174866%, 78.353882%, 100%)" fill-opacity="1" stroke-width="0.44832" stroke-linecap="round" stroke-linejoin="round" stroke="rgb(0%, 0%, 0%)" stroke-opacity="1" stroke-miterlimit="10" d="M -51.025393 23.246475 L -51.025393 18.143541 L -45.922459 18.143541 L -45.922459 23.246475 Z M -51.025393 23.246475 " transform="matrix(0.995138, 0, 0, -0.995138, 77.906228, 46.543613)"/>
<path fill-rule="nonzero" fill="rgb(65.174866%, 78.353882%, 100%)" fill-opacity="1" stroke-width="0.44832" stroke-linecap="round" stroke-linejoin="round" stroke="rgb(0%, 0%, 0%)" stroke-opacity="1" stroke-miterlimit="10" d="M -56.128326 18.143541 L -56.128326 13.040607 L -51.025393 13.040607 L -51.025393 18.143541 Z M -56.128326 18.143541 " transform="matrix(0.995138, 0, 0, -0.995138, 77.906228, 46.543613)"/>
<path fill-rule="nonzero" fill="rgb(65.174866%, 78.353882%, 100%)" fill-opacity="1" stroke-width="0.44832" stroke-linecap="round" stroke-linejoin="round" stroke="rgb(0%, 0%, 0%)" stroke-opacity="1" stroke-miterlimit="10" d="M -56.128326 13.040607 L -56.128326 7.937673 L -51.025393 7.937673 L -51.025393 13.040607 Z M -56.128326 13.040607 " transform="matrix(0.995138, 0, 0, -0.995138, 77.906228, 46.543613)"/>
<path fill-rule="nonzero" fill="rgb(65.174866%, 78.353882%, 100%)" fill-opacity="1" stroke-width="0.44832" stroke-linecap="round" stroke-linejoin="round" stroke="rgb(0%, 0%, 0%)" stroke-opacity="1" stroke-miterlimit="10" d="M -51.025393 13.040607 L -51.025393 7.937673 L -45.922459 7.937673 L -45.922459 13.040607 Z M -51.025393 13.040607 " transform="matrix(0.995138, 0, 0, -0.995138, 77.906228, 46.543613)"/>
<path fill-rule="nonzero" fill="rgb(71.763611%, 84.292603%, 76.705933%)" fill-opacity="1" stroke-width="0.44832" stroke-linecap="round" stroke-linejoin="round" stroke="rgb(0%, 0%, 0%)" stroke-opacity="1" stroke-miterlimit="10" d="M 36.285807 22.747957 L 36.285807 20.906976 C 36.285807 20.632202 36.505626 20.408458 36.780399 20.408458 L 40.207216 20.408458 C 40.481989 20.408458 40.705733 20.632202 40.705733 20.906976 L 40.705733 22.747957 C 40.705733 23.02273 40.481989 23.246475 40.207216 23.246475 L 36.780399 23.246475 C 36.505626 23.246475 36.285807 23.02273 36.285807 22.747957 Z M 36.285807 22.747957 " transform="matrix(0.995138, 0, 0, -0.995138, 77.906228, 46.543613)"/>
<path fill-rule="nonzero" fill="rgb(71.763611%, 84.292603%, 76.705933%)" fill-opacity="1" stroke-width="0.44832" stroke-linecap="round" stroke-linejoin="round" stroke="rgb(0%, 0%, 0%)" stroke-opacity="1" stroke-miterlimit="10" d="M 41.953989 22.747957 L 41.953989 20.906976 C 41.953989 20.632202 42.177733 20.408458 42.452507 20.408458 L 45.875398 20.408458 C 46.150171 20.408458 46.373915 20.632202 46.373915 20.906976 L 46.373915 22.747957 C 46.373915 23.02273 46.150171 23.246475 45.875398 23.246475 L 42.452507 23.246475 C 42.177733 23.246475 41.953989 23.02273 41.953989 22.747957 Z M 41.953989 22.747957 " transform="matrix(0.995138, 0, 0, -0.995138, 77.906228, 46.543613)"/>
<path fill-rule="nonzero" fill="rgb(71.763611%, 84.292603%, 76.705933%)" fill-opacity="1" stroke-width="0.44832" stroke-linecap="round" stroke-linejoin="round" stroke="rgb(0%, 0%, 0%)" stroke-opacity="1" stroke-miterlimit="10" d="M 36.285807 17.07585 L 36.285807 15.238794 C 36.285807 14.96402 36.505626 14.740276 36.780399 14.740276 L 40.207216 14.740276 C 40.481989 14.740276 40.705733 14.96402 40.705733 15.238794 L 40.705733 17.07585 C 40.705733 17.350623 40.481989 17.574367 40.207216 17.574367 L 36.780399 17.574367 C 36.505626 17.574367 36.285807 17.350623 36.285807 17.07585 Z M 36.285807 17.07585 " transform="matrix(0.995138, 0, 0, -0.995138, 77.906228, 46.543613)"/>
<path fill-rule="nonzero" fill="rgb(45.588684%, 66.175842%, 100%)" fill-opacity="1" stroke-width="0.49814" stroke-linecap="round" stroke-linejoin="round" stroke="rgb(0%, 0%, 0%)" stroke-opacity="1" stroke-miterlimit="10" d="M -6.229483 -15.590778 C -6.229483 -14.491685 -7.120534 -13.596709 -8.219627 -13.596709 C -9.322646 -13.596709 -10.213697 -14.491685 -10.213697 -15.590778 C -10.213697 -16.689872 -9.322646 -17.584848 -8.219627 -17.584848 C -7.120534 -17.584848 -6.229483 -16.689872 -6.229483 -15.590778 Z M -6.229483 -15.590778 " transform="matrix(0.995138, 0, 0, -0.995138, 77.906228, 46.543613)"/>
<path fill-rule="nonzero" fill="rgb(45.588684%, 66.175842%, 100%)" fill-opacity="1" stroke-width="0.49814" stroke-linecap="round" stroke-linejoin="round" stroke="rgb(0%, 0%, 0%)" stroke-opacity="1" stroke-miterlimit="10" d="M 0.914624 -15.590778 C 0.914624 -14.491685 0.0235736 -13.596709 -1.07552 -13.596709 C -2.178539 -13.596709 -3.069589 -14.491685 -3.069589 -15.590778 C -3.069589 -16.689872 -2.178539 -17.584848 -1.07552 -17.584848 C 0.0235736 -17.584848 0.914624 -16.689872 0.914624 -15.590778 Z M 0.914624 -15.590778 " transform="matrix(0.995138, 0, 0, -0.995138, 77.906228, 46.543613)"/>
<path fill-rule="nonzero" fill="rgb(45.588684%, 66.175842%, 100%)" fill-opacity="1" stroke-width="0.49814" stroke-linecap="round" stroke-linejoin="round" stroke="rgb(0%, 0%, 0%)" stroke-opacity="1" stroke-miterlimit="10" d="M -6.229483 -21.741776 C -6.229483 -20.642683 -7.120534 -19.747707 -8.219627 -19.747707 C -9.322646 -19.747707 -10.213697 -20.642683 -10.213697 -21.741776 C -10.213697 -22.84087 -9.322646 -23.735846 -8.219627 -23.735846 C -7.120534 -23.735846 -6.229483 -22.84087 -6.229483 -21.741776 Z M -6.229483 -21.741776 " transform="matrix(0.995138, 0, 0, -0.995138, 77.906228, 46.543613)"/>
<path fill-rule="nonzero" fill="rgb(45.588684%, 66.175842%, 100%)" fill-opacity="1" stroke-width="0.49814" stroke-linecap="round" stroke-linejoin="round" stroke="rgb(0%, 0%, 0%)" stroke-opacity="1" stroke-miterlimit="10" d="M 0.914624 -21.741776 C 0.914624 -20.642683 0.0235736 -19.747707 -1.07552 -19.747707 C -2.178539 -19.747707 -3.069589 -20.642683 -3.069589 -21.741776 C -3.069589 -22.84087 -2.178539 -23.735846 -1.07552 -23.735846 C 0.0235736 -23.735846 0.914624 -22.84087 0.914624 -21.741776 Z M 0.914624 -21.741776 " transform="matrix(0.995138, 0, 0, -0.995138, 77.906228, 46.543613)"/>
<path fill="none" stroke-width="0.89664" stroke-linecap="round" stroke-linejoin="round" stroke="rgb(0%, 0%, 0%)" stroke-opacity="1" stroke-miterlimit="10" d="M -5.978262 -15.590778 L -7.689707 -15.590778 " transform="matrix(0.995138, 0, 0, -0.995138, 77.906228, 46.543613)"/>
<path fill-rule="nonzero" fill="rgb(0%, 0%, 0%)" fill-opacity="1" stroke-width="0.89664" stroke-linecap="round" stroke-linejoin="miter" stroke="rgb(0%, 0%, 0%)" stroke-opacity="1" stroke-miterlimit="10" d="M 5.745296 0.0000418605 L 1.447055 1.62513 L 2.875877 0.0000418605 L 1.447055 -1.625046 Z M 5.745296 0.0000418605 " transform="matrix(0.995138, 0, 0, -0.995138, 67.614667, 62.058635)"/>
<path fill="none" stroke-width="0.89664" stroke-linecap="round" stroke-linejoin="round" stroke="rgb(0%, 0%, 0%)" stroke-opacity="1" stroke-miterlimit="10" d="M -8.219627 -17.832144 L -8.219627 -15.127589 " transform="matrix(0.995138, 0, 0, -0.995138, 77.906228, 46.543613)"/>
<path fill-rule="nonzero" fill="rgb(0%, 0%, 0%)" fill-opacity="1" stroke-width="0.89664" stroke-linecap="round" stroke-linejoin="miter" stroke="rgb(0%, 0%, 0%)" stroke-opacity="1" stroke-miterlimit="10" d="M 5.747627 0.00074262 L 1.449387 1.625831 L 2.874283 0.00074262 L 1.449387 -1.628271 Z M 5.747627 0.00074262 " transform="matrix(0, 0.995138, 0.995138, 0, 69.725823, 58.960004)"/>
<path fill="none" stroke-width="0.89664" stroke-linecap="round" stroke-linejoin="round" stroke="rgb(0%, 0%, 0%)" stroke-opacity="1" stroke-miterlimit="10" d="M -1.07552 -17.832144 L -1.07552 -15.127589 " transform="matrix(0.995138, 0, 0, -0.995138, 77.906228, 46.543613)"/>
<path fill-rule="nonzero" fill="rgb(0%, 0%, 0%)" fill-opacity="1" stroke-width="0.89664" stroke-linecap="round" stroke-linejoin="miter" stroke="rgb(0%, 0%, 0%)" stroke-opacity="1" stroke-miterlimit="10" d="M 5.747577 0.000650143 L 1.449337 1.625738 L 2.874233 0.000650143 L 1.449337 -1.628363 Z M 5.747577 0.000650143 " transform="matrix(0, 0.995138, 0.995138, 0, 76.835291, 58.960053)"/>
<path fill="none" stroke-width="0.89664" stroke-linecap="round" stroke-linejoin="round" stroke="rgb(0%, 0%, 0%)" stroke-opacity="1" stroke-miterlimit="10" d="M -5.978262 -21.741776 L -7.689707 -21.741776 " transform="matrix(0.995138, 0, 0, -0.995138, 77.906228, 46.543613)"/>
<path fill-rule="nonzero" fill="rgb(0%, 0%, 0%)" fill-opacity="1" stroke-width="0.89664" stroke-linecap="round" stroke-linejoin="miter" stroke="rgb(0%, 0%, 0%)" stroke-opacity="1" stroke-miterlimit="10" d="M 5.745296 0.00077379 L 1.447055 1.625862 L 2.875877 0.00077379 L 1.447055 -1.62824 Z M 5.745296 0.00077379 " transform="matrix(0.995138, 0, 0, -0.995138, 67.614667, 68.180458)"/>
</svg>
