<?xml version="1.0" encoding="UTF-8"?>
<svg xmlns="http://www.w3.org/2000/svg" xmlns:xlink="http://www.w3.org/1999/xlink" width="187.087" height="79.37" viewBox="0 0 187.087 79.37">
<path fill-rule="nonzero" fill="rgb(45.588684%, 66.175842%, 100%)" fill-opacity="1" stroke-width="0.49814" stroke-linecap="round" stroke-linejoin="round" stroke="rgb(0%, 0%, 0%)" stroke-opacity="1" stroke-miterlimit="10" d="M -75.461704 28.345703 C -75.461704 29.723743 -76.579884 30.837986 -77.953987 30.837986 C -79.328089 30.837986 -80.446269 29.723743 -80.446269 28.345703 C -80.446269 26.971601 -79.328089 25.857357 -77.953987 25.857357 C -76.579884 25.857357 -75.461704 26.971601 -75.461704 28.345703 Z M -75.461704 28.345703 " transform="matrix(0.992125, 0, 0, -0.992125, 93.090099, 39.372481)"/>
<path fill-rule="nonzero" fill="rgb(45.588684%, 66.175842%, 100%)" fill-opacity="1" stroke-width="0.49814" stroke-linecap="round" stroke-linejoin="round" stroke="rgb(0%, 0%, 0%)" stroke-opacity="1" stroke-miterlimit="10" d="M 80.445755 28.345703 C 80.445755 29.723743 79.327575 30.837986 77.953472 30.837986 C 76.57937 30.837986 75.461189 29.723743 75.461189 28.345703 C 75.461189 26.971601 76.57937 25.857357 77.953472 25.857357 C 79.327575 25.857357 80.445755 26.971601 80.445755 28.345703 Z M 80.445755 28.345703 " transform="matrix(0.992125, 0, 0, -0.992125, 93.090099, 39.372481)"/>
<path fill-rule="nonzero" fill="rgb(45.588684%, 66.175842%, 100%)" fill-opacity="1" stroke-width="0.49814" stroke-linecap="round" stroke-linejoin="round" stroke="rgb(0%, 0%, 0%)" stroke-opacity="1" stroke-miterlimit="10" d="M -75.461704 0.00139788 C -75.461704 1.3755 -76.579884 2.489744 -77.953987 2.489744 C -79.328089 2.489744 -80.446269 1.3755 -80.446269 0.00139788 C -80.446269 -1.376642 -79.328089 -2.490885 -77.953987 -2.490885 C -76.579884 -2.490885 -75.461704 -1.376642 -75.461704 0.00139788 Z M -75.461704 0.00139788 " transform="matrix(0.992125, 0, 0, -0.992125, 93.090099, 39.372481)"/>
<path fill-rule="nonzero" fill="rgb(45.588684%, 66.175842%, 100%)" fill-opacity="1" stroke-width="0.49814" stroke-linecap="round" stroke-linejoin="round" stroke="rgb(0%, 0%, 0%)" stroke-opacity="1" stroke-miterlimit="10" d="M 80.445755 0.00139788 C 80.445755 1.3755 79.327575 2.489744 77.953472 2.489744 C 76.57937 2.489744 75.461189 1.3755 75.461189 0.00139788 C 75.461189 -1.376642 76.57937 -2.490885 77.953472 -2.490885 C 79.327575 -2.490885 80.445755 -1.376642 80.445755 0.00139788 Z M 80.445755 0.00139788 " transform="matrix(0.992125, 0, 0, -0.992125, 93.090099, 39.372481)"/>
<path fill-rule="nonzero" fill="rgb(45.588684%, 66.175842%, 100%)" fill-opacity="1" stroke-width="0.49814" stroke-linecap="round" stroke-linejoin="round" stroke="rgb(0%, 0%, 0%)" stroke-opacity="1" stroke-miterlimit="10" d="M -75.461704 -28.346845 C -75.461704 -26.972742 -76.579884 -25.854562 -77.953987 -25.854562 C -79.328089 -25.854562 -80.446269 -26.972742 -80.446269 -28.346845 C -80.446269 -29.720947 -79.328089 -30.839128 -77.953987 -30.839128 C -76.579884 -30.839128 -75.461704 -29.720947 -75.461704 -28.346845 Z M -75.461704 -28.346845 " transform="matrix(0.992125, 0, 0, -0.992125, 93.090099, 39.372481)"/>
<path fill-rule="nonzero" fill="rgb(45.588684%, 66.175842%, 100%)" fill-opacity="1" stroke-width="0.49814" stroke-linecap="round" stroke-linejoin="round" stroke="rgb(0%, 0%, 0%)" stroke-opacity="1" stroke-miterlimit="10" d="M 80.445755 -28.346845 C 80.445755 -26.972742 79.327575 -25.854562 77.953472 -25.854562 C 76.57937 -25.854562 75.461189 -26.972742 75.461189 -28.346845 C 75.461189 -29.720947 76.57937 -30.839128 77.953472 -30.839128 C 79.327575 -30.839128 80.445755 -29.720947 80.445755 -28.346845 Z M 80.445755 -28.346845 " transform="matrix(0.992125, 0, 0, -0.992125, 93.090099, 39.372481)"/>
<path fill-rule="nonzero" fill="rgb(100%, 100%, 100%)" fill-opacity="1" stroke-width="0.49814" stroke-linecap="round" stroke-linejoin="round" stroke="rgb(0%, 0%, 0%)" stroke-opacity="1" stroke-miterlimit="10" d="M -41.44775 17.006406 C -41.44775 18.384446 -42.561993 19.498689 -43.936096 19.498689 C -45.314135 19.498689 -46.428379 18.384446 -46.428379 17.006406 C -46.428379 15.632304 -45.314135 14.51806 -43.936096 14.51806 C -42.561993 14.51806 -41.44775 15.632304 -41.44775 17.006406 Z M -41.44775 17.006406 " transform="matrix(0.992125, 0, 0, -0.992125, 93.090099, 39.372481)"/>
<path fill-rule="nonzero" fill="rgb(100%, 100%, 100%)" fill-opacity="1" stroke-width="0.49814" stroke-linecap="round" stroke-linejoin="round" stroke="rgb(0%, 0%, 0%)" stroke-opacity="1" stroke-miterlimit="10" d="M -32.943277 -18.42496 C -32.943277 -17.050857 -34.057521 -15.932677 -35.431623 -15.932677 C -36.809662 -15.932677 -37.923906 -17.050857 -37.923906 -18.42496 C -37.923906 -19.799062 -36.809662 -20.917243 -35.431623 -20.917243 C -34.057521 -20.917243 -32.943277 -19.799062 -32.943277 -18.42496 Z M -32.943277 -18.42496 " transform="matrix(0.992125, 0, 0, -0.992125, 93.090099, 39.372481)"/>
<path fill-rule="nonzero" fill="rgb(100%, 100%, 100%)" fill-opacity="1" stroke-width="0.49814" stroke-linecap="round" stroke-linejoin="round" stroke="rgb(0%, 0%, 0%)" stroke-opacity="1" stroke-miterlimit="10" d="M 2.492026 4.253634 C 2.492026 5.627737 1.373845 6.74198 -0.00025715 6.74198 C -1.374359 6.74198 -2.49254 5.627737 -2.49254 4.253634 C -2.49254 2.875595 -1.374359 1.761351 -0.00025715 1.761351 C 1.373845 1.761351 2.492026 2.875595 2.492026 4.253634 Z M 2.492026 4.253634 " transform="matrix(0.992125, 0, 0, -0.992125, 93.090099, 39.372481)"/>
<path fill-rule="nonzero" fill="rgb(100%, 100%, 100%)" fill-opacity="1" stroke-width="0.49814" stroke-linecap="round" stroke-linejoin="round" stroke="rgb(0%, 0%, 0%)" stroke-opacity="1" stroke-miterlimit="10" d="M 35.088567 19.84123 C 35.088567 21.21927 33.974324 22.333513 32.600222 22.333513 C 31.222182 22.333513 30.107939 21.21927 30.107939 19.84123 C 30.107939 18.467128 31.222182 17.352885 32.600222 17.352885 C 33.974324 17.352885 35.088567 18.467128 35.088567 19.84123 Z M 35.088567 19.84123 " transform="matrix(0.992125, 0, 0, -0.992125, 93.090099, 39.372481)"/>
<path fill-rule="nonzero" fill="rgb(100%, 100%, 100%)" fill-opacity="1" stroke-width="0.49814" stroke-linecap="round" stroke-linejoin="round" stroke="rgb(0%, 0%, 0%)" stroke-opacity="1" stroke-miterlimit="10" d="M 40.758216 -15.590135 C 40.758216 -14.216033 39.643972 -13.10179 38.26987 -13.10179 C 36.891831 -13.10179 35.777587 -14.216033 35.777587 -15.590135 C 35.777587 -16.968175 36.891831 -18.082418 38.26987 -18.082418 C 39.643972 -18.082418 40.758216 -16.968175 40.758216 -15.590135 Z M 40.758216 -15.590135 " transform="matrix(0.992125, 0, 0, -0.992125, 93.090099, 39.372481)"/>
<path fill="none" stroke-width="0.89664" stroke-linecap="round" stroke-linejoin="round" stroke="rgb(0%, 0%, 0%)" stroke-opacity="1" stroke-miterlimit="10" d="M -75.355398 27.479507 L -46.538622 17.872602 M -41.306009 16.242578 L -2.630344 5.017462 M 2.47234 5.434811 L 30.127625 18.660054 M 35.289367 20.349136 L 75.260389 27.841734 " transform="matrix(0.992125, 0, 0, -0.992125, 93.090099, 39.372481)"/>
<path fill="none" stroke-width="0.89664" stroke-linecap="round" stroke-linejoin="round" stroke="rgb(0%, 0%, 0%)" stroke-opacity="1" stroke-miterlimit="10" d="M -75.505013 1.225884 L -46.389006 15.781919 " transform="matrix(0.992125, 0, 0, -0.992125, 93.090099, 39.372481)"/>
<path fill="none" stroke-width="0.89664" stroke-linecap="round" stroke-linejoin="round" stroke="rgb(0%, 0%, 0%)" stroke-opacity="1" stroke-miterlimit="10" d="M -75.43808 -1.089222 L -37.947529 -17.33434 M -33.124391 -16.948489 L -2.307489 2.773226 " transform="matrix(0.992125, 0, 0, -0.992125, 93.090099, 39.372481)"/>
<path fill="none" stroke-width="0.89664" stroke-linecap="round" stroke-linejoin="round" stroke="rgb(0%, 0%, 0%)" stroke-opacity="1" stroke-miterlimit="10" d="M 2.432967 2.989775 L 35.836646 -14.330214 M 40.817275 -14.590072 L 75.40213 -1.002602 " transform="matrix(0.992125, 0, 0, -0.992125, 93.090099, 39.372481)"/>
<path fill="none" stroke-width="0.89664" stroke-linecap="round" stroke-linejoin="round" stroke="rgb(0%, 0%, 0%)" stroke-opacity="1" stroke-miterlimit="10" d="M -32.69523 -18.318654 L 35.52954 -15.696441 M 40.876334 -16.428771 L 75.347009 -27.508209 " transform="matrix(0.992125, 0, 0, -0.992125, 93.090099, 39.372481)"/>
<path fill="none" stroke-width="0.89664" stroke-linecap="round" stroke-linejoin="round" stroke="rgb(0%, 0%, 0%)" stroke-opacity="1" stroke-miterlimit="10" d="M 35.108254 18.742736 L 75.44544 1.099892 " transform="matrix(0.992125, 0, 0, -0.992125, 93.090099, 39.372481)"/>
<path fill="none" stroke-width="0.89664" stroke-linecap="round" stroke-linejoin="round" stroke="rgb(0%, 0%, 0%)" stroke-opacity="1" stroke-miterlimit="10" d="M -75.284527 -27.724758 L -38.101082 -19.047046 " transform="matrix(0.992125, 0, 0, -0.992125, 93.090099, 39.372481)"/>
<path fill="none" stroke-width="1.99255" stroke-linecap="round" stroke-linejoin="round" stroke="rgb(27.450562%, 54.902649%, 100%)" stroke-opacity="1" stroke-miterlimit="10" d="M -75.355398 27.479507 L -46.538622 17.872602 M -41.306009 16.242578 L -2.630344 5.017462 M 2.47234 5.434811 L 30.127625 18.660054 M 35.289367 20.349136 L 72.890161 27.396824 " transform="matrix(0.992125, 0, 0, -0.992125, 93.090099, 39.372481)"/>
<path fill-rule="nonzero" fill="rgb(27.450562%, 54.902649%, 100%)" fill-opacity="1" stroke-width="0.67249" stroke-linecap="round" stroke-linejoin="miter" stroke="rgb(27.450562%, 54.902649%, 100%)" stroke-opacity="1" stroke-miterlimit="10" d="M 3.026837 -0.000862337 L 1.086494 0.739506 L 1.741019 -0.000147765 L 1.085781 -0.738604 Z M 3.026837 -0.000862337 " transform="matrix(0.97508, -0.182819, -0.182819, -0.97508, 163.872652, 12.478303)"/>
<path fill="none" stroke-width="1.99255" stroke-linecap="round" stroke-linejoin="round" stroke="rgb(27.450562%, 54.902649%, 100%)" stroke-opacity="1" stroke-miterlimit="10" d="M -75.284527 -27.724758 L -38.101082 -19.047046 M -32.69523 -18.318654 L 35.52954 -15.696441 M 40.876334 -16.428771 L 73.047651 -26.771942 " transform="matrix(0.992125, 0, 0, -0.992125, 93.090099, 39.372481)"/>
<path fill-rule="nonzero" fill="rgb(27.450562%, 54.902649%, 100%)" fill-opacity="1" stroke-width="0.67249" stroke-linecap="round" stroke-linejoin="miter" stroke="rgb(27.450562%, 54.902649%, 100%)" stroke-opacity="1" stroke-miterlimit="10" d="M 3.027659 -0.00145832 L 1.085672 0.739137 L 1.741391 -0.00132445 L 1.084735 -0.737635 Z M 3.027659 -0.00145832 " transform="matrix(0.944503, 0.30359, 0.30359, -0.944503, 164.078309, 65.454455)"/>
</svg>
