<?xml version="1.0" encoding="UTF-8"?>
<svg xmlns="http://www.w3.org/2000/svg" xmlns:xlink="http://www.w3.org/1999/xlink" width="225.46" height="58.783" viewBox="0 0 225.46 58.783">
<path fill-rule="nonzero" fill="rgb(100%, 100%, 100%)" fill-opacity="1" stroke-width="0.64757" stroke-linecap="butt" stroke-linejoin="miter" stroke="rgb(18.429565%, 22.744751%, 27.059937%)" stroke-opacity="1" stroke-miterlimit="10" d="M -0.00111667 39.116885 L -0.00111667 52.157034 L 20.409892 52.157034 L 20.409892 39.116885 Z M -0.00111667 39.116885 " transform="matrix(0.996322, 0, 0, -0.996322, 3.446425, 55.265983)"/>
<path fill-rule="nonzero" fill="rgb(100%, 100%, 100%)" fill-opacity="1" stroke-width="0.64757" stroke-linecap="butt" stroke-linejoin="miter" stroke="rgb(18.429565%, 22.744751%, 27.059937%)" stroke-opacity="1" stroke-miterlimit="10" d="M -0.00111667 26.080657 L -0.00111667 39.116885 L 20.409892 39.116885 L 20.409892 26.080657 Z M -0.00111667 26.080657 " transform="matrix(0.996322, 0, 0, -0.996322, 3.446425, 55.265983)"/>
<path fill-rule="nonzero" fill="rgb(100%, 100%, 100%)" fill-opacity="1" stroke-width="0.64757" stroke-linecap="butt" stroke-linejoin="miter" stroke="rgb(18.429565%, 22.744751%, 27.059937%)" stroke-opacity="1" stroke-miterlimit="10" d="M -0.00111667 13.040508 L -0.00111667 26.080657 L 20.409892 26.080657 L 20.409892 13.040508 Z M -0.00111667 13.040508 " transform="matrix(0.996322, 0, 0, -0.996322, 3.446425, 55.265983)"/>
<path fill-rule="nonzero" fill="rgb(100%, 100%, 100%)" fill-opacity="1" stroke-width="0.64757" stroke-linecap="butt" stroke-linejoin="miter" stroke="rgb(18.429565%, 22.744751%, 27.059937%)" stroke-opacity="1" stroke-miterlimit="10" d="M -0.00111667 0.000359543 L -0.00111667 13.040508 L 20.409892 13.040508 L 20.409892 0.000359543 Z M -0.00111667 0.000359543 " transform="matrix(0.996322, 0, 0, -0.996322, 3.446425, 55.265983)"/>
<path fill-rule="nonzero" fill="rgb(100%, 100%, 100%)" fill-opacity="1" stroke-width="0.64757" stroke-linecap="butt" stroke-linejoin="miter" stroke="rgb(18.429565%, 22.744751%, 27.059937%)" stroke-opacity="1" stroke-miterlimit="10" d="M 49.607122 39.116885 L 49.607122 52.157034 L 70.01813 52.157034 L 70.01813 39.116885 Z M 49.607122 39.116885 " transform="matrix(0.996322, 0, 0, -0.996322, 3.446425, 55.265983)"/>
<path fill-rule="nonzero" fill="rgb(100%, 100%, 100%)" fill-opacity="1" stroke-width="0.64757" stroke-linecap="butt" stroke-linejoin="miter" stroke="rgb(18.429565%, 22.744751%, 27.059937%)" stroke-opacity="1" stroke-miterlimit="10" d="M 49.607122 26.080657 L 49.607122 39.116885 L 70.01813 39.116885 L 70.01813 26.080657 Z M 49.607122 26.080657 " transform="matrix(0.996322, 0, 0, -0.996322, 3.446425, 55.265983)"/>
<path fill-rule="nonzero" fill="rgb(61.175537%, 78.823853%, 87.449646%)" fill-opacity="1" stroke-width="0.64757" stroke-linecap="butt" stroke-linejoin="miter" stroke="rgb(18.429565%, 22.744751%, 27.059937%)" stroke-opacity="1" stroke-miterlimit="10" d="M 49.607122 13.040508 L 49.607122 26.080657 L 70.01813 26.080657 L 70.01813 13.040508 Z M 49.607122 13.040508 " transform="matrix(0.996322, 0, 0, -0.996322, 3.446425, 55.265983)"/>
<path fill-rule="nonzero" fill="rgb(61.175537%, 78.823853%, 87.449646%)" fill-opacity="1" stroke-width="0.64757" stroke-linecap="butt" stroke-linejoin="miter" stroke="rgb(18.429565%, 22.744751%, 27.059937%)" stroke-opacity="1" stroke-miterlimit="10" d="M 49.607122 0.000359543 L 49.607122 13.040508 L 70.01813 13.040508 L 70.01813 0.000359543 Z M 49.607122 0.000359543 " transform="matrix(0.996322, 0, 0, -0.996322, 3.446425, 55.265983)"/>
<path fill-rule="nonzero" fill="rgb(100%, 100%, 100%)" fill-opacity="1" stroke-width="0.64757" stroke-linecap="butt" stroke-linejoin="miter" stroke="rgb(18.429565%, 22.744751%, 27.059937%)" stroke-opacity="1" stroke-miterlimit="10" d="M 99.215361 39.116885 L 99.215361 52.157034 L 119.622448 52.157034 L 119.622448 39.116885 Z M 99.215361 39.116885 " transform="matrix(0.996322, 0, 0, -0.996322, 3.446425, 55.265983)"/>
<path fill-rule="nonzero" fill="rgb(61.175537%, 78.823853%, 87.449646%)" fill-opacity="1" stroke-width="0.64757" stroke-linecap="butt" stroke-linejoin="miter" stroke="rgb(18.429565%, 22.744751%, 27.059937%)" stroke-opacity="1" stroke-miterlimit="10" d="M 99.215361 26.080657 L 99.215361 39.116885 L 119.622448 39.116885 L 119.622448 26.080657 Z M 99.215361 26.080657 " transform="matrix(0.996322, 0, 0, -0.996322, 3.446425, 55.265983)"/>
<path fill-rule="nonzero" fill="rgb(61.175537%, 78.823853%, 87.449646%)" fill-opacity="1" stroke-width="0.64757" stroke-linecap="butt" stroke-linejoin="miter" stroke="rgb(18.429565%, 22.744751%, 27.059937%)" stroke-opacity="1" stroke-miterlimit="10" d="M 99.215361 13.040508 L 99.215361 26.080657 L 119.622448 26.080657 L 119.622448 13.040508 Z M 99.215361 13.040508 " transform="matrix(0.996322, 0, 0, -0.996322, 3.446425, 55.265983)"/>
<path fill-rule="nonzero" fill="rgb(100%, 100%, 100%)" fill-opacity="1" stroke-width="0.64757" stroke-linecap="butt" stroke-linejoin="miter" stroke="rgb(18.429565%, 22.744751%, 27.059937%)" stroke-opacity="1" stroke-miterlimit="10" d="M 99.215361 0.000359543 L 99.215361 13.040508 L 119.622448 13.040508 L 119.622448 0.000359543 Z M 99.215361 0.000359543 " transform="matrix(0.996322, 0, 0, -0.996322, 3.446425, 55.265983)"/>
<path fill-rule="nonzero" fill="rgb(61.175537%, 78.823853%, 87.449646%)" fill-opacity="1" stroke-width="0.64757" stroke-linecap="butt" stroke-linejoin="miter" stroke="rgb(18.429565%, 22.744751%, 27.059937%)" stroke-opacity="1" stroke-miterlimit="10" d="M 148.819679 39.116885 L 148.819679 52.157034 L 169.230687 52.157034 L 169.230687 39.116885 Z M 148.819679 39.116885 " transform="matrix(0.996322, 0, 0, -0.996322, 3.446425, 55.265983)"/>
<path fill-rule="nonzero" fill="rgb(61.175537%, 78.823853%, 87.449646%)" fill-opacity="1" stroke-width="0.64757" stroke-linecap="butt" stroke-linejoin="miter" stroke="rgb(18.429565%, 22.744751%, 27.059937%)" stroke-opacity="1" stroke-miterlimit="10" d="M 148.819679 26.080657 L 148.819679 39.116885 L 169.230687 39.116885 L 169.230687 26.080657 Z M 148.819679 26.080657 " transform="matrix(0.996322, 0, 0, -0.996322, 3.446425, 55.265983)"/>
<path fill-rule="nonzero" fill="rgb(100%, 100%, 100%)" fill-opacity="1" stroke-width="0.64757" stroke-linecap="butt" stroke-linejoin="miter" stroke="rgb(18.429565%, 22.744751%, 27.059937%)" stroke-opacity="1" stroke-miterlimit="10" d="M 148.819679 13.040508 L 148.819679 26.080657 L 169.230687 26.080657 L 169.230687 13.040508 Z M 148.819679 13.040508 " transform="matrix(0.996322, 0, 0, -0.996322, 3.446425, 55.265983)"/>
<path fill-rule="nonzero" fill="rgb(100%, 100%, 100%)" fill-opacity="1" stroke-width="0.64757" stroke-linecap="butt" stroke-linejoin="miter" stroke="rgb(18.429565%, 22.744751%, 27.059937%)" stroke-opacity="1" stroke-miterlimit="10" d="M 148.819679 0.000359543 L 148.819679 13.040508 L 169.230687 13.040508 L 169.230687 0.000359543 Z M 148.819679 0.000359543 " transform="matrix(0.996322, 0, 0, -0.996322, 3.446425, 55.265983)"/>
<path fill-rule="nonzero" fill="rgb(61.175537%, 78.823853%, 87.449646%)" fill-opacity="1" stroke-width="0.64757" stroke-linecap="butt" stroke-linejoin="miter" stroke="rgb(18.429565%, 22.744751%, 27.059937%)" stroke-opacity="1" stroke-miterlimit="10" d="M 198.427917 39.116885 L 198.427917 52.157034 L 218.838926 52.157034 L 218.838926 39.116885 Z M 198.427917 39.116885 " transform="matrix(0.996322, 0, 0, -0.996322, 3.446425, 55.265983)"/>
<path fill-rule="nonzero" fill="rgb(61.175537%, 78.823853%, 87.449646%)" fill-opacity="1" stroke-width="0.64757" stroke-linecap="butt" stroke-linejoin="miter" stroke="rgb(18.429565%, 22.744751%, 27.059937%)" stroke-opacity="1" stroke-miterlimit="10" d="M 198.427917 26.080657 L 198.427917 39.116885 L 218.838926 39.116885 L 218.838926 26.080657 Z M 198.427917 26.080657 " transform="matrix(0.996322, 0, 0, -0.996322, 3.446425, 55.265983)"/>
<path fill-rule="nonzero" fill="rgb(61.175537%, 78.823853%, 87.449646%)" fill-opacity="1" stroke-width="0.64757" stroke-linecap="butt" stroke-linejoin="miter" stroke="rgb(18.429565%, 22.744751%, 27.059937%)" stroke-opacity="1" stroke-miterlimit="10" d="M 198.427917 13.040508 L 198.427917 26.080657 L 218.838926 26.080657 L 218.838926 13.040508 Z M 198.427917 13.040508 " transform="matrix(0.996322, 0, 0, -0.996322, 3.446425, 55.265983)"/>
<path fill-rule="nonzero" fill="rgb(61.175537%, 78.823853%, 87.449646%)" fill-opacity="1" stroke-width="0.64757" stroke-linecap="butt" stroke-linejoin="miter" stroke="rgb(18.429565%, 22.744751%, 27.059937%)" stroke-opacity="1" stroke-miterlimit="10" d="M 198.427917 0.000359543 L 198.427917 13.040508 L 218.838926 13.040508 L 218.838926 0.000359543 Z M 198.427917 0.000359543 " transform="matrix(0.996322, 0, 0, -0.996322, 3.446425, 55.265983)"/>
</svg>
