<?xml version="1.0" encoding="UTF-8"?>
<svg xmlns="http://www.w3.org/2000/svg" xmlns:xlink="http://www.w3.org/1999/xlink" width="167.608" height="45.325" viewBox="0 0 167.608 45.325">
<path fill-rule="nonzero" fill="rgb(100%, 100%, 100%)" fill-opacity="1" stroke-width="0.44832" stroke-linecap="butt" stroke-linejoin="miter" stroke="rgb(18.429565%, 22.744751%, 27.059937%)" stroke-opacity="1" stroke-miterlimit="10" d="M 0.000673469 -0.00163734 L 0.000673469 9.635876 L 9.638187 9.635876 L 9.638187 -0.00163734 Z M 0.000673469 -0.00163734 " transform="matrix(0.985326, 0, 0, -0.985326, 4.202461, 41.322605)"/>
<path fill-rule="nonzero" fill="rgb(100%, 100%, 100%)" fill-opacity="1" stroke-width="0.44832" stroke-linecap="butt" stroke-linejoin="miter" stroke="rgb(18.429565%, 22.744751%, 27.059937%)" stroke-opacity="1" stroke-miterlimit="10" d="M 0.000673469 9.635876 L 0.000673469 19.277355 L 9.638187 19.277355 L 9.638187 9.635876 Z M 0.000673469 9.635876 " transform="matrix(0.985326, 0, 0, -0.985326, 4.202461, 41.322605)"/>
<path fill-rule="nonzero" fill="rgb(100%, 100%, 100%)" fill-opacity="1" stroke-width="0.44832" stroke-linecap="butt" stroke-linejoin="miter" stroke="rgb(18.429565%, 22.744751%, 27.059937%)" stroke-opacity="1" stroke-miterlimit="10" d="M 0.000673469 19.277355 L 0.000673469 28.914868 L 9.638187 28.914868 L 9.638187 19.277355 Z M 0.000673469 19.277355 " transform="matrix(0.985326, 0, 0, -0.985326, 4.202461, 41.322605)"/>
<path fill-rule="nonzero" fill="rgb(100%, 100%, 100%)" fill-opacity="1" stroke-width="0.44832" stroke-linecap="butt" stroke-linejoin="miter" stroke="rgb(18.429565%, 22.744751%, 27.059937%)" stroke-opacity="1" stroke-miterlimit="10" d="M 0.000673469 28.914868 L 0.000673469 38.552382 L 9.638187 38.552382 L 9.638187 28.914868 Z M 0.000673469 28.914868 " transform="matrix(0.985326, 0, 0, -0.985326, 4.202461, 41.322605)"/>
<path fill-rule="nonzero" fill="rgb(100%, 100%, 100%)" fill-opacity="1" stroke-width="0.44832" stroke-linecap="butt" stroke-linejoin="miter" stroke="rgb(18.429565%, 22.744751%, 27.059937%)" stroke-opacity="1" stroke-miterlimit="10" d="M 9.638187 -0.00163734 L 9.638187 9.635876 L 19.275701 9.635876 L 19.275701 -0.00163734 Z M 9.638187 -0.00163734 " transform="matrix(0.985326, 0, 0, -0.985326, 4.202461, 41.322605)"/>
<path fill-rule="nonzero" fill="rgb(100%, 100%, 100%)" fill-opacity="1" stroke-width="0.44832" stroke-linecap="butt" stroke-linejoin="miter" stroke="rgb(18.429565%, 22.744751%, 27.059937%)" stroke-opacity="1" stroke-miterlimit="10" d="M 9.638187 9.635876 L 9.638187 19.277355 L 19.275701 19.277355 L 19.275701 9.635876 Z M 9.638187 9.635876 " transform="matrix(0.985326, 0, 0, -0.985326, 4.202461, 41.322605)"/>
<path fill-rule="nonzero" fill="rgb(100%, 100%, 100%)" fill-opacity="1" stroke-width="0.44832" stroke-linecap="butt" stroke-linejoin="miter" stroke="rgb(18.429565%, 22.744751%, 27.059937%)" stroke-opacity="1" stroke-miterlimit="10" d="M 9.638187 19.277355 L 9.638187 28.914868 L 19.275701 28.914868 L 19.275701 19.277355 Z M 9.638187 19.277355 " transform="matrix(0.985326, 0, 0, -0.985326, 4.202461, 41.322605)"/>
<path fill-rule="nonzero" fill="rgb(100%, 100%, 100%)" fill-opacity="1" stroke-width="0.44832" stroke-linecap="butt" stroke-linejoin="miter" stroke="rgb(18.429565%, 22.744751%, 27.059937%)" stroke-opacity="1" stroke-miterlimit="10" d="M 9.638187 28.914868 L 9.638187 38.552382 L 19.275701 38.552382 L 19.275701 28.914868 Z M 9.638187 28.914868 " transform="matrix(0.985326, 0, 0, -0.985326, 4.202461, 41.322605)"/>
<path fill-rule="nonzero" fill="rgb(100%, 100%, 100%)" fill-opacity="1" stroke-width="0.44832" stroke-linecap="butt" stroke-linejoin="miter" stroke="rgb(18.429565%, 22.744751%, 27.059937%)" stroke-opacity="1" stroke-miterlimit="10" d="M 35.434692 -0.00163734 L 35.434692 9.635876 L 45.072205 9.635876 L 45.072205 -0.00163734 Z M 35.434692 -0.00163734 " transform="matrix(0.985326, 0, 0, -0.985326, 4.202461, 41.322605)"/>
<path fill-rule="nonzero" fill="rgb(100%, 100%, 100%)" fill-opacity="1" stroke-width="0.44832" stroke-linecap="butt" stroke-linejoin="miter" stroke="rgb(18.429565%, 22.744751%, 27.059937%)" stroke-opacity="1" stroke-miterlimit="10" d="M 35.434692 9.635876 L 35.434692 19.277355 L 45.072205 19.277355 L 45.072205 9.635876 Z M 35.434692 9.635876 " transform="matrix(0.985326, 0, 0, -0.985326, 4.202461, 41.322605)"/>
<path fill-rule="nonzero" fill="rgb(100%, 100%, 100%)" fill-opacity="1" stroke-width="0.44832" stroke-linecap="butt" stroke-linejoin="miter" stroke="rgb(18.429565%, 22.744751%, 27.059937%)" stroke-opacity="1" stroke-miterlimit="10" d="M 35.434692 19.277355 L 35.434692 28.914868 L 45.072205 28.914868 L 45.072205 19.277355 Z M 35.434692 19.277355 " transform="matrix(0.985326, 0, 0, -0.985326, 4.202461, 41.322605)"/>
<path fill-rule="nonzero" fill="rgb(100%, 100%, 100%)" fill-opacity="1" stroke-width="0.44832" stroke-linecap="butt" stroke-linejoin="miter" stroke="rgb(18.429565%, 22.744751%, 27.059937%)" stroke-opacity="1" stroke-miterlimit="10" d="M 35.434692 28.914868 L 35.434692 38.552382 L 45.072205 38.552382 L 45.072205 28.914868 Z M 35.434692 28.914868 " transform="matrix(0.985326, 0, 0, -0.985326, 4.202461, 41.322605)"/>
<path fill-rule="nonzero" fill="rgb(100%, 100%, 100%)" fill-opacity="1" stroke-width="0.44832" stroke-linecap="butt" stroke-linejoin="miter" stroke="rgb(18.429565%, 22.744751%, 27.059937%)" stroke-opacity="1" stroke-miterlimit="10" d="M 45.072205 -0.00163734 L 45.072205 9.635876 L 54.709719 9.635876 L 54.709719 -0.00163734 Z M 45.072205 -0.00163734 " transform="matrix(0.985326, 0, 0, -0.985326, 4.202461, 41.322605)"/>
<path fill-rule="nonzero" fill="rgb(100%, 100%, 100%)" fill-opacity="1" stroke-width="0.44832" stroke-linecap="butt" stroke-linejoin="miter" stroke="rgb(18.429565%, 22.744751%, 27.059937%)" stroke-opacity="1" stroke-miterlimit="10" d="M 45.072205 9.635876 L 45.072205 19.277355 L 54.709719 19.277355 L 54.709719 9.635876 Z M 45.072205 9.635876 " transform="matrix(0.985326, 0, 0, -0.985326, 4.202461, 41.322605)"/>
<path fill-rule="nonzero" fill="rgb(100%, 100%, 100%)" fill-opacity="1" stroke-width="0.44832" stroke-linecap="butt" stroke-linejoin="miter" stroke="rgb(18.429565%, 22.744751%, 27.059937%)" stroke-opacity="1" stroke-miterlimit="10" d="M 45.072205 19.277355 L 45.072205 28.914868 L 54.709719 28.914868 L 54.709719 19.277355 Z M 45.072205 19.277355 " transform="matrix(0.985326, 0, 0, -0.985326, 4.202461, 41.322605)"/>
<path fill-rule="nonzero" fill="rgb(100%, 100%, 100%)" fill-opacity="1" stroke-width="0.44832" stroke-linecap="butt" stroke-linejoin="miter" stroke="rgb(18.429565%, 22.744751%, 27.059937%)" stroke-opacity="1" stroke-miterlimit="10" d="M 45.072205 28.914868 L 45.072205 38.552382 L 54.709719 38.552382 L 54.709719 28.914868 Z M 45.072205 28.914868 " transform="matrix(0.985326, 0, 0, -0.985326, 4.202461, 41.322605)"/>
<path fill-rule="nonzero" fill="rgb(100%, 100%, 100%)" fill-opacity="1" stroke-width="0.44832" stroke-linecap="butt" stroke-linejoin="miter" stroke="rgb(18.429565%, 22.744751%, 27.059937%)" stroke-opacity="1" stroke-miterlimit="10" d="M 70.86871 -0.00163734 L 70.86871 9.635876 L 80.506224 9.635876 L 80.506224 -0.00163734 Z M 70.86871 -0.00163734 " transform="matrix(0.985326, 0, 0, -0.985326, 4.202461, 41.322605)"/>
<path fill-rule="nonzero" fill="rgb(100%, 100%, 100%)" fill-opacity="1" stroke-width="0.44832" stroke-linecap="butt" stroke-linejoin="miter" stroke="rgb(18.429565%, 22.744751%, 27.059937%)" stroke-opacity="1" stroke-miterlimit="10" d="M 70.86871 9.635876 L 70.86871 19.277355 L 80.506224 19.277355 L 80.506224 9.635876 Z M 70.86871 9.635876 " transform="matrix(0.985326, 0, 0, -0.985326, 4.202461, 41.322605)"/>
<path fill-rule="nonzero" fill="rgb(100%, 100%, 100%)" fill-opacity="1" stroke-width="0.44832" stroke-linecap="butt" stroke-linejoin="miter" stroke="rgb(18.429565%, 22.744751%, 27.059937%)" stroke-opacity="1" stroke-miterlimit="10" d="M 70.86871 19.277355 L 70.86871 28.914868 L 80.506224 28.914868 L 80.506224 19.277355 Z M 70.86871 19.277355 " transform="matrix(0.985326, 0, 0, -0.985326, 4.202461, 41.322605)"/>
<path fill-rule="nonzero" fill="rgb(100%, 100%, 100%)" fill-opacity="1" stroke-width="0.44832" stroke-linecap="butt" stroke-linejoin="miter" stroke="rgb(18.429565%, 22.744751%, 27.059937%)" stroke-opacity="1" stroke-miterlimit="10" d="M 70.86871 28.914868 L 70.86871 38.552382 L 80.506224 38.552382 L 80.506224 28.914868 Z M 70.86871 28.914868 " transform="matrix(0.985326, 0, 0, -0.985326, 4.202461, 41.322605)"/>
<path fill-rule="nonzero" fill="rgb(100%, 100%, 100%)" fill-opacity="1" stroke-width="0.44832" stroke-linecap="butt" stroke-linejoin="miter" stroke="rgb(18.429565%, 22.744751%, 27.059937%)" stroke-opacity="1" stroke-miterlimit="10" d="M 80.506224 -0.00163734 L 80.506224 9.635876 L 90.143737 9.635876 L 90.143737 -0.00163734 Z M 80.506224 -0.00163734 " transform="matrix(0.985326, 0, 0, -0.985326, 4.202461, 41.322605)"/>
<path fill-rule="nonzero" fill="rgb(100%, 100%, 100%)" fill-opacity="1" stroke-width="0.44832" stroke-linecap="butt" stroke-linejoin="miter" stroke="rgb(18.429565%, 22.744751%, 27.059937%)" stroke-opacity="1" stroke-miterlimit="10" d="M 80.506224 9.635876 L 80.506224 19.277355 L 90.143737 19.277355 L 90.143737 9.635876 Z M 80.506224 9.635876 " transform="matrix(0.985326, 0, 0, -0.985326, 4.202461, 41.322605)"/>
<path fill-rule="nonzero" fill="rgb(100%, 100%, 100%)" fill-opacity="1" stroke-width="0.44832" stroke-linecap="butt" stroke-linejoin="miter" stroke="rgb(18.429565%, 22.744751%, 27.059937%)" stroke-opacity="1" stroke-miterlimit="10" d="M 80.506224 19.277355 L 80.506224 28.914868 L 90.143737 28.914868 L 90.143737 19.277355 Z M 80.506224 19.277355 " transform="matrix(0.985326, 0, 0, -0.985326, 4.202461, 41.322605)"/>
<path fill-rule="nonzero" fill="rgb(100%, 100%, 100%)" fill-opacity="1" stroke-width="0.44832" stroke-linecap="butt" stroke-linejoin="miter" stroke="rgb(18.429565%, 22.744751%, 27.059937%)" stroke-opacity="1" stroke-miterlimit="10" d="M 80.506224 28.914868 L 80.506224 38.552382 L 90.143737 38.552382 L 90.143737 28.914868 Z M 80.506224 28.914868 " transform="matrix(0.985326, 0, 0, -0.985326, 4.202461, 41.322605)"/>
<path fill-rule="nonzero" fill="rgb(100%, 100%, 100%)" fill-opacity="1" stroke-width="0.44832" stroke-linecap="butt" stroke-linejoin="miter" stroke="rgb(18.429565%, 22.744751%, 27.059937%)" stroke-opacity="1" stroke-miterlimit="10" d="M 106.298764 -0.00163734 L 106.298764 9.635876 L 115.940242 9.635876 L 115.940242 -0.00163734 Z M 106.298764 -0.00163734 " transform="matrix(0.985326, 0, 0, -0.985326, 4.202461, 41.322605)"/>
<path fill-rule="nonzero" fill="rgb(100%, 100%, 100%)" fill-opacity="1" stroke-width="0.44832" stroke-linecap="butt" stroke-linejoin="miter" stroke="rgb(18.429565%, 22.744751%, 27.059937%)" stroke-opacity="1" stroke-miterlimit="10" d="M 106.298764 9.635876 L 106.298764 19.277355 L 115.940242 19.277355 L 115.940242 9.635876 Z M 106.298764 9.635876 " transform="matrix(0.985326, 0, 0, -0.985326, 4.202461, 41.322605)"/>
<path fill-rule="nonzero" fill="rgb(100%, 100%, 100%)" fill-opacity="1" stroke-width="0.44832" stroke-linecap="butt" stroke-linejoin="miter" stroke="rgb(18.429565%, 22.744751%, 27.059937%)" stroke-opacity="1" stroke-miterlimit="10" d="M 106.298764 19.277355 L 106.298764 28.914868 L 115.940242 28.914868 L 115.940242 19.277355 Z M 106.298764 19.277355 " transform="matrix(0.985326, 0, 0, -0.985326, 4.202461, 41.322605)"/>
<path fill-rule="nonzero" fill="rgb(100%, 100%, 100%)" fill-opacity="1" stroke-width="0.44832" stroke-linecap="butt" stroke-linejoin="miter" stroke="rgb(18.429565%, 22.744751%, 27.059937%)" stroke-opacity="1" stroke-miterlimit="10" d="M 106.298764 28.914868 L 106.298764 38.552382 L 115.940242 38.552382 L 115.940242 28.914868 Z M 106.298764 28.914868 " transform="matrix(0.985326, 0, 0, -0.985326, 4.202461, 41.322605)"/>
<path fill-rule="nonzero" fill="rgb(100%, 100%, 100%)" fill-opacity="1" stroke-width="0.44832" stroke-linecap="butt" stroke-linejoin="miter" stroke="rgb(18.429565%, 22.744751%, 27.059937%)" stroke-opacity="1" stroke-miterlimit="10" d="M 115.940242 -0.00163734 L 115.940242 9.635876 L 125.577756 9.635876 L 125.577756 -0.00163734 Z M 115.940242 -0.00163734 " transform="matrix(0.985326, 0, 0, -0.985326, 4.202461, 41.322605)"/>
<path fill-rule="nonzero" fill="rgb(100%, 100%, 100%)" fill-opacity="1" stroke-width="0.44832" stroke-linecap="butt" stroke-linejoin="miter" stroke="rgb(18.429565%, 22.744751%, 27.059937%)" stroke-opacity="1" stroke-miterlimit="10" d="M 115.940242 9.635876 L 115.940242 19.277355 L 125.577756 19.277355 L 125.577756 9.635876 Z M 115.940242 9.635876 " transform="matrix(0.985326, 0, 0, -0.985326, 4.202461, 41.322605)"/>
<path fill-rule="nonzero" fill="rgb(100%, 100%, 100%)" fill-opacity="1" stroke-width="0.44832" stroke-linecap="butt" stroke-linejoin="miter" stroke="rgb(18.429565%, 22.744751%, 27.059937%)" stroke-opacity="1" stroke-miterlimit="10" d="M 115.940242 19.277355 L 115.940242 28.914868 L 125.577756 28.914868 L 125.577756 19.277355 Z M 115.940242 19.277355 " transform="matrix(0.985326, 0, 0, -0.985326, 4.202461, 41.322605)"/>
<path fill-rule="nonzero" fill="rgb(100%, 100%, 100%)" fill-opacity="1" stroke-width="0.44832" stroke-linecap="butt" stroke-linejoin="miter" stroke="rgb(18.429565%, 22.744751%, 27.059937%)" stroke-opacity="1" stroke-miterlimit="10" d="M 115.940242 28.914868 L 115.940242 38.552382 L 125.577756 38.552382 L 125.577756 28.914868 Z M 115.940242 28.914868 " transform="matrix(0.985326, 0, 0, -0.985326, 4.202461, 41.322605)"/>
<path fill-rule="nonzero" fill="rgb(100%, 100%, 100%)" fill-opacity="1" stroke-width="0.44832" stroke-linecap="butt" stroke-linejoin="miter" stroke="rgb(18.429565%, 22.744751%, 27.059937%)" stroke-opacity="1" stroke-miterlimit="10" d="M 141.732782 -0.00163734 L 141.732782 9.635876 L 151.370296 9.635876 L 151.370296 -0.00163734 Z M 141.732782 -0.00163734 " transform="matrix(0.985326, 0, 0, -0.985326, 4.202461, 41.322605)"/>
<path fill-rule="nonzero" fill="rgb(100%, 100%, 100%)" fill-opacity="1" stroke-width="0.44832" stroke-linecap="butt" stroke-linejoin="miter" stroke="rgb(18.429565%, 22.744751%, 27.059937%)" stroke-opacity="1" stroke-miterlimit="10" d="M 141.732782 9.635876 L 141.732782 19.277355 L 151.370296 19.277355 L 151.370296 9.635876 Z M 141.732782 9.635876 " transform="matrix(0.985326, 0, 0, -0.985326, 4.202461, 41.322605)"/>
<path fill-rule="nonzero" fill="rgb(100%, 100%, 100%)" fill-opacity="1" stroke-width="0.44832" stroke-linecap="butt" stroke-linejoin="miter" stroke="rgb(18.429565%, 22.744751%, 27.059937%)" stroke-opacity="1" stroke-miterlimit="10" d="M 141.732782 19.277355 L 141.732782 28.914868 L 151.370296 28.914868 L 151.370296 19.277355 Z M 141.732782 19.277355 " transform="matrix(0.985326, 0, 0, -0.985326, 4.202461, 41.322605)"/>
<path fill-rule="nonzero" fill="rgb(100%, 100%, 100%)" fill-opacity="1" stroke-width="0.44832" stroke-linecap="butt" stroke-linejoin="miter" stroke="rgb(18.429565%, 22.744751%, 27.059937%)" stroke-opacity="1" stroke-miterlimit="10" d="M 141.732782 28.914868 L 141.732782 38.552382 L 151.370296 38.552382 L 151.370296 28.914868 Z M 141.732782 28.914868 " transform="matrix(0.985326, 0, 0, -0.985326, 4.202461, 41.322605)"/>
<path fill-rule="nonzero" fill="rgb(100%, 100%, 100%)" fill-opacity="1" stroke-width="0.44832" stroke-linecap="butt" stroke-linejoin="miter" stroke="rgb(18.429565%, 22.744751%, 27.059937%)" stroke-opacity="1" stroke-miterlimit="10" d="M 151.370296 -0.00163734 L 151.370296 9.635876 L 161.007809 9.635876 L 161.007809 -0.00163734 Z M 151.370296 -0.00163734 " transform="matrix(0.985326, 0, 0, -0.985326, 4.202461, 41.322605)"/>
<path fill-rule="nonzero" fill="rgb(100%, 100%, 100%)" fill-opacity="1" stroke-width="0.44832" stroke-linecap="butt" stroke-linejoin="miter" stroke="rgb(18.429565%, 22.744751%, 27.059937%)" stroke-opacity="1" stroke-miterlimit="10" d="M 151.370296 9.635876 L 151.370296 19.277355 L 161.007809 19.277355 L 161.007809 9.635876 Z M 151.370296 9.635876 " transform="matrix(0.985326, 0, 0, -0.985326, 4.202461, 41.322605)"/>
<path fill-rule="nonzero" fill="rgb(100%, 100%, 100%)" fill-opacity="1" stroke-width="0.44832" stroke-linecap="butt" stroke-linejoin="miter" stroke="rgb(18.429565%, 22.744751%, 27.059937%)" stroke-opacity="1" stroke-miterlimit="10" d="M 151.370296 19.277355 L 151.370296 28.914868 L 161.007809 28.914868 L 161.007809 19.277355 Z M 151.370296 19.277355 " transform="matrix(0.985326, 0, 0, -0.985326, 4.202461, 41.322605)"/>
<path fill-rule="nonzero" fill="rgb(100%, 100%, 100%)" fill-opacity="1" stroke-width="0.44832" stroke-linecap="butt" stroke-linejoin="miter" stroke="rgb(18.429565%, 22.744751%, 27.059937%)" stroke-opacity="1" stroke-miterlimit="10" d="M 151.370296 28.914868 L 151.370296 38.552382 L 161.007809 38.552382 L 161.007809 28.914868 Z M 151.370296 28.914868 " transform="matrix(0.985326, 0, 0, -0.985326, 4.202461, 41.322605)"/>
<path fill-rule="nonzero" fill="rgb(61.175537%, 78.823853%, 87.449646%)" fill-opacity="1" stroke-width="0.79701" stroke-linecap="butt" stroke-linejoin="miter" stroke="rgb(18.429565%, 22.744751%, 27.059937%)" stroke-opacity="1" stroke-miterlimit="10" d="M 35.434692 -0.00163734 L 35.434692 19.277355 L 54.709719 19.277355 L 54.709719 -0.00163734 Z M 35.434692 -0.00163734 " transform="matrix(0.985326, 0, 0, -0.985326, 4.202461, 41.322605)"/>
<path fill-rule="nonzero" fill="rgb(61.175537%, 78.823853%, 87.449646%)" fill-opacity="1" stroke-width="0.79701" stroke-linecap="butt" stroke-linejoin="miter" stroke="rgb(18.429565%, 22.744751%, 27.059937%)" stroke-opacity="1" stroke-miterlimit="10" d="M 70.86871 9.635876 L 70.86871 28.914868 L 90.143737 28.914868 L 90.143737 9.635876 Z M 70.86871 9.635876 " transform="matrix(0.985326, 0, 0, -0.985326, 4.202461, 41.322605)"/>
<path fill-rule="nonzero" fill="rgb(61.175537%, 78.823853%, 87.449646%)" fill-opacity="1" stroke-width="0.79701" stroke-linecap="butt" stroke-linejoin="miter" stroke="rgb(18.429565%, 22.744751%, 27.059937%)" stroke-opacity="1" stroke-miterlimit="10" d="M 106.298764 19.277355 L 106.298764 38.552382 L 125.577756 38.552382 L 125.577756 19.277355 Z M 106.298764 19.277355 " transform="matrix(0.985326, 0, 0, -0.985326, 4.202461, 41.322605)"/>
<path fill-rule="nonzero" fill="rgb(61.175537%, 78.823853%, 87.449646%)" fill-opacity="1" stroke-width="0.79701" stroke-linecap="butt" stroke-linejoin="miter" stroke="rgb(18.429565%, 22.744751%, 27.059937%)" stroke-opacity="1" stroke-miterlimit="10" d="M 141.732782 -0.00163734 L 141.732782 19.277355 L 161.007809 19.277355 L 161.007809 -0.00163734 Z M 141.732782 -0.00163734 " transform="matrix(0.985326, 0, 0, -0.985326, 4.202461, 41.322605)"/>
<path fill-rule="nonzero" fill="rgb(61.175537%, 78.823853%, 87.449646%)" fill-opacity="1" stroke-width="0.79701" stroke-linecap="butt" stroke-linejoin="miter" stroke="rgb(18.429565%, 22.744751%, 27.059937%)" stroke-opacity="1" stroke-miterlimit="10" d="M 141.732782 19.277355 L 141.732782 38.552382 L 161.007809 38.552382 L 161.007809 19.277355 Z M 141.732782 19.277355 " transform="matrix(0.985326, 0, 0, -0.985326, 4.202461, 41.322605)"/>
</svg>
